<svg width="80" height="80" viewBox="0 0 80 80" fill="none" xmlns="http://www.w3.org/2000/svg">
<circle cx="40" cy="40" r="40" fill="#8FBAAD"/>
<circle cx="40" cy="40" r="37.5" stroke="white" stroke-opacity="0.3" stroke-width="5"/>
<g clip-path="url(#clip0)" filter="url(#filter0_d)">
<path d="M61.5704 26.196V51.5177C61.5704 53.6691 59.7203 55.4134 57.4382 55.4134H22.3148C20.0327 55.4134 18.1826 53.6692 18.1826 51.5177V26.196C18.1826 24.0445 20.0326 22.3003 22.3148 22.3003H57.4383C59.7204 22.3003 61.5704 24.0445 61.5704 26.196Z" fill="#F2EFE2"/>
<path d="M40.9095 31.0654C40.9095 37.5199 35.3594 42.7523 28.513 42.7523C21.6666 42.7523 16.1165 37.5199 16.1165 31.0654C16.1165 24.6108 21.6666 19.3784 28.513 19.3784C35.3594 19.3784 40.9095 24.6108 40.9095 31.0654Z" fill="#E8BA52"/>
<path d="M38.8435 31.0655C38.8435 36.4442 34.2184 40.8046 28.5131 40.8046C22.8078 40.8046 18.1826 36.4442 18.1826 31.0655C18.1826 25.6868 22.8077 21.3264 28.513 21.3264C34.2183 21.3264 38.8435 25.6868 38.8435 31.0655Z" fill="#ECDBAC"/>
<path d="M34.4162 31.0655C34.4162 34.1391 31.7732 36.6308 28.513 36.6308C25.2528 36.6308 22.6099 34.1391 22.6099 31.0655C22.6099 27.9919 25.2528 25.5002 28.513 25.5002C31.7732 25.5002 34.4162 27.9919 34.4162 31.0655Z" fill="#EEDA5F"/>
<path d="M30.7635 25.1387V23.2742C30.7635 22.8708 30.4166 22.5437 29.9887 22.5437C29.5609 22.5437 29.2139 22.8708 29.2139 23.2742V24.8046C28.9835 24.7819 28.7497 24.7698 28.5129 24.7698C28.2761 24.7698 28.0424 24.7819 27.8119 24.8046V23.2742C27.8119 22.8708 27.465 22.5437 27.0371 22.5437C26.6092 22.5437 26.2623 22.8708 26.2623 23.2742V25.1386C23.6842 26.0113 21.835 28.3383 21.835 31.0654C21.835 33.7925 23.6842 36.1195 26.2623 36.9922V38.8567C26.2623 39.2601 26.6092 39.5871 27.0371 39.5871C27.465 39.5871 27.8119 39.2601 27.8119 38.8567V37.3262C28.0424 37.349 28.2761 37.361 28.5129 37.361C28.7497 37.361 28.9835 37.349 29.2139 37.3262V38.8567C29.2139 39.2601 29.5609 39.5871 29.9887 39.5871C30.4166 39.5871 30.7635 39.2601 30.7635 38.8567V36.9922C33.3416 36.1195 35.1909 33.7925 35.1909 31.0654C35.1909 28.3383 33.3416 26.0114 30.7635 25.1387ZM26.2623 35.4087C24.5597 34.6213 23.3846 32.9706 23.3846 31.0655C23.3846 29.1604 24.5597 27.5097 26.2623 26.7224V35.4087ZM29.2139 35.8539C28.9846 35.8836 28.7508 35.9003 28.5129 35.9003C28.275 35.9003 28.0413 35.8838 27.8119 35.8539V26.2771C28.0412 26.2474 28.275 26.2307 28.5129 26.2307C28.7508 26.2307 28.9845 26.2472 29.2139 26.2771V35.8539ZM30.7635 35.4087V26.7224C32.4661 27.5097 33.6413 29.1605 33.6413 31.0655C33.6413 32.9706 32.4661 34.6213 30.7635 35.4087Z" fill="#266150"/>
<path d="M36.7773 38.1826H61.5703C62.7114 38.1826 63.6364 39.0546 63.6364 40.1305V59.3091C63.6364 60.3849 62.7114 61.2569 61.5703 61.2569H36.7773C35.6361 61.2569 34.7112 60.3849 34.7112 59.3091V40.1305C34.7112 39.0546 35.6361 38.1826 36.7773 38.1826Z" fill="#266150"/>
<path d="M45.8363 43.4265C45.8363 44.5851 44.8402 45.5242 43.6113 45.5242C42.3825 45.5242 41.3862 44.5851 41.3862 43.4265C41.3862 42.268 42.3824 41.3289 43.6113 41.3289C44.8402 41.3289 45.8363 42.268 45.8363 43.4265ZM54.7364 41.3289C53.5075 41.3289 52.5114 42.268 52.5114 43.4265C52.5114 44.5851 53.5075 45.5242 54.7364 45.5242C55.9652 45.5242 56.9615 44.5851 56.9615 43.4265C56.9615 42.268 55.9653 41.3289 54.7364 41.3289Z" fill="#1F7E63"/>
<path d="M55.5111 37.1338V43.4267C55.5111 43.8301 55.1642 44.1571 54.7363 44.1571C54.3084 44.1571 53.9615 43.8301 53.9615 43.4267V37.1338C53.9615 34.6449 51.8137 32.6201 49.1738 32.6201C46.5338 32.6201 44.386 34.6449 44.386 37.1338V43.4267C44.386 43.8301 44.0391 44.1571 43.6112 44.1571C43.1834 44.1571 42.8364 43.8301 42.8364 43.4267V37.1338C42.8364 33.8394 45.6794 31.1592 49.1738 31.1592C52.6681 31.1592 55.5111 33.8394 55.5111 37.1338Z" fill="#50D0AB"/>
<path d="M62.3451 25.9451V34.7104C62.3451 35.1137 61.9982 35.4408 61.5703 35.4408C61.1424 35.4408 60.7955 35.1137 60.7955 34.7104V25.9451C60.7955 24.1999 59.2894 22.7799 57.4381 22.7799H48.1774V25.3102C48.1774 25.4121 48.1229 25.5099 48.0262 25.5819C47.8244 25.732 47.4974 25.732 47.2958 25.5819L43.2782 22.5929C42.8748 22.2928 42.8748 21.8062 43.2782 21.506L47.2958 18.5171C47.4975 18.367 47.8245 18.367 48.0262 18.5171C48.1231 18.5892 48.1774 18.6869 48.1774 18.7888V21.319H57.4381C60.1438 21.319 62.3451 23.3943 62.3451 25.9451ZM36.4747 55.1204L32.4572 52.1314C32.2554 51.9814 31.9284 51.9814 31.7267 52.1314C31.6298 52.2035 31.5754 52.3013 31.5754 52.4031V54.9334H22.3147C20.4635 54.9334 18.9573 53.5135 18.9573 51.7682V43.003C18.9573 42.5996 18.6104 42.2725 18.1825 42.2725C17.7546 42.2725 17.4077 42.5996 17.4077 43.003V51.7682C17.4077 54.319 19.609 56.3943 22.3147 56.3943H31.5754V58.9246C31.5754 59.0264 31.6299 59.1243 31.7267 59.1963C31.9285 59.3463 32.2555 59.3463 32.4572 59.1963L36.4747 56.2074C36.8781 55.9071 36.8781 55.4205 36.4747 55.1204Z" fill="#F7931A"/>
</g>
<defs>
<filter id="filter0_d" x="12.1165" y="17.4307" width="55.52" height="52.8" filterUnits="userSpaceOnUse" color-interpolation-filters="sRGB">
<feFlood flood-opacity="0" result="BackgroundImageFix"/>
<feColorMatrix in="SourceAlpha" type="matrix" values="0 0 0 0 0 0 0 0 0 0 0 0 0 0 0 0 0 0 127 0" result="hardAlpha"/>
<feOffset dy="4"/>
<feGaussianBlur stdDeviation="2"/>
<feComposite in2="hardAlpha" operator="out"/>
<feColorMatrix type="matrix" values="0 0 0 0 0 0 0 0 0 0 0 0 0 0 0 0 0 0 0.25 0"/>
<feBlend mode="normal" in2="BackgroundImageFix" result="effect1_dropShadow"/>
<feBlend mode="normal" in="SourceGraphic" in2="effect1_dropShadow" result="shape"/>
</filter>
<clipPath id="clip0">
<rect width="47.52" height="44.8" fill="white" transform="translate(16.1165 17.4307)"/>
</clipPath>
</defs>
</svg>
