<svg width="268" height="174" viewBox="0 0 268 174" fill="none" xmlns="http://www.w3.org/2000/svg">
<g filter="url(#filter0_d)">
<rect x="4" width="260" height="166" rx="10" fill="#A3C9BE"/>
<ellipse cx="179.499" cy="80.3702" rx="57.0846" ry="57.3702" fill="#8FBAAD"/>
<path d="M231.583 80.3702C231.583 109.317 208.241 132.74 179.499 132.74C150.757 132.74 127.414 109.317 127.414 80.3702C127.414 51.4234 150.757 28 179.499 28C208.241 28 231.583 51.4234 231.583 80.3702Z" stroke="white" stroke-opacity="0.3" stroke-width="10"/>
<g clip-path="url(#clip0)" filter="url(#filter1_d)">
<path d="M202.353 67.6988V104.017C202.353 107.102 199.712 109.604 196.455 109.604H146.33C143.073 109.604 140.433 107.102 140.433 104.017V67.6988C140.433 64.6131 143.073 62.1115 146.33 62.1115H196.456C199.712 62.1115 202.353 64.6131 202.353 67.6988Z" fill="#F2EFE2"/>
<path d="M172.867 74.6829C172.867 83.9404 164.946 91.445 155.176 91.445C145.405 91.445 137.484 83.9404 137.484 74.6829C137.484 65.4255 145.405 57.9209 155.176 57.9209C164.946 57.9209 172.867 65.4255 172.867 74.6829Z" fill="#E8BA52"/>
<path d="M169.919 74.683C169.919 82.3974 163.318 88.6513 155.176 88.6513C147.034 88.6513 140.433 82.3974 140.433 74.683C140.433 66.9685 147.034 60.7146 155.176 60.7146C163.318 60.7146 169.919 66.9685 169.919 74.683Z" fill="#ECDBAC"/>
<path d="M163.6 74.6829C163.6 79.0913 159.828 82.6649 155.175 82.6649C150.523 82.6649 146.751 79.0913 146.751 74.6829C146.751 70.2746 150.523 66.7009 155.175 66.7009C159.828 66.7009 163.6 70.2746 163.6 74.6829Z" fill="#EEDA5F"/>
<path d="M158.388 66.1824V63.5082C158.388 62.9297 157.892 62.4606 157.282 62.4606C156.671 62.4606 156.176 62.9297 156.176 63.5082V65.7033C155.847 65.6707 155.514 65.6533 155.176 65.6533C154.838 65.6533 154.504 65.6707 154.175 65.7033V63.5082C154.175 62.9297 153.68 62.4606 153.07 62.4606C152.459 62.4606 151.964 62.9297 151.964 63.5082V66.1823C148.285 67.434 145.646 70.7715 145.646 74.6829C145.646 78.5942 148.285 81.9317 151.964 83.1834V85.8575C151.964 86.4361 152.459 86.9052 153.07 86.9052C153.68 86.9052 154.175 86.4361 154.175 85.8575V83.6625C154.504 83.6951 154.838 83.7124 155.176 83.7124C155.514 83.7124 155.847 83.6951 156.176 83.6625V85.8575C156.176 86.4361 156.671 86.9052 157.282 86.9052C157.892 86.9052 158.388 86.4361 158.388 85.8575V83.1834C162.067 81.9317 164.706 78.5942 164.706 74.6829C164.706 70.7715 162.067 67.4342 158.388 66.1824ZM151.964 80.9122C149.534 79.783 147.857 77.4155 147.857 74.683C147.857 71.9506 149.534 69.583 151.964 68.4538V80.9122ZM156.176 81.5508C155.849 81.5934 155.515 81.6174 155.176 81.6174C154.836 81.6174 154.503 81.5936 154.175 81.5508V67.8152C154.503 67.7726 154.836 67.7487 155.176 67.7487C155.515 67.7487 155.849 67.7724 156.176 67.8152V81.5508ZM158.388 80.9122V68.4538C160.817 69.583 162.494 71.9507 162.494 74.683C162.494 77.4153 160.817 79.783 158.388 80.9122Z" fill="#266150"/>
<path d="M166.97 84.8906H202.353C203.981 84.8906 205.301 86.1413 205.301 87.6843V115.191C205.301 116.734 203.981 117.985 202.353 117.985H166.97C165.342 117.985 164.021 116.734 164.021 115.191V87.6843C164.021 86.1413 165.342 84.8906 166.97 84.8906Z" fill="#266150"/>
<path d="M179.898 92.412C179.898 94.0737 178.477 95.4207 176.723 95.4207C174.969 95.4207 173.547 94.0737 173.547 92.412C173.547 90.7504 174.969 89.4034 176.723 89.4034C178.477 89.4034 179.898 90.7504 179.898 92.412ZM192.6 89.4034C190.846 89.4034 189.424 90.7504 189.424 92.412C189.424 94.0737 190.846 95.4207 192.6 95.4207C194.353 95.4207 195.775 94.0737 195.775 92.412C195.775 90.7504 194.353 89.4034 192.6 89.4034Z" fill="#1F7E63"/>
<path d="M193.705 83.3863V92.412C193.705 92.9905 193.21 93.4596 192.6 93.4596C191.989 93.4596 191.494 92.9905 191.494 92.412V83.3863C191.494 79.8167 188.429 76.9126 184.661 76.9126C180.894 76.9126 177.829 79.8167 177.829 83.3863V92.412C177.829 92.9905 177.334 93.4596 176.723 93.4596C176.112 93.4596 175.617 92.9905 175.617 92.412V83.3863C175.617 78.6614 179.674 74.8173 184.661 74.8173C189.648 74.8173 193.705 78.6614 193.705 83.3863Z" fill="#50D0AB"/>
<path d="M203.458 67.3392V79.9107C203.458 80.4893 202.963 80.9584 202.352 80.9584C201.742 80.9584 201.247 80.4893 201.247 79.9107V67.3392C201.247 64.836 199.097 62.7994 196.455 62.7994H183.239V66.4286C183.239 66.5747 183.161 66.715 183.023 66.8182C182.735 67.0335 182.269 67.0335 181.981 66.8182L176.247 62.5313C175.672 62.1008 175.672 61.4029 176.247 60.9723L181.981 56.6855C182.269 56.4702 182.735 56.4702 183.023 56.6855C183.162 56.7889 183.239 56.9291 183.239 57.0751V60.7041H196.455C200.316 60.7041 203.458 63.6807 203.458 67.3392ZM166.538 109.184L160.804 104.897C160.516 104.682 160.05 104.682 159.762 104.897C159.624 105 159.546 105.141 159.546 105.287V108.916H146.33C143.688 108.916 141.539 106.879 141.539 104.376V91.8045C141.539 91.226 141.043 90.7568 140.433 90.7568C139.822 90.7568 139.327 91.226 139.327 91.8045V104.376C139.327 108.035 142.469 111.011 146.33 111.011H159.546V114.64C159.546 114.786 159.624 114.926 159.762 115.03C160.05 115.245 160.517 115.245 160.804 115.03L166.538 110.743C167.114 110.312 167.114 109.614 166.538 109.184Z" fill="#F7931A"/>
</g>
<ellipse cx="46.8338" cy="129.938" rx="22.8338" ry="22.9481" fill="#A9CAC0"/>
<ellipse cx="225.166" cy="49.1607" rx="22.8338" ry="22.9481" fill="#A9CAC0"/>
<path d="M245.5 49.1607C245.5 60.4657 236.384 69.6088 225.166 69.6088C213.948 69.6088 204.832 60.4657 204.832 49.1607C204.832 37.8558 213.948 28.7126 225.166 28.7126C236.384 28.7126 245.5 37.8558 245.5 49.1607Z" stroke="#FFF9F9" stroke-opacity="0.3" stroke-width="5"/>
<ellipse cx="72.408" cy="83.8124" rx="3.42508" ry="3.44221" fill="#A3C9BE"/>
<ellipse cx="151.641" cy="145.313" rx="3.42508" ry="3.44221" fill="#266150" fill-opacity="0.3"/>
<ellipse cx="28.11" cy="53.9797" rx="2.28338" ry="2.29481" fill="#A3C9BE"/>
<g filter="url(#filter2_d)">
<path d="M38.7344 142V124.938H44.582C46.5117 124.938 47.9805 125.324 48.9883 126.098C49.9961 126.871 50.5 128.023 50.5 129.555C50.5 130.336 50.2891 131.039 49.8672 131.664C49.4453 132.289 48.8281 132.773 48.0156 133.117C48.9375 133.367 49.6484 133.84 50.1484 134.535C50.6562 135.223 50.9102 136.051 50.9102 137.02C50.9102 138.621 50.3945 139.852 49.3633 140.711C48.3398 141.57 46.8711 142 44.957 142H38.7344ZM41.6992 134.301V139.633H44.9922C45.9219 139.633 46.6484 139.402 47.1719 138.941C47.6953 138.48 47.957 137.84 47.957 137.02C47.957 135.246 47.0508 134.34 45.2383 134.301H41.6992ZM41.6992 132.121H44.6055C45.5273 132.121 46.2461 131.914 46.7617 131.5C47.2852 131.078 47.5469 130.484 47.5469 129.719C47.5469 128.875 47.3047 128.266 46.8203 127.891C46.3438 127.516 45.5977 127.328 44.582 127.328H41.6992V132.121ZM61.2812 140.758C60.4453 141.742 59.2578 142.234 57.7188 142.234C56.3438 142.234 55.3008 141.832 54.5898 141.027C53.8867 140.223 53.5352 139.059 53.5352 137.535V129.32H56.3828V137.5C56.3828 139.109 57.0508 139.914 58.3867 139.914C59.7695 139.914 60.7031 139.418 61.1875 138.426V129.32H64.0352V142H61.3516L61.2812 140.758ZM71.3711 137.922L73.9492 129.32H76.9844L71.9453 143.922C71.1719 146.055 69.8594 147.121 68.0078 147.121C67.5938 147.121 67.1367 147.051 66.6367 146.91V144.707L67.1758 144.742C67.8945 144.742 68.4336 144.609 68.793 144.344C69.1602 144.086 69.4492 143.648 69.6602 143.031L70.0703 141.941L65.6172 129.32H68.6875L71.3711 137.922ZM84.1562 137.395C84.1562 136.605 84.3711 135.883 84.8008 135.227C85.2305 134.562 86.0781 133.777 87.3438 132.871C86.6797 132.035 86.2148 131.324 85.9492 130.738C85.6914 130.152 85.5625 129.586 85.5625 129.039C85.5625 127.703 85.9688 126.648 86.7812 125.875C87.5938 125.094 88.6875 124.703 90.0625 124.703C91.3047 124.703 92.3203 125.07 93.1094 125.805C93.9062 126.531 94.3047 127.434 94.3047 128.512C94.3047 129.223 94.125 129.879 93.7656 130.48C93.4062 131.074 92.8164 131.668 91.9961 132.262L90.8359 133.105L94.1289 136.996C94.6055 136.059 94.8438 135.016 94.8438 133.867H97.3164C97.3164 135.969 96.8242 137.691 95.8398 139.035L98.3477 142H95.043L94.082 140.863C92.8633 141.777 91.4102 142.234 89.7227 142.234C88.0352 142.234 86.6836 141.789 85.668 140.898C84.6602 140 84.1562 138.832 84.1562 137.395ZM89.8047 139.961C90.7656 139.961 91.6641 139.641 92.5 139L88.7734 134.605L88.4102 134.863C87.4727 135.574 87.0039 136.387 87.0039 137.301C87.0039 138.09 87.2578 138.73 87.7656 139.223C88.2734 139.715 88.9531 139.961 89.8047 139.961ZM88.2344 128.969C88.2344 129.625 88.6367 130.449 89.4414 131.441L90.7422 130.551L91.1055 130.258C91.5898 129.828 91.832 129.277 91.832 128.605C91.832 128.16 91.6641 127.781 91.3281 127.469C90.9922 127.148 90.5664 126.988 90.0508 126.988C89.4961 126.988 89.0547 127.176 88.7266 127.551C88.3984 127.926 88.2344 128.398 88.2344 128.969ZM115.129 137.605C115.129 136.855 114.863 136.277 114.332 135.871C113.809 135.465 112.859 135.055 111.484 134.641C110.109 134.227 109.016 133.766 108.203 133.258C106.648 132.281 105.871 131.008 105.871 129.438C105.871 128.062 106.43 126.93 107.547 126.039C108.672 125.148 110.129 124.703 111.918 124.703C113.105 124.703 114.164 124.922 115.094 125.359C116.023 125.797 116.754 126.422 117.285 127.234C117.816 128.039 118.082 128.934 118.082 129.918H115.129C115.129 129.027 114.848 128.332 114.285 127.832C113.73 127.324 112.934 127.07 111.895 127.07C110.926 127.07 110.172 127.277 109.633 127.691C109.102 128.105 108.836 128.684 108.836 129.426C108.836 130.051 109.125 130.574 109.703 130.996C110.281 131.41 111.234 131.816 112.562 132.215C113.891 132.605 114.957 133.055 115.762 133.562C116.566 134.062 117.156 134.641 117.531 135.297C117.906 135.945 118.094 136.707 118.094 137.582C118.094 139.004 117.547 140.137 116.453 140.98C115.367 141.816 113.891 142.234 112.023 142.234C110.789 142.234 109.652 142.008 108.613 141.555C107.582 141.094 106.777 140.461 106.199 139.656C105.629 138.852 105.344 137.914 105.344 136.844H108.309C108.309 137.812 108.629 138.562 109.27 139.094C109.91 139.625 110.828 139.891 112.023 139.891C113.055 139.891 113.828 139.684 114.344 139.27C114.867 138.848 115.129 138.293 115.129 137.605ZM126.004 142.234C124.199 142.234 122.734 141.668 121.609 140.535C120.492 139.395 119.934 137.879 119.934 135.988V135.637C119.934 134.371 120.176 133.242 120.66 132.25C121.152 131.25 121.84 130.473 122.723 129.918C123.605 129.363 124.59 129.086 125.676 129.086C127.402 129.086 128.734 129.637 129.672 130.738C130.617 131.84 131.09 133.398 131.09 135.414V136.562H122.805C122.891 137.609 123.238 138.438 123.848 139.047C124.465 139.656 125.238 139.961 126.168 139.961C127.473 139.961 128.535 139.434 129.355 138.379L130.891 139.844C130.383 140.602 129.703 141.191 128.852 141.613C128.008 142.027 127.059 142.234 126.004 142.234ZM125.664 131.371C124.883 131.371 124.25 131.645 123.766 132.191C123.289 132.738 122.984 133.5 122.852 134.477H128.277V134.266C128.215 133.312 127.961 132.594 127.516 132.109C127.07 131.617 126.453 131.371 125.664 131.371ZM136.34 142H133.492V124H136.34V142ZM142.48 142H139.633V124H142.48V142Z" fill="white"/>
</g>
</g>
<defs>
<filter id="filter0_d" x="0" y="0" width="268" height="174" filterUnits="userSpaceOnUse" color-interpolation-filters="sRGB">
<feFlood flood-opacity="0" result="BackgroundImageFix"/>
<feColorMatrix in="SourceAlpha" type="matrix" values="0 0 0 0 0 0 0 0 0 0 0 0 0 0 0 0 0 0 127 0" result="hardAlpha"/>
<feOffset dy="4"/>
<feGaussianBlur stdDeviation="2"/>
<feComposite in2="hardAlpha" operator="out"/>
<feColorMatrix type="matrix" values="0 0 0 0 0 0 0 0 0 0 0 0 0 0 0 0 0 0 0.25 0"/>
<feBlend mode="normal" in2="BackgroundImageFix" result="effect1_dropShadow"/>
<feBlend mode="normal" in="SourceGraphic" in2="effect1_dropShadow" result="shape"/>
</filter>
<filter id="filter1_d" x="133.484" y="55.1272" width="75.8165" height="72.2546" filterUnits="userSpaceOnUse" color-interpolation-filters="sRGB">
<feFlood flood-opacity="0" result="BackgroundImageFix"/>
<feColorMatrix in="SourceAlpha" type="matrix" values="0 0 0 0 0 0 0 0 0 0 0 0 0 0 0 0 0 0 127 0" result="hardAlpha"/>
<feOffset dy="4"/>
<feGaussianBlur stdDeviation="2"/>
<feComposite in2="hardAlpha" operator="out"/>
<feColorMatrix type="matrix" values="0 0 0 0 0 0 0 0 0 0 0 0 0 0 0 0 0 0 0.25 0"/>
<feBlend mode="normal" in2="BackgroundImageFix" result="effect1_dropShadow"/>
<feBlend mode="normal" in="SourceGraphic" in2="effect1_dropShadow" result="shape"/>
</filter>
<filter id="filter2_d" x="34.7344" y="124" width="111.746" height="31.1211" filterUnits="userSpaceOnUse" color-interpolation-filters="sRGB">
<feFlood flood-opacity="0" result="BackgroundImageFix"/>
<feColorMatrix in="SourceAlpha" type="matrix" values="0 0 0 0 0 0 0 0 0 0 0 0 0 0 0 0 0 0 127 0" result="hardAlpha"/>
<feOffset dy="4"/>
<feGaussianBlur stdDeviation="2"/>
<feComposite in2="hardAlpha" operator="out"/>
<feColorMatrix type="matrix" values="0 0 0 0 0 0 0 0 0 0 0 0 0 0 0 0 0 0 0.25 0"/>
<feBlend mode="normal" in2="BackgroundImageFix" result="effect1_dropShadow"/>
<feBlend mode="normal" in="SourceGraphic" in2="effect1_dropShadow" result="shape"/>
</filter>
<clipPath id="clip0">
<rect width="67.8165" height="64.2546" fill="white" transform="translate(137.484 55.1272)"/>
</clipPath>
</defs>
</svg>
