<svg width="80" height="80" viewBox="0 0 80 80" fill="none" xmlns="http://www.w3.org/2000/svg">
<circle cx="40" cy="40" r="40" fill="#8FBAAD"/>
<circle cx="40" cy="40" r="37.5" stroke="white" stroke-opacity="0.3" stroke-width="5"/>
<g clip-path="url(#clip0)">
<path d="M46.4505 20.0359L35.6347 17.3743L32.9769 19.3714C32.1422 18.2405 31.7017 16.9247 31.7017 15.5664V13.3765C31.7017 12.1514 32.8039 11.1555 34.1598 11.1555C35.5157 11.1555 36.6179 12.1514 36.6179 13.3765V14.2648C36.6179 14.5091 36.839 14.7091 37.1096 14.7091C37.3801 14.7091 37.6013 14.5093 37.6013 14.2648V13.3765C37.6013 12.1514 38.7035 11.1555 40.0594 11.1555C41.4153 11.1555 42.5175 12.1514 42.5175 13.3765V14.2648C42.5175 14.5091 42.7387 14.7091 43.0092 14.7091C43.2797 14.7091 43.5009 14.5093 43.5009 14.2648V13.3765C43.5009 12.1514 44.6031 11.1555 45.959 11.1555C47.3149 11.1555 48.4171 12.1514 48.4171 13.3765V15.5664C48.4171 16.9247 47.9766 18.2414 47.1418 19.3714L46.4505 20.0359Z" fill="#F9BA48"/>
<path d="M30.9504 33.362L28.9838 32.4737H25.802V19.1477H18.9192V36.0272H25.802V34.2504H28.5197L30.4863 35.1387H31.7016V33.3618L30.9504 33.362ZM23.8354 34.2505H20.8858V20.9244H23.8356V34.2505H23.8354Z" fill="#266150"/>
<path d="M40.5578 52.9104C40.3798 52.9104 40.2027 52.9076 40.0238 52.9007C33.3867 52.659 27.8895 47.5765 27.7705 41.5718C27.7085 38.4748 28.9917 35.5459 31.382 33.3256C33.4901 31.3667 34.6512 28.9228 34.6512 26.4458L39.5674 23.5933L41.5341 25.3701V34.2505H48.4169L49.5682 33.1808C51.9969 35.3627 53.3331 38.2669 53.3331 41.3613C53.3331 44.5347 51.9378 47.4931 49.4039 49.6919C47.0011 51.7776 43.8764 52.9104 40.5578 52.9104Z" fill="#F9BA48"/>
<path d="M45.4673 39.5807V39.1401C45.4673 37.4254 43.9236 36.0271 42.0258 36.0271H41.5341V34.2502H39.5675V36.0271H39.0758C37.1781 36.0271 35.6345 37.4219 35.6345 39.1364C35.6345 40.8511 37.1783 42.2459 39.0758 42.2459H42.0256C42.8388 42.2459 43.5005 42.8438 43.5005 43.5785C43.5005 44.3133 42.8388 44.9112 42.0256 44.9112H39.076C38.2628 44.9112 37.6011 44.3168 37.6011 43.582V43.1343H35.6345V43.582C35.6345 45.2967 37.1783 46.6879 39.0758 46.6879H39.5675V48.4647H41.5341V46.6879H42.0258C43.9236 46.6879 45.4673 45.293 45.4673 43.5785C45.4673 41.8639 43.9236 40.469 42.0258 40.469H39.076C38.2628 40.469 37.6011 39.8712 37.6011 39.1364C37.6011 38.4017 38.2628 37.8038 39.076 37.8038H42.0258C42.839 37.8038 43.5007 38.4054 43.5007 39.1399V39.5805L45.4673 39.5807Z" fill="white"/>
<path d="M49.6166 23.5932C50.0886 23.1205 50.3835 22.4995 50.3835 21.8147C50.3835 20.3453 49.0601 19.1476 47.4337 19.1476H43.7741L43.0896 18.3747L35.4056 16.3892L29.3792 20.9243H24.8188V22.7012H30.0911L35.8648 18.356L41.9462 19.9266L44.0149 22.2622C44.2883 22.5714 44.4091 22.9588 44.3541 23.3513C44.2991 23.744 44.0748 24.0923 43.7239 24.3294C43.0896 24.7594 42.1881 24.7016 41.6257 24.1944L39.6414 22.4015L34.0379 26.452L35.266 27.8397L39.495 24.7827L40.2345 25.4516C40.3427 25.5494 40.4635 25.6292 40.5826 25.7118C40.6543 26.3603 40.9158 26.7414 41.318 27.1438C40.846 27.6165 40.5511 28.2366 40.5511 28.9215C40.5511 29.6063 40.847 30.2265 41.318 30.6983C40.846 31.171 40.5511 31.7884 40.5511 32.4734C40.5511 33.9445 41.8745 35.1386 43.5009 35.1386H47.4339C49.0601 35.1386 50.3837 33.9445 50.3837 32.4752C50.3837 31.7902 50.0878 31.172 49.6168 30.6993C50.0888 30.2265 50.3837 29.6083 50.3837 28.9224C50.3837 28.2366 50.0878 27.6182 49.6168 27.1455C50.0888 26.6728 50.3837 26.0536 50.3837 25.3686C50.3835 24.6841 50.0876 24.0657 49.6166 23.5932ZM47.4337 33.3619H43.5007C42.9588 33.3619 42.5175 32.963 42.5175 32.4736C42.5175 31.984 42.959 31.5852 43.5007 31.5852H47.4337C47.9756 31.5852 48.4169 31.9842 48.4169 32.4736C48.4171 32.9632 47.9756 33.3619 47.4337 33.3619ZM47.4337 29.8083H43.5007C42.9588 29.8083 42.5175 29.4094 42.5175 28.92C42.5175 28.4304 42.959 28.0316 43.5007 28.0316H47.4337C47.9756 28.0316 48.4169 28.4306 48.4169 28.92C48.4171 29.4096 47.9756 29.8083 47.4337 29.8083ZM47.4337 26.2548H43.7907C44.1831 26.1491 44.5617 25.9837 44.9037 25.752C45.3993 25.4161 45.765 24.9746 46.009 24.4781H47.4337C47.9756 24.4781 48.4169 24.877 48.4169 25.3664C48.4169 25.8558 47.9756 26.2548 47.4337 26.2548ZM47.4337 22.7012H46.2803C46.1899 22.1415 45.9529 21.6084 45.5498 21.1528L45.3473 20.9245H47.4337C47.9756 20.9245 48.4169 21.3234 48.4169 21.8128C48.4171 22.3022 47.9756 22.7012 47.4337 22.7012Z" fill="#266150"/>
<path d="M58.4205 52.9068V55.5721H51.8357L49.1336 53.9446L40.8468 51.2891C40.0582 51.0386 39.2116 51.0892 38.4663 51.4313C37.7199 51.7733 37.1762 52.3596 36.9333 53.0828C36.5135 54.3345 37.1368 55.6893 38.4151 56.3024L40.5438 57.324L37.4485 57.3328L36.1761 54.458C35.7573 53.5163 34.7611 52.9068 33.6364 52.9068C32.7584 52.9068 31.9285 53.2924 31.4161 53.9356C30.9039 54.5806 30.7652 55.4139 31.0455 56.1655L31.3434 56.9632L29.1861 55.898C28.4998 55.5577 27.6797 55.4921 26.9374 55.7185C26.195 55.9424 25.5843 56.4408 25.2618 57.0849C24.6306 58.3446 25.2116 59.8114 26.5844 60.4236L31.4378 62.5876L41.5124 64.439L54.5848 64.4559L58.4205 63.763V66.2328H65.3034V52.9068H58.4205ZM33.0131 54.9724C33.3435 54.5565 34.1399 54.6446 34.3493 55.119L35.3325 57.339L33.5606 57.3444L32.9097 55.5978C32.8301 55.3836 32.8675 55.1562 33.0131 54.9724ZM54.39 62.6792H41.8024L32.1919 60.9423L27.4547 58.8306C27.0387 58.6449 26.8618 58.1999 27.0535 57.8169C27.1529 57.6187 27.3328 57.4713 27.5619 57.4029C27.789 57.3319 28.0329 57.3522 28.2443 57.4579L31.6218 59.1255H40.954L44.834 57.3726L39.3386 54.7333C38.8883 54.5165 38.668 54.0394 38.8154 53.5979C38.9009 53.343 39.0926 53.1351 39.3563 53.0151C39.6189 52.8934 39.9176 52.8775 40.1959 52.9645L48.1466 55.4849L51.24 57.3488H58.4207V61.9507L54.39 62.6792ZM63.3367 64.4559H60.3869V54.6835H63.3367V64.4559Z" fill="#266150"/>
</g>
<defs>
<clipPath id="clip0">
<rect width="60.9621" height="55.0809" fill="white" transform="translate(18.9192 11.1555)"/>
</clipPath>
</defs>
</svg>
