<svg width="268" height="174" viewBox="0 0 268 174" fill="none" xmlns="http://www.w3.org/2000/svg">
<g filter="url(#filter0_d)">
<rect x="4" width="260" height="166" rx="10" fill="#A3C9BE"/>
<ellipse cx="179.499" cy="80.3702" rx="57.0846" ry="57.3702" fill="#8FBAAD"/>
<path d="M231.583 80.3702C231.583 109.317 208.241 132.74 179.499 132.74C150.757 132.74 127.414 109.317 127.414 80.3702C127.414 51.4234 150.757 28 179.499 28C208.241 28 231.583 51.4234 231.583 80.3702Z" stroke="white" stroke-opacity="0.3" stroke-width="10"/>
<path d="M186.548 57.2231L170.226 53.2607L166.215 56.2338C164.955 54.5502 164.291 52.5914 164.291 50.5693V47.3091C164.291 45.4853 165.954 44.0027 168 44.0027C170.046 44.0027 171.71 45.4853 171.71 47.3091V48.6316C171.71 48.9952 172.044 49.293 172.452 49.293C172.86 49.293 173.194 48.9955 173.194 48.6316V47.3091C173.194 45.4853 174.857 44.0027 176.903 44.0027C178.95 44.0027 180.613 45.4853 180.613 47.3091V48.6316C180.613 48.9952 180.947 49.293 181.355 49.293C181.763 49.293 182.097 48.9955 182.097 48.6316V47.3091C182.097 45.4853 183.761 44.0027 185.807 44.0027C187.853 44.0027 189.516 45.4853 189.516 47.3091V50.5693C189.516 52.5914 188.852 54.5516 187.592 56.2338L186.548 57.2231Z" fill="#F9BA48"/>
<path d="M163.157 77.0618L160.189 75.7393H155.387V55.9006H145V81.0295H155.387V78.3843H159.488L162.456 79.7068H164.29V77.0615L163.157 77.0618ZM152.419 78.3845H147.968V58.5456H152.42V78.3845H152.419Z" fill="#266150"/>
<path d="M177.655 106.164C177.387 106.164 177.12 106.16 176.85 106.149C166.833 105.79 158.537 98.2231 158.358 89.2838C158.264 84.6732 160.201 80.3129 163.808 77.0076C166.989 74.0913 168.742 70.453 168.742 66.7655L176.161 62.5188L179.129 65.1641V78.3844H189.516L191.253 76.792C194.919 80.0402 196.935 84.3637 196.935 88.9705C196.935 93.6947 194.829 98.099 191.006 101.372C187.379 104.477 182.664 106.164 177.655 106.164Z" fill="#F9BA48"/>
<path d="M185.065 86.3198V85.6639C185.065 83.1112 182.735 81.0296 179.871 81.0296H179.129V78.3843H176.161V81.0296H175.419C172.555 81.0296 170.226 83.1061 170.226 85.6584C170.226 88.2111 172.555 90.2876 175.419 90.2876H179.871C181.098 90.2876 182.096 91.1777 182.096 92.2715C182.096 93.3653 181.098 94.2554 179.871 94.2554H175.419C174.192 94.2554 173.193 93.3705 173.193 92.2767V91.6101H170.226V92.2767C170.226 94.8294 172.555 96.9004 175.419 96.9004H176.161V99.5457H179.129V96.9004H179.871C182.735 96.9004 185.065 94.8239 185.065 92.2715C185.065 89.7188 182.735 87.6423 179.871 87.6423H175.419C174.192 87.6423 173.193 86.7523 173.193 85.6584C173.193 84.5646 174.192 83.6746 175.419 83.6746H179.871C181.098 83.6746 182.097 84.5701 182.097 85.6636V86.3196L185.065 86.3198Z" fill="white"/>
<path d="M191.326 62.5189C192.039 61.8151 192.484 60.8907 192.484 59.8711C192.484 57.6837 190.487 55.9006 188.032 55.9006H182.509L181.476 54.75L169.88 51.7941L160.786 58.5456H153.903V61.1909H161.86L170.573 54.7221L179.751 57.0603L182.873 60.5374C183.285 60.9978 183.468 61.5745 183.385 62.1588C183.302 62.7434 182.963 63.2619 182.434 63.6149C181.476 64.255 180.116 64.1689 179.267 63.4138L176.273 60.7448L167.816 66.7749L169.67 68.8407L176.052 64.2897L177.168 65.2854C177.331 65.431 177.513 65.5499 177.693 65.6728C177.801 66.6383 178.196 67.2057 178.803 67.8048C178.09 68.5085 177.645 69.4316 177.645 70.4511C177.645 71.4707 178.092 72.3941 178.803 73.0964C178.09 73.8001 177.645 74.7192 177.645 75.739C177.645 77.9291 179.643 79.7067 182.097 79.7067H188.032C190.487 79.7067 192.484 77.9291 192.484 75.7417C192.484 74.7219 192.038 73.8015 191.327 73.0978C192.039 72.3941 192.484 71.4737 192.484 70.4525C192.484 69.4316 192.038 68.511 191.327 67.8072C192.039 67.1035 192.484 66.1818 192.484 65.162C192.484 64.143 192.037 63.2223 191.326 62.5189ZM188.032 77.0617H182.097C181.279 77.0617 180.613 76.4678 180.613 75.7392C180.613 75.0104 181.279 74.4167 182.097 74.4167H188.032C188.85 74.4167 189.516 75.0106 189.516 75.7392C189.516 76.4681 188.85 77.0617 188.032 77.0617ZM188.032 71.7715H182.097C181.279 71.7715 180.613 71.1775 180.613 70.449C180.613 69.7201 181.279 69.1265 182.097 69.1265H188.032C188.85 69.1265 189.516 69.7204 189.516 70.449C189.516 71.1778 188.85 71.7715 188.032 71.7715ZM188.032 66.4812H182.534C183.127 66.3238 183.698 66.0777 184.214 65.7326C184.962 65.2327 185.514 64.5754 185.882 63.8362H188.032C188.85 63.8362 189.516 64.4301 189.516 65.1587C189.516 65.8873 188.85 66.4812 188.032 66.4812ZM188.032 61.1909H186.292C186.155 60.3577 185.797 59.5641 185.189 58.8857L184.883 58.5459H188.032C188.85 58.5459 189.516 59.1398 189.516 59.8684C189.516 60.597 188.85 61.1909 188.032 61.1909Z" fill="#266150"/>
<path d="M204.613 106.159V110.126H194.676L190.598 107.704L178.092 103.75C176.902 103.377 175.624 103.453 174.499 103.962C173.373 104.471 172.552 105.344 172.186 106.421C171.552 108.284 172.493 110.301 174.422 111.214L177.635 112.735L172.963 112.748L171.043 108.468C170.411 107.066 168.908 106.159 167.21 106.159C165.885 106.159 164.633 106.733 163.86 107.69C163.087 108.65 162.877 109.891 163.3 111.01L163.75 112.198L160.494 110.612C159.459 110.105 158.221 110.007 157.101 110.344C155.98 110.678 155.059 111.42 154.572 112.379C153.619 114.254 154.496 116.438 156.568 117.349L163.892 120.571L179.096 123.327L198.824 123.352L204.613 122.321V125.997H215V106.159H204.613ZM166.27 109.234C166.768 108.615 167.97 108.746 168.286 109.452L169.77 112.757L167.096 112.765L166.114 110.165C165.994 109.846 166.05 109.507 166.27 109.234ZM198.53 120.707H179.534L165.031 118.121L157.881 114.977C157.254 114.701 156.987 114.039 157.276 113.468C157.426 113.173 157.697 112.954 158.043 112.852C158.386 112.746 158.754 112.777 159.073 112.934L164.17 115.417H178.254L184.109 112.807L175.816 108.878C175.136 108.555 174.804 107.845 175.026 107.188C175.155 106.808 175.445 106.499 175.842 106.32C176.239 106.139 176.69 106.115 177.11 106.244L189.108 109.997L193.777 112.771H204.613V119.622L198.53 120.707ZM212.032 123.352H207.581V108.804H212.032V123.352Z" fill="#266150"/>
<ellipse cx="46.8338" cy="129.938" rx="22.8338" ry="22.9481" fill="#A9CAC0"/>
<ellipse cx="225.166" cy="49.1607" rx="22.8338" ry="22.9481" fill="#A9CAC0"/>
<path d="M245.5 49.1607C245.5 60.4657 236.384 69.6088 225.166 69.6088C213.948 69.6088 204.832 60.4657 204.832 49.1607C204.832 37.8558 213.948 28.7126 225.166 28.7126C236.384 28.7126 245.5 37.8558 245.5 49.1607Z" stroke="#FFF9F9" stroke-opacity="0.3" stroke-width="5"/>
<ellipse cx="72.408" cy="83.8124" rx="3.42508" ry="3.44221" fill="#A3C9BE"/>
<ellipse cx="151.641" cy="145.313" rx="3.42508" ry="3.44221" fill="#266150" fill-opacity="0.3"/>
<ellipse cx="28.11" cy="53.9799" rx="2.28338" ry="2.29481" fill="#A3C9BE"/>
<g filter="url(#filter1_d)">
<path d="M41.6992 139.633H49.4453V142H38.7344V124.938H41.6992V139.633ZM57.0273 142.234C55.2227 142.234 53.7578 141.668 52.6328 140.535C51.5156 139.395 50.957 137.879 50.957 135.988V135.637C50.957 134.371 51.1992 133.242 51.6836 132.25C52.1758 131.25 52.8633 130.473 53.7461 129.918C54.6289 129.363 55.6133 129.086 56.6992 129.086C58.4258 129.086 59.7578 129.637 60.6953 130.738C61.6406 131.84 62.1133 133.398 62.1133 135.414V136.562H53.8281C53.9141 137.609 54.2617 138.438 54.8711 139.047C55.4883 139.656 56.2617 139.961 57.1914 139.961C58.4961 139.961 59.5586 139.434 60.3789 138.379L61.9141 139.844C61.4062 140.602 60.7266 141.191 59.875 141.613C59.0312 142.027 58.082 142.234 57.0273 142.234ZM56.6875 131.371C55.9062 131.371 55.2734 131.645 54.7891 132.191C54.3125 132.738 54.0078 133.5 53.875 134.477H59.3008V134.266C59.2383 133.312 58.9844 132.594 58.5391 132.109C58.0938 131.617 57.4766 131.371 56.6875 131.371ZM66.9766 129.32L67.0586 130.785C67.9961 129.652 69.2266 129.086 70.75 129.086C73.3906 129.086 74.7344 130.598 74.7812 133.621V142H71.9336V133.785C71.9336 132.98 71.7578 132.387 71.4062 132.004C71.0625 131.613 70.4961 131.418 69.707 131.418C68.5586 131.418 67.7031 131.938 67.1406 132.977V142H64.293V129.32H66.9766ZM77.1602 135.566C77.1602 133.613 77.6133 132.047 78.5195 130.867C79.4258 129.68 80.6406 129.086 82.1641 129.086C83.5078 129.086 84.5938 129.555 85.4219 130.492V124H88.2695V142H85.6914L85.5508 140.688C84.6992 141.719 83.5625 142.234 82.1406 142.234C80.6562 142.234 79.4531 141.637 78.5312 140.441C77.6172 139.246 77.1602 137.621 77.1602 135.566ZM80.0078 135.812C80.0078 137.102 80.2539 138.109 80.7461 138.836C81.2461 139.555 81.9531 139.914 82.8672 139.914C84.0312 139.914 84.8828 139.395 85.4219 138.355V132.941C84.8984 131.926 84.0547 131.418 82.8906 131.418C81.9688 131.418 81.2578 131.785 80.7578 132.52C80.2578 133.246 80.0078 134.344 80.0078 135.812ZM96.7656 137.395C96.7656 136.605 96.9805 135.883 97.4102 135.227C97.8398 134.562 98.6875 133.777 99.9531 132.871C99.2891 132.035 98.8242 131.324 98.5586 130.738C98.3008 130.152 98.1719 129.586 98.1719 129.039C98.1719 127.703 98.5781 126.648 99.3906 125.875C100.203 125.094 101.297 124.703 102.672 124.703C103.914 124.703 104.93 125.07 105.719 125.805C106.516 126.531 106.914 127.434 106.914 128.512C106.914 129.223 106.734 129.879 106.375 130.48C106.016 131.074 105.426 131.668 104.605 132.262L103.445 133.105L106.738 136.996C107.215 136.059 107.453 135.016 107.453 133.867H109.926C109.926 135.969 109.434 137.691 108.449 139.035L110.957 142H107.652L106.691 140.863C105.473 141.777 104.02 142.234 102.332 142.234C100.645 142.234 99.293 141.789 98.2773 140.898C97.2695 140 96.7656 138.832 96.7656 137.395ZM102.414 139.961C103.375 139.961 104.273 139.641 105.109 139L101.383 134.605L101.02 134.863C100.082 135.574 99.6133 136.387 99.6133 137.301C99.6133 138.09 99.8672 138.73 100.375 139.223C100.883 139.715 101.562 139.961 102.414 139.961ZM100.844 128.969C100.844 129.625 101.246 130.449 102.051 131.441L103.352 130.551L103.715 130.258C104.199 129.828 104.441 129.277 104.441 128.605C104.441 128.16 104.273 127.781 103.938 127.469C103.602 127.148 103.176 126.988 102.66 126.988C102.105 126.988 101.664 127.176 101.336 127.551C101.008 127.926 100.844 128.398 100.844 128.969ZM118.82 142V124.938H124.668C126.598 124.938 128.066 125.324 129.074 126.098C130.082 126.871 130.586 128.023 130.586 129.555C130.586 130.336 130.375 131.039 129.953 131.664C129.531 132.289 128.914 132.773 128.102 133.117C129.023 133.367 129.734 133.84 130.234 134.535C130.742 135.223 130.996 136.051 130.996 137.02C130.996 138.621 130.48 139.852 129.449 140.711C128.426 141.57 126.957 142 125.043 142H118.82ZM121.785 134.301V139.633H125.078C126.008 139.633 126.734 139.402 127.258 138.941C127.781 138.48 128.043 137.84 128.043 137.02C128.043 135.246 127.137 134.34 125.324 134.301H121.785ZM121.785 132.121H124.691C125.613 132.121 126.332 131.914 126.848 131.5C127.371 131.078 127.633 130.484 127.633 129.719C127.633 128.875 127.391 128.266 126.906 127.891C126.43 127.516 125.684 127.328 124.668 127.328H121.785V132.121ZM133.152 135.543C133.152 134.301 133.398 133.184 133.891 132.191C134.383 131.191 135.074 130.426 135.965 129.895C136.855 129.355 137.879 129.086 139.035 129.086C140.746 129.086 142.133 129.637 143.195 130.738C144.266 131.84 144.844 133.301 144.93 135.121L144.941 135.789C144.941 137.039 144.699 138.156 144.215 139.141C143.738 140.125 143.051 140.887 142.152 141.426C141.262 141.965 140.23 142.234 139.059 142.234C137.27 142.234 135.836 141.641 134.758 140.453C133.688 139.258 133.152 137.668 133.152 135.684V135.543ZM136 135.789C136 137.094 136.27 138.117 136.809 138.859C137.348 139.594 138.098 139.961 139.059 139.961C140.02 139.961 140.766 139.586 141.297 138.836C141.836 138.086 142.105 136.988 142.105 135.543C142.105 134.262 141.828 133.246 141.273 132.496C140.727 131.746 139.98 131.371 139.035 131.371C138.105 131.371 137.367 131.742 136.82 132.484C136.273 133.219 136 134.32 136 135.789ZM153.988 131.922C153.613 131.859 153.227 131.828 152.828 131.828C151.523 131.828 150.645 132.328 150.191 133.328V142H147.344V129.32H150.062L150.133 130.738C150.82 129.637 151.773 129.086 152.992 129.086C153.398 129.086 153.734 129.141 154 129.25L153.988 131.922ZM162.426 131.922C162.051 131.859 161.664 131.828 161.266 131.828C159.961 131.828 159.082 132.328 158.629 133.328V142H155.781V129.32H158.5L158.57 130.738C159.258 129.637 160.211 129.086 161.43 129.086C161.836 129.086 162.172 129.141 162.438 129.25L162.426 131.922ZM163.27 135.543C163.27 134.301 163.516 133.184 164.008 132.191C164.5 131.191 165.191 130.426 166.082 129.895C166.973 129.355 167.996 129.086 169.152 129.086C170.863 129.086 172.25 129.637 173.312 130.738C174.383 131.84 174.961 133.301 175.047 135.121L175.059 135.789C175.059 137.039 174.816 138.156 174.332 139.141C173.855 140.125 173.168 140.887 172.27 141.426C171.379 141.965 170.348 142.234 169.176 142.234C167.387 142.234 165.953 141.641 164.875 140.453C163.805 139.258 163.27 137.668 163.27 135.684V135.543ZM166.117 135.789C166.117 137.094 166.387 138.117 166.926 138.859C167.465 139.594 168.215 139.961 169.176 139.961C170.137 139.961 170.883 139.586 171.414 138.836C171.953 138.086 172.223 136.988 172.223 135.543C172.223 134.262 171.945 133.246 171.391 132.496C170.844 131.746 170.098 131.371 169.152 131.371C168.223 131.371 167.484 131.742 166.938 132.484C166.391 133.219 166.117 134.32 166.117 135.789ZM188.605 138.074L190.621 129.32H193.398L189.941 142H187.598L184.879 133.293L182.207 142H179.863L176.395 129.32H179.172L181.223 137.98L183.824 129.32H185.969L188.605 138.074Z" fill="white"/>
</g>
</g>
<defs>
<filter id="filter0_d" x="0" y="0" width="268" height="174" filterUnits="userSpaceOnUse" color-interpolation-filters="sRGB">
<feFlood flood-opacity="0" result="BackgroundImageFix"/>
<feColorMatrix in="SourceAlpha" type="matrix" values="0 0 0 0 0 0 0 0 0 0 0 0 0 0 0 0 0 0 127 0" result="hardAlpha"/>
<feOffset dy="4"/>
<feGaussianBlur stdDeviation="2"/>
<feComposite in2="hardAlpha" operator="out"/>
<feColorMatrix type="matrix" values="0 0 0 0 0 0 0 0 0 0 0 0 0 0 0 0 0 0 0.25 0"/>
<feBlend mode="normal" in2="BackgroundImageFix" result="effect1_dropShadow"/>
<feBlend mode="normal" in="SourceGraphic" in2="effect1_dropShadow" result="shape"/>
</filter>
<filter id="filter1_d" x="34.7344" y="124" width="162.664" height="26.2344" filterUnits="userSpaceOnUse" color-interpolation-filters="sRGB">
<feFlood flood-opacity="0" result="BackgroundImageFix"/>
<feColorMatrix in="SourceAlpha" type="matrix" values="0 0 0 0 0 0 0 0 0 0 0 0 0 0 0 0 0 0 127 0" result="hardAlpha"/>
<feOffset dy="4"/>
<feGaussianBlur stdDeviation="2"/>
<feComposite in2="hardAlpha" operator="out"/>
<feColorMatrix type="matrix" values="0 0 0 0 0 0 0 0 0 0 0 0 0 0 0 0 0 0 0.25 0"/>
<feBlend mode="normal" in2="BackgroundImageFix" result="effect1_dropShadow"/>
<feBlend mode="normal" in="SourceGraphic" in2="effect1_dropShadow" result="shape"/>
</filter>
</defs>
</svg>
