<svg width="80" height="80" viewBox="0 0 80 80" fill="none" xmlns="http://www.w3.org/2000/svg">
<circle cx="40" cy="40" r="40" fill="#8FBAAD"/>
<circle cx="40" cy="40" r="37.5" stroke="white" stroke-opacity="0.3" stroke-width="5"/>
<g clip-path="url(#clip0)">
<path d="M39.6504 56.8712C48.3842 56.8712 55.4642 49.8264 55.4642 41.1362C55.4642 32.446 48.3842 25.4011 39.6504 25.4011C30.9167 25.4011 23.8367 32.446 23.8367 41.1362C23.8367 49.8264 30.9167 56.8712 39.6504 56.8712Z" fill="#FFAD61"/>
<path d="M40.614 33.0095C40.614 33.0095 40.395 33.4307 41.2709 33.8809C41.6275 34.0643 42.2817 34.2427 42.9322 34.3901L42.9947 33.4355C43.081 32.1194 42.0315 31.0049 40.7061 31.0049H38.5949C37.2694 31.0049 36.2199 32.1194 36.3062 33.4355L36.4 34.8671C39.7266 34.6831 40.614 33.0095 40.614 33.0095Z" fill="#D35B38"/>
<path d="M41.271 33.881C40.3951 33.4306 40.614 33.0095 40.614 33.0095C40.614 33.0095 39.7266 34.6832 36.4001 34.8673L36.6192 38.2104C36.6867 39.2404 37.2778 40.1649 38.1866 40.6622C39.0983 41.1611 40.2031 41.1611 41.1145 40.6622C42.0234 40.1648 42.6144 39.2404 42.6819 38.2104L42.9324 34.3901C42.2819 34.2428 41.6276 34.0643 41.271 33.881Z" fill="#FFE6B8"/>
<path d="M48.0161 47.477C47.6411 45.4171 46.025 43.846 44.0192 43.4702C43.7174 43.4135 43.4068 43.3838 43.0903 43.3838H42.0372L39.6505 45.7587L37.2638 43.3839H36.2107C35.8942 43.3839 35.5835 43.4136 35.2818 43.4702C33.276 43.8461 31.6601 45.4171 31.285 47.4771C31.1029 48.4774 31.8752 49.3976 32.8968 49.3976H46.4042C47.4258 49.3975 48.1982 48.4773 48.0161 47.477Z" fill="#BCC987"/>
<path d="M53.1861 28.6106C53.4005 28.6106 53.6149 28.5292 53.7784 28.3664L54.0488 28.0974C54.3757 27.7719 54.3757 27.2442 54.0486 26.9188C53.7215 26.5934 53.1912 26.5935 52.8642 26.9189L52.5938 27.188C52.2669 27.5135 52.2669 28.0412 52.594 28.3666C52.7576 28.5293 52.9718 28.6106 53.1861 28.6106Z" fill="#266150"/>
<path d="M59.7641 20.2195H54.4478C53.9853 20.2195 53.6104 20.5926 53.6104 21.0528C53.6104 21.513 53.9853 21.8861 54.4478 21.8861H57.9225L55.027 24.7671C54.6999 25.0925 54.6999 25.6202 55.027 25.9457C55.1906 26.1084 55.4049 26.1898 55.6192 26.1898C55.8335 26.1898 56.0479 26.1084 56.2114 25.9457L58.9266 23.244V26.3426C58.9266 26.8028 59.3016 27.1759 59.7641 27.1759C60.2267 27.1759 60.6016 26.8028 60.6016 26.3426V21.0528C60.6016 20.5926 60.2267 20.2195 59.7641 20.2195Z" fill="#266150"/>
<mask id="path-9-inside-1" fill="white">
<path d="M59.7641 55.0965C59.3015 55.0965 58.9266 55.4697 58.9266 55.9298V59.0285L52.1062 52.2421C54.7805 49.3016 56.4117 45.405 56.4117 41.1362C56.4117 32.0004 48.9419 24.5678 39.7604 24.5678C35.4704 24.5678 31.5542 26.1908 28.5989 28.8517L21.5984 21.8861H25.073C25.5355 21.8861 25.9105 21.513 25.9105 21.0528C25.9105 20.5926 25.5356 20.2195 25.073 20.2195H19.7567C19.2941 20.2195 18.9192 20.5926 18.9192 21.0528V26.3427C18.9192 26.8029 19.2941 27.176 19.7567 27.176C20.2192 27.176 20.5942 26.8029 20.5942 26.3427V23.244L27.4146 30.0304C24.7402 32.9709 23.1091 36.8675 23.1091 41.1363C23.1091 45.405 24.7402 49.3017 27.4146 52.2422L20.5942 59.0285V55.9299C20.5942 55.4697 20.2192 55.0966 19.7567 55.0966C19.2941 55.0966 18.9192 55.4697 18.9192 55.9299V61.2197C18.9192 61.6798 19.2941 62.053 19.7567 62.053H25.073C25.5356 62.053 25.9105 61.6798 25.9105 61.2197C25.9105 60.7595 25.5356 60.3863 25.073 60.3863H21.5984L28.599 53.4206C31.5542 56.0816 35.4703 57.7046 39.7605 57.7046C44.0506 57.7046 47.9666 56.0816 50.9219 53.4206L57.9224 60.3863H54.4478C53.9852 60.3863 53.6103 60.7595 53.6103 61.2197C53.6103 61.6798 53.9852 62.0531 54.4477 62.0531H59.764C60.2265 62.0531 60.6015 61.6799 60.6015 61.2197V55.9299C60.6016 55.4697 60.2266 55.0965 59.7641 55.0965ZM24.7842 41.1363C24.7842 32.9194 31.5025 26.2346 39.7604 26.2346C48.0183 26.2346 54.7366 32.9194 54.7366 41.1363C54.7366 49.3531 48.0183 56.0379 39.7604 56.0379C31.5025 56.0379 24.7842 49.3531 24.7842 41.1363Z"/>
</mask>
<path d="M59.7641 55.0965C59.3015 55.0965 58.9266 55.4697 58.9266 55.9298V59.0285L52.1062 52.2421C54.7805 49.3016 56.4117 45.405 56.4117 41.1362C56.4117 32.0004 48.9419 24.5678 39.7604 24.5678C35.4704 24.5678 31.5542 26.1908 28.5989 28.8517L21.5984 21.8861H25.073C25.5355 21.8861 25.9105 21.513 25.9105 21.0528C25.9105 20.5926 25.5356 20.2195 25.073 20.2195H19.7567C19.2941 20.2195 18.9192 20.5926 18.9192 21.0528V26.3427C18.9192 26.8029 19.2941 27.176 19.7567 27.176C20.2192 27.176 20.5942 26.8029 20.5942 26.3427V23.244L27.4146 30.0304C24.7402 32.9709 23.1091 36.8675 23.1091 41.1363C23.1091 45.405 24.7402 49.3017 27.4146 52.2422L20.5942 59.0285V55.9299C20.5942 55.4697 20.2192 55.0966 19.7567 55.0966C19.2941 55.0966 18.9192 55.4697 18.9192 55.9299V61.2197C18.9192 61.6798 19.2941 62.053 19.7567 62.053H25.073C25.5356 62.053 25.9105 61.6798 25.9105 61.2197C25.9105 60.7595 25.5356 60.3863 25.073 60.3863H21.5984L28.599 53.4206C31.5542 56.0816 35.4703 57.7046 39.7605 57.7046C44.0506 57.7046 47.9666 56.0816 50.9219 53.4206L57.9224 60.3863H54.4478C53.9852 60.3863 53.6103 60.7595 53.6103 61.2197C53.6103 61.6798 53.9852 62.0531 54.4477 62.0531H59.764C60.2265 62.0531 60.6015 61.6799 60.6015 61.2197V55.9299C60.6016 55.4697 60.2266 55.0965 59.7641 55.0965ZM24.7842 41.1363C24.7842 32.9194 31.5025 26.2346 39.7604 26.2346C48.0183 26.2346 54.7366 32.9194 54.7366 41.1363C54.7366 49.3531 48.0183 56.0379 39.7604 56.0379C31.5025 56.0379 24.7842 49.3531 24.7842 41.1363Z" fill="#266150"/>
<path d="M58.9266 59.0285L57.5159 60.4462L60.9266 63.8399V59.0285H58.9266ZM52.1062 52.2421L50.6266 50.8965L49.34 52.3111L50.6955 53.6599L52.1062 52.2421ZM28.5989 28.8517L27.1882 30.2695L28.5302 31.6048L29.9371 30.338L28.5989 28.8517ZM21.5984 21.8861V19.8861H16.7528L20.1877 23.3039L21.5984 21.8861ZM20.5942 23.244L22.0048 21.8263L18.5942 18.4326V23.244H20.5942ZM27.4146 30.0304L28.8942 31.376L30.1807 29.9614L28.8252 28.6126L27.4146 30.0304ZM27.4146 52.2422L28.8252 53.6599L30.1807 52.3112L28.8942 50.8965L27.4146 52.2422ZM20.5942 59.0285H18.5942V63.8399L22.0048 60.4463L20.5942 59.0285ZM21.5984 60.3863L20.1877 58.9686L16.7528 62.3863H21.5984V60.3863ZM28.599 53.4206L29.9373 51.9344L28.5303 50.6676L27.1883 52.0029L28.599 53.4206ZM50.9219 53.4206L52.3326 52.0029L50.9906 50.6676L49.5837 51.9343L50.9219 53.4206ZM57.9224 60.3863V62.3863H62.7679L59.3331 58.9686L57.9224 60.3863ZM60.6015 55.9299L58.6015 55.9296V55.9299H60.6015ZM59.7641 53.0965C58.2062 53.0965 56.9266 54.3558 56.9266 55.9298H60.9266C60.9266 56.5835 60.3968 57.0965 59.7641 57.0965V53.0965ZM56.9266 55.9298V59.0285H60.9266V55.9298H56.9266ZM60.3373 57.6107L53.5169 50.8244L50.6955 53.6599L57.5159 60.4462L60.3373 57.6107ZM53.5858 53.5878C56.5798 50.2957 58.4117 45.9247 58.4117 41.1362H54.4117C54.4117 44.8853 52.9812 48.3075 50.6266 50.8965L53.5858 53.5878ZM58.4117 41.1362C58.4117 30.8864 50.037 22.5678 39.7604 22.5678V26.5678C47.8468 26.5678 54.4117 33.1143 54.4117 41.1362H58.4117ZM39.7604 22.5678C34.9567 22.5678 30.5685 24.3871 27.2607 27.3654L29.9371 30.338C32.5399 27.9946 35.9841 26.5678 39.7604 26.5678V22.5678ZM30.0096 27.434L23.009 20.4684L20.1877 23.3039L27.1882 30.2695L30.0096 27.434ZM21.5984 23.8861H25.073V19.8861H21.5984V23.8861ZM25.073 23.8861C26.6308 23.8861 27.9105 22.6268 27.9105 21.0528H23.9105C23.9105 20.3991 24.4402 19.8861 25.073 19.8861V23.8861ZM27.9105 21.0528C27.9105 19.4791 26.6311 18.2195 25.073 18.2195V22.2195C24.4401 22.2195 23.9105 21.7062 23.9105 21.0528H27.9105ZM25.073 18.2195H19.7567V22.2195H25.073V18.2195ZM19.7567 18.2195C18.1989 18.2195 16.9192 19.4788 16.9192 21.0528H20.9192C20.9192 21.7065 20.3894 22.2195 19.7567 22.2195V18.2195ZM16.9192 21.0528V26.3427H20.9192V21.0528H16.9192ZM16.9192 26.3427C16.9192 27.9167 18.1989 29.176 19.7567 29.176V25.176C20.3894 25.176 20.9192 25.689 20.9192 26.3427H16.9192ZM19.7567 29.176C21.3145 29.176 22.5942 27.9167 22.5942 26.3427H18.5942C18.5942 25.689 19.124 25.176 19.7567 25.176V29.176ZM22.5942 26.3427V23.244H18.5942V26.3427H22.5942ZM19.1835 24.6617L26.0039 31.4481L28.8252 28.6126L22.0048 21.8263L19.1835 24.6617ZM25.935 28.6847C22.9409 31.9768 21.1091 36.3478 21.1091 41.1363H25.1091C25.1091 37.3872 26.5396 33.965 28.8942 31.376L25.935 28.6847ZM21.1091 41.1363C21.1091 45.9247 22.9409 50.2958 25.935 53.5878L28.8942 50.8965C26.5396 48.3076 25.1091 44.8853 25.1091 41.1363H21.1091ZM26.0039 50.8244L19.1835 57.6108L22.0048 60.4463L28.8252 53.6599L26.0039 50.8244ZM22.5942 59.0285V55.9299H18.5942V59.0285H22.5942ZM22.5942 55.9299C22.5942 54.3559 21.3145 53.0966 19.7567 53.0966V57.0966C19.124 57.0966 18.5942 56.5836 18.5942 55.9299H22.5942ZM19.7567 53.0966C18.1989 53.0966 16.9192 54.3559 16.9192 55.9299H20.9192C20.9192 56.5836 20.3894 57.0966 19.7567 57.0966V53.0966ZM16.9192 55.9299V61.2197H20.9192V55.9299H16.9192ZM16.9192 61.2197C16.9192 62.7937 18.1989 64.053 19.7567 64.053V60.053C20.3894 60.053 20.9192 60.566 20.9192 61.2197H16.9192ZM19.7567 64.053H25.073V60.053H19.7567V64.053ZM25.073 64.053C26.6309 64.053 27.9105 62.7937 27.9105 61.2197H23.9105C23.9105 60.566 24.4403 60.053 25.073 60.053V64.053ZM27.9105 61.2197C27.9105 59.6456 26.6309 58.3863 25.073 58.3863V62.3863C24.4403 62.3863 23.9105 61.8733 23.9105 61.2197H27.9105ZM25.073 58.3863H21.5984V62.3863H25.073V58.3863ZM23.009 61.8041L30.0097 54.8384L27.1883 52.0029L20.1877 58.9686L23.009 61.8041ZM27.2607 54.9069C30.5685 57.8853 34.9566 59.7046 39.7605 59.7046V55.7046C35.984 55.7046 32.5399 54.2778 29.9373 51.9344L27.2607 54.9069ZM39.7605 59.7046C44.5643 59.7046 48.9523 57.8853 52.2602 54.9069L49.5837 51.9343C46.9809 54.2778 43.5369 55.7046 39.7605 55.7046V59.7046ZM49.5112 54.8384L56.5117 61.8041L59.3331 58.9686L52.3326 52.0029L49.5112 54.8384ZM57.9224 58.3863H54.4478V62.3863H57.9224V58.3863ZM54.4478 58.3863C52.89 58.3863 51.6103 59.6456 51.6103 61.2197H55.6103C55.6103 61.8733 55.0805 62.3863 54.4478 62.3863V58.3863ZM51.6103 61.2197C51.6103 62.7932 52.8894 64.0531 54.4477 64.0531V60.0531C55.0809 60.0531 55.6103 60.5665 55.6103 61.2197H51.6103ZM54.4477 64.0531H59.764V60.0531H54.4477V64.0531ZM59.764 64.0531C61.3218 64.0531 62.6015 62.7938 62.6015 61.2197H58.6015C58.6015 60.5661 59.1313 60.0531 59.764 60.0531V64.0531ZM62.6015 61.2197V55.9299H58.6015V61.2197H62.6015ZM62.6015 55.9303C62.6018 54.3559 61.3219 53.0965 59.7641 53.0965V57.0965C59.1313 57.0965 58.6014 56.5834 58.6015 55.9296L62.6015 55.9303ZM26.7842 41.1363C26.7842 34.0334 32.5976 28.2346 39.7604 28.2346V24.2346C30.4073 24.2346 22.7842 31.8054 22.7842 41.1363H26.7842ZM39.7604 28.2346C46.9231 28.2346 52.7366 34.0334 52.7366 41.1363H56.7366C56.7366 31.8054 49.1134 24.2346 39.7604 24.2346V28.2346ZM52.7366 41.1363C52.7366 48.2392 46.9231 54.0379 39.7604 54.0379V58.0379C49.1134 58.0379 56.7366 50.4671 56.7366 41.1363H52.7366ZM39.7604 54.0379C32.5976 54.0379 26.7842 48.2392 26.7842 41.1363H22.7842C22.7842 50.4671 30.4073 58.0379 39.7604 58.0379V54.0379Z" fill="#266150" mask="url(#path-9-inside-1)"/>
<path d="M35.674 34.9213L35.8931 38.2645C35.9797 39.5852 36.7271 40.7544 37.8926 41.3922C38.4773 41.7123 39.1187 41.8723 39.7602 41.8723C40.4016 41.8723 41.0431 41.7123 41.6277 41.3923C42.7932 40.7545 43.5407 39.5852 43.6273 38.2645L43.8778 34.4441L43.9403 33.4896C43.9964 32.6333 43.6905 31.783 43.1008 31.1568C42.5111 30.5306 41.6784 30.1714 40.8159 30.1714H38.7047C37.8423 30.1714 37.0095 30.5306 36.4198 31.1568C35.8302 31.783 35.5242 32.6333 35.5803 33.4896L35.674 34.9213ZM40.8204 39.9319C40.1565 40.2954 39.3638 40.2953 38.6998 39.9318C38.0381 39.5697 37.6138 38.9059 37.5646 38.1561L37.3981 35.6176C38.9619 35.4018 39.9698 34.8682 40.5909 34.3752C40.7114 34.4623 40.8466 34.5443 40.996 34.6212C41.2621 34.758 41.6466 34.8936 42.1604 35.0317L41.9556 38.156C41.9067 38.9059 41.4823 39.5698 40.8204 39.9319ZM41.765 33.1405C41.6962 33.1051 41.644 33.0737 41.604 33.047L41.8843 32.3033C42.1464 32.5851 42.283 32.9472 42.2713 33.3293C41.9739 33.2379 41.8282 33.1729 41.765 33.1405ZM37.6419 32.2964C37.9201 32.0009 38.2975 31.8381 38.7045 31.8381H40.2707L39.9665 32.6451C39.8574 32.8003 39.1754 33.654 37.2889 33.9494L37.2517 33.3812C37.2251 32.9772 37.3637 32.5919 37.6419 32.2964Z" fill="#266150"/>
<path d="M44.2843 42.6514C43.9276 42.5844 43.5628 42.5506 43.2003 42.5506H42.1473C41.9252 42.5506 41.7121 42.6385 41.5551 42.7947L39.7605 44.5802L37.966 42.7946C37.809 42.6384 37.596 42.5505 37.3738 42.5505H36.3208C35.9582 42.5505 35.5935 42.5844 35.2369 42.6513C32.8748 43.0938 30.9997 44.9733 30.5709 47.3285C30.4398 48.049 30.6351 48.7846 31.1067 49.3465C31.5784 49.9084 32.271 50.2308 33.0069 50.2308H46.5142C47.2501 50.2308 47.9427 49.9084 48.4144 49.3465C48.886 48.7846 49.0814 48.049 48.9502 47.3285C48.5214 44.9734 46.6463 43.0938 44.2843 42.6514ZM47.1288 48.2782C47.0392 48.385 46.84 48.5642 46.5143 48.5642H33.0069C32.681 48.5642 32.482 48.385 32.3924 48.2782C32.3028 48.1714 32.1611 47.9445 32.2191 47.6256C32.525 45.9455 33.8623 44.6048 35.5469 44.2892C35.8017 44.2414 36.062 44.2173 36.3208 44.2173H37.027L39.1683 46.348C39.3253 46.5042 39.5384 46.5921 39.7605 46.5921C39.9826 46.5921 40.1957 46.5042 40.3527 46.348L42.4941 44.2173H43.2002C43.459 44.2173 43.7195 44.2414 43.9742 44.2892C45.6587 44.6047 46.9961 45.9455 47.3019 47.6256C47.3601 47.9446 47.2184 48.1714 47.1288 48.2782Z" fill="#266150"/>
</g>
<defs>
<clipPath id="clip0">
<rect width="42.0429" height="41.8336" fill="white" transform="translate(18.6292 20.2195)"/>
</clipPath>
</defs>
</svg>
