<svg width="268" height="174" viewBox="0 0 268 174" fill="none" xmlns="http://www.w3.org/2000/svg">
<g filter="url(#filter0_d)">
<rect x="4" width="260" height="166" rx="10" fill="#A3C9BE"/>
<ellipse cx="179.499" cy="80.3702" rx="57.0846" ry="57.3702" fill="#8FBAAD"/>
<path d="M231.583 80.3702C231.583 109.317 208.241 132.74 179.499 132.74C150.757 132.74 127.414 109.317 127.414 80.3702C127.414 51.4234 150.757 28 179.499 28C208.241 28 231.583 51.4234 231.583 80.3702Z" stroke="white" stroke-opacity="0.3" stroke-width="10"/>
<ellipse cx="46.8338" cy="129.938" rx="22.8338" ry="22.9481" fill="#A9CAC0"/>
<ellipse cx="225.166" cy="49.1607" rx="22.8338" ry="22.9481" fill="#A9CAC0"/>
<path d="M245.5 49.1607C245.5 60.4657 236.384 69.6088 225.166 69.6088C213.948 69.6088 204.832 60.4657 204.832 49.1607C204.832 37.8558 213.948 28.7126 225.166 28.7126C236.384 28.7126 245.5 37.8558 245.5 49.1607Z" stroke="#FFF9F9" stroke-opacity="0.3" stroke-width="5"/>
<ellipse cx="72.408" cy="83.8124" rx="3.42508" ry="3.44221" fill="#A3C9BE"/>
<ellipse cx="151.641" cy="145.313" rx="3.42508" ry="3.44221" fill="#266150" fill-opacity="0.3"/>
<ellipse cx="28.11" cy="53.9797" rx="2.28338" ry="2.29481" fill="#A3C9BE"/>
<g filter="url(#filter1_d)">
<path d="M41.6992 135.66V142H38.7344V124.938H45.2617C47.168 124.938 48.6797 125.434 49.7969 126.426C50.9219 127.418 51.4844 128.73 51.4844 130.363C51.4844 132.035 50.9336 133.336 49.832 134.266C48.7383 135.195 47.2031 135.66 45.2266 135.66H41.6992ZM41.6992 133.281H45.2617C46.3164 133.281 47.1211 133.035 47.6758 132.543C48.2305 132.043 48.5078 131.324 48.5078 130.387C48.5078 129.465 48.2266 128.73 47.6641 128.184C47.1016 127.629 46.3281 127.344 45.3438 127.328H41.6992V133.281ZM59.2305 142.234C57.4258 142.234 55.9609 141.668 54.8359 140.535C53.7188 139.395 53.1602 137.879 53.1602 135.988V135.637C53.1602 134.371 53.4023 133.242 53.8867 132.25C54.3789 131.25 55.0664 130.473 55.9492 129.918C56.832 129.363 57.8164 129.086 58.9023 129.086C60.6289 129.086 61.9609 129.637 62.8984 130.738C63.8438 131.84 64.3164 133.398 64.3164 135.414V136.562H56.0312C56.1172 137.609 56.4648 138.438 57.0742 139.047C57.6914 139.656 58.4648 139.961 59.3945 139.961C60.6992 139.961 61.7617 139.434 62.582 138.379L64.1172 139.844C63.6094 140.602 62.9297 141.191 62.0781 141.613C61.2344 142.027 60.2852 142.234 59.2305 142.234ZM58.8906 131.371C58.1094 131.371 57.4766 131.645 56.9922 132.191C56.5156 132.738 56.2109 133.5 56.0781 134.477H61.5039V134.266C61.4414 133.312 61.1875 132.594 60.7422 132.109C60.2969 131.617 59.6797 131.371 58.8906 131.371ZM72.1211 142.234C70.3164 142.234 68.8516 141.668 67.7266 140.535C66.6094 139.395 66.0508 137.879 66.0508 135.988V135.637C66.0508 134.371 66.293 133.242 66.7773 132.25C67.2695 131.25 67.957 130.473 68.8398 129.918C69.7227 129.363 70.707 129.086 71.793 129.086C73.5195 129.086 74.8516 129.637 75.7891 130.738C76.7344 131.84 77.207 133.398 77.207 135.414V136.562H68.9219C69.0078 137.609 69.3555 138.438 69.9648 139.047C70.582 139.656 71.3555 139.961 72.2852 139.961C73.5898 139.961 74.6523 139.434 75.4727 138.379L77.0078 139.844C76.5 140.602 75.8203 141.191 74.9688 141.613C74.125 142.027 73.1758 142.234 72.1211 142.234ZM71.7812 131.371C71 131.371 70.3672 131.645 69.8828 132.191C69.4062 132.738 69.1016 133.5 68.9688 134.477H74.3945V134.266C74.332 133.312 74.0781 132.594 73.6328 132.109C73.1875 131.617 72.5703 131.371 71.7812 131.371ZM86.0664 131.922C85.6914 131.859 85.3047 131.828 84.9062 131.828C83.6016 131.828 82.7227 132.328 82.2695 133.328V142H79.4219V129.32H82.1406L82.2109 130.738C82.8984 129.637 83.8516 129.086 85.0703 129.086C85.4766 129.086 85.8125 129.141 86.0781 129.25L86.0664 131.922ZM97.4102 126.238V129.32H99.6484V131.43H97.4102V138.508C97.4102 138.992 97.5039 139.344 97.6914 139.562C97.8867 139.773 98.2305 139.879 98.7227 139.879C99.0508 139.879 99.3828 139.84 99.7188 139.762V141.965C99.0703 142.145 98.4453 142.234 97.8438 142.234C95.6562 142.234 94.5625 141.027 94.5625 138.613V131.43H92.4766V129.32H94.5625V126.238H97.4102ZM100.949 135.543C100.949 134.301 101.195 133.184 101.688 132.191C102.18 131.191 102.871 130.426 103.762 129.895C104.652 129.355 105.676 129.086 106.832 129.086C108.543 129.086 109.93 129.637 110.992 130.738C112.062 131.84 112.641 133.301 112.727 135.121L112.738 135.789C112.738 137.039 112.496 138.156 112.012 139.141C111.535 140.125 110.848 140.887 109.949 141.426C109.059 141.965 108.027 142.234 106.855 142.234C105.066 142.234 103.633 141.641 102.555 140.453C101.484 139.258 100.949 137.668 100.949 135.684V135.543ZM103.797 135.789C103.797 137.094 104.066 138.117 104.605 138.859C105.145 139.594 105.895 139.961 106.855 139.961C107.816 139.961 108.562 139.586 109.094 138.836C109.633 138.086 109.902 136.988 109.902 135.543C109.902 134.262 109.625 133.246 109.07 132.496C108.523 131.746 107.777 131.371 106.832 131.371C105.902 131.371 105.164 131.742 104.617 132.484C104.07 133.219 103.797 134.32 103.797 135.789ZM124.363 135.66V142H121.398V124.938H127.926C129.832 124.938 131.344 125.434 132.461 126.426C133.586 127.418 134.148 128.73 134.148 130.363C134.148 132.035 133.598 133.336 132.496 134.266C131.402 135.195 129.867 135.66 127.891 135.66H124.363ZM124.363 133.281H127.926C128.98 133.281 129.785 133.035 130.34 132.543C130.895 132.043 131.172 131.324 131.172 130.387C131.172 129.465 130.891 128.73 130.328 128.184C129.766 127.629 128.992 127.344 128.008 127.328H124.363V133.281ZM141.895 142.234C140.09 142.234 138.625 141.668 137.5 140.535C136.383 139.395 135.824 137.879 135.824 135.988V135.637C135.824 134.371 136.066 133.242 136.551 132.25C137.043 131.25 137.73 130.473 138.613 129.918C139.496 129.363 140.48 129.086 141.566 129.086C143.293 129.086 144.625 129.637 145.562 130.738C146.508 131.84 146.98 133.398 146.98 135.414V136.562H138.695C138.781 137.609 139.129 138.438 139.738 139.047C140.355 139.656 141.129 139.961 142.059 139.961C143.363 139.961 144.426 139.434 145.246 138.379L146.781 139.844C146.273 140.602 145.594 141.191 144.742 141.613C143.898 142.027 142.949 142.234 141.895 142.234ZM141.555 131.371C140.773 131.371 140.141 131.645 139.656 132.191C139.18 132.738 138.875 133.5 138.742 134.477H144.168V134.266C144.105 133.312 143.852 132.594 143.406 132.109C142.961 131.617 142.344 131.371 141.555 131.371ZM154.785 142.234C152.98 142.234 151.516 141.668 150.391 140.535C149.273 139.395 148.715 137.879 148.715 135.988V135.637C148.715 134.371 148.957 133.242 149.441 132.25C149.934 131.25 150.621 130.473 151.504 129.918C152.387 129.363 153.371 129.086 154.457 129.086C156.184 129.086 157.516 129.637 158.453 130.738C159.398 131.84 159.871 133.398 159.871 135.414V136.562H151.586C151.672 137.609 152.02 138.438 152.629 139.047C153.246 139.656 154.02 139.961 154.949 139.961C156.254 139.961 157.316 139.434 158.137 138.379L159.672 139.844C159.164 140.602 158.484 141.191 157.633 141.613C156.789 142.027 155.84 142.234 154.785 142.234ZM154.445 131.371C153.664 131.371 153.031 131.645 152.547 132.191C152.07 132.738 151.766 133.5 151.633 134.477H157.059V134.266C156.996 133.312 156.742 132.594 156.297 132.109C155.852 131.617 155.234 131.371 154.445 131.371ZM168.73 131.922C168.355 131.859 167.969 131.828 167.57 131.828C166.266 131.828 165.387 132.328 164.934 133.328V142H162.086V129.32H164.805L164.875 130.738C165.562 129.637 166.516 129.086 167.734 129.086C168.141 129.086 168.477 129.141 168.742 129.25L168.73 131.922Z" fill="white"/>
</g>
<path d="M178 108.568C190.464 108.568 200.568 98.464 200.568 86C200.568 73.536 190.464 63.4319 178 63.4319C165.536 63.4319 155.432 73.536 155.432 86C155.432 98.464 165.536 108.568 178 108.568Z" fill="#FFAD61"/>
<path d="M179.375 74.344C179.375 74.344 179.062 74.9482 180.312 75.5939C180.821 75.8568 181.755 76.1128 182.683 76.3241L182.773 74.955C182.896 73.0674 181.398 71.4689 179.506 71.4689H176.493C174.602 71.4689 173.104 73.0674 173.227 74.955L173.361 77.0083C178.109 76.7444 179.375 74.344 179.375 74.344Z" fill="#D35B38"/>
<path d="M180.313 75.594C179.063 74.9481 179.375 74.3441 179.375 74.3441C179.375 74.3441 178.109 76.7446 173.361 77.0086L173.674 81.8036C173.77 83.2807 174.614 84.6067 175.911 85.32C177.212 86.0356 178.789 86.0356 180.089 85.32C181.386 84.6066 182.23 83.2807 182.326 81.8036L182.684 76.3242C181.755 76.1129 180.821 75.857 180.313 75.594Z" fill="#FFE6B8"/>
<path d="M189.939 95.0944C189.404 92.14 187.097 89.8866 184.235 89.3475C183.804 89.2663 183.361 89.2236 182.909 89.2236H181.406L178 92.6299L174.594 89.2238H173.091C172.639 89.2238 172.196 89.2664 171.765 89.3476C168.903 89.8867 166.597 92.14 166.062 95.0945C165.802 96.5291 166.904 97.849 168.362 97.849H187.638C189.096 97.8489 190.199 96.529 189.939 95.0944Z" fill="#BCC987"/>
<path d="M197.16 68.0349C197.466 68.0349 197.772 67.9182 198.005 67.6848L198.391 67.2989C198.858 66.832 198.858 66.0752 198.391 65.6085C197.924 65.1418 197.167 65.1419 196.701 65.6087L196.315 65.9946C195.848 66.4615 195.848 67.2183 196.315 67.685C196.548 67.9183 196.854 68.0349 197.16 68.0349Z" fill="#266150"/>
<path d="M206.548 56H198.961C198.301 56 197.766 56.5352 197.766 57.1952C197.766 57.8552 198.301 58.3904 198.961 58.3904H203.919L199.787 62.5224C199.321 62.9892 199.32 63.746 199.787 64.2129C200.021 64.4462 200.327 64.5629 200.632 64.5629C200.938 64.5629 201.244 64.4462 201.478 64.2129L205.353 60.3379V64.7821C205.353 65.4421 205.888 65.9773 206.548 65.9773C207.208 65.9773 207.743 65.4421 207.743 64.7821V57.1952C207.743 56.5352 207.208 56 206.548 56Z" fill="#266150"/>
<path d="M204.645 112.369L206.352 114.076V111.662V107.218C206.352 107.11 206.44 107.023 206.548 107.023C206.655 107.023 206.743 107.11 206.743 107.218V107.218V114.805C206.743 114.913 206.655 115 206.548 115H198.961C198.853 115 198.766 114.913 198.766 114.805C198.766 114.697 198.853 114.609 198.961 114.609H203.919H206.334L204.627 112.902L194.636 102.912L193.963 102.239L193.258 102.877C189.216 106.535 183.864 108.763 178 108.763C172.136 108.763 166.784 106.535 162.742 102.877L162.037 102.239L161.364 102.912L151.374 112.902L149.667 114.609H152.081H157.04C157.147 114.609 157.235 114.697 157.235 114.805C157.235 114.912 157.147 115 157.04 115H149.453C149.345 115 149.257 114.912 149.257 114.805V107.218C149.257 107.11 149.345 107.023 149.453 107.023C149.56 107.023 149.648 107.11 149.648 107.218V111.662V114.076L151.355 112.369L161.088 102.636L161.761 101.963L161.123 101.258C157.465 97.2163 155.237 91.8641 155.237 86C155.237 80.1359 157.465 74.7837 161.123 70.7423L161.761 70.0369L161.088 69.3642L151.355 59.6308L149.648 57.9237V60.3379V64.7823C149.648 64.89 149.56 64.9775 149.453 64.9775C149.345 64.9775 149.257 64.89 149.257 64.7823V57.1952C149.257 57.0874 149.345 57 149.453 57H157.04C157.147 57 157.235 57.0873 157.235 57.1952C157.235 57.303 157.147 57.3904 157.039 57.3904H152.081H149.667L151.374 59.0975L161.364 69.088L162.037 69.7606L162.742 69.1223C166.784 65.4652 172.136 63.2366 178 63.2366C190.551 63.2366 200.763 73.4491 200.763 85.9999C200.763 91.8641 198.535 97.2162 194.878 101.258L194.239 101.963L194.912 102.636L204.645 112.369ZM178 63.6272C165.663 63.6272 155.627 73.6626 155.627 86C155.627 98.3374 165.663 108.373 178 108.373C190.337 108.373 200.373 98.3374 200.373 86C200.373 73.6626 190.337 63.6272 178 63.6272Z" fill="#266150" stroke="#266150" stroke-width="2"/>
<path d="M172.168 77.0863L172.481 81.8812C172.605 83.7756 173.671 85.4524 175.335 86.3672C176.169 86.8263 177.084 87.0558 178 87.0558C178.915 87.0558 179.831 86.8263 180.665 86.3673C182.328 85.4525 183.395 83.7754 183.519 81.8812L183.876 76.4019L183.965 75.0328C184.046 73.8047 183.609 72.5851 182.767 71.687C181.926 70.7888 180.737 70.2737 179.507 70.2737H176.494C175.263 70.2737 174.074 70.7888 173.233 71.687C172.391 72.5851 171.955 73.8047 172.035 75.0328L172.168 77.0863ZM179.513 84.2728C178.566 84.794 177.434 84.7939 176.487 84.2727C175.542 83.7533 174.937 82.8011 174.867 81.7258L174.629 78.0849C176.861 77.7754 178.299 77.0101 179.185 76.303C179.357 76.4279 179.55 76.5456 179.764 76.6558C180.143 76.8521 180.692 77.0465 181.425 77.2446L181.133 81.7257C181.063 82.8011 180.458 83.7534 179.513 84.2728ZM180.861 74.5322C180.763 74.4814 180.688 74.4363 180.631 74.398L181.031 73.3313C181.405 73.7355 181.6 74.2549 181.584 74.8029C181.159 74.6718 180.951 74.5786 180.861 74.5322ZM174.977 73.3215C175.374 72.8976 175.913 72.6642 176.493 72.6642H178.728L178.294 73.8217C178.139 74.0442 177.165 75.2686 174.473 75.6923L174.42 74.8774C174.382 74.2979 174.58 73.7454 174.977 73.3215Z" fill="#266150"/>
<path d="M184.456 88.1731C183.947 88.0771 183.427 88.0286 182.909 88.0286H181.406C181.089 88.0286 180.785 88.1545 180.561 88.3786L178 90.9395L175.439 88.3785C175.215 88.1544 174.911 88.0284 174.594 88.0284H173.091C172.574 88.0284 172.053 88.077 171.544 88.1729C168.173 88.8076 165.497 91.5033 164.886 94.8812C164.698 95.9146 164.977 96.9696 165.65 97.7756C166.323 98.5815 167.312 99.0438 168.362 99.0438H187.638C188.689 99.0438 189.677 98.5815 190.35 97.7756C191.023 96.9696 191.302 95.9146 191.115 94.8812C190.503 91.5034 187.827 88.8076 184.456 88.1731ZM188.516 96.2434C188.388 96.3966 188.103 96.6536 187.639 96.6536H168.362C167.897 96.6536 167.613 96.3966 167.485 96.2434C167.357 96.0901 167.155 95.7648 167.238 95.3073C167.674 92.8977 169.583 90.9748 171.987 90.5221C172.35 90.4536 172.722 90.419 173.091 90.419H174.099L177.155 93.475C177.379 93.699 177.683 93.825 178 93.825C178.317 93.825 178.621 93.699 178.845 93.475L181.901 90.419H182.909C183.278 90.419 183.65 90.4536 184.014 90.5221C186.418 90.9747 188.326 92.8977 188.763 95.3073C188.846 95.7649 188.643 96.0902 188.516 96.2434Z" fill="#266150"/>
</g>
<defs>
<filter id="filter0_d" x="0" y="0" width="268" height="174" filterUnits="userSpaceOnUse" color-interpolation-filters="sRGB">
<feFlood flood-opacity="0" result="BackgroundImageFix"/>
<feColorMatrix in="SourceAlpha" type="matrix" values="0 0 0 0 0 0 0 0 0 0 0 0 0 0 0 0 0 0 127 0" result="hardAlpha"/>
<feOffset dy="4"/>
<feGaussianBlur stdDeviation="2"/>
<feComposite in2="hardAlpha" operator="out"/>
<feColorMatrix type="matrix" values="0 0 0 0 0 0 0 0 0 0 0 0 0 0 0 0 0 0 0.25 0"/>
<feBlend mode="normal" in2="BackgroundImageFix" result="effect1_dropShadow"/>
<feBlend mode="normal" in="SourceGraphic" in2="effect1_dropShadow" result="shape"/>
</filter>
<filter id="filter1_d" x="34.7344" y="124.938" width="138.008" height="25.2969" filterUnits="userSpaceOnUse" color-interpolation-filters="sRGB">
<feFlood flood-opacity="0" result="BackgroundImageFix"/>
<feColorMatrix in="SourceAlpha" type="matrix" values="0 0 0 0 0 0 0 0 0 0 0 0 0 0 0 0 0 0 127 0" result="hardAlpha"/>
<feOffset dy="4"/>
<feGaussianBlur stdDeviation="2"/>
<feComposite in2="hardAlpha" operator="out"/>
<feColorMatrix type="matrix" values="0 0 0 0 0 0 0 0 0 0 0 0 0 0 0 0 0 0 0.25 0"/>
<feBlend mode="normal" in2="BackgroundImageFix" result="effect1_dropShadow"/>
<feBlend mode="normal" in="SourceGraphic" in2="effect1_dropShadow" result="shape"/>
</filter>
</defs>
</svg>
