<svg width="268" height="174" viewBox="0 0 268 174" fill="none" xmlns="http://www.w3.org/2000/svg">
<g filter="url(#filter0_d)">
<rect x="4" width="260" height="166" rx="10" fill="#A3C9BE"/>
<ellipse cx="179.499" cy="80.3702" rx="57.0846" ry="57.3702" fill="#8FBAAD"/>
<path d="M231.583 80.3702C231.583 109.317 208.241 132.74 179.499 132.74C150.757 132.74 127.414 109.317 127.414 80.3702C127.414 51.4234 150.757 28 179.499 28C208.241 28 231.583 51.4234 231.583 80.3702Z" stroke="white" stroke-opacity="0.3" stroke-width="10"/>
<ellipse cx="46.8338" cy="129.938" rx="22.8338" ry="22.9481" fill="#A9CAC0"/>
<ellipse cx="225.166" cy="49.1607" rx="22.8338" ry="22.9481" fill="#A9CAC0"/>
<path d="M245.5 49.1607C245.5 60.4657 236.384 69.6088 225.166 69.6088C213.948 69.6088 204.832 60.4657 204.832 49.1607C204.832 37.8558 213.948 28.7126 225.166 28.7126C236.384 28.7126 245.5 37.8558 245.5 49.1607Z" stroke="#FFF9F9" stroke-opacity="0.3" stroke-width="5"/>
<ellipse cx="72.408" cy="83.8124" rx="3.42508" ry="3.44221" fill="#A3C9BE"/>
<ellipse cx="151.641" cy="145.313" rx="3.42508" ry="3.44221" fill="#266150" fill-opacity="0.3"/>
<ellipse cx="28.11" cy="53.9797" rx="2.28338" ry="2.29481" fill="#A3C9BE"/>
<g filter="url(#filter1_d)">
<path d="M52.293 133.914C52.293 135.531 52.0352 136.934 51.5195 138.121C51.0117 139.301 50.2969 140.238 49.375 140.934L52.3047 143.219L50.3828 144.953L46.75 142.082C46.2734 142.184 45.7617 142.234 45.2148 142.234C43.8398 142.234 42.6094 141.898 41.5234 141.227C40.4453 140.547 39.6094 139.582 39.0156 138.332C38.4297 137.082 38.1328 135.641 38.125 134.008V133.047C38.125 131.383 38.418 129.914 39.0039 128.641C39.5977 127.367 40.4297 126.395 41.5 125.723C42.5781 125.043 43.8086 124.703 45.1914 124.703C46.5977 124.703 47.8359 125.039 48.9062 125.711C49.9844 126.375 50.8164 127.336 51.4023 128.594C51.9883 129.844 52.2852 131.301 52.293 132.965V133.914ZM49.3164 133.023C49.3164 131.102 48.957 129.645 48.2383 128.652C47.5195 127.66 46.5039 127.164 45.1914 127.164C43.918 127.164 42.918 127.668 42.1914 128.676C41.4727 129.676 41.1055 131.09 41.0898 132.918V133.914C41.0898 135.758 41.4492 137.199 42.168 138.238C42.8945 139.277 43.9102 139.797 45.2148 139.797C46.5352 139.797 47.5469 139.297 48.25 138.297C48.9609 137.297 49.3164 135.836 49.3164 133.914V133.023ZM62.7109 140.758C61.875 141.742 60.6875 142.234 59.1484 142.234C57.7734 142.234 56.7305 141.832 56.0195 141.027C55.3164 140.223 54.9648 139.059 54.9648 137.535V129.32H57.8125V137.5C57.8125 139.109 58.4805 139.914 59.8164 139.914C61.1992 139.914 62.1328 139.418 62.6172 138.426V129.32H65.4648V142H62.7812L62.7109 140.758ZM75.9414 142C75.8164 141.758 75.707 141.363 75.6133 140.816C74.707 141.762 73.5977 142.234 72.2852 142.234C71.0117 142.234 69.9727 141.871 69.168 141.145C68.3633 140.418 67.9609 139.52 67.9609 138.449C67.9609 137.098 68.4609 136.062 69.4609 135.344C70.4688 134.617 71.9062 134.254 73.7734 134.254H75.5195V133.422C75.5195 132.766 75.3359 132.242 74.9688 131.852C74.6016 131.453 74.043 131.254 73.293 131.254C72.6445 131.254 72.1133 131.418 71.6992 131.746C71.2852 132.066 71.0781 132.477 71.0781 132.977H68.2305C68.2305 132.281 68.4609 131.633 68.9219 131.031C69.3828 130.422 70.0078 129.945 70.7969 129.602C71.5938 129.258 72.4805 129.086 73.457 129.086C74.9414 129.086 76.125 129.461 77.0078 130.211C77.8906 130.953 78.3438 132 78.3672 133.352V139.07C78.3672 140.211 78.5273 141.121 78.8477 141.801V142H75.9414ZM72.8125 139.949C73.375 139.949 73.9023 139.812 74.3945 139.539C74.8945 139.266 75.2695 138.898 75.5195 138.438V136.047H73.9844C72.9297 136.047 72.1367 136.23 71.6055 136.598C71.0742 136.965 70.8086 137.484 70.8086 138.156C70.8086 138.703 70.9883 139.141 71.3477 139.469C71.7148 139.789 72.2031 139.949 72.8125 139.949ZM84.918 126.238V129.32H87.1562V131.43H84.918V138.508C84.918 138.992 85.0117 139.344 85.1992 139.562C85.3945 139.773 85.7383 139.879 86.2305 139.879C86.5586 139.879 86.8906 139.84 87.2266 139.762V141.965C86.5781 142.145 85.9531 142.234 85.3516 142.234C83.1641 142.234 82.0703 141.027 82.0703 138.613V131.43H79.9844V129.32H82.0703V126.238H84.918ZM95.9805 131.922C95.6055 131.859 95.2188 131.828 94.8203 131.828C93.5156 131.828 92.6367 132.328 92.1836 133.328V142H89.3359V129.32H92.0547L92.125 130.738C92.8125 129.637 93.7656 129.086 94.9844 129.086C95.3906 129.086 95.7266 129.141 95.9922 129.25L95.9805 131.922ZM103.129 142.234C101.324 142.234 99.8594 141.668 98.7344 140.535C97.6172 139.395 97.0586 137.879 97.0586 135.988V135.637C97.0586 134.371 97.3008 133.242 97.7852 132.25C98.2773 131.25 98.9648 130.473 99.8477 129.918C100.73 129.363 101.715 129.086 102.801 129.086C104.527 129.086 105.859 129.637 106.797 130.738C107.742 131.84 108.215 133.398 108.215 135.414V136.562H99.9297C100.016 137.609 100.363 138.438 100.973 139.047C101.59 139.656 102.363 139.961 103.293 139.961C104.598 139.961 105.66 139.434 106.48 138.379L108.016 139.844C107.508 140.602 106.828 141.191 105.977 141.613C105.133 142.027 104.184 142.234 103.129 142.234ZM102.789 131.371C102.008 131.371 101.375 131.645 100.891 132.191C100.414 132.738 100.109 133.5 99.9766 134.477H105.402V134.266C105.34 133.312 105.086 132.594 104.641 132.109C104.195 131.617 103.578 131.371 102.789 131.371ZM130.07 137.781L132.695 124.938H135.637L131.699 142H128.863L125.617 129.543L122.301 142H119.453L115.516 124.938H118.457L121.105 137.758L124.363 124.938H126.848L130.07 137.781ZM144.707 142C144.582 141.758 144.473 141.363 144.379 140.816C143.473 141.762 142.363 142.234 141.051 142.234C139.777 142.234 138.738 141.871 137.934 141.145C137.129 140.418 136.727 139.52 136.727 138.449C136.727 137.098 137.227 136.062 138.227 135.344C139.234 134.617 140.672 134.254 142.539 134.254H144.285V133.422C144.285 132.766 144.102 132.242 143.734 131.852C143.367 131.453 142.809 131.254 142.059 131.254C141.41 131.254 140.879 131.418 140.465 131.746C140.051 132.066 139.844 132.477 139.844 132.977H136.996C136.996 132.281 137.227 131.633 137.688 131.031C138.148 130.422 138.773 129.945 139.562 129.602C140.359 129.258 141.246 129.086 142.223 129.086C143.707 129.086 144.891 129.461 145.773 130.211C146.656 130.953 147.109 132 147.133 133.352V139.07C147.133 140.211 147.293 141.121 147.613 141.801V142H144.707ZM141.578 139.949C142.141 139.949 142.668 139.812 143.16 139.539C143.66 139.266 144.035 138.898 144.285 138.438V136.047H142.75C141.695 136.047 140.902 136.23 140.371 136.598C139.84 136.965 139.574 137.484 139.574 138.156C139.574 138.703 139.754 139.141 140.113 139.469C140.48 139.789 140.969 139.949 141.578 139.949ZM153.145 142H150.297V124H153.145V142ZM159.285 142H156.438V124H159.285V142ZM167.98 142.234C166.176 142.234 164.711 141.668 163.586 140.535C162.469 139.395 161.91 137.879 161.91 135.988V135.637C161.91 134.371 162.152 133.242 162.637 132.25C163.129 131.25 163.816 130.473 164.699 129.918C165.582 129.363 166.566 129.086 167.652 129.086C169.379 129.086 170.711 129.637 171.648 130.738C172.594 131.84 173.066 133.398 173.066 135.414V136.562H164.781C164.867 137.609 165.215 138.438 165.824 139.047C166.441 139.656 167.215 139.961 168.145 139.961C169.449 139.961 170.512 139.434 171.332 138.379L172.867 139.844C172.359 140.602 171.68 141.191 170.828 141.613C169.984 142.027 169.035 142.234 167.98 142.234ZM167.641 131.371C166.859 131.371 166.227 131.645 165.742 132.191C165.266 132.738 164.961 133.5 164.828 134.477H170.254V134.266C170.191 133.312 169.938 132.594 169.492 132.109C169.047 131.617 168.43 131.371 167.641 131.371ZM178.855 126.238V129.32H181.094V131.43H178.855V138.508C178.855 138.992 178.949 139.344 179.137 139.562C179.332 139.773 179.676 139.879 180.168 139.879C180.496 139.879 180.828 139.84 181.164 139.762V141.965C180.516 142.145 179.891 142.234 179.289 142.234C177.102 142.234 176.008 141.027 176.008 138.613V131.43H173.922V129.32H176.008V126.238H178.855Z" fill="white"/>
</g>
<path d="M204.25 79.1563V68.4689C204.25 66.5024 202.57 64.9065 200.5 64.9065H151.75C149.68 64.9063 148 66.5024 148 68.4689V98.7502C148 100.717 149.68 102.313 151.75 102.313H200.5C202.57 102.313 204.25 100.717 204.25 98.7502V88.0627C206.32 88.0627 208 86.4667 208 84.5002V82.7189C208 80.7524 206.322 79.1563 204.25 79.1563Z" fill="#42957D"/>
<path d="M157.375 56H194.875C196.945 56 198.625 57.5959 198.625 59.5642V84.4999C198.625 86.4682 196.945 88.0624 194.875 88.0624H157.375C155.305 88.0624 153.625 86.4664 153.625 84.4999V59.5642C153.625 57.5959 155.305 56 157.375 56Z" fill="#E4E7E7"/>
<path d="M165.37 64.9438C165.37 64.9438 167.645 64.9065 169.793 64.9065C171.944 64.9065 172.325 68.3408 172.325 68.3408C172.325 68.3408 172.364 71.9335 172.364 72.8189C172.364 73.706 170.513 75.4641 170.513 75.4641V77.2685L176.14 79.4059V82.7191H159.239L159.257 79.3366L164.89 77.2864V75.5194C164.89 75.5194 163.019 73.9287 163.019 72.8191V68.3406C163.019 68.3406 163.18 64.9438 165.37 64.9438Z" fill="#868686"/>
<path d="M191.125 72.0312H178V75.5937H191.125V72.0312Z" fill="#B7BBBD"/>
<path d="M191.125 64.906H178V68.4702H191.125V64.906Z" fill="#B7BBBD"/>
<path d="M194.875 56H157.375C155.305 56 153.625 57.5959 153.625 59.5642V61.3438H198.625V59.5642C198.625 57.5959 196.947 56 194.875 56Z" fill="#B7BBBD"/>
<path d="M151.75 70.2517L193 75.5937C195.07 75.5937 196.75 77.1896 196.75 79.1561V109.437C196.75 111.404 195.07 113 193 113L151.75 107.656C149.68 107.656 148 106.06 148 104.094V66.6875C148 68.6683 149.68 70.2517 151.75 70.2517Z" fill="#F4B459"/>
<path d="M188.313 88.0625C189.865 88.0625 191.125 89.2595 191.125 90.7343C191.125 92.2091 189.865 93.4061 188.313 93.4061C186.76 93.4061 185.5 92.2108 185.5 90.7343C185.5 89.2577 186.76 88.0625 188.313 88.0625Z" fill="#E4E7E7"/>
<path d="M151.75 107.656L193 113C195.07 113 196.75 111.404 196.75 109.438V102.312L151.75 96.9687C149.68 96.9687 148 95.3851 148 93.4062V104.094C148 106.062 149.68 107.656 151.75 107.656Z" fill="#266150"/>
<path d="M198.625 86.2812C198.625 86.2812 208 84.4233 208 82.7188V88.0625C208 88.0625 206.32 91.625 204.25 91.625L198.625 93.4063C196.553 93.4063 194.875 91.8103 194.875 89.8438C194.875 87.8771 196.555 86.2812 198.625 86.2812Z" fill="#266150"/>
</g>
<defs>
<filter id="filter0_d" x="0" y="0" width="268" height="174" filterUnits="userSpaceOnUse" color-interpolation-filters="sRGB">
<feFlood flood-opacity="0" result="BackgroundImageFix"/>
<feColorMatrix in="SourceAlpha" type="matrix" values="0 0 0 0 0 0 0 0 0 0 0 0 0 0 0 0 0 0 127 0" result="hardAlpha"/>
<feOffset dy="4"/>
<feGaussianBlur stdDeviation="2"/>
<feComposite in2="hardAlpha" operator="out"/>
<feColorMatrix type="matrix" values="0 0 0 0 0 0 0 0 0 0 0 0 0 0 0 0 0 0 0.25 0"/>
<feBlend mode="normal" in2="BackgroundImageFix" result="effect1_dropShadow"/>
<feBlend mode="normal" in="SourceGraphic" in2="effect1_dropShadow" result="shape"/>
</filter>
<filter id="filter1_d" x="34.125" y="124" width="151.039" height="28.9531" filterUnits="userSpaceOnUse" color-interpolation-filters="sRGB">
<feFlood flood-opacity="0" result="BackgroundImageFix"/>
<feColorMatrix in="SourceAlpha" type="matrix" values="0 0 0 0 0 0 0 0 0 0 0 0 0 0 0 0 0 0 127 0" result="hardAlpha"/>
<feOffset dy="4"/>
<feGaussianBlur stdDeviation="2"/>
<feComposite in2="hardAlpha" operator="out"/>
<feColorMatrix type="matrix" values="0 0 0 0 0 0 0 0 0 0 0 0 0 0 0 0 0 0 0.25 0"/>
<feBlend mode="normal" in2="BackgroundImageFix" result="effect1_dropShadow"/>
<feBlend mode="normal" in="SourceGraphic" in2="effect1_dropShadow" result="shape"/>
</filter>
</defs>
</svg>
