<svg width="80" height="80" viewBox="0 0 80 80" fill="none" xmlns="http://www.w3.org/2000/svg">
<path d="M80 40C80 62.0914 62.0914 80 40 80C17.9086 80 0 62.0914 0 40C0 17.9086 17.9086 0 40 0C62.0914 0 80 17.9086 80 40Z" fill="#8FBAAD"/>
<path d="M77.5 40C77.5 60.7107 60.7107 77.5 40 77.5C19.2893 77.5 2.5 60.7107 2.5 40C2.5 19.2893 19.2893 2.5 40 2.5C60.7107 2.5 77.5 19.2893 77.5 40Z" stroke="white" stroke-opacity="0.3" stroke-width="5"/>
<path d="M59.4457 37.062V29.6105C59.4457 28.2394 58.2686 27.1267 56.8181 27.1267H22.6582C21.2077 27.1266 20.0305 28.2394 20.0305 29.6105V50.7234C20.0305 52.0945 21.2077 53.2072 22.6582 53.2072H56.8181C58.2686 53.2072 59.4457 52.0945 59.4457 50.7234V43.2718C60.8962 43.2718 62.0734 42.1591 62.0734 40.788V39.546C62.0737 38.1749 60.8975 37.062 59.4457 37.062Z" fill="#42957D"/>
<path d="M26.5998 20.9167H52.8767C54.3272 20.9167 55.5043 22.0295 55.5043 23.4018V40.7876C55.5043 42.16 54.3272 43.2715 52.8767 43.2715H26.5998C25.1493 43.2715 23.9722 42.1588 23.9722 40.7876V23.4018C23.9722 22.0295 25.1493 20.9167 26.5998 20.9167Z" fill="#E4E7E7"/>
<path d="M32.2021 27.1527C32.2021 27.1527 33.7958 27.1267 35.3015 27.1267C36.8085 27.1267 37.0752 29.5212 37.0752 29.5212C37.0752 29.5212 37.1027 32.0261 37.1027 32.6434C37.1027 33.262 35.806 34.4877 35.806 34.4877V35.7458L39.7488 37.2361V39.5461H27.9058L27.9189 37.1877L31.8656 35.7583V34.5263C31.8656 34.5263 30.5544 33.4173 30.5544 32.6436V29.521C30.5544 29.521 30.6674 27.1527 32.2021 27.1527Z" fill="#868686"/>
<path d="M50.249 32.0942H41.052V34.5781H50.249V32.0942Z" fill="#B7BBBD"/>
<path d="M50.249 27.1262H41.052V29.6113H50.249V27.1262Z" fill="#B7BBBD"/>
<path d="M52.8767 20.9167H26.5998C25.1493 20.9167 23.9722 22.0295 23.9722 23.4018V24.6426H55.5045V23.4018C55.5043 22.0295 54.3285 20.9167 52.8767 20.9167Z" fill="#B7BBBD"/>
<path d="M22.6582 30.8535L51.5627 34.578C53.0132 34.578 54.1903 35.6908 54.1903 37.0619V58.1748C54.1903 59.5459 53.0132 60.6586 51.5627 60.6586L22.6582 56.9329C21.2077 56.9329 20.0305 55.8201 20.0305 54.4489V28.3684C20.0305 29.7495 21.2077 30.8535 22.6582 30.8535Z" fill="#F4B459"/>
<path d="M48.2783 43.2717C49.3661 43.2717 50.249 44.1063 50.249 45.1346C50.249 46.1628 49.3661 46.9974 48.2783 46.9974C47.1905 46.9974 46.3076 46.1641 46.3076 45.1346C46.3076 44.1051 47.1905 43.2717 48.2783 43.2717Z" fill="#E4E7E7"/>
<path d="M22.6582 56.9328L51.5627 60.6586C53.0132 60.6586 54.1903 59.5459 54.1903 58.1747V53.207L22.6582 49.4811C21.2077 49.4811 20.0305 48.377 20.0305 46.9973V54.4489C20.0305 55.8211 21.2077 56.9328 22.6582 56.9328Z" fill="#266150"/>
<path d="M55.5041 42.0297C55.5041 42.0297 62.0733 40.7343 62.0733 39.5459V43.2717C62.0733 43.2717 60.8961 45.7555 59.4456 45.7555L55.5041 46.9975C54.0523 46.9975 52.8765 45.8848 52.8765 44.5137C52.8765 43.1424 54.0538 42.0297 55.5041 42.0297Z" fill="#266150"/>
</svg>
