<svg width="40" height="40" viewBox="0 0 40 40" fill="none" xmlns="http://www.w3.org/2000/svg">
<path d="M20.0026 3.33301C10.8026 3.33301 3.33594 10.7997 3.33594 19.9997C3.33594 29.1997 10.8026 36.6663 20.0026 36.6663C29.2026 36.6663 36.6693 29.1997 36.6693 19.9997C36.6693 10.7997 29.2026 3.33301 20.0026 3.33301ZM27.7359 14.6663C27.4859 17.2997 26.4026 23.6997 25.8526 26.6497C25.6193 27.8997 25.1526 28.3163 24.7193 28.3663C23.7526 28.4497 23.0193 27.733 22.0859 27.1163C20.6193 26.1497 19.7859 25.5497 18.3693 24.6163C16.7193 23.533 17.7859 22.933 18.7359 21.9663C18.9859 21.7163 23.2526 17.833 23.3359 17.483C23.3475 17.43 23.346 17.375 23.3315 17.3227C23.3169 17.2704 23.2899 17.2225 23.2526 17.183C23.1526 17.0997 23.0193 17.133 22.9026 17.1497C22.7526 17.183 20.4193 18.733 15.8693 21.7997C15.2026 22.2497 14.6026 22.483 14.0693 22.4663C13.4693 22.4497 12.3359 22.133 11.4859 21.8497C10.4359 21.5163 9.61927 21.333 9.68594 20.7497C9.71927 20.4497 10.1359 20.1497 10.9193 19.833C15.7859 17.7163 19.0193 16.3163 20.6359 15.6497C25.2693 13.7163 26.2193 13.383 26.8526 13.383C26.9859 13.383 27.3026 13.4163 27.5026 13.583C27.6693 13.7163 27.7193 13.8997 27.7359 14.033C27.7193 14.133 27.7526 14.433 27.7359 14.6663Z" fill="#F9F4F4"/>
</svg>
