<svg width="146" height="169" viewBox="0 0 146 169" fill="none" xmlns="http://www.w3.org/2000/svg">
<ellipse cx="71.4987" cy="67.3702" rx="57.0846" ry="57.3702" fill="#8FBAAD"/>
<path d="M71.4987 129.74C105.811 129.74 133.583 101.793 133.583 67.3702C133.583 32.9476 105.811 5 71.4987 5C37.1868 5 9.41406 32.9476 9.41406 67.3702C9.41406 101.793 37.1868 129.74 71.4987 129.74Z" stroke="white" stroke-opacity="0.9" stroke-width="10"/>
<g clip-path="url(#clip0_2166_520)" filter="url(#filter0_d_2166_520)">
<path d="M94.352 49.6987V86.0165C94.352 89.1022 91.7117 91.6039 88.4549 91.6039H38.3297C35.073 91.6039 32.4326 89.1023 32.4326 86.0165V49.6987C32.4326 46.613 35.0728 44.1113 38.3297 44.1113H88.455C91.7118 44.1113 94.352 46.613 94.352 49.6987Z" fill="#F2EFE2"/>
<path d="M64.8668 56.6829C64.8668 65.9404 56.9462 73.445 47.1756 73.445C37.405 73.445 29.4844 65.9404 29.4844 56.6829C29.4844 47.4255 37.405 39.9209 47.1756 39.9209C56.9462 39.9209 64.8668 47.4255 64.8668 56.6829Z" fill="#E8BA52"/>
<path d="M61.9181 56.6822C61.9181 64.3967 55.3175 70.6506 47.1754 70.6506C39.0333 70.6506 32.4326 64.3967 32.4326 56.6822C32.4326 48.9678 39.0332 42.7139 47.1753 42.7139C55.3174 42.7139 61.9181 48.9678 61.9181 56.6822Z" fill="#ECDBAC"/>
<path d="M55.5999 56.6832C55.5999 61.0915 51.8282 64.6652 47.1755 64.6652C42.5227 64.6652 38.751 61.0915 38.751 56.6832C38.751 52.2748 42.5227 48.7012 47.1755 48.7012C51.8282 48.7012 55.5999 52.2748 55.5999 56.6832Z" fill="#EEDA5F"/>
<path d="M50.3876 48.1818V45.5076C50.3876 44.9291 49.8925 44.46 49.2819 44.46C48.6713 44.46 48.1761 44.9291 48.1761 45.5076V47.7027C47.8473 47.6701 47.5136 47.6527 47.1757 47.6527C46.8378 47.6527 46.5042 47.6701 46.1753 47.7027V45.5076C46.1753 44.9291 45.6802 44.46 45.0696 44.46C44.4589 44.46 43.9638 44.9291 43.9638 45.5076V48.1817C40.2847 49.4334 37.6455 52.7709 37.6455 56.6823C37.6455 60.5936 40.2847 63.9311 43.9638 65.1828V67.8569C43.9638 68.4355 44.4589 68.9046 45.0696 68.9046C45.6802 68.9046 46.1753 68.4355 46.1753 67.8569V65.6618C46.5042 65.6945 46.8378 65.7118 47.1757 65.7118C47.5136 65.7118 47.8473 65.6945 48.1761 65.6618V67.8569C48.1761 68.4355 48.6713 68.9046 49.2819 68.9046C49.8925 68.9046 50.3876 68.4355 50.3876 67.8569V65.1828C54.0668 63.9311 56.7059 60.5936 56.7059 56.6823C56.7059 52.7709 54.0668 49.4335 50.3876 48.1818ZM43.9638 62.9116C41.5341 61.7824 39.857 59.4148 39.857 56.6824C39.857 53.9499 41.5341 51.5824 43.9638 50.4532V62.9116ZM48.1761 63.5502C47.8488 63.5928 47.5152 63.6167 47.1757 63.6167C46.8362 63.6167 46.5027 63.593 46.1753 63.5502V49.8146C46.5026 49.772 46.8362 49.748 47.1757 49.748C47.5152 49.748 47.8487 49.7718 48.1761 49.8146V63.5502ZM50.3876 62.9116V50.4532C52.8173 51.5824 54.4945 53.9501 54.4945 56.6824C54.4945 59.4147 52.8173 61.7824 50.3876 62.9116Z" fill="#266150"/>
<path d="M58.97 66.8896H94.3525C95.981 66.8896 97.3011 68.1404 97.3011 69.6833V97.1903C97.3011 98.7333 95.981 99.984 94.3525 99.984H58.97C57.3415 99.984 56.0215 98.7333 56.0215 97.1903V69.6833C56.0215 68.1404 57.3415 66.8896 58.97 66.8896Z" fill="#266150"/>
<path d="M71.8976 74.4119C71.8976 76.0736 70.476 77.4205 68.7223 77.4205C66.9686 77.4205 65.5469 76.0736 65.5469 74.4119C65.5469 72.7503 66.9685 71.4033 68.7223 71.4033C70.476 71.4033 71.8976 72.7503 71.8976 74.4119ZM84.5991 71.4033C82.8454 71.4033 81.4237 72.7503 81.4237 74.4119C81.4237 76.0736 82.8454 77.4205 84.5991 77.4205C86.3528 77.4205 87.7745 76.0736 87.7745 74.4119C87.7745 72.7503 86.3529 71.4033 84.5991 71.4033Z" fill="#1F7E63"/>
<path d="M85.7054 65.3865V74.4121C85.7054 74.9906 85.2103 75.4597 84.5997 75.4597C83.989 75.4597 83.4939 74.9906 83.4939 74.4121V65.3865C83.4939 61.8168 80.4288 58.9127 76.6613 58.9127C72.8938 58.9127 69.8286 61.8168 69.8286 65.3865V74.4121C69.8286 74.9906 69.3335 75.4597 68.7229 75.4597C68.1123 75.4597 67.6172 74.9906 67.6172 74.4121V65.3865C67.6172 60.6615 71.6744 56.8174 76.6613 56.8174C81.6482 56.8174 85.7054 60.6615 85.7054 65.3865Z" fill="#50D0AB"/>
<path d="M95.458 49.3386V61.9101C95.458 62.4887 94.9629 62.9578 94.3523 62.9578C93.7417 62.9578 93.2465 62.4887 93.2465 61.9101V49.3386C93.2465 46.8354 91.0971 44.7988 88.4551 44.7988H75.239V48.428C75.239 48.574 75.1613 48.7143 75.0232 48.8176C74.7353 49.0329 74.2686 49.0329 73.9808 48.8176L68.2473 44.5306C67.6716 44.1002 67.6716 43.4023 68.2473 42.9717L73.9808 38.6849C74.2688 38.4696 74.7354 38.4696 75.0232 38.6849C75.1615 38.7883 75.239 38.9284 75.239 39.0745V42.7035H88.4551C92.3164 42.7035 95.458 45.6801 95.458 49.3386ZM58.538 91.1834L52.8045 86.8964C52.5165 86.6812 52.0499 86.6812 51.762 86.8964C51.6238 86.9998 51.5461 87.14 51.5461 87.2861V90.9152H38.33C35.6881 90.9152 33.5386 88.8786 33.5386 86.3754V73.8039C33.5386 73.2253 33.0435 72.7562 32.4329 72.7562C31.8223 72.7562 31.3271 73.2253 31.3271 73.8039V86.3754C31.3271 90.0339 34.4687 93.0105 38.33 93.0105H51.5461V96.6395C51.5461 96.7856 51.6239 96.9259 51.762 97.0292C52.05 97.2444 52.5166 97.2444 52.8045 97.0292L58.538 92.7423C59.1136 92.3117 59.1136 91.6137 58.538 91.1834Z" fill="#F7931A"/>
</g>
<ellipse cx="117.166" cy="36.161" rx="22.8338" ry="22.9481" fill="#A9CAC0"/>
<path d="M117.166 61.609C131.169 61.609 142.5 50.2038 142.5 36.161C142.5 22.1182 131.169 10.7129 117.166 10.7129C103.163 10.7129 91.832 22.1182 91.832 36.161C91.832 50.2038 103.163 61.609 117.166 61.609Z" stroke="white" stroke-opacity="0.3" stroke-width="5"/>
<g filter="url(#filter1_d_2166_520)">
<path d="M21.168 155V137.938H27.0156C28.9453 137.938 30.4141 138.324 31.4219 139.098C32.4297 139.871 32.9336 141.023 32.9336 142.555C32.9336 143.336 32.7227 144.039 32.3008 144.664C31.8789 145.289 31.2617 145.773 30.4492 146.117C31.3711 146.367 32.082 146.84 32.582 147.535C33.0898 148.223 33.3438 149.051 33.3438 150.02C33.3438 151.621 32.8281 152.852 31.7969 153.711C30.7734 154.57 29.3047 155 27.3906 155H21.168ZM24.1328 147.301V152.633H27.4258C28.3555 152.633 29.082 152.402 29.6055 151.941C30.1289 151.48 30.3906 150.84 30.3906 150.02C30.3906 148.246 29.4844 147.34 27.6719 147.301H24.1328ZM24.1328 145.121H27.0391C27.9609 145.121 28.6797 144.914 29.1953 144.5C29.7188 144.078 29.9805 143.484 29.9805 142.719C29.9805 141.875 29.7383 141.266 29.2539 140.891C28.7773 140.516 28.0312 140.328 27.0156 140.328H24.1328V145.121ZM43.7148 153.758C42.8789 154.742 41.6914 155.234 40.1523 155.234C38.7773 155.234 37.7344 154.832 37.0234 154.027C36.3203 153.223 35.9688 152.059 35.9688 150.535V142.32H38.8164V150.5C38.8164 152.109 39.4844 152.914 40.8203 152.914C42.2031 152.914 43.1367 152.418 43.6211 151.426V142.32H46.4688V155H43.7852L43.7148 153.758ZM53.8047 150.922L56.3828 142.32H59.418L54.3789 156.922C53.6055 159.055 52.293 160.121 50.4414 160.121C50.0273 160.121 49.5703 160.051 49.0703 159.91V157.707L49.6094 157.742C50.3281 157.742 50.8672 157.609 51.2266 157.344C51.5938 157.086 51.8828 156.648 52.0938 156.031L52.5039 154.941L48.0508 142.32H51.1211L53.8047 150.922ZM66.5898 150.395C66.5898 149.605 66.8047 148.883 67.2344 148.227C67.6641 147.562 68.5117 146.777 69.7773 145.871C69.1133 145.035 68.6484 144.324 68.3828 143.738C68.125 143.152 67.9961 142.586 67.9961 142.039C67.9961 140.703 68.4023 139.648 69.2148 138.875C70.0273 138.094 71.1211 137.703 72.4961 137.703C73.7383 137.703 74.7539 138.07 75.543 138.805C76.3398 139.531 76.7383 140.434 76.7383 141.512C76.7383 142.223 76.5586 142.879 76.1992 143.48C75.8398 144.074 75.25 144.668 74.4297 145.262L73.2695 146.105L76.5625 149.996C77.0391 149.059 77.2773 148.016 77.2773 146.867H79.75C79.75 148.969 79.2578 150.691 78.2734 152.035L80.7812 155H77.4766L76.5156 153.863C75.2969 154.777 73.8438 155.234 72.1562 155.234C70.4688 155.234 69.1172 154.789 68.1016 153.898C67.0938 153 66.5898 151.832 66.5898 150.395ZM72.2383 152.961C73.1992 152.961 74.0977 152.641 74.9336 152L71.207 147.605L70.8438 147.863C69.9062 148.574 69.4375 149.387 69.4375 150.301C69.4375 151.09 69.6914 151.73 70.1992 152.223C70.707 152.715 71.3867 152.961 72.2383 152.961ZM70.668 141.969C70.668 142.625 71.0703 143.449 71.875 144.441L73.1758 143.551L73.5391 143.258C74.0234 142.828 74.2656 142.277 74.2656 141.605C74.2656 141.16 74.0977 140.781 73.7617 140.469C73.4258 140.148 73 139.988 72.4844 139.988C71.9297 139.988 71.4883 140.176 71.1602 140.551C70.832 140.926 70.668 141.398 70.668 141.969ZM97.5625 150.605C97.5625 149.855 97.2969 149.277 96.7656 148.871C96.2422 148.465 95.293 148.055 93.918 147.641C92.543 147.227 91.4492 146.766 90.6367 146.258C89.082 145.281 88.3047 144.008 88.3047 142.438C88.3047 141.062 88.8633 139.93 89.9805 139.039C91.1055 138.148 92.5625 137.703 94.3516 137.703C95.5391 137.703 96.5977 137.922 97.5273 138.359C98.457 138.797 99.1875 139.422 99.7188 140.234C100.25 141.039 100.516 141.934 100.516 142.918H97.5625C97.5625 142.027 97.2812 141.332 96.7188 140.832C96.1641 140.324 95.3672 140.07 94.3281 140.07C93.3594 140.07 92.6055 140.277 92.0664 140.691C91.5352 141.105 91.2695 141.684 91.2695 142.426C91.2695 143.051 91.5586 143.574 92.1367 143.996C92.7148 144.41 93.668 144.816 94.9961 145.215C96.3242 145.605 97.3906 146.055 98.1953 146.562C99 147.062 99.5898 147.641 99.9648 148.297C100.34 148.945 100.527 149.707 100.527 150.582C100.527 152.004 99.9805 153.137 98.8867 153.98C97.8008 154.816 96.3242 155.234 94.457 155.234C93.2227 155.234 92.0859 155.008 91.0469 154.555C90.0156 154.094 89.2109 153.461 88.6328 152.656C88.0625 151.852 87.7773 150.914 87.7773 149.844H90.7422C90.7422 150.812 91.0625 151.562 91.7031 152.094C92.3438 152.625 93.2617 152.891 94.457 152.891C95.4883 152.891 96.2617 152.684 96.7773 152.27C97.3008 151.848 97.5625 151.293 97.5625 150.605ZM108.438 155.234C106.633 155.234 105.168 154.668 104.043 153.535C102.926 152.395 102.367 150.879 102.367 148.988V148.637C102.367 147.371 102.609 146.242 103.094 145.25C103.586 144.25 104.273 143.473 105.156 142.918C106.039 142.363 107.023 142.086 108.109 142.086C109.836 142.086 111.168 142.637 112.105 143.738C113.051 144.84 113.523 146.398 113.523 148.414V149.562H105.238C105.324 150.609 105.672 151.438 106.281 152.047C106.898 152.656 107.672 152.961 108.602 152.961C109.906 152.961 110.969 152.434 111.789 151.379L113.324 152.844C112.816 153.602 112.137 154.191 111.285 154.613C110.441 155.027 109.492 155.234 108.438 155.234ZM108.098 144.371C107.316 144.371 106.684 144.645 106.199 145.191C105.723 145.738 105.418 146.5 105.285 147.477H110.711V147.266C110.648 146.312 110.395 145.594 109.949 145.109C109.504 144.617 108.887 144.371 108.098 144.371ZM118.773 155H115.926V137H118.773V155ZM124.914 155H122.066V137H124.914V155Z" fill="#8FBAAD"/>
</g>
<defs>
<filter id="filter0_d_2166_520" x="25.4844" y="37.127" width="75.8164" height="72.2549" filterUnits="userSpaceOnUse" color-interpolation-filters="sRGB">
<feFlood flood-opacity="0" result="BackgroundImageFix"/>
<feColorMatrix in="SourceAlpha" type="matrix" values="0 0 0 0 0 0 0 0 0 0 0 0 0 0 0 0 0 0 127 0" result="hardAlpha"/>
<feOffset dy="4"/>
<feGaussianBlur stdDeviation="2"/>
<feComposite in2="hardAlpha" operator="out"/>
<feColorMatrix type="matrix" values="0 0 0 0 0 0 0 0 0 0 0 0 0 0 0 0 0 0 0.25 0"/>
<feBlend mode="normal" in2="BackgroundImageFix" result="effect1_dropShadow_2166_520"/>
<feBlend mode="normal" in="SourceGraphic" in2="effect1_dropShadow_2166_520" result="shape"/>
</filter>
<filter id="filter1_d_2166_520" x="17.168" y="137" width="111.746" height="31.1211" filterUnits="userSpaceOnUse" color-interpolation-filters="sRGB">
<feFlood flood-opacity="0" result="BackgroundImageFix"/>
<feColorMatrix in="SourceAlpha" type="matrix" values="0 0 0 0 0 0 0 0 0 0 0 0 0 0 0 0 0 0 127 0" result="hardAlpha"/>
<feOffset dy="4"/>
<feGaussianBlur stdDeviation="2"/>
<feComposite in2="hardAlpha" operator="out"/>
<feColorMatrix type="matrix" values="0 0 0 0 0 0 0 0 0 0 0 0 0 0 0 0 0 0 0.25 0"/>
<feBlend mode="normal" in2="BackgroundImageFix" result="effect1_dropShadow_2166_520"/>
<feBlend mode="normal" in="SourceGraphic" in2="effect1_dropShadow_2166_520" result="shape"/>
</filter>
<clipPath id="clip0_2166_520">
<rect width="67.8165" height="64.2546" fill="white" transform="translate(29.4844 37.127)"/>
</clipPath>
</defs>
</svg>
