<svg width="96" height="113" viewBox="0 0 96 113" fill="none" xmlns="http://www.w3.org/2000/svg">
<ellipse cx="45.5853" cy="44.9722" rx="34.7981" ry="34.9722" fill="#8FBAAD"/>
<path d="M45.5853 84.9445C67.5887 84.9445 85.3834 67.0247 85.3834 44.9722C85.3834 22.9197 67.5887 5 45.5853 5C23.5819 5 5.78711 22.9197 5.78711 44.9722C5.78711 67.0247 23.5819 84.9445 45.5853 84.9445Z" stroke="white" stroke-opacity="0.9" stroke-width="10"/>
<g clip-path="url(#clip0_2202_262)" filter="url(#filter0_d_2202_262)">
<path d="M61.5169 34.1997V56.3386C61.5169 58.2197 59.9073 59.7446 57.922 59.7446H27.3663C25.381 59.7446 23.7715 58.2197 23.7715 56.3386V34.1997C23.7715 32.3187 25.3809 30.7937 27.3663 30.7937H57.9221C59.9074 30.7937 61.5169 32.3187 61.5169 34.1997Z" fill="#F2EFE2"/>
<path d="M43.5424 38.4571C43.5424 44.1003 38.7141 48.675 32.758 48.675C26.802 48.675 21.9736 44.1003 21.9736 38.4571C21.9736 32.8139 26.802 28.2391 32.758 28.2391C38.7141 28.2391 43.5424 32.8139 43.5424 38.4571Z" fill="#E8BA52"/>
<path d="M41.7455 38.4574C41.7455 43.16 37.7219 46.9724 32.7585 46.9724C27.7952 46.9724 23.7715 43.16 23.7715 38.4574C23.7715 33.7548 27.7951 29.9424 32.7585 29.9424C37.7218 29.9424 41.7455 33.7548 41.7455 38.4574Z" fill="#ECDBAC"/>
<path d="M37.893 38.4571C37.893 41.1443 35.5938 43.3228 32.7575 43.3228C29.9213 43.3228 27.6221 41.1443 27.6221 38.4571C27.6221 35.7698 29.9213 33.5913 32.7575 33.5913C35.5938 33.5913 37.893 35.7698 37.893 38.4571Z" fill="#EEDA5F"/>
<path d="M34.7157 33.2755V31.6454C34.7157 31.2927 34.4139 31.0067 34.0416 31.0067C33.6694 31.0067 33.3676 31.2927 33.3676 31.6454V32.9834C33.1671 32.9636 32.9637 32.953 32.7577 32.953C32.5518 32.953 32.3484 32.9636 32.1479 32.9834V31.6454C32.1479 31.2927 31.8461 31.0067 31.4739 31.0067C31.1016 31.0067 30.7998 31.2927 30.7998 31.6454V33.2754C28.557 34.0385 26.9482 36.073 26.9482 38.4573C26.9482 40.8416 28.557 42.8761 30.7998 43.6391V45.2692C30.7998 45.6219 31.1016 45.9079 31.4739 45.9079C31.8461 45.9079 32.1479 45.6219 32.1479 45.2692V43.9311C32.3484 43.951 32.5518 43.9616 32.7577 43.9616C32.9637 43.9616 33.1671 43.951 33.3676 43.9311V45.2692C33.3676 45.6219 33.6694 45.9079 34.0416 45.9079C34.4139 45.9079 34.7157 45.6219 34.7157 45.2692V43.6391C36.9585 42.8761 38.5673 40.8416 38.5673 38.4573C38.5673 36.073 36.9585 34.0386 34.7157 33.2755ZM30.7998 42.2546C29.3187 41.5663 28.2963 40.123 28.2963 38.4574C28.2963 36.7917 29.3187 35.3485 30.7998 34.6601V42.2546ZM33.3676 42.6439C33.1681 42.6699 32.9647 42.6845 32.7577 42.6845C32.5508 42.6845 32.3475 42.67 32.1479 42.6439V34.2708C32.3474 34.2449 32.5508 34.2303 32.7577 34.2303C32.9647 34.2303 33.168 34.2447 33.3676 34.2708V42.6439ZM34.7157 42.2546V34.6601C36.1968 35.3485 37.2192 36.7918 37.2192 38.4574C37.2192 40.123 36.1968 41.5663 34.7157 42.2546Z" fill="#266150"/>
<path d="M39.9478 44.6801H61.5166C62.5093 44.6801 63.314 45.4425 63.314 46.3831V63.151C63.314 64.0916 62.5093 64.854 61.5166 64.854H39.9478C38.9551 64.854 38.1504 64.0916 38.1504 63.151V46.3831C38.1504 45.4425 38.9551 44.6801 39.9478 44.6801Z" fill="#266150"/>
<path d="M47.8284 49.2646C47.8284 50.2776 46.9618 51.0987 45.8928 51.0987C44.8237 51.0987 43.957 50.2776 43.957 49.2646C43.957 48.2518 44.8236 47.4307 45.8928 47.4307C46.9618 47.4307 47.8284 48.2518 47.8284 49.2646ZM55.571 47.4307C54.502 47.4307 53.6354 48.2518 53.6354 49.2646C53.6354 50.2776 54.502 51.0987 55.571 51.0987C56.6401 51.0987 57.5068 50.2776 57.5068 49.2646C57.5068 48.2518 56.6402 47.4307 55.571 47.4307Z" fill="#1F7E63"/>
<path d="M56.2451 43.7626V49.2645C56.2451 49.6172 55.9433 49.9031 55.5711 49.9031C55.1989 49.9031 54.897 49.6172 54.897 49.2645V43.7626C54.897 41.5865 53.0286 39.8162 50.7319 39.8162C48.4353 39.8162 46.5668 41.5865 46.5668 43.7626V49.2645C46.5668 49.6172 46.265 49.9031 45.8928 49.9031C45.5206 49.9031 45.2188 49.6172 45.2188 49.2645V43.7626C45.2188 40.8823 47.692 38.5389 50.7319 38.5389C53.7719 38.5389 56.2451 40.8823 56.2451 43.7626Z" fill="#50D0AB"/>
<path d="M62.1901 33.9807V41.6442C62.1901 41.9969 61.8883 42.2829 61.5161 42.2829C61.1439 42.2829 60.8421 41.9969 60.8421 41.6442V33.9807C60.8421 32.4548 59.5318 31.2134 57.9213 31.2134H49.8649V33.4256C49.8649 33.5147 49.8175 33.6002 49.7333 33.6632C49.5578 33.7944 49.2733 33.7944 49.0979 33.6632L45.6028 31.0499C45.2519 30.7875 45.2519 30.362 45.6028 30.0996L49.0979 27.4863C49.2734 27.3551 49.5579 27.3551 49.7333 27.4863C49.8176 27.5494 49.8649 27.6348 49.8649 27.7239V29.9361H57.9213C60.2751 29.9361 62.1901 31.7505 62.1901 33.9807ZM39.6841 59.4889L36.189 56.8756C36.0135 56.7444 35.729 56.7444 35.5536 56.8756C35.4693 56.9386 35.422 57.0241 35.422 57.1131V59.3254H27.3655C25.755 59.3254 24.4448 58.0839 24.4448 56.558V48.8945C24.4448 48.5418 24.1429 48.2559 23.7707 48.2559C23.3985 48.2559 23.0967 48.5418 23.0967 48.8945V56.558C23.0967 58.7882 25.0117 60.6026 27.3655 60.6026H35.422V62.8149C35.422 62.9039 35.4693 62.9894 35.5536 63.0524C35.7291 63.1836 36.0136 63.1836 36.189 63.0524L39.6841 60.4392C40.035 60.1767 40.035 59.7512 39.6841 59.4889Z" fill="#F7931A"/>
</g>
<ellipse cx="76.4232" cy="25.9475" rx="13.9193" ry="13.9889" fill="#A9CAC0"/>
<path d="M76.4232 42.4363C85.503 42.4363 92.8424 35.0422 92.8424 25.9475C92.8424 16.8527 85.503 9.45856 76.4232 9.45856C67.3433 9.45856 60.0039 16.8527 60.0039 25.9475C60.0039 35.0422 67.3433 42.4363 76.4232 42.4363Z" stroke="white" stroke-opacity="0.3" stroke-width="5"/>
<path d="M14.105 105.932V95.2675H17.7598C18.9658 95.2675 19.8838 95.5092 20.5137 95.9926C21.1436 96.476 21.4585 97.1962 21.4585 98.1532C21.4585 98.6415 21.3267 99.0809 21.063 99.4716C20.7993 99.8622 20.4136 100.165 19.9058 100.38C20.4819 100.536 20.9263 100.831 21.2388 101.266C21.5562 101.696 21.7148 102.213 21.7148 102.819C21.7148 103.82 21.3926 104.589 20.748 105.126C20.1084 105.663 19.1904 105.932 17.9941 105.932H14.105ZM15.958 101.12V104.452H18.0161C18.5972 104.452 19.0513 104.308 19.3784 104.02C19.7056 103.732 19.8691 103.331 19.8691 102.819C19.8691 101.71 19.3027 101.144 18.1699 101.12H15.958ZM15.958 99.7572H17.7744C18.3506 99.7572 18.7998 99.6278 19.1221 99.369C19.4492 99.1053 19.6128 98.7343 19.6128 98.2557C19.6128 97.7284 19.4614 97.3475 19.1587 97.1132C18.8608 96.8788 18.3945 96.7616 17.7598 96.7616H15.958V99.7572ZM28.1968 105.155C27.6743 105.77 26.9321 106.078 25.9702 106.078C25.1108 106.078 24.459 105.827 24.0146 105.324C23.5752 104.821 23.3555 104.093 23.3555 103.141V98.0067H25.1353V103.119C25.1353 104.125 25.5527 104.628 26.3877 104.628C27.252 104.628 27.8354 104.318 28.1382 103.698V98.0067H29.918V105.932H28.2407L28.1968 105.155ZM34.5029 103.383L36.1143 98.0067H38.0112L34.8618 107.133C34.3784 108.466 33.5581 109.132 32.4009 109.132C32.1421 109.132 31.8564 109.088 31.5439 109V107.623L31.8809 107.645C32.3301 107.645 32.667 107.562 32.8916 107.396C33.1211 107.235 33.3018 106.962 33.4336 106.576L33.6899 105.895L30.9067 98.0067H32.8257L34.5029 103.383ZM42.4937 103.053C42.4937 102.56 42.6279 102.108 42.8965 101.698C43.165 101.283 43.6948 100.792 44.4858 100.226C44.0708 99.7035 43.7803 99.2592 43.6143 98.8929C43.4531 98.5267 43.3726 98.1727 43.3726 97.8309C43.3726 96.996 43.6265 96.3368 44.1343 95.8534C44.6421 95.3651 45.3257 95.121 46.1851 95.121C46.9614 95.121 47.5962 95.3505 48.0894 95.8094C48.5874 96.2635 48.8364 96.8275 48.8364 97.5013C48.8364 97.9457 48.7241 98.3558 48.4995 98.7318C48.2749 99.1029 47.9062 99.474 47.3936 99.8451L46.6685 100.372L48.7266 102.804C49.0244 102.218 49.1733 101.566 49.1733 100.849H50.7188C50.7188 102.162 50.4111 103.239 49.7959 104.078L51.3633 105.932H49.2979L48.6973 105.221C47.9355 105.792 47.0273 106.078 45.9727 106.078C44.918 106.078 44.0732 105.8 43.4385 105.243C42.8086 104.682 42.4937 103.952 42.4937 103.053ZM46.0239 104.657C46.6245 104.657 47.186 104.457 47.7085 104.057L45.3794 101.31L45.1523 101.471C44.5664 101.915 44.2734 102.423 44.2734 102.995C44.2734 103.488 44.4321 103.888 44.7495 104.196C45.0669 104.503 45.4917 104.657 46.0239 104.657ZM45.0425 97.787C45.0425 98.1971 45.2939 98.7123 45.7969 99.3324L46.6099 98.7758L46.8369 98.5927C47.1396 98.3241 47.291 97.9799 47.291 97.5599C47.291 97.2816 47.186 97.0448 46.9761 96.8495C46.7661 96.6493 46.5 96.5492 46.1777 96.5492C45.8311 96.5492 45.5552 96.6664 45.3501 96.9008C45.145 97.1351 45.0425 97.4305 45.0425 97.787ZM61.8516 103.185C61.8516 102.716 61.6855 102.355 61.3535 102.101C61.0264 101.847 60.4331 101.591 59.5737 101.332C58.7144 101.073 58.0308 100.785 57.5229 100.468C56.5513 99.8573 56.0654 99.0614 56.0654 98.08C56.0654 97.2206 56.4146 96.5126 57.1128 95.9559C57.8159 95.3993 58.7266 95.121 59.8447 95.121C60.5869 95.121 61.2485 95.2577 61.8296 95.5311C62.4106 95.8046 62.8672 96.1952 63.1992 96.703C63.5312 97.2059 63.6973 97.765 63.6973 98.3802H61.8516C61.8516 97.8236 61.6758 97.389 61.3242 97.0765C60.9775 96.7592 60.4795 96.6005 59.8301 96.6005C59.2246 96.6005 58.7534 96.7299 58.4165 96.9886C58.0845 97.2474 57.9185 97.6088 57.9185 98.0726C57.9185 98.4633 58.0991 98.7904 58.4604 99.0541C58.8218 99.3129 59.4175 99.5668 60.2476 99.8158C61.0776 100.06 61.7441 100.341 62.2471 100.658C62.75 100.971 63.1187 101.332 63.353 101.742C63.5874 102.147 63.7046 102.623 63.7046 103.17C63.7046 104.059 63.3628 104.767 62.6792 105.294C62.0005 105.817 61.0776 106.078 59.9106 106.078C59.1392 106.078 58.4287 105.936 57.7793 105.653C57.1348 105.365 56.6318 104.97 56.2705 104.467C55.9141 103.964 55.7358 103.378 55.7358 102.709H57.5889C57.5889 103.314 57.7891 103.783 58.1895 104.115C58.5898 104.447 59.1636 104.613 59.9106 104.613C60.5552 104.613 61.0386 104.484 61.3608 104.225C61.688 103.961 61.8516 103.615 61.8516 103.185ZM68.6484 106.078C67.5205 106.078 66.605 105.724 65.9019 105.016C65.2036 104.303 64.8545 103.356 64.8545 102.174V101.954C64.8545 101.163 65.0059 100.458 65.3086 99.8378C65.6162 99.2128 66.0459 98.7269 66.5977 98.3802C67.1494 98.0336 67.7646 97.8602 68.4434 97.8602C69.5225 97.8602 70.355 98.2045 70.9409 98.8929C71.5317 99.5814 71.8271 100.556 71.8271 101.815V102.533H66.6489C66.7026 103.187 66.9199 103.705 67.3008 104.086C67.6865 104.467 68.1699 104.657 68.751 104.657C69.5664 104.657 70.2305 104.328 70.7432 103.668L71.7026 104.584C71.3853 105.057 70.9604 105.426 70.4282 105.69C69.9009 105.949 69.3076 106.078 68.6484 106.078ZM68.436 99.2885C67.9478 99.2885 67.5522 99.4594 67.2495 99.8011C66.9517 100.143 66.7612 100.619 66.6782 101.229H70.0693V101.098C70.0303 100.502 69.8716 100.053 69.5933 99.7499C69.3149 99.4423 68.9292 99.2885 68.436 99.2885ZM75.1084 105.932H73.3286V94.6815H75.1084V105.932ZM78.9463 105.932H77.1665V94.6815H78.9463V105.932Z" fill="#8FBAAD"/>
<path d="M14.105 105.932H13.105V106.932H14.105V105.932ZM14.105 95.2675V94.2675H13.105V95.2675H14.105ZM19.9058 100.38L19.5161 99.4588L16.8494 100.587L19.644 101.345L19.9058 100.38ZM21.2388 101.266L20.4268 101.85L20.4344 101.86L21.2388 101.266ZM20.748 105.126L20.1079 104.358L20.105 104.36L20.748 105.126ZM15.958 101.12V100.12H14.958V101.12H15.958ZM15.958 104.452H14.958V105.452H15.958V104.452ZM18.1699 101.12L18.1915 100.12L18.1807 100.12H18.1699V101.12ZM15.958 99.7572H14.958V100.757H15.958V99.7572ZM19.1221 99.369L19.7482 100.149L19.7496 100.148L19.1221 99.369ZM19.1587 97.1132L18.5403 97.8991L18.5465 97.9039L19.1587 97.1132ZM15.958 96.7616V95.7616H14.958V96.7616H15.958ZM15.105 105.932V95.2675H13.105V105.932H15.105ZM14.105 96.2675H17.7598V94.2675H14.105V96.2675ZM17.7598 96.2675C18.854 96.2675 19.5195 96.4902 19.9049 96.7859L21.1225 95.1992C20.248 94.5281 19.0776 94.2675 17.7598 94.2675V96.2675ZM19.9049 96.7859C20.2366 97.0404 20.4585 97.4357 20.4585 98.1532H22.4585C22.4585 96.9567 22.0506 95.9115 21.1225 95.1992L19.9049 96.7859ZM20.4585 98.1532C20.4585 98.4497 20.3821 98.6929 20.2341 98.9121L21.8918 100.031C22.2712 99.4689 22.4585 98.8332 22.4585 98.1532H20.4585ZM20.2341 98.9121C20.0962 99.1165 19.8765 99.3063 19.5161 99.4588L20.2954 101.301C20.9506 101.024 21.5025 100.608 21.8918 100.031L20.2341 98.9121ZM19.644 101.345C20.0256 101.448 20.2641 101.623 20.4269 101.85L22.0506 100.682C21.5885 100.039 20.9383 99.6236 20.1675 99.4146L19.644 101.345ZM20.4344 101.86C20.6081 102.095 20.7148 102.397 20.7148 102.819H22.7148C22.7148 102.029 22.5042 101.296 22.0431 100.672L20.4344 101.86ZM20.7148 102.819C20.7148 103.586 20.4799 104.048 20.1079 104.358L21.3882 105.894C22.3053 105.13 22.7148 104.053 22.7148 102.819H20.7148ZM20.105 104.36C19.7094 104.692 19.055 104.932 17.9941 104.932V106.932C19.3259 106.932 20.5074 106.634 21.3911 105.892L20.105 104.36ZM17.9941 104.932H14.105V106.932H17.9941V104.932ZM14.958 101.12V104.452H16.958V101.12H14.958ZM15.958 105.452H18.0161V103.452H15.958V105.452ZM18.0161 105.452C18.7583 105.452 19.4761 105.266 20.0393 104.77L18.7175 103.269C18.6264 103.35 18.436 103.452 18.0161 103.452V105.452ZM20.0393 104.77C20.6205 104.259 20.8691 103.563 20.8691 102.819H18.8691C18.8691 103.1 18.7906 103.205 18.7175 103.269L20.0393 104.77ZM20.8691 102.819C20.8691 102.103 20.6846 101.389 20.1514 100.856C19.6221 100.326 18.9083 100.135 18.1915 100.12L18.1484 102.119C18.5644 102.128 18.7002 102.233 18.7372 102.27C18.7705 102.303 18.8691 102.426 18.8691 102.819H20.8691ZM18.1699 100.12H15.958V102.12H18.1699V100.12ZM15.958 100.757H17.7744V98.7572H15.958V100.757ZM17.7744 100.757C18.4899 100.757 19.1899 100.597 19.7482 100.149L18.4959 98.5893C18.4097 98.6586 18.2113 98.7572 17.7744 98.7572V100.757ZM19.7496 100.148C20.3468 99.6663 20.6128 98.9894 20.6128 98.2557H18.6128C18.6128 98.4791 18.5516 98.5444 18.4945 98.5904L19.7496 100.148ZM20.6128 98.2557C20.6128 97.5434 20.4022 96.8112 19.7709 96.3224L18.5465 97.9039C18.5494 97.9061 18.5509 97.9076 18.5528 97.9103C18.555 97.9132 18.5616 97.9229 18.57 97.9439C18.5877 97.9884 18.6128 98.0839 18.6128 98.2557H20.6128ZM19.7771 96.3273C19.2186 95.8878 18.4806 95.7616 17.7598 95.7616V97.7616C18.3085 97.7616 18.5031 97.8697 18.5403 97.899L19.7771 96.3273ZM17.7598 95.7616H15.958V97.7616H17.7598V95.7616ZM14.958 96.7616V99.7572H16.958V96.7616H14.958ZM28.1968 105.155L29.1952 105.099L29.0538 102.601L27.4345 104.508L28.1968 105.155ZM24.0146 105.324L23.2616 105.982L23.2652 105.986L24.0146 105.324ZM23.3555 98.0067V97.0067H22.3555V98.0067H23.3555ZM25.1353 98.0067H26.1353V97.0067H25.1353V98.0067ZM28.1382 103.698L29.0368 104.136L29.1382 103.929V103.698H28.1382ZM28.1382 98.0067V97.0067H27.1382V98.0067H28.1382ZM29.918 98.0067H30.918V97.0067H29.918V98.0067ZM29.918 105.932V106.932H30.918V105.932H29.918ZM28.2407 105.932L27.2423 105.988L27.2957 106.932H28.2407V105.932ZM27.4345 104.508C27.1389 104.856 26.7006 105.078 25.9702 105.078V107.078C27.1636 107.078 28.2098 106.685 28.959 105.802L27.4345 104.508ZM25.9702 105.078C25.3116 105.078 24.9682 104.893 24.7641 104.662L23.2652 105.986C23.9497 106.76 24.9101 107.078 25.9702 107.078V105.078ZM24.7677 104.666C24.5436 104.409 24.3555 103.953 24.3555 103.141H22.3555C22.3555 104.233 22.6068 105.232 23.2616 105.982L24.7677 104.666ZM24.3555 103.141V98.0067H22.3555V103.141H24.3555ZM23.3555 99.0067H25.1353V97.0067H23.3555V99.0067ZM24.1353 98.0067V103.119H26.1353V98.0067H24.1353ZM24.1353 103.119C24.1353 103.735 24.2593 104.384 24.6789 104.889C25.1281 105.43 25.762 105.628 26.3877 105.628V103.628C26.2773 103.628 26.226 103.611 26.2124 103.606C26.2049 103.603 26.2125 103.605 26.2178 103.612C26.2199 103.614 26.1353 103.508 26.1353 103.119H24.1353ZM26.3877 105.628C27.5182 105.628 28.5209 105.193 29.0368 104.136L27.2396 103.259C27.15 103.442 26.9857 103.628 26.3877 103.628V105.628ZM29.1382 103.698V98.0067H27.1382V103.698H29.1382ZM28.1382 99.0067H29.918V97.0067H28.1382V99.0067ZM28.918 98.0067V105.932H30.918V98.0067H28.918ZM29.918 104.932H28.2407V106.932H29.918V104.932ZM29.2391 105.875L29.1952 105.099L27.1984 105.212L27.2423 105.988L29.2391 105.875ZM34.5029 103.383L33.5483 103.681L34.5221 106.802L35.4608 103.67L34.5029 103.383ZM36.1143 98.0067V97.0067H35.37L35.1564 97.7196L36.1143 98.0067ZM38.0112 98.0067L38.9565 98.3329L39.4142 97.0067H38.0112V98.0067ZM34.8618 107.133L35.8019 107.474L35.8046 107.466L35.8071 107.459L34.8618 107.133ZM31.5439 109H30.5439V109.758L31.2732 109.963L31.5439 109ZM31.5439 107.623L31.609 106.626L30.5439 106.556V107.623H31.5439ZM31.8809 107.645L31.8158 108.643L31.8483 108.645H31.8809V107.645ZM32.8916 107.396L32.317 106.578L32.307 106.585L32.2972 106.592L32.8916 107.396ZM33.4336 106.576L32.4977 106.224L32.4923 106.238L32.4873 106.253L33.4336 106.576ZM33.6899 105.895L34.6259 106.247L34.7543 105.906L34.633 105.562L33.6899 105.895ZM30.9067 98.0067V97.0067H29.4935L29.9637 98.3394L30.9067 98.0067ZM32.8257 98.0067L33.7803 97.7089L33.5612 97.0067H32.8257V98.0067ZM35.4608 103.67L37.0722 98.2938L35.1564 97.7196L33.545 103.096L35.4608 103.67ZM36.1143 99.0067H38.0112V97.0067H36.1143V99.0067ZM37.0659 97.6805L33.9165 106.806L35.8071 107.459L38.9565 98.3329L37.0659 97.6805ZM33.9217 106.792C33.7214 107.344 33.4827 107.67 33.2534 107.856C33.0388 108.031 32.7731 108.132 32.4009 108.132V110.132C33.1859 110.132 33.909 109.901 34.5146 109.408C35.1057 108.928 35.5188 108.254 35.8019 107.474L33.9217 106.792ZM32.4009 108.132C32.2534 108.132 32.0604 108.107 31.8147 108.038L31.2732 109.963C31.6525 110.07 32.0308 110.132 32.4009 110.132V108.132ZM32.5439 109V107.623H30.5439V109H32.5439ZM31.4789 108.621L31.8158 108.643L31.9459 106.648L31.609 106.626L31.4789 108.621ZM31.8809 108.645C32.424 108.645 33.0129 108.55 33.486 108.201L32.2972 106.592C32.3135 106.58 32.3015 106.595 32.2312 106.612C32.1601 106.63 32.0471 106.645 31.8809 106.645V108.645ZM33.4662 108.215C33.9314 107.888 34.2094 107.398 34.3799 106.899L32.4873 106.253C32.3941 106.525 32.3108 106.582 32.317 106.578L33.4662 108.215ZM34.3695 106.928L34.6259 106.247L32.754 105.543L32.4977 106.224L34.3695 106.928ZM34.633 105.562L31.8498 97.674L29.9637 98.3394L32.7469 106.228L34.633 105.562ZM30.9067 99.0067H32.8257V97.0067H30.9067V99.0067ZM31.8711 98.3045L33.5483 103.681L35.4576 103.085L33.7803 97.7089L31.8711 98.3045ZM42.8965 101.698L43.7331 102.246L43.7361 102.241L42.8965 101.698ZM44.4858 100.226L45.068 101.039L45.9227 100.427L45.2688 99.6039L44.4858 100.226ZM43.6143 98.8929L42.6989 99.2957L42.7035 99.3058L43.6143 98.8929ZM44.1343 95.8534L44.8238 96.5777L44.8274 96.5742L44.1343 95.8534ZM48.0894 95.8094L47.408 96.5415L47.4156 96.5484L48.0894 95.8094ZM48.4995 98.7318L49.355 99.2496L49.358 99.2447L48.4995 98.7318ZM47.3936 99.8451L46.8072 99.035L46.8054 99.0364L47.3936 99.8451ZM46.6685 100.372L46.0803 99.5637L45.2097 100.197L45.9052 101.018L46.6685 100.372ZM48.7266 102.804L47.9633 103.45L48.9358 104.599L49.618 103.257L48.7266 102.804ZM49.1733 100.849V99.8485H48.1733V100.849H49.1733ZM50.7188 100.849H51.7188V99.8485H50.7188V100.849ZM49.7959 104.078L48.9892 103.488L48.5237 104.123L49.0324 104.724L49.7959 104.078ZM51.3633 105.932V106.932H53.5189L52.1268 105.286L51.3633 105.932ZM49.2979 105.932L48.5342 106.577L48.8338 106.932H49.2979V105.932ZM48.6973 105.221L49.4609 104.575L48.8519 103.855L48.0973 104.421L48.6973 105.221ZM43.4385 105.243L42.773 105.99L42.7792 105.995L43.4385 105.243ZM47.7085 104.057L48.3168 104.85L49.1507 104.211L48.4712 103.41L47.7085 104.057ZM45.3794 101.31L46.1421 100.663L45.5488 99.9635L44.8006 100.494L45.3794 101.31ZM45.1523 101.471L44.5736 100.656L44.5607 100.665L44.5481 100.674L45.1523 101.471ZM45.7969 99.3324L45.0202 99.9623L45.601 100.678L46.3618 100.158L45.7969 99.3324ZM46.6099 98.7758L47.1748 99.6009L47.2071 99.5788L47.2376 99.5542L46.6099 98.7758ZM46.8369 98.5927L47.4647 99.3711L47.483 99.3563L47.5005 99.3407L46.8369 98.5927ZM46.9761 96.8495L46.2859 97.5733L46.295 97.5817L46.9761 96.8495ZM43.4937 103.053C43.4937 102.753 43.5718 102.492 43.7331 102.246L42.0599 101.15C41.684 101.724 41.4937 102.367 41.4937 103.053H43.4937ZM43.7361 102.241C43.8984 101.991 44.2997 101.589 45.068 101.039L43.9037 99.4129C43.09 99.9955 42.4317 100.576 42.0569 101.155L43.7361 102.241ZM45.2688 99.6039C44.8761 99.1095 44.6423 98.7388 44.525 98.4801L42.7035 99.3058C42.9182 99.7795 43.2655 100.297 43.7028 100.848L45.2688 99.6039ZM44.5296 98.4902C44.4149 98.2295 44.3726 98.0124 44.3726 97.8309H42.3726C42.3726 98.333 42.4914 98.824 42.6989 99.2957L44.5296 98.4902ZM44.3726 97.8309C44.3726 97.2132 44.5518 96.8366 44.8238 96.5777L43.4448 95.1291C42.7012 95.837 42.3726 96.7787 42.3726 97.8309H44.3726ZM44.8274 96.5742C45.1097 96.3028 45.524 96.121 46.1851 96.121V94.121C45.1274 94.121 44.1745 94.4274 43.4412 95.1326L44.8274 96.5742ZM46.1851 96.121C46.7499 96.121 47.1281 96.2809 47.4081 96.5415L48.7706 95.0774C48.0643 94.42 47.1729 94.121 46.1851 94.121V96.121ZM47.4156 96.5484C47.7059 96.8131 47.8364 97.1088 47.8364 97.5013H49.8364C49.8364 96.5462 49.4689 95.714 48.7631 95.0705L47.4156 96.5484ZM47.8364 97.5013C47.8364 97.7679 47.7716 98.0004 47.641 98.219L49.358 99.2447C49.6766 98.7113 49.8364 98.1235 49.8364 97.5013H47.8364ZM47.644 98.214C47.5128 98.4308 47.2571 98.7094 46.8072 99.035L47.9799 100.655C48.5554 100.239 49.037 99.7751 49.355 99.2496L47.644 98.214ZM46.8054 99.0364L46.0803 99.5637L47.2566 101.181L47.9817 100.654L46.8054 99.0364ZM45.9052 101.018L47.9633 103.45L49.4899 102.158L47.4318 99.7264L45.9052 101.018ZM49.618 103.257C49.9936 102.518 50.1733 101.709 50.1733 100.849H48.1733C48.1733 101.424 48.0552 101.918 47.8351 102.351L49.618 103.257ZM49.1733 101.849H50.7188V99.8485H49.1733V101.849ZM49.7188 100.849C49.7188 102.006 49.4493 102.859 48.9892 103.488L50.6026 104.669C51.373 103.618 51.7188 102.318 51.7188 100.849H49.7188ZM49.0324 104.724L50.5998 106.577L52.1268 105.286L50.5594 103.433L49.0324 104.724ZM51.3633 104.932H49.2979V106.932H51.3633V104.932ZM50.0615 105.286L49.4609 104.575L47.9336 105.867L48.5342 106.577L50.0615 105.286ZM48.0973 104.421C47.5273 104.849 46.8355 105.078 45.9727 105.078V107.078C47.2192 107.078 48.3438 106.736 49.2973 106.021L48.0973 104.421ZM45.9727 105.078C45.0979 105.078 44.508 104.851 44.0978 104.491L42.7792 105.995C43.6385 106.748 44.738 107.078 45.9727 107.078V105.078ZM44.1039 104.497C43.702 104.138 43.4937 103.687 43.4937 103.053H41.4937C41.4937 104.216 41.9152 105.225 42.773 105.989L44.1039 104.497ZM46.0239 105.657C46.8658 105.657 47.6375 105.371 48.3168 104.85L47.1002 103.263C46.7346 103.543 46.3832 103.657 46.0239 103.657V105.657ZM48.4712 103.41L46.1421 100.663L44.6167 101.957L46.9458 104.703L48.4712 103.41ZM44.8006 100.494L44.5736 100.656L45.7311 102.287L45.9581 102.125L44.8006 100.494ZM44.5481 100.674C43.7913 101.248 43.2734 102.023 43.2734 102.995H45.2734C45.2734 102.823 45.3415 102.583 45.7566 102.268L44.5481 100.674ZM43.2734 102.995C43.2734 103.724 43.5184 104.395 44.0535 104.914L45.4455 103.478C45.3459 103.381 45.2734 103.251 45.2734 102.995H43.2734ZM44.0535 104.914C44.5944 105.438 45.2883 105.657 46.0239 105.657V103.657C45.6951 103.657 45.5394 103.569 45.4455 103.478L44.0535 104.914ZM44.0425 97.787C44.0425 98.561 44.4898 99.3083 45.0202 99.9623L46.5736 98.7025C46.0981 98.1163 46.0425 97.8333 46.0425 97.787H44.0425ZM46.3618 100.158L47.1748 99.6009L46.0449 97.9506L45.2319 98.5073L46.3618 100.158ZM47.2376 99.5542L47.4647 99.3711L46.2092 97.8142L45.9821 97.9973L47.2376 99.5542ZM47.5005 99.3407C48.0262 98.8744 48.291 98.2536 48.291 97.5599H46.291C46.291 97.7061 46.2531 97.7738 46.1733 97.8446L47.5005 99.3407ZM48.291 97.5599C48.291 96.9945 48.0635 96.4953 47.6572 96.1173L46.295 97.5817C46.304 97.5901 46.3066 97.594 46.3057 97.5927C46.3047 97.5913 46.3015 97.5865 46.2981 97.5788C46.2947 97.5711 46.2925 97.5639 46.2915 97.5587C46.2904 97.5536 46.291 97.5535 46.291 97.5599H48.291ZM47.6661 96.1257C47.2489 95.7279 46.726 95.5492 46.1777 95.5492V97.5492C46.2345 97.5492 46.2604 97.5578 46.267 97.5602C46.2716 97.562 46.2762 97.5639 46.286 97.5732L47.6661 96.1257ZM46.1777 95.5492C45.5792 95.5492 45.0153 95.7648 44.5975 96.2423L46.1027 97.5593C46.1076 97.5536 46.1093 97.5528 46.1073 97.5543C46.1052 97.5558 46.1029 97.557 46.1018 97.5575C46.0982 97.559 46.1179 97.5492 46.1777 97.5492V95.5492ZM44.5975 96.2423C44.21 96.6851 44.0425 97.2256 44.0425 97.787H46.0425C46.0425 97.6355 46.08 97.5851 46.1027 97.5593L44.5975 96.2423ZM61.3535 102.101L60.7404 102.891L60.7461 102.895L61.3535 102.101ZM57.5229 100.468L56.991 101.314L56.993 101.316L57.5229 100.468ZM57.1128 95.9559L56.4921 95.1719L56.4894 95.174L57.1128 95.9559ZM63.1992 96.703L62.3622 97.2503L62.3647 97.254L63.1992 96.703ZM63.6973 98.3802V99.3802H64.6973V98.3802H63.6973ZM61.8516 98.3802H60.8516V99.3802H61.8516V98.3802ZM61.3242 97.0765L60.649 97.8141L60.6544 97.8191L60.6599 97.8239L61.3242 97.0765ZM58.4165 96.9886L57.8073 96.1956L57.8018 96.1999L58.4165 96.9886ZM58.4604 99.0541L57.871 99.8619L57.8782 99.8671L58.4604 99.0541ZM60.2476 99.8158L59.9602 100.774L59.9654 100.775L60.2476 99.8158ZM62.2471 100.658L61.7134 101.504L61.7193 101.507L62.2471 100.658ZM63.353 101.742L62.4848 102.238L62.4874 102.243L63.353 101.742ZM62.6792 105.294L63.2892 106.087L63.29 106.086L62.6792 105.294ZM57.7793 105.653L57.3712 106.566L57.3796 106.57L57.7793 105.653ZM56.2705 104.467L55.4546 105.045L55.4584 105.05L56.2705 104.467ZM55.7358 102.709V101.709H54.7358V102.709H55.7358ZM57.5889 102.709H58.5889V101.709H57.5889V102.709ZM61.3608 104.225L61.987 105.005L61.9884 105.004L61.3608 104.225ZM62.8516 103.185C62.8516 102.448 62.5729 101.775 61.961 101.307L60.7461 102.895C60.7982 102.935 60.8516 102.984 60.8516 103.185H62.8516ZM61.9666 101.311C61.4827 100.935 60.734 100.637 59.8621 100.374L59.2854 102.289C60.1322 102.544 60.57 102.759 60.7404 102.891L61.9666 101.311ZM59.8621 100.374C59.0499 100.13 58.458 99.8728 58.0529 99.6197L56.993 101.316C57.6035 101.697 58.3788 102.016 59.2854 102.289L59.8621 100.374ZM58.0549 99.6209C57.3167 99.1572 57.0654 98.6544 57.0654 98.08H55.0654C55.0654 99.4684 55.7858 100.557 56.991 101.314L58.0549 99.6209ZM57.0654 98.08C57.0654 97.5385 57.2651 97.1134 57.7362 96.7379L56.4894 95.174C55.564 95.9118 55.0654 96.9027 55.0654 98.08H57.0654ZM57.7335 96.74C58.22 96.3548 58.895 96.121 59.8447 96.121V94.121C58.5581 94.121 57.4118 94.4438 56.4921 95.1719L57.7335 96.74ZM59.8447 96.121C60.4626 96.121 60.9752 96.2342 61.4038 96.4359L62.2554 94.6263C61.5219 94.2811 60.7113 94.121 59.8447 94.121V96.121ZM61.4038 96.4359C61.8276 96.6354 62.1375 96.9066 62.3622 97.2503L64.0362 96.1558C63.5968 95.4838 62.9937 94.9738 62.2554 94.6263L61.4038 96.4359ZM62.3647 97.254C62.5864 97.5898 62.6973 97.9566 62.6973 98.3802H64.6973C64.6973 97.5735 64.4761 96.822 64.0338 96.152L62.3647 97.254ZM63.6973 97.3802H61.8516V99.3802H63.6973V97.3802ZM62.8516 98.3802C62.8516 97.5954 62.5931 96.8665 61.9886 96.3291L60.6599 97.8239C60.7585 97.9116 60.8516 98.0518 60.8516 98.3802H62.8516ZM61.9995 96.339C61.4081 95.7975 60.6334 95.6005 59.8301 95.6005V97.6005C60.3256 97.6005 60.547 97.7208 60.649 97.8141L61.9995 96.339ZM59.8301 95.6005C59.0954 95.6005 58.3796 95.7561 57.8074 96.1956L59.0257 97.7817C59.1273 97.7036 59.3539 97.6005 59.8301 97.6005V95.6005ZM57.8018 96.1999C57.1996 96.6693 56.9185 97.3365 56.9185 98.0726H58.9185C58.9185 97.881 58.9694 97.8256 59.0312 97.7774L57.8018 96.1999ZM56.9185 98.0726C56.9185 98.8323 57.2946 99.4413 57.871 99.8619L59.0499 98.2463C58.9642 98.1837 58.9367 98.1408 58.9293 98.1275C58.9245 98.1188 58.9185 98.1068 58.9185 98.0726H56.9185ZM57.8782 99.8671C58.3785 100.225 59.105 100.517 59.9602 100.774L60.5349 98.858C59.73 98.6165 59.265 98.4003 59.0427 98.2411L57.8782 99.8671ZM59.9654 100.775C60.7432 101.004 61.3153 101.253 61.7134 101.504L62.7808 99.8124C62.173 99.4288 61.4121 99.1159 60.5297 98.8564L59.9654 100.775ZM61.7193 101.507C62.1163 101.754 62.3511 102.004 62.4848 102.238L64.2213 101.246C63.8862 100.66 63.3837 100.187 62.7748 99.8087L61.7193 101.507ZM62.4874 102.243C62.6199 102.472 62.7046 102.769 62.7046 103.17H64.7046C64.7046 102.477 64.5549 101.823 64.2187 101.241L62.4874 102.243ZM62.7046 103.17C62.7046 103.76 62.4983 104.171 62.0684 104.503L63.29 106.086C64.2273 105.363 64.7046 104.358 64.7046 103.17H62.7046ZM62.0692 104.502C61.6191 104.848 60.936 105.078 59.9106 105.078V107.078C61.2192 107.078 62.3819 106.785 63.2892 106.087L62.0692 104.502ZM59.9106 105.078C59.2644 105.078 58.6915 104.96 58.179 104.737L57.3796 106.57C58.1659 106.913 59.014 107.078 59.9106 107.078V105.078ZM58.1874 104.74C57.6813 104.514 57.327 104.223 57.0826 103.883L55.4584 105.05C55.9367 105.716 56.5882 106.216 57.3712 106.566L58.1874 104.74ZM57.0864 103.888C56.86 103.569 56.7358 103.189 56.7358 102.709H54.7358C54.7358 103.566 54.9681 104.358 55.4546 105.045L57.0864 103.888ZM55.7358 103.709H57.5889V101.709H55.7358V103.709ZM56.5889 102.709C56.5889 103.558 56.8828 104.331 57.5511 104.885L58.8278 103.345C58.6953 103.236 58.5889 103.071 58.5889 102.709H56.5889ZM57.5511 104.885C58.195 105.419 59.03 105.613 59.9106 105.613V103.613C59.2972 103.613 58.9847 103.475 58.8278 103.345L57.5511 104.885ZM59.9106 105.613C60.6627 105.613 61.4119 105.467 61.987 105.005L60.7347 103.445C60.6653 103.501 60.4477 103.613 59.9106 103.613V105.613ZM61.9884 105.004C62.5572 104.545 62.8516 103.909 62.8516 103.185H60.8516C60.8516 103.32 60.8188 103.377 60.7333 103.446L61.9884 105.004ZM65.9019 105.016L65.1874 105.716L65.1923 105.721L65.9019 105.016ZM65.3086 99.8378L64.4114 99.3962L64.41 99.3991L65.3086 99.8378ZM66.5977 98.3802L66.0656 97.5335L66.5977 98.3802ZM70.9409 98.8929L70.1794 99.5411L70.182 99.5442L70.9409 98.8929ZM71.8271 102.533V103.533H72.8271V102.533H71.8271ZM66.6489 102.533V101.533H65.5635L65.6523 102.615L66.6489 102.533ZM67.3008 104.086L66.5937 104.793L66.5982 104.797L67.3008 104.086ZM70.7432 103.668L71.4335 102.945L70.6331 102.181L69.9538 103.054L70.7432 103.668ZM71.7026 104.584L72.5334 105.141L73.0019 104.441L72.393 103.86L71.7026 104.584ZM70.4282 105.69L70.8688 106.588L70.8721 106.586L70.4282 105.69ZM67.2495 99.8011L66.5009 99.1381L66.4956 99.1442L67.2495 99.8011ZM66.6782 101.229L65.6873 101.095L65.533 102.229H66.6782V101.229ZM70.0693 101.229V102.229H71.0693V101.229H70.0693ZM70.0693 101.098H71.0693V101.065L71.0672 101.032L70.0693 101.098ZM69.5933 99.7499L68.8517 100.421L68.8571 100.427L69.5933 99.7499ZM68.6484 105.078C67.749 105.078 67.1017 104.805 66.6114 104.311L65.1923 105.721C66.1083 106.643 67.292 107.078 68.6484 107.078V105.078ZM66.6163 104.316C66.1343 103.824 65.8545 103.146 65.8545 102.174H63.8545C63.8545 103.566 64.2729 104.782 65.1874 105.716L66.6163 104.316ZM65.8545 102.174V101.954H63.8545V102.174H65.8545ZM65.8545 101.954C65.8545 101.293 65.9803 100.741 66.2072 100.276L64.41 99.3991C64.0314 100.175 63.8545 101.034 63.8545 101.954H65.8545ZM66.2058 100.279C66.4375 99.8087 66.7458 99.4682 67.1297 99.227L66.0656 97.5335C65.3461 97.9856 64.795 98.6168 64.4114 99.3962L66.2058 100.279ZM67.1297 99.227C67.5152 98.9847 67.9447 98.8602 68.4434 98.8602V96.8602C67.5846 96.8602 66.7836 97.0824 66.0656 97.5335L67.1297 99.227ZM68.4434 98.8602C69.2918 98.8602 69.8205 99.1194 70.1794 99.5411L71.7025 98.2448C70.8894 97.2895 69.7531 96.8602 68.4434 96.8602V98.8602ZM70.182 99.5442C70.5661 99.9917 70.8271 100.702 70.8271 101.815H72.8271C72.8271 100.409 72.4974 99.1711 71.6998 98.2417L70.182 99.5442ZM70.8271 101.815V102.533H72.8271V101.815H70.8271ZM71.8271 101.533H66.6489V103.533H71.8271V101.533ZM65.6523 102.615C65.721 103.452 66.0107 104.21 66.5937 104.793L68.0079 103.379C67.8291 103.2 67.6843 102.923 67.6456 102.451L65.6523 102.615ZM66.5982 104.797C67.1854 105.377 67.9278 105.657 68.751 105.657V103.657C68.412 103.657 68.1876 103.556 68.0034 103.374L66.5982 104.797ZM68.751 105.657C69.8836 105.657 70.8357 105.178 71.5325 104.282L69.9538 103.054C69.6252 103.477 69.2492 103.657 68.751 103.657V105.657ZM70.0528 104.392L71.0123 105.307L72.393 103.86L71.4335 102.945L70.0528 104.392ZM70.8719 104.027C70.6558 104.35 70.367 104.604 69.9843 104.794L70.8721 106.586C71.5539 106.248 72.1147 105.765 72.5334 105.141L70.8719 104.027ZM69.9877 104.792C69.6134 104.976 69.1737 105.078 68.6484 105.078V107.078C69.4415 107.078 70.1884 106.921 70.8688 106.588L69.9877 104.792ZM68.436 98.2885C67.6839 98.2885 67.0079 98.5658 66.5009 99.1381L67.9981 100.464C68.0966 100.353 68.2116 100.288 68.436 100.288V98.2885ZM66.4956 99.1442C66.0311 99.6773 65.7875 100.358 65.6873 101.095L67.6691 101.364C67.735 100.88 67.8723 100.609 68.0034 100.458L66.4956 99.1442ZM66.6782 102.229H70.0693V100.229H66.6782V102.229ZM71.0693 101.229V101.098H69.0693V101.229H71.0693ZM71.0672 101.032C71.0198 100.309 70.8185 99.605 70.3294 99.0731L68.8571 100.427C68.9247 100.5 69.0408 100.695 69.0715 101.163L71.0672 101.032ZM70.3348 99.079C69.8311 98.5222 69.1536 98.2885 68.436 98.2885V100.288C68.7048 100.288 68.7988 100.362 68.8517 100.421L70.3348 99.079ZM75.1084 105.932V106.932H76.1084V105.932H75.1084ZM73.3286 105.932H72.3286V106.932H73.3286V105.932ZM73.3286 94.6815V93.6815H72.3286V94.6815H73.3286ZM75.1084 94.6815H76.1084V93.6815H75.1084V94.6815ZM75.1084 104.932H73.3286V106.932H75.1084V104.932ZM74.3286 105.932V94.6815H72.3286V105.932H74.3286ZM73.3286 95.6815H75.1084V93.6815H73.3286V95.6815ZM74.1084 94.6815V105.932H76.1084V94.6815H74.1084ZM78.9463 105.932V106.932H79.9463V105.932H78.9463ZM77.1665 105.932H76.1665V106.932H77.1665V105.932ZM77.1665 94.6815V93.6815H76.1665V94.6815H77.1665ZM78.9463 94.6815H79.9463V93.6815H78.9463V94.6815ZM78.9463 104.932H77.1665V106.932H78.9463V104.932ZM78.1665 105.932V94.6815H76.1665V105.932H78.1665ZM77.1665 95.6815H78.9463V93.6815H77.1665V95.6815ZM77.9463 94.6815V105.932H79.9463V94.6815H77.9463Z" fill="#FFF9F9" fill-opacity="0.3"/>
<defs>
<filter id="filter0_d_2202_262" x="17.9736" y="26.5363" width="49.3398" height="47.1689" filterUnits="userSpaceOnUse" color-interpolation-filters="sRGB">
<feFlood flood-opacity="0" result="BackgroundImageFix"/>
<feColorMatrix in="SourceAlpha" type="matrix" values="0 0 0 0 0 0 0 0 0 0 0 0 0 0 0 0 0 0 127 0" result="hardAlpha"/>
<feOffset dy="4"/>
<feGaussianBlur stdDeviation="2"/>
<feComposite in2="hardAlpha" operator="out"/>
<feColorMatrix type="matrix" values="0 0 0 0 0 0 0 0 0 0 0 0 0 0 0 0 0 0 0.25 0"/>
<feBlend mode="normal" in2="BackgroundImageFix" result="effect1_dropShadow_2202_262"/>
<feBlend mode="normal" in="SourceGraphic" in2="effect1_dropShadow_2202_262" result="shape"/>
</filter>
<clipPath id="clip0_2202_262">
<rect width="41.3402" height="39.1689" fill="white" transform="translate(21.9736 26.5363)"/>
</clipPath>
</defs>
</svg>
