<svg width="211" height="166" viewBox="0 0 211 166" fill="none" xmlns="http://www.w3.org/2000/svg">
<ellipse cx="104.499" cy="67.3702" rx="57.0846" ry="57.3702" fill="#8FBAAD"/>
<path d="M104.499 129.74C138.811 129.74 166.583 101.793 166.583 67.3702C166.583 32.9476 138.811 5 104.499 5C70.1868 5 42.4141 32.9476 42.4141 67.3702C42.4141 101.793 70.1868 129.74 104.499 129.74Z" stroke="white" stroke-opacity="0.8" stroke-width="10"/>
<path d="M111.548 44.223L95.2255 40.2607L91.2146 43.2338C89.9548 41.5501 89.29 39.5914 89.29 37.5692V34.309C89.29 32.4852 90.9534 31.0026 92.9996 31.0026C95.0459 31.0026 96.7093 32.4852 96.7093 34.309V35.6315C96.7093 35.9951 97.043 36.2929 97.4513 36.2929C97.8596 36.2929 98.1933 35.9954 98.1933 35.6315V34.309C98.1933 32.4852 99.8567 31.0026 101.903 31.0026C103.949 31.0026 105.613 32.4852 105.613 34.309V35.6315C105.613 35.9951 105.946 36.2929 106.355 36.2929C106.763 36.2929 107.097 35.9954 107.097 35.6315V34.309C107.097 32.4852 108.76 31.0026 110.806 31.0026C112.852 31.0026 114.516 32.4852 114.516 34.309V37.5692C114.516 39.5914 113.851 41.5515 112.591 43.2338L111.548 44.223Z" fill="#F9BA48"/>
<path d="M88.1566 64.0618L85.1888 62.7393H80.3871V42.9006H70V68.0295H80.3871V65.3843H84.4884L87.4563 66.7068H89.2904V64.0615L88.1566 64.0618ZM77.4192 65.3845H72.9679V45.5456H77.4195V65.3845H77.4192Z" fill="#266150"/>
<path d="M102.655 93.1638C102.387 93.1638 102.12 93.1597 101.85 93.1493C91.8335 92.7895 83.5373 85.2231 83.3577 76.2838C83.2642 71.6732 85.2007 67.3129 88.808 64.0076C91.9895 61.0913 93.7417 57.453 93.7417 53.7655L101.161 49.5188L104.129 52.1641V65.3844H114.516L116.253 63.792C119.919 67.0402 121.935 71.3637 121.935 75.9705C121.935 80.6947 119.829 85.099 116.006 88.3724C112.379 91.4774 107.664 93.1638 102.655 93.1638Z" fill="#F9BA48"/>
<path d="M110.065 73.3198V72.6638C110.065 70.1112 107.735 68.0295 104.871 68.0295H104.129V65.3842H101.161V68.0295H100.419C97.555 68.0295 95.2256 70.106 95.2256 72.6584C95.2256 75.2111 97.5553 77.2875 100.419 77.2875H104.871C106.098 77.2875 107.096 78.1776 107.096 79.2714C107.096 80.3653 106.098 81.2553 104.871 81.2553H100.419C99.192 81.2553 98.1935 80.3705 98.1935 79.2766V78.6101H95.2256V79.2766C95.2256 81.8293 97.5553 83.9003 100.419 83.9003H101.161V86.5456H104.129V83.9003H104.871C107.735 83.9003 110.065 81.8238 110.065 79.2714C110.065 76.7188 107.735 74.6423 104.871 74.6423H100.419C99.192 74.6423 98.1935 73.7522 98.1935 72.6584C98.1935 71.5645 99.192 70.6745 100.419 70.6745H104.871C106.098 70.6745 107.097 71.57 107.097 72.6636V73.3195L110.065 73.3198Z" fill="white"/>
<path d="M116.326 49.5188C117.039 48.8151 117.484 47.8906 117.484 46.8711C117.484 44.6837 115.487 42.9006 113.032 42.9006H107.509L106.476 41.7499L94.8801 38.794L85.7855 45.5456H78.9033V48.1909H86.8598L95.5731 41.7221L104.751 44.0603L107.873 47.5374C108.285 47.9977 108.468 48.5744 108.385 49.1588C108.302 49.7434 107.963 50.2619 107.434 50.6149C106.476 51.2549 105.116 51.1689 104.267 50.4138L101.273 47.7448L92.8161 53.7748L94.6695 55.8407L101.052 51.2896L102.168 52.2854C102.331 52.431 102.513 52.5499 102.693 52.6728C102.801 53.6382 103.196 54.2056 103.803 54.8047C103.09 55.5085 102.645 56.4316 102.645 57.4511C102.645 58.4706 103.092 59.394 103.803 60.0964C103.09 60.8001 102.645 61.7191 102.645 62.7389C102.645 64.9291 104.643 66.7067 107.097 66.7067H113.032C115.487 66.7067 117.484 64.9291 117.484 62.7417C117.484 61.7219 117.038 60.8015 116.327 60.0978C117.039 59.394 117.484 58.4737 117.484 57.4525C117.484 56.4316 117.038 55.5109 116.327 54.8072C117.039 54.1035 117.484 53.1817 117.484 52.1619C117.484 51.1429 117.037 50.2223 116.326 49.5188ZM113.032 64.0617H107.097C106.279 64.0617 105.613 63.4678 105.613 62.7392C105.613 62.0103 106.279 61.4167 107.097 61.4167H113.032C113.85 61.4167 114.516 62.0106 114.516 62.7392C114.516 63.4681 113.85 64.0617 113.032 64.0617ZM113.032 58.7714H107.097C106.279 58.7714 105.613 58.1775 105.613 57.4489C105.613 56.7201 106.279 56.1264 107.097 56.1264H113.032C113.85 56.1264 114.516 56.7203 114.516 57.4489C114.516 58.1778 113.85 58.7714 113.032 58.7714ZM113.032 53.4811H107.534C108.127 53.3238 108.698 53.0777 109.214 52.7326C109.962 52.2327 110.514 51.5754 110.882 50.8361H113.032C113.85 50.8361 114.516 51.4301 114.516 52.1586C114.516 52.8872 113.85 53.4811 113.032 53.4811ZM113.032 48.1909H111.292C111.155 47.3576 110.797 46.564 110.189 45.8857L109.883 45.5459H113.032C113.85 45.5459 114.516 46.1398 114.516 46.8684C114.516 47.597 113.85 48.1909 113.032 48.1909Z" fill="#266150"/>
<path d="M129.612 93.1587V97.1265H119.675L115.597 94.7036L103.091 90.7503C101.901 90.3774 100.624 90.4528 99.4989 90.962C98.3725 91.4712 97.5519 92.3441 97.1854 93.4207C96.5518 95.2841 97.4925 97.301 99.4216 98.2138L102.634 99.7346L97.963 99.7477L96.0427 95.468C95.4107 94.066 93.9073 93.1587 92.2099 93.1587C90.8849 93.1587 89.6325 93.7327 88.8592 94.6902C88.0862 95.6504 87.8769 96.891 88.2998 98.01L88.7495 99.1975L85.4938 97.6117C84.4581 97.1052 83.2205 97.0074 82.1002 97.3445C80.9799 97.6778 80.0583 98.4197 79.5715 99.3786C78.6189 101.254 79.4958 103.438 81.5675 104.349L88.892 107.571L104.096 110.327L123.824 110.352L129.612 109.32V112.997H140V93.1587H129.612ZM91.2692 96.2337C91.7679 95.6147 92.9697 95.7458 93.2857 96.452L94.7695 99.757L92.0956 99.7649L91.1132 97.1647C90.9931 96.8459 91.0495 96.5074 91.2692 96.2337ZM123.53 107.707H104.533L90.03 105.121L82.8809 101.977C82.2531 101.701 81.9862 101.039 82.2755 100.468C82.4254 100.173 82.697 99.954 83.0427 99.8521C83.3854 99.7463 83.7535 99.7767 84.0725 99.934L89.1697 102.416H103.253L109.109 99.807L100.815 95.8777C100.136 95.5551 99.8032 94.8448 100.026 94.1875C100.155 93.8081 100.444 93.4985 100.842 93.3199C101.238 93.1388 101.689 93.115 102.109 93.2445L114.108 96.9967L118.776 99.7715H129.613V106.622L123.53 107.707ZM137.032 110.352H132.58V95.8037H137.032V110.352Z" fill="#266150"/>
<ellipse cx="150.166" cy="36.161" rx="22.8338" ry="22.9481" fill="#A9CAC0"/>
<path d="M150.166 61.609C164.169 61.609 175.5 50.2038 175.5 36.161C175.5 22.1182 164.169 10.7129 150.166 10.7129C136.163 10.7129 124.832 22.1182 124.832 36.161C124.832 50.2038 136.163 61.609 150.166 61.609Z" stroke="white" stroke-opacity="0.3" stroke-width="5"/>
<g filter="url(#filter0_d_2166_535)">
<path d="M31.7773 152.633H39.5234V155H28.8125V137.938H31.7773V152.633ZM47.1055 155.234C45.3008 155.234 43.8359 154.668 42.7109 153.535C41.5938 152.395 41.0352 150.879 41.0352 148.988V148.637C41.0352 147.371 41.2773 146.242 41.7617 145.25C42.2539 144.25 42.9414 143.473 43.8242 142.918C44.707 142.363 45.6914 142.086 46.7773 142.086C48.5039 142.086 49.8359 142.637 50.7734 143.738C51.7188 144.84 52.1914 146.398 52.1914 148.414V149.562H43.9062C43.9922 150.609 44.3398 151.438 44.9492 152.047C45.5664 152.656 46.3398 152.961 47.2695 152.961C48.5742 152.961 49.6367 152.434 50.457 151.379L51.9922 152.844C51.4844 153.602 50.8047 154.191 49.9531 154.613C49.1094 155.027 48.1602 155.234 47.1055 155.234ZM46.7656 144.371C45.9844 144.371 45.3516 144.645 44.8672 145.191C44.3906 145.738 44.0859 146.5 43.9531 147.477H49.3789V147.266C49.3164 146.312 49.0625 145.594 48.6172 145.109C48.1719 144.617 47.5547 144.371 46.7656 144.371ZM57.0547 142.32L57.1367 143.785C58.0742 142.652 59.3047 142.086 60.8281 142.086C63.4688 142.086 64.8125 143.598 64.8594 146.621V155H62.0117V146.785C62.0117 145.98 61.8359 145.387 61.4844 145.004C61.1406 144.613 60.5742 144.418 59.7852 144.418C58.6367 144.418 57.7812 144.938 57.2188 145.977V155H54.3711V142.32H57.0547ZM67.2383 148.566C67.2383 146.613 67.6914 145.047 68.5977 143.867C69.5039 142.68 70.7188 142.086 72.2422 142.086C73.5859 142.086 74.6719 142.555 75.5 143.492V137H78.3477V155H75.7695L75.6289 153.688C74.7773 154.719 73.6406 155.234 72.2188 155.234C70.7344 155.234 69.5312 154.637 68.6094 153.441C67.6953 152.246 67.2383 150.621 67.2383 148.566ZM70.0859 148.812C70.0859 150.102 70.332 151.109 70.8242 151.836C71.3242 152.555 72.0312 152.914 72.9453 152.914C74.1094 152.914 74.9609 152.395 75.5 151.355V145.941C74.9766 144.926 74.1328 144.418 72.9688 144.418C72.0469 144.418 71.3359 144.785 70.8359 145.52C70.3359 146.246 70.0859 147.344 70.0859 148.812ZM86.8438 150.395C86.8438 149.605 87.0586 148.883 87.4883 148.227C87.918 147.562 88.7656 146.777 90.0312 145.871C89.3672 145.035 88.9023 144.324 88.6367 143.738C88.3789 143.152 88.25 142.586 88.25 142.039C88.25 140.703 88.6562 139.648 89.4688 138.875C90.2812 138.094 91.375 137.703 92.75 137.703C93.9922 137.703 95.0078 138.07 95.7969 138.805C96.5938 139.531 96.9922 140.434 96.9922 141.512C96.9922 142.223 96.8125 142.879 96.4531 143.48C96.0938 144.074 95.5039 144.668 94.6836 145.262L93.5234 146.105L96.8164 149.996C97.293 149.059 97.5312 148.016 97.5312 146.867H100.004C100.004 148.969 99.5117 150.691 98.5273 152.035L101.035 155H97.7305L96.7695 153.863C95.5508 154.777 94.0977 155.234 92.4102 155.234C90.7227 155.234 89.3711 154.789 88.3555 153.898C87.3477 153 86.8438 151.832 86.8438 150.395ZM92.4922 152.961C93.4531 152.961 94.3516 152.641 95.1875 152L91.4609 147.605L91.0977 147.863C90.1602 148.574 89.6914 149.387 89.6914 150.301C89.6914 151.09 89.9453 151.73 90.4531 152.223C90.9609 152.715 91.6406 152.961 92.4922 152.961ZM90.9219 141.969C90.9219 142.625 91.3242 143.449 92.1289 144.441L93.4297 143.551L93.793 143.258C94.2773 142.828 94.5195 142.277 94.5195 141.605C94.5195 141.16 94.3516 140.781 94.0156 140.469C93.6797 140.148 93.2539 139.988 92.7383 139.988C92.1836 139.988 91.7422 140.176 91.4141 140.551C91.0859 140.926 90.9219 141.398 90.9219 141.969ZM108.898 155V137.938H114.746C116.676 137.938 118.145 138.324 119.152 139.098C120.16 139.871 120.664 141.023 120.664 142.555C120.664 143.336 120.453 144.039 120.031 144.664C119.609 145.289 118.992 145.773 118.18 146.117C119.102 146.367 119.812 146.84 120.312 147.535C120.82 148.223 121.074 149.051 121.074 150.02C121.074 151.621 120.559 152.852 119.527 153.711C118.504 154.57 117.035 155 115.121 155H108.898ZM111.863 147.301V152.633H115.156C116.086 152.633 116.812 152.402 117.336 151.941C117.859 151.48 118.121 150.84 118.121 150.02C118.121 148.246 117.215 147.34 115.402 147.301H111.863ZM111.863 145.121H114.77C115.691 145.121 116.41 144.914 116.926 144.5C117.449 144.078 117.711 143.484 117.711 142.719C117.711 141.875 117.469 141.266 116.984 140.891C116.508 140.516 115.762 140.328 114.746 140.328H111.863V145.121ZM123.23 148.543C123.23 147.301 123.477 146.184 123.969 145.191C124.461 144.191 125.152 143.426 126.043 142.895C126.934 142.355 127.957 142.086 129.113 142.086C130.824 142.086 132.211 142.637 133.273 143.738C134.344 144.84 134.922 146.301 135.008 148.121L135.02 148.789C135.02 150.039 134.777 151.156 134.293 152.141C133.816 153.125 133.129 153.887 132.23 154.426C131.34 154.965 130.309 155.234 129.137 155.234C127.348 155.234 125.914 154.641 124.836 153.453C123.766 152.258 123.23 150.668 123.23 148.684V148.543ZM126.078 148.789C126.078 150.094 126.348 151.117 126.887 151.859C127.426 152.594 128.176 152.961 129.137 152.961C130.098 152.961 130.844 152.586 131.375 151.836C131.914 151.086 132.184 149.988 132.184 148.543C132.184 147.262 131.906 146.246 131.352 145.496C130.805 144.746 130.059 144.371 129.113 144.371C128.184 144.371 127.445 144.742 126.898 145.484C126.352 146.219 126.078 147.32 126.078 148.789ZM144.066 144.922C143.691 144.859 143.305 144.828 142.906 144.828C141.602 144.828 140.723 145.328 140.27 146.328V155H137.422V142.32H140.141L140.211 143.738C140.898 142.637 141.852 142.086 143.07 142.086C143.477 142.086 143.812 142.141 144.078 142.25L144.066 144.922ZM152.504 144.922C152.129 144.859 151.742 144.828 151.344 144.828C150.039 144.828 149.16 145.328 148.707 146.328V155H145.859V142.32H148.578L148.648 143.738C149.336 142.637 150.289 142.086 151.508 142.086C151.914 142.086 152.25 142.141 152.516 142.25L152.504 144.922ZM153.348 148.543C153.348 147.301 153.594 146.184 154.086 145.191C154.578 144.191 155.27 143.426 156.16 142.895C157.051 142.355 158.074 142.086 159.23 142.086C160.941 142.086 162.328 142.637 163.391 143.738C164.461 144.84 165.039 146.301 165.125 148.121L165.137 148.789C165.137 150.039 164.895 151.156 164.41 152.141C163.934 153.125 163.246 153.887 162.348 154.426C161.457 154.965 160.426 155.234 159.254 155.234C157.465 155.234 156.031 154.641 154.953 153.453C153.883 152.258 153.348 150.668 153.348 148.684V148.543ZM156.195 148.789C156.195 150.094 156.465 151.117 157.004 151.859C157.543 152.594 158.293 152.961 159.254 152.961C160.215 152.961 160.961 152.586 161.492 151.836C162.031 151.086 162.301 149.988 162.301 148.543C162.301 147.262 162.023 146.246 161.469 145.496C160.922 144.746 160.176 144.371 159.23 144.371C158.301 144.371 157.562 144.742 157.016 145.484C156.469 146.219 156.195 147.32 156.195 148.789ZM178.684 151.074L180.699 142.32H183.477L180.02 155H177.676L174.957 146.293L172.285 155H169.941L166.473 142.32H169.25L171.301 150.98L173.902 142.32H176.047L178.684 151.074Z" fill="#8FBAAD"/>
</g>
<defs>
<filter id="filter0_d_2166_535" x="24.8125" y="137" width="162.664" height="26.2344" filterUnits="userSpaceOnUse" color-interpolation-filters="sRGB">
<feFlood flood-opacity="0" result="BackgroundImageFix"/>
<feColorMatrix in="SourceAlpha" type="matrix" values="0 0 0 0 0 0 0 0 0 0 0 0 0 0 0 0 0 0 127 0" result="hardAlpha"/>
<feOffset dy="4"/>
<feGaussianBlur stdDeviation="2"/>
<feComposite in2="hardAlpha" operator="out"/>
<feColorMatrix type="matrix" values="0 0 0 0 0 0 0 0 0 0 0 0 0 0 0 0 0 0 0.25 0"/>
<feBlend mode="normal" in2="BackgroundImageFix" result="effect1_dropShadow_2166_535"/>
<feBlend mode="normal" in="SourceGraphic" in2="effect1_dropShadow_2166_535" result="shape"/>
</filter>
</defs>
</svg>
