<svg width="128" height="113" viewBox="0 0 128 113" fill="none" xmlns="http://www.w3.org/2000/svg">
<ellipse cx="65.3922" cy="44.9737" rx="34.6295" ry="34.9737" fill="#8FBAAD"/>
<path d="M65.3922 84.9475C87.3255 84.9475 105.022 67.0039 105.022 44.9737C105.022 22.9436 87.3255 5 65.3922 5C43.4589 5 25.7627 22.9436 25.7627 44.9737C25.7627 67.0039 43.4589 84.9475 65.3922 84.9475Z" stroke="white" stroke-opacity="0.8" stroke-width="10"/>
<g clip-path="url(#clip0_2202_249)">
<path d="M69.6695 30.8626L59.7676 28.4471L57.3345 30.2595C56.5703 29.2331 56.167 28.0391 56.167 26.8063V24.8188C56.167 23.707 57.1761 22.8032 58.4174 22.8032C59.6587 22.8032 60.6677 23.707 60.6677 24.8188V25.6251C60.6677 25.8467 60.8702 26.0283 61.1179 26.0283C61.3656 26.0283 61.5681 25.8469 61.5681 25.6251V24.8188C61.5681 23.707 62.5771 22.8032 63.8184 22.8032C65.0597 22.8032 66.0688 23.707 66.0688 24.8188V25.6251C66.0688 25.8467 66.2713 26.0283 66.519 26.0283C66.7666 26.0283 66.9691 25.8469 66.9691 25.6251V24.8188C66.9691 23.707 67.9782 22.8032 69.2195 22.8032C70.4608 22.8032 71.4699 23.707 71.4699 24.8188V26.8063C71.4699 28.0391 71.0666 29.234 70.3024 30.2595L69.6695 30.8626Z" fill="#F9BA48"/>
<path d="M55.4793 42.9564L53.6789 42.1502H50.766V30.0563H44.4648V45.3752H50.766V43.7626H53.254L55.0544 44.5689H56.1671V42.9563L55.4793 42.9564ZM48.9656 43.7628H46.2653V31.6687H48.9658V43.7628H48.9656Z" fill="#266150"/>
<path d="M64.2751 60.6975C64.1122 60.6975 63.95 60.695 63.7862 60.6887C57.71 60.4693 52.6773 55.8567 52.5684 50.4072C52.5117 47.5965 53.6864 44.9384 55.8747 42.9234C57.8047 41.1456 58.8677 38.9276 58.8677 36.6797L63.3684 34.0908L65.1688 35.7034V43.7628H71.47L72.5241 42.792C74.7475 44.7722 75.9708 47.4078 75.9708 50.2162C75.9708 53.0961 74.6934 55.7811 72.3737 57.7765C70.1739 59.6694 67.3132 60.6975 64.2751 60.6975Z" fill="#F9BA48"/>
<path d="M68.7695 48.6003V48.2005C68.7695 46.6443 67.3562 45.3753 65.6188 45.3753H65.1686V43.7627H63.3682V45.3753H62.9181C61.1807 45.3753 59.7676 46.6412 59.7676 48.1971C59.7676 49.7533 61.1809 51.0191 62.9181 51.0191H65.6186C66.3631 51.0191 66.9689 51.5617 66.9689 52.2286C66.9689 52.8954 66.3631 53.438 65.6186 53.438H62.9183C62.1738 53.438 61.568 52.8985 61.568 52.2317V51.8254H59.7676V52.2317C59.7676 53.7879 61.1809 55.0504 62.9181 55.0504H63.3682V56.663H65.1686V55.0504H65.6188C67.3562 55.0504 68.7695 53.7845 68.7695 52.2286C68.7695 50.6724 67.3562 49.4065 65.6188 49.4065H62.9183C62.1738 49.4065 61.568 48.864 61.568 48.1971C61.568 47.5303 62.1738 46.9877 62.9183 46.9877H65.6188C66.3633 46.9877 66.969 47.5336 66.969 48.2003V48.6002L68.7695 48.6003Z" fill="white"/>
<path d="M72.5684 34.0912C73.0005 33.6622 73.2705 33.0986 73.2705 32.4771C73.2705 31.1436 72.0589 30.0566 70.5699 30.0566H67.2196L66.593 29.3551L59.5583 27.5532L54.0412 31.669H49.8662V33.2816H54.6929L59.9787 29.3381L65.5462 30.7635L67.4401 32.8833C67.6904 33.1639 67.801 33.5154 67.7506 33.8717C67.7002 34.2281 67.4949 34.5442 67.1736 34.7593C66.593 35.1495 65.7676 35.0971 65.2528 34.6367L63.4362 33.0097L58.3062 36.6857L59.4305 37.9451L63.3021 35.1707L63.9791 35.7777C64.0782 35.8665 64.1888 35.9389 64.2978 36.0139C64.3634 36.6024 64.6029 36.9483 64.9711 37.3135C64.5389 37.7425 64.269 38.3053 64.269 38.9268C64.269 39.5483 64.5399 40.1112 64.9711 40.5394C64.5389 40.9684 64.269 41.5286 64.269 42.1503C64.269 43.4855 65.4805 44.5692 66.9695 44.5692H70.5701C72.0589 44.5692 73.2707 43.4855 73.2707 42.152C73.2707 41.5303 72.9998 40.9692 72.5686 40.5402C73.0007 40.1112 73.2707 39.5502 73.2707 38.9276C73.2707 38.3053 72.9998 37.744 72.5686 37.315C73.0007 36.886 73.2707 36.3241 73.2707 35.7024C73.2705 35.0812 72.9996 34.52 72.5684 34.0912ZM70.5699 42.9567H66.9693C66.4732 42.9567 66.0692 42.5947 66.0692 42.1505C66.0692 41.7062 66.4734 41.3443 66.9693 41.3443H70.5699C71.066 41.3443 71.4701 41.7063 71.4701 42.1505C71.4702 42.5948 71.066 42.9567 70.5699 42.9567ZM70.5699 39.7317H66.9693C66.4732 39.7317 66.0692 39.3696 66.0692 38.9255C66.0692 38.4811 66.4734 38.1193 66.9693 38.1193H70.5699C71.066 38.1193 71.4701 38.4813 71.4701 38.9255C71.4702 39.3698 71.066 39.7317 70.5699 39.7317ZM70.5699 36.5067H67.2348C67.5941 36.4107 67.9406 36.2607 68.2537 36.0503C68.7074 35.7456 69.0423 35.3449 69.2656 34.8942H70.5699C71.066 34.8942 71.4701 35.2563 71.4701 35.7004C71.4701 36.1446 71.066 36.5067 70.5699 36.5067ZM70.5699 33.2816H69.514C69.4313 32.7737 69.2143 32.2899 68.8452 31.8764L68.6598 31.6692H70.5699C71.066 31.6692 71.4701 32.0312 71.4701 32.4754C71.4702 32.9196 71.066 33.2816 70.5699 33.2816Z" fill="#266150"/>
<path d="M80.6286 60.6947V63.1135H74.6002L72.1265 61.6364L64.54 59.2264C63.818 58.9991 63.043 59.0451 62.3606 59.3555C61.6773 59.6659 61.1796 60.198 60.9572 60.8544C60.5729 61.9903 61.1435 63.2199 62.3138 63.7763L64.2626 64.7034L61.4289 64.7114L60.264 62.1024C59.8806 61.2477 58.9686 60.6947 57.9389 60.6947C57.1351 60.6947 56.3754 61.0446 55.9063 61.6283C55.4373 62.2137 55.3103 62.9699 55.5669 63.6521L55.8397 64.376L53.8647 63.4092C53.2364 63.1005 52.4856 63.0409 51.806 63.2464C51.1264 63.4496 50.5673 63.9019 50.272 64.4864C49.6942 65.6297 50.2261 66.9609 51.4829 67.5164L55.9262 69.4804L65.1493 71.1607L77.117 71.176L80.6286 70.5471V72.7886H86.9298V60.6947H80.6286ZM57.3683 62.5692C57.6708 62.1918 58.3998 62.2718 58.5915 62.7023L59.4917 64.7171L57.8696 64.7219L57.2736 63.1368C57.2007 62.9424 57.235 62.7361 57.3683 62.5692ZM76.9387 69.5635H65.4148L56.6165 67.9873L52.2796 66.0707C51.8988 65.9022 51.7368 65.4983 51.9124 65.1508C52.0033 64.9709 52.168 64.8372 52.3778 64.775C52.5856 64.7106 52.8089 64.7291 53.0025 64.825L56.0946 66.3383H64.6382L68.1903 64.7476L63.1592 62.3522C62.747 62.1555 62.5453 61.7225 62.6803 61.3218C62.7585 61.0905 62.9341 60.9018 63.1754 60.7929C63.4158 60.6825 63.6893 60.668 63.9441 60.747L71.2229 63.0344L74.0549 64.7259H80.6288V68.9024L76.9387 69.5635ZM85.1294 71.176H82.4289V62.3071H85.1294V71.176Z" fill="#266150"/>
</g>
<ellipse cx="94.0959" cy="25.9485" rx="13.8518" ry="13.9895" fill="#A9CAC0"/>
<path d="M94.096 42.438C103.15 42.438 110.448 35.032 110.448 25.9485C110.448 16.865 103.15 9.45898 94.096 9.45898C85.0418 9.45898 77.7441 16.865 77.7441 25.9485C77.7441 35.032 85.0418 42.438 94.096 42.438Z" stroke="white" stroke-opacity="0.3" stroke-width="5"/>
<path d="M17.9233 104.455H22.7646V105.935H16.0703V95.2706H17.9233V104.455ZM27.5034 106.081C26.3755 106.081 25.46 105.727 24.7568 105.019C24.0586 104.306 23.7095 103.359 23.7095 102.177V101.958C23.7095 101.167 23.8608 100.461 24.1636 99.8409C24.4712 99.2159 24.9009 98.73 25.4526 98.3834C26.0044 98.0367 26.6196 97.8633 27.2983 97.8633C28.3774 97.8633 29.21 98.2076 29.7959 98.8961C30.3867 99.5845 30.6821 100.559 30.6821 101.818V102.536H25.5039C25.5576 103.19 25.7749 103.708 26.1558 104.089C26.5415 104.47 27.0249 104.66 27.606 104.66C28.4214 104.66 29.0854 104.331 29.5981 103.671L30.5576 104.587C30.2402 105.061 29.8154 105.429 29.2832 105.693C28.7559 105.952 28.1626 106.081 27.5034 106.081ZM27.291 99.2916C26.8027 99.2916 26.4072 99.4625 26.1045 99.8043C25.8066 100.146 25.6162 100.622 25.5332 101.232H28.9243V101.101C28.8853 100.505 28.7266 100.056 28.4482 99.753C28.1699 99.4454 27.7842 99.2916 27.291 99.2916ZM33.7217 98.0098L33.7729 98.9254C34.3589 98.2173 35.1279 97.8633 36.0801 97.8633C37.7305 97.8633 38.5703 98.8082 38.5996 100.698V105.935H36.8198V100.8C36.8198 100.297 36.71 99.9263 36.4902 99.6871C36.2754 99.4429 35.9214 99.3209 35.4282 99.3209C34.7104 99.3209 34.1758 99.6456 33.8242 100.295V105.935H32.0444V98.0098H33.7217ZM40.0864 101.914C40.0864 100.693 40.3696 99.7139 40.936 98.9766C41.5024 98.2344 42.2617 97.8633 43.2139 97.8633C44.0537 97.8633 44.7324 98.1563 45.25 98.7422V94.6846H47.0298V105.935H45.4185L45.3306 105.114C44.7983 105.759 44.0879 106.081 43.1992 106.081C42.2715 106.081 41.5195 105.708 40.9434 104.961C40.3721 104.213 40.0864 103.198 40.0864 101.914ZM41.8662 102.067C41.8662 102.873 42.02 103.503 42.3276 103.957C42.6401 104.406 43.082 104.631 43.6533 104.631C44.3809 104.631 44.9131 104.306 45.25 103.657V100.273C44.9229 99.6382 44.3955 99.3209 43.668 99.3209C43.0918 99.3209 42.6475 99.5504 42.335 100.009C42.0225 100.463 41.8662 101.149 41.8662 102.067ZM52.3398 103.056C52.3398 102.563 52.4741 102.111 52.7427 101.701C53.0112 101.286 53.541 100.795 54.332 100.229C53.917 99.7066 53.6265 99.2623 53.4604 98.8961C53.2993 98.5298 53.2188 98.1758 53.2188 97.834C53.2188 96.9991 53.4727 96.3399 53.9805 95.8565C54.4883 95.3682 55.1719 95.1241 56.0312 95.1241C56.8076 95.1241 57.4424 95.3536 57.9355 95.8126C58.4336 96.2667 58.6826 96.8306 58.6826 97.5045C58.6826 97.9488 58.5703 98.3589 58.3457 98.7349C58.1211 99.106 57.7524 99.4771 57.2397 99.8482L56.5146 100.376L58.5728 102.807C58.8706 102.221 59.0195 101.569 59.0195 100.852H60.5649C60.5649 102.165 60.2573 103.242 59.6421 104.082L61.2095 105.935H59.144L58.5435 105.224C57.7817 105.795 56.8735 106.081 55.8188 106.081C54.7642 106.081 53.9194 105.803 53.2847 105.246C52.6548 104.685 52.3398 103.955 52.3398 103.056ZM55.8701 104.66C56.4707 104.66 57.0322 104.46 57.5547 104.06L55.2256 101.313L54.9985 101.474C54.4126 101.919 54.1196 102.426 54.1196 102.998C54.1196 103.491 54.2783 103.891 54.5957 104.199C54.9131 104.506 55.3379 104.66 55.8701 104.66ZM54.8887 97.7901C54.8887 98.2003 55.1401 98.7154 55.6431 99.3355L56.4561 98.7789L56.6831 98.5958C56.9858 98.3272 57.1372 97.983 57.1372 97.563C57.1372 97.2847 57.0322 97.0479 56.8223 96.8526C56.6123 96.6524 56.3462 96.5523 56.0239 96.5523C55.6772 96.5523 55.4014 96.6695 55.1963 96.9039C54.9912 97.1382 54.8887 97.4337 54.8887 97.7901ZM66.124 105.935V95.2706H69.7788C70.9849 95.2706 71.9028 95.5123 72.5327 95.9957C73.1626 96.4791 73.4775 97.1993 73.4775 98.1563C73.4775 98.6446 73.3457 99.084 73.082 99.4747C72.8184 99.8653 72.4326 100.168 71.9248 100.383C72.501 100.539 72.9453 100.835 73.2578 101.269C73.5752 101.699 73.7339 102.216 73.7339 102.822C73.7339 103.823 73.4116 104.592 72.7671 105.129C72.1274 105.666 71.2095 105.935 70.0132 105.935H66.124ZM67.9771 101.123V104.455H70.0352C70.6162 104.455 71.0703 104.311 71.3975 104.023C71.7246 103.735 71.8882 103.335 71.8882 102.822C71.8882 101.713 71.3218 101.147 70.189 101.123H67.9771ZM67.9771 99.7603H69.7935C70.3696 99.7603 70.8188 99.6309 71.1411 99.3721C71.4683 99.1085 71.6318 98.7374 71.6318 98.2589C71.6318 97.7315 71.4805 97.3506 71.1777 97.1163C70.8799 96.8819 70.4136 96.7647 69.7788 96.7647H67.9771V99.7603ZM75.0815 101.899C75.0815 101.123 75.2354 100.424 75.543 99.8043C75.8506 99.1793 76.2827 98.7007 76.8394 98.3687C77.396 98.0318 78.0356 97.8633 78.7583 97.8633C79.8276 97.8633 80.6943 98.2076 81.3584 98.8961C82.0273 99.5845 82.3887 100.498 82.4424 101.635L82.4497 102.053C82.4497 102.834 82.2983 103.532 81.9956 104.148C81.6978 104.763 81.2681 105.239 80.7065 105.576C80.1499 105.913 79.5054 106.081 78.7729 106.081C77.6548 106.081 76.7588 105.71 76.085 104.968C75.416 104.221 75.0815 103.227 75.0815 101.987V101.899ZM76.8613 102.053C76.8613 102.868 77.0298 103.508 77.3667 103.972C77.7036 104.431 78.1724 104.66 78.7729 104.66C79.3735 104.66 79.8398 104.426 80.1719 103.957C80.5088 103.488 80.6772 102.802 80.6772 101.899C80.6772 101.098 80.5039 100.463 80.1572 99.9947C79.8154 99.5259 79.3491 99.2916 78.7583 99.2916C78.1772 99.2916 77.7158 99.5235 77.374 99.9874C77.0322 100.446 76.8613 101.135 76.8613 102.053ZM88.104 99.6358C87.8696 99.5967 87.6279 99.5772 87.3789 99.5772C86.5635 99.5772 86.0142 99.8897 85.731 100.515V105.935H83.9512V98.0098H85.6504L85.6943 98.8961C86.124 98.2076 86.7197 97.8633 87.4814 97.8633C87.7354 97.8633 87.9453 97.8975 88.1113 97.9659L88.104 99.6358ZM93.3774 99.6358C93.1431 99.5967 92.9014 99.5772 92.6523 99.5772C91.8369 99.5772 91.2876 99.8897 91.0044 100.515V105.935H89.2246V98.0098H90.9238L90.9678 98.8961C91.3975 98.2076 91.9932 97.8633 92.7549 97.8633C93.0088 97.8633 93.2188 97.8975 93.3848 97.9659L93.3774 99.6358ZM93.9048 101.899C93.9048 101.123 94.0586 100.424 94.3662 99.8043C94.6738 99.1793 95.106 98.7007 95.6626 98.3687C96.2192 98.0318 96.8589 97.8633 97.5815 97.8633C98.6509 97.8633 99.5176 98.2076 100.182 98.8961C100.851 99.5845 101.212 100.498 101.266 101.635L101.273 102.053C101.273 102.834 101.122 103.532 100.819 104.148C100.521 104.763 100.091 105.239 99.5298 105.576C98.9731 105.913 98.3286 106.081 97.5962 106.081C96.478 106.081 95.582 105.71 94.9082 104.968C94.2393 104.221 93.9048 103.227 93.9048 101.987V101.899ZM95.6846 102.053C95.6846 102.868 95.853 103.508 96.1899 103.972C96.5269 104.431 96.9956 104.66 97.5962 104.66C98.1968 104.66 98.6631 104.426 98.9951 103.957C99.332 103.488 99.5005 102.802 99.5005 101.899C99.5005 101.098 99.3271 100.463 98.9805 99.9947C98.6387 99.5259 98.1724 99.2916 97.5815 99.2916C97.0005 99.2916 96.5391 99.5235 96.1973 99.9874C95.8555 100.446 95.6846 101.135 95.6846 102.053ZM109.74 103.481L111 98.0098H112.735L110.575 105.935H109.11L107.411 100.493L105.741 105.935H104.276L102.108 98.0098H103.844L105.125 103.422L106.751 98.0098H108.092L109.74 103.481Z" fill="#8FBAAD"/>
<path d="M17.9233 104.455H16.9233V105.455H17.9233V104.455ZM22.7646 104.455H23.7646V103.455H22.7646V104.455ZM22.7646 105.935V106.935H23.7646V105.935H22.7646ZM16.0703 105.935H15.0703V106.935H16.0703V105.935ZM16.0703 95.2706V94.2706H15.0703V95.2706H16.0703ZM17.9233 95.2706H18.9233V94.2706H17.9233V95.2706ZM17.9233 105.455H22.7646V103.455H17.9233V105.455ZM21.7646 104.455V105.935H23.7646V104.455H21.7646ZM22.7646 104.935H16.0703V106.935H22.7646V104.935ZM17.0703 105.935V95.2706H15.0703V105.935H17.0703ZM16.0703 96.2706H17.9233V94.2706H16.0703V96.2706ZM16.9233 95.2706V104.455H18.9233V95.2706H16.9233ZM24.7568 105.019L24.0424 105.719L24.0473 105.724L24.7568 105.019ZM24.1636 99.8409L23.2664 99.3993L23.2649 99.4022L24.1636 99.8409ZM25.4526 98.3834L24.9206 97.5366L25.4526 98.3834ZM29.7959 98.8961L29.0344 99.5442L29.037 99.5473L29.7959 98.8961ZM30.6821 102.536V103.536H31.6821V102.536H30.6821ZM25.5039 102.536V101.536H24.4185L24.5073 102.618L25.5039 102.536ZM26.1558 104.089L25.4486 104.796L25.4532 104.801L26.1558 104.089ZM29.5981 103.671L30.2885 102.948L29.488 102.184L28.8088 103.058L29.5981 103.671ZM30.5576 104.587L31.3883 105.144L31.8569 104.444L31.248 103.863L30.5576 104.587ZM29.2832 105.693L29.7238 106.591L29.7271 106.589L29.2832 105.693ZM26.1045 99.8043L25.3559 99.1412L25.3506 99.1473L26.1045 99.8043ZM25.5332 101.232L24.5423 101.098L24.388 102.232H25.5332V101.232ZM28.9243 101.232V102.232H29.9243V101.232H28.9243ZM28.9243 101.101H29.9243V101.068L29.9222 101.035L28.9243 101.101ZM28.4482 99.753L27.7067 100.424L27.7121 100.43L28.4482 99.753ZM27.5034 105.081C26.604 105.081 25.9567 104.808 25.4664 104.314L24.0473 105.724C24.9633 106.646 26.147 107.081 27.5034 107.081V105.081ZM25.4712 104.319C24.9893 103.827 24.7095 103.149 24.7095 102.177H22.7095C22.7095 103.569 23.1279 104.785 24.0424 105.719L25.4712 104.319ZM24.7095 102.177V101.958H22.7095V102.177H24.7095ZM24.7095 101.958C24.7095 101.296 24.8353 100.744 25.0622 100.28L23.2649 99.4022C22.8864 100.178 22.7095 101.037 22.7095 101.958H24.7095ZM25.0608 100.282C25.2924 99.8118 25.6007 99.4713 25.9847 99.2301L24.9206 97.5366C24.201 97.9888 23.6499 98.62 23.2664 99.3993L25.0608 100.282ZM25.9847 99.2301C26.3702 98.9878 26.7996 98.8633 27.2983 98.8633V96.8633C26.4396 96.8633 25.6386 97.0855 24.9206 97.5366L25.9847 99.2301ZM27.2983 98.8633C28.1468 98.8633 28.6755 99.1225 29.0344 99.5442L30.5574 98.2479C29.7444 97.2926 28.6081 96.8633 27.2983 96.8633V98.8633ZM29.037 99.5473C29.4211 99.9949 29.6821 100.705 29.6821 101.818H31.6821C31.6821 100.412 31.3523 99.1742 30.5548 98.2448L29.037 99.5473ZM29.6821 101.818V102.536H31.6821V101.818H29.6821ZM30.6821 101.536H25.5039V103.536H30.6821V101.536ZM24.5073 102.618C24.5759 103.455 24.8657 104.213 25.4487 104.796L26.8629 103.382C26.6841 103.203 26.5393 102.926 26.5006 102.454L24.5073 102.618ZM25.4532 104.801C26.0404 105.38 26.7828 105.66 27.606 105.66V103.66C27.267 103.66 27.0426 103.559 26.8584 103.377L25.4532 104.801ZM27.606 105.66C28.7386 105.66 29.6907 105.181 30.3875 104.285L28.8088 103.058C28.4802 103.48 28.1042 103.66 27.606 103.66V105.66ZM28.9078 104.395L29.8673 105.31L31.248 103.863L30.2885 102.948L28.9078 104.395ZM29.7269 104.03C29.5108 104.353 29.222 104.607 28.8393 104.797L29.7271 106.589C30.4089 106.251 30.9697 105.768 31.3883 105.144L29.7269 104.03ZM28.8427 104.795C28.4684 104.979 28.0287 105.081 27.5034 105.081V107.081C28.2965 107.081 29.0434 106.925 29.7238 106.591L28.8427 104.795ZM27.291 98.2916C26.5389 98.2916 25.8628 98.5689 25.3559 99.1412L26.8531 100.467C26.9516 100.356 27.0665 100.292 27.291 100.292V98.2916ZM25.3506 99.1473C24.886 99.6804 24.6425 100.361 24.5423 101.098L26.5241 101.367C26.59 100.883 26.7272 100.612 26.8584 100.461L25.3506 99.1473ZM25.5332 102.232H28.9243V100.232H25.5332V102.232ZM29.9243 101.232V101.101H27.9243V101.232H29.9243ZM29.9222 101.035C29.8747 100.312 29.6735 99.6081 29.1844 99.0762L27.7121 100.43C27.7797 100.503 27.8958 100.698 27.9265 101.166L29.9222 101.035ZM29.1898 99.0821C28.6861 98.5253 28.0085 98.2916 27.291 98.2916V100.292C27.5598 100.292 27.6538 100.365 27.7067 100.424L29.1898 99.0821ZM33.7217 98.0098L34.7201 97.9539L34.6672 97.0098H33.7217V98.0098ZM33.7729 98.9254L32.7745 98.9813L32.9171 101.528L34.5433 99.5629L33.7729 98.9254ZM38.5996 100.698H39.5996V100.69L39.5995 100.682L38.5996 100.698ZM38.5996 105.935V106.935H39.5996V105.935H38.5996ZM36.8198 105.935H35.8198V106.935H36.8198V105.935ZM36.4902 99.6871L35.7395 100.348L35.7465 100.356L35.7537 100.363L36.4902 99.6871ZM33.8242 100.295L32.9448 99.8189L32.8242 100.042V100.295H33.8242ZM33.8242 105.935V106.935H34.8242V105.935H33.8242ZM32.0444 105.935H31.0444V106.935H32.0444V105.935ZM32.0444 98.0098V97.0098H31.0444V98.0098H32.0444ZM32.7232 98.0657L32.7745 98.9813L34.7714 98.8694L34.7201 97.9539L32.7232 98.0657ZM34.5433 99.5629C34.9315 99.0938 35.4135 98.8633 36.0801 98.8633V96.8633C34.8423 96.8633 33.7862 97.3409 33.0026 98.2878L34.5433 99.5629ZM36.0801 98.8633C36.7122 98.8633 37.0241 99.038 37.2003 99.2363C37.3985 99.4593 37.587 99.8932 37.5997 100.713L39.5995 100.682C39.5829 99.6128 39.3368 98.6294 38.6952 97.9076C38.0316 97.1611 37.0983 96.8633 36.0801 96.8633V98.8633ZM37.5996 100.698V105.935H39.5996V100.698H37.5996ZM38.5996 104.935H36.8198V106.935H38.5996V104.935ZM37.8198 105.935V100.8H35.8198V105.935H37.8198ZM37.8198 100.8C37.8198 100.179 37.6881 99.513 37.2268 99.0107L35.7537 100.363C35.7318 100.34 35.8198 100.416 35.8198 100.8H37.8198ZM37.2409 99.0264C36.7561 98.4755 36.0597 98.3209 35.4282 98.3209V100.321C35.597 100.321 35.6928 100.342 35.7376 100.358C35.7759 100.371 35.763 100.374 35.7395 100.348L37.2409 99.0264ZM35.4282 98.3209C34.9138 98.3209 34.4156 98.439 33.9698 98.7097C33.5256 98.9795 33.1897 99.3666 32.9448 99.8189L34.7036 100.771C34.8103 100.574 34.9176 100.474 35.008 100.419C35.0969 100.365 35.2249 100.321 35.4282 100.321V98.3209ZM32.8242 100.295V105.935H34.8242V100.295H32.8242ZM33.8242 104.935H32.0444V106.935H33.8242V104.935ZM33.0444 105.935V98.0098H31.0444V105.935H33.0444ZM32.0444 99.0098H33.7217V97.0098H32.0444V99.0098ZM40.936 98.9766L41.7291 99.5858L41.731 99.5833L40.936 98.9766ZM45.25 98.7422L44.5005 99.4043L46.25 101.385V98.7422H45.25ZM45.25 94.6846V93.6846H44.25V94.6846H45.25ZM47.0298 94.6846H48.0298V93.6846H47.0298V94.6846ZM47.0298 105.935V106.935H48.0298V105.935H47.0298ZM45.4185 105.935L44.4241 106.041L44.5199 106.935H45.4185V105.935ZM45.3306 105.114L46.3249 105.008L46.0718 102.646L44.5595 104.478L45.3306 105.114ZM40.9434 104.961L40.149 105.568L40.1515 105.571L40.9434 104.961ZM42.3276 103.957L41.4997 104.518L41.5067 104.528L42.3276 103.957ZM45.25 103.657L46.1377 104.117L46.25 103.901V103.657H45.25ZM45.25 100.273H46.25V100.03L46.1389 99.8149L45.25 100.273ZM42.335 100.009L43.1588 100.576L43.1616 100.572L42.335 100.009ZM41.0864 101.914C41.0864 100.844 41.3336 100.101 41.729 99.5858L40.143 98.3674C39.4057 99.3273 39.0864 100.542 39.0864 101.914H41.0864ZM41.731 99.5833C42.1039 99.0947 42.5663 98.8633 43.2139 98.8633V96.8633C41.9572 96.8633 40.901 97.3742 40.1411 98.37L41.731 99.5833ZM43.2139 98.8633C43.791 98.8633 44.1881 99.0506 44.5005 99.4043L45.9995 98.0802C45.2767 97.262 44.3164 96.8633 43.2139 96.8633V98.8633ZM46.25 98.7422V94.6846H44.25V98.7422H46.25ZM45.25 95.6846H47.0298V93.6846H45.25V95.6846ZM46.0298 94.6846V105.935H48.0298V94.6846H46.0298ZM47.0298 104.935H45.4185V106.935H47.0298V104.935ZM46.4128 105.828L46.3249 105.008L44.3363 105.221L44.4241 106.041L46.4128 105.828ZM44.5595 104.478C44.2305 104.876 43.8111 105.081 43.1992 105.081V107.081C44.3647 107.081 45.3661 106.642 46.1017 105.751L44.5595 104.478ZM43.1992 105.081C42.5876 105.081 42.1258 104.856 41.7352 104.35L40.1515 105.571C40.9133 106.559 41.9554 107.081 43.1992 107.081V105.081ZM41.7377 104.353C41.341 103.834 41.0864 103.057 41.0864 101.914H39.0864C39.0864 103.338 39.4031 104.593 40.149 105.568L41.7377 104.353ZM40.8662 102.067C40.8662 102.984 41.0388 103.837 41.4997 104.518L43.1556 103.396C43.0013 103.168 42.8662 102.762 42.8662 102.067H40.8662ZM41.5067 104.528C42.0157 105.26 42.7718 105.631 43.6533 105.631V103.631C43.3923 103.631 43.2646 103.553 43.1485 103.386L41.5067 104.528ZM43.6533 105.631C44.1697 105.631 44.6714 105.514 45.119 105.241C45.5662 104.968 45.8999 104.576 46.1377 104.117L44.3623 103.196C44.2632 103.387 44.1623 103.482 44.0773 103.534C43.9927 103.585 43.8645 103.631 43.6533 103.631V105.631ZM46.25 103.657V100.273H44.25V103.657H46.25ZM46.1389 99.8149C45.9042 99.3595 45.5715 98.971 45.1248 98.7021C44.6791 98.4339 44.1801 98.3209 43.668 98.3209V100.321C43.8834 100.321 44.0118 100.367 44.0935 100.416C44.1741 100.464 44.2687 100.552 44.3611 100.731L46.1389 99.8149ZM43.668 98.3209C42.7758 98.3209 42.0153 98.702 41.5084 99.4465L43.1616 100.572C43.2796 100.399 43.4078 100.321 43.668 100.321V98.3209ZM41.5112 99.4424C41.0303 100.141 40.8662 101.068 40.8662 102.067H42.8662C42.8662 101.23 43.0146 100.786 43.1587 100.576L41.5112 99.4424ZM52.7427 101.701L53.5793 102.249L53.5822 102.244L52.7427 101.701ZM54.332 100.229L54.9142 101.042L55.7689 100.43L55.115 99.6071L54.332 100.229ZM53.4604 98.8961L52.5451 99.2988L52.5497 99.3089L53.4604 98.8961ZM53.9805 95.8565L54.67 96.5808L54.6736 96.5773L53.9805 95.8565ZM57.9355 95.8126L57.2542 96.5446L57.2618 96.5515L57.9355 95.8126ZM58.3457 98.7349L59.2012 99.2527L59.2042 99.2478L58.3457 98.7349ZM57.2397 99.8482L56.6534 99.0381L56.6516 99.0395L57.2397 99.8482ZM56.5146 100.376L55.9265 99.5668L55.0559 100.2L55.7514 101.022L56.5146 100.376ZM58.5728 102.807L57.8095 103.453L58.782 104.602L59.4642 103.26L58.5728 102.807ZM59.0195 100.852V99.8516H58.0195V100.852H59.0195ZM60.5649 100.852H61.5649V99.8516H60.5649V100.852ZM59.6421 104.082L58.8354 103.491L58.3699 104.126L58.8786 104.727L59.6421 104.082ZM61.2095 105.935V106.935H63.3651L61.973 105.289L61.2095 105.935ZM59.144 105.935L58.3804 106.58L58.68 106.935H59.144V105.935ZM58.5435 105.224L59.3071 104.579L58.6981 103.858L57.9435 104.424L58.5435 105.224ZM53.2847 105.246L52.6192 105.993L52.6253 105.998L53.2847 105.246ZM57.5547 104.06L58.163 104.853L58.9969 104.214L58.3174 103.413L57.5547 104.06ZM55.2256 101.313L55.9883 100.666L55.395 99.9666L54.6468 100.498L55.2256 101.313ZM54.9985 101.474L54.4198 100.659L54.4069 100.668L54.3943 100.677L54.9985 101.474ZM55.6431 99.3355L54.8664 99.9654L55.4472 100.682L56.208 100.161L55.6431 99.3355ZM56.4561 98.7789L57.021 99.604L57.0533 99.5819L57.0838 99.5573L56.4561 98.7789ZM56.6831 98.5958L57.3109 99.3742L57.3291 99.3594L57.3467 99.3438L56.6831 98.5958ZM56.8223 96.8526L56.1321 97.5764L56.1412 97.5848L56.8223 96.8526ZM53.3398 103.056C53.3398 102.756 53.418 102.495 53.5793 102.249L51.9061 101.153C51.5302 101.727 51.3398 102.37 51.3398 103.056H53.3398ZM53.5822 102.244C53.7446 101.994 54.1459 101.592 54.9142 101.042L53.7498 99.416C52.9361 99.9987 52.2779 100.579 51.9031 101.158L53.5822 102.244ZM55.115 99.6071C54.7223 99.1126 54.4885 98.7419 54.3712 98.4832L52.5497 99.3089C52.7644 99.7826 53.1117 100.301 53.549 100.851L55.115 99.6071ZM54.3758 98.4933C54.2611 98.2326 54.2188 98.0156 54.2188 97.834H52.2188C52.2188 98.3361 52.3376 98.8271 52.5451 99.2988L54.3758 98.4933ZM54.2188 97.834C54.2188 97.2163 54.3979 96.8397 54.6699 96.5808L53.291 95.1322C52.5474 95.8401 52.2188 96.7818 52.2188 97.834H54.2188ZM54.6736 96.5773C54.9558 96.3059 55.3702 96.1241 56.0312 96.1241V94.1241C54.9736 94.1241 54.0207 94.4305 53.2874 95.1357L54.6736 96.5773ZM56.0312 96.1241C56.5961 96.1241 56.9743 96.284 57.2543 96.5446L58.6168 95.0805C57.9104 94.4231 57.0191 94.1241 56.0312 94.1241V96.1241ZM57.2618 96.5515C57.5521 96.8162 57.6826 97.1119 57.6826 97.5045H59.6826C59.6826 96.5493 59.3151 95.7171 58.6093 95.0736L57.2618 96.5515ZM57.6826 97.5045C57.6826 97.771 57.6178 98.0035 57.4872 98.2221L59.2042 99.2478C59.5228 98.7144 59.6826 98.1266 59.6826 97.5045H57.6826ZM57.4902 98.2171C57.359 98.4339 57.1033 98.7125 56.6534 99.0381L57.8261 100.658C58.4016 100.242 58.8832 99.7782 59.2012 99.2527L57.4902 98.2171ZM56.6516 99.0395L55.9265 99.5668L57.1028 101.184L57.8279 100.657L56.6516 99.0395ZM55.7514 101.022L57.8095 103.453L59.3361 102.161L57.2779 99.7295L55.7514 101.022ZM59.4642 103.26C59.8398 102.521 60.0195 101.712 60.0195 100.852H58.0195C58.0195 101.427 57.9014 101.921 57.6813 102.354L59.4642 103.26ZM59.0195 101.852H60.5649V99.8516H59.0195V101.852ZM59.5649 100.852C59.5649 102.009 59.2955 102.863 58.8354 103.491L60.4488 104.673C61.2192 103.621 61.5649 102.322 61.5649 100.852H59.5649ZM58.8786 104.727L60.446 106.58L61.973 105.289L60.4056 103.436L58.8786 104.727ZM61.2095 104.935H59.144V106.935H61.2095V104.935ZM59.9077 105.289L59.3071 104.579L57.7798 105.87L58.3804 106.58L59.9077 105.289ZM57.9435 104.424C57.3735 104.852 56.6817 105.081 55.8188 105.081V107.081C57.0654 107.081 58.19 106.739 59.1435 106.024L57.9435 104.424ZM55.8188 105.081C54.9441 105.081 54.3542 104.854 53.944 104.494L52.6253 105.998C53.4847 106.752 54.5842 107.081 55.8188 107.081V105.081ZM53.9501 104.5C53.5481 104.141 53.3398 103.69 53.3398 103.056H51.3398C51.3398 104.219 51.7614 105.228 52.6192 105.993L53.9501 104.5ZM55.8701 105.66C56.712 105.66 57.4837 105.374 58.163 104.853L56.9464 103.266C56.5808 103.546 56.2294 103.66 55.8701 103.66V105.66ZM58.3174 103.413L55.9883 100.666L54.4629 101.96L56.792 104.706L58.3174 103.413ZM54.6468 100.498L54.4198 100.659L55.5773 102.29L55.8043 102.129L54.6468 100.498ZM54.3943 100.677C53.6375 101.251 53.1196 102.027 53.1196 102.998H55.1196C55.1196 102.826 55.1877 102.586 55.6028 102.271L54.3943 100.677ZM53.1196 102.998C53.1196 103.727 53.3646 104.398 53.8997 104.917L55.2917 103.481C55.192 103.384 55.1196 103.255 55.1196 102.998H53.1196ZM53.8997 104.917C54.4406 105.441 55.1345 105.66 55.8701 105.66V103.66C55.5413 103.66 55.3856 103.572 55.2917 103.481L53.8997 104.917ZM53.8887 97.7901C53.8887 98.5641 54.336 99.3114 54.8664 99.9654L56.4197 98.7056C55.9443 98.1194 55.8887 97.8364 55.8887 97.7901H53.8887ZM56.208 100.161L57.021 99.604L55.8911 97.9537L55.0781 98.5104L56.208 100.161ZM57.0838 99.5573L57.3109 99.3742L56.0554 97.8174L55.8283 98.0005L57.0838 99.5573ZM57.3467 99.3438C57.8724 98.8775 58.1372 98.2567 58.1372 97.563H56.1372C56.1372 97.7092 56.0993 97.7769 56.0195 97.8477L57.3467 99.3438ZM58.1372 97.563C58.1372 96.9976 57.9097 96.4984 57.5034 96.1204L56.1412 97.5848C56.1502 97.5932 56.1528 97.5971 56.1519 97.5959C56.1509 97.5944 56.1477 97.5896 56.1443 97.582C56.1409 97.5742 56.1387 97.567 56.1377 97.5618C56.1366 97.5567 56.1372 97.5566 56.1372 97.563H58.1372ZM57.5123 96.1289C57.0951 95.731 56.5722 95.5523 56.0239 95.5523V97.5523C56.0807 97.5523 56.1066 97.5609 56.1131 97.5634C56.1178 97.5651 56.1224 97.567 56.1322 97.5763L57.5123 96.1289ZM56.0239 95.5523C55.4254 95.5523 54.8615 95.7679 54.4437 96.2454L55.9489 97.5624C55.9538 97.5567 55.9555 97.5559 55.9535 97.5574C55.9514 97.5589 55.9491 97.5601 55.948 97.5606C55.9444 97.5621 55.9641 97.5523 56.0239 97.5523V95.5523ZM54.4437 96.2454C54.0562 96.6883 53.8887 97.2287 53.8887 97.7901H55.8887C55.8887 97.6386 55.9262 97.5882 55.9489 97.5624L54.4437 96.2454ZM66.124 105.935H65.124V106.935H66.124V105.935ZM66.124 95.2706V94.2706H65.124V95.2706H66.124ZM71.9248 100.383L71.5352 99.4619L68.8684 100.59L71.6631 101.348L71.9248 100.383ZM73.2578 101.269L72.4459 101.853L72.4534 101.863L73.2578 101.269ZM72.7671 105.129L72.1269 104.361L72.124 104.363L72.7671 105.129ZM67.9771 101.123V100.123H66.9771V101.123H67.9771ZM67.9771 104.455H66.9771V105.455H67.9771V104.455ZM70.189 101.123L70.2105 100.123L70.1997 100.123H70.189V101.123ZM67.9771 99.7603H66.9771V100.76H67.9771V99.7603ZM71.1411 99.3721L71.7673 100.152L71.7686 100.151L71.1411 99.3721ZM71.1777 97.1163L70.5593 97.9022L70.5656 97.907L71.1777 97.1163ZM67.9771 96.7647V95.7647H66.9771V96.7647H67.9771ZM67.124 105.935V95.2706H65.124V105.935H67.124ZM66.124 96.2706H69.7788V94.2706H66.124V96.2706ZM69.7788 96.2706C70.8731 96.2706 71.5386 96.4933 71.9239 96.789L73.1415 95.2024C72.2671 94.5313 71.0967 94.2706 69.7788 94.2706V96.2706ZM71.9239 96.789C72.2556 97.0435 72.4775 97.4388 72.4775 98.1563H74.4775C74.4775 96.9598 74.0696 95.9146 73.1415 95.2024L71.9239 96.789ZM72.4775 98.1563C72.4775 98.4528 72.4011 98.696 72.2532 98.9152L73.9109 100.034C74.2903 99.4721 74.4775 98.8364 74.4775 98.1563H72.4775ZM72.2532 98.9152C72.1152 99.1196 71.8956 99.3094 71.5352 99.4619L72.3144 101.304C72.9696 101.027 73.5215 100.611 73.9109 100.034L72.2532 98.9152ZM71.6631 101.348C72.0447 101.451 72.2831 101.627 72.4459 101.853L74.0697 100.685C73.6075 100.043 72.9573 99.6268 72.1865 99.4177L71.6631 101.348ZM72.4534 101.863C72.6271 102.098 72.7339 102.4 72.7339 102.822H74.7339C74.7339 102.032 74.5233 101.299 74.0622 100.675L72.4534 101.863ZM72.7339 102.822C72.7339 103.589 72.4989 104.051 72.1269 104.361L73.4073 105.897C74.3243 105.133 74.7339 104.056 74.7339 102.822H72.7339ZM72.124 104.363C71.7285 104.695 71.074 104.935 70.0132 104.935V106.935C71.3449 106.935 72.5264 106.637 73.4101 105.895L72.124 104.363ZM70.0132 104.935H66.124V106.935H70.0132V104.935ZM66.9771 101.123V104.455H68.9771V101.123H66.9771ZM67.9771 105.455H70.0352V103.455H67.9771V105.455ZM70.0352 105.455C70.7774 105.455 71.4951 105.269 72.0583 104.774L70.7366 103.273C70.6455 103.353 70.455 103.455 70.0352 103.455V105.455ZM72.0583 104.774C72.6396 104.262 72.8882 103.566 72.8882 102.822H70.8882C70.8882 103.103 70.8096 103.208 70.7366 103.273L72.0583 104.774ZM72.8882 102.822C72.8882 102.106 72.7037 101.392 72.1705 100.859C71.6411 100.329 70.9273 100.138 70.2105 100.123L70.1674 102.122C70.5834 102.131 70.7192 102.236 70.7563 102.273C70.7895 102.306 70.8882 102.429 70.8882 102.822H72.8882ZM70.189 100.123H67.9771V102.123H70.189V100.123ZM67.9771 100.76H69.7935V98.7603H67.9771V100.76ZM69.7935 100.76C70.5089 100.76 71.209 100.6 71.7673 100.152L70.515 98.5924C70.4287 98.6617 70.2304 98.7603 69.7935 98.7603V100.76ZM71.7686 100.151C72.3659 99.6694 72.6318 98.9925 72.6318 98.2589H70.6318C70.6318 98.4822 70.5706 98.5476 70.5136 98.5935L71.7686 100.151ZM72.6318 98.2589C72.6318 97.5465 72.4212 96.8143 71.7899 96.3255L70.5656 97.907C70.5684 97.9092 70.5699 97.9107 70.5718 97.9134C70.574 97.9163 70.5807 97.926 70.589 97.947C70.6067 97.9916 70.6318 98.087 70.6318 98.2589H72.6318ZM71.7961 96.3304C71.2376 95.8909 70.4996 95.7647 69.7788 95.7647V97.7647C70.3275 97.7647 70.5221 97.8729 70.5593 97.9021L71.7961 96.3304ZM69.7788 95.7647H67.9771V97.7647H69.7788V95.7647ZM66.9771 96.7647V99.7603H68.9771V96.7647H66.9771ZM75.543 99.8043L76.4388 100.249L76.4402 100.246L75.543 99.8043ZM76.8394 98.3687L77.3516 99.2276L77.3572 99.2242L76.8394 98.3687ZM81.3584 98.8961L80.6386 99.5903L80.6412 99.5929L81.3584 98.8961ZM82.4424 101.635L83.4422 101.618L83.442 101.603L83.4413 101.588L82.4424 101.635ZM82.4497 102.053H83.4497V102.044L83.4496 102.035L82.4497 102.053ZM81.9956 104.148L81.0983 103.706L81.0955 103.712L81.9956 104.148ZM80.7065 105.576L80.192 104.718L80.1887 104.72L80.7065 105.576ZM76.085 104.968L75.34 105.635L75.3446 105.64L76.085 104.968ZM77.3667 103.972L76.5576 104.559L76.5606 104.563L77.3667 103.972ZM80.1719 103.957L79.3598 103.373L79.3559 103.379L80.1719 103.957ZM80.1572 99.9947L79.3492 100.584L79.3532 100.589L80.1572 99.9947ZM77.374 99.9874L78.1761 100.585L78.1791 100.581L77.374 99.9874ZM76.0815 101.899C76.0815 101.258 76.2076 100.715 76.4388 100.249L74.6471 99.3599C74.2631 100.134 74.0815 100.987 74.0815 101.899H76.0815ZM76.4402 100.246C76.6692 99.7807 76.9734 99.4531 77.3516 99.2275L76.3271 97.5099C75.592 97.9484 75.032 98.5779 74.6458 99.3627L76.4402 100.246ZM77.3572 99.2242C77.7408 98.992 78.1974 98.8633 78.7583 98.8633V96.8633C77.8739 96.8633 77.0512 97.0716 76.3216 97.5132L77.3572 99.2242ZM78.7583 98.8633C79.5914 98.8633 80.1862 99.1212 80.6386 99.5903L82.0781 98.2018C81.2025 97.294 80.0639 96.8633 78.7583 96.8633V98.8633ZM80.6412 99.5929C81.1094 100.075 81.399 100.741 81.4435 101.682L83.4413 101.588C83.3783 100.255 82.9452 99.0942 82.0756 98.1992L80.6412 99.5929ZM81.4425 101.653L81.4499 102.07L83.4496 102.035L83.4422 101.618L81.4425 101.653ZM81.4497 102.053C81.4497 102.702 81.3246 103.246 81.0984 103.706L82.8929 104.589C83.2721 103.818 83.4497 102.966 83.4497 102.053H81.4497ZM81.0955 103.712C80.8785 104.16 80.5792 104.486 80.192 104.718L81.221 106.433C81.9569 105.992 82.517 105.366 82.8957 104.583L81.0955 103.712ZM80.1887 104.72C79.8072 104.951 79.3463 105.081 78.7729 105.081V107.081C79.6644 107.081 80.4926 106.874 81.2243 106.431L80.1887 104.72ZM78.7729 105.081C77.9006 105.081 77.2866 104.804 76.8253 104.296L75.3446 105.64C76.231 106.616 77.409 107.081 78.7729 107.081V105.081ZM76.8299 104.301C76.3617 103.778 76.0815 103.042 76.0815 101.987H74.0815C74.0815 103.413 74.4704 104.664 75.34 105.635L76.8299 104.301ZM76.0815 101.987V101.899H74.0815V101.987H76.0815ZM75.8613 102.053C75.8613 102.993 76.0541 103.866 76.5576 104.559L78.1758 103.384C78.0055 103.15 77.8613 102.743 77.8613 102.053H75.8613ZM76.5606 104.563C77.0977 105.295 77.8745 105.66 78.7729 105.66V103.66C78.4703 103.66 78.3096 103.566 78.1728 103.38L76.5606 104.563ZM78.7729 105.66C79.6804 105.66 80.4585 105.282 80.9879 104.535L79.3559 103.379C79.2212 103.569 79.0667 103.66 78.7729 103.66V105.66ZM80.9839 104.541C81.4945 103.83 81.6772 102.902 81.6772 101.899H79.6772C79.6772 102.703 79.5231 103.146 79.3599 103.373L80.9839 104.541ZM81.6772 101.899C81.6772 100.963 81.475 100.095 80.9612 99.4001L79.3532 100.589C79.5328 100.832 79.6772 101.234 79.6772 101.899H81.6772ZM80.9652 99.4055C80.4311 98.673 79.6616 98.2916 78.7583 98.2916V100.292C79.0366 100.292 79.1997 100.379 79.3492 100.584L80.9652 99.4055ZM78.7583 98.2916C77.8627 98.2916 77.1011 98.672 76.569 99.3942L78.1791 100.581C78.3305 100.375 78.4918 100.292 78.7583 100.292V98.2916ZM76.572 99.3901C76.0448 100.098 75.8613 101.04 75.8613 102.053H77.8613C77.8613 101.23 78.0197 100.795 78.1761 100.585L76.572 99.3901ZM88.104 99.6358L87.9396 100.622L89.0988 100.815L89.104 99.6402L88.104 99.6358ZM85.731 100.515L84.8201 100.102L84.731 100.299V100.515H85.731ZM85.731 105.935V106.935H86.731V105.935H85.731ZM83.9512 105.935H82.9512V106.935H83.9512V105.935ZM83.9512 98.0098V97.0098H82.9512V98.0098H83.9512ZM85.6504 98.0098L86.6492 97.9603L86.602 97.0098H85.6504V98.0098ZM85.6943 98.8961L84.6956 98.9456L84.8536 102.132L86.5427 99.4255L85.6943 98.8961ZM88.1113 97.9659L89.1113 97.9703L89.1143 97.2974L88.4921 97.0412L88.1113 97.9659ZM88.2684 98.6494C87.9772 98.6009 87.6804 98.5772 87.3789 98.5772V100.577C87.5755 100.577 87.7621 100.593 87.9396 100.622L88.2684 98.6494ZM87.3789 98.5772C86.847 98.5772 86.3239 98.679 85.8609 98.9424C85.3868 99.2121 85.041 99.6146 84.8201 100.102L86.6418 100.927C86.7042 100.79 86.7746 100.724 86.8498 100.681C86.9362 100.632 87.0954 100.577 87.3789 100.577V98.5772ZM84.731 100.515V105.935H86.731V100.515H84.731ZM85.731 104.935H83.9512V106.935H85.731V104.935ZM84.9512 105.935V98.0098H82.9512V105.935H84.9512ZM83.9512 99.0098H85.6504V97.0098H83.9512V99.0098ZM84.6516 98.0594L84.6956 98.9456L86.6931 98.8465L86.6492 97.9603L84.6516 98.0594ZM86.5427 99.4255C86.8041 99.0066 87.0911 98.8633 87.4814 98.8633V96.8633C86.3483 96.8633 85.444 97.4085 84.846 98.3666L86.5427 99.4255ZM87.4814 98.8633C87.6548 98.8633 87.7243 98.888 87.7306 98.8906L88.4921 97.0412C88.1663 96.9071 87.8159 96.8633 87.4814 96.8633V98.8633ZM87.1113 97.9615L87.104 99.6314L89.104 99.6402L89.1113 97.9703L87.1113 97.9615ZM93.3774 99.6358L93.213 100.622L94.3723 100.815L94.3774 99.6402L93.3774 99.6358ZM91.0044 100.515L90.0935 100.102L90.0044 100.299V100.515H91.0044ZM91.0044 105.935V106.935H92.0044V105.935H91.0044ZM89.2246 105.935H88.2246V106.935H89.2246V105.935ZM89.2246 98.0098V97.0098H88.2246V98.0098H89.2246ZM90.9238 98.0098L91.9226 97.9603L91.8755 97.0098H90.9238V98.0098ZM90.9678 98.8961L89.969 98.9456L90.127 102.132L91.8161 99.4255L90.9678 98.8961ZM93.3848 97.9659L94.3848 97.9703L94.3877 97.2974L93.7655 97.0412L93.3848 97.9659ZM93.5418 98.6494C93.2506 98.6009 92.9538 98.5772 92.6523 98.5772V100.577C92.8489 100.577 93.0355 100.593 93.213 100.622L93.5418 98.6494ZM92.6523 98.5772C92.1204 98.5772 91.5973 98.679 91.1343 98.9424C90.6602 99.2121 90.3144 99.6146 90.0935 100.102L91.9152 100.927C91.9776 100.79 92.048 100.724 92.1233 100.681C92.2096 100.632 92.3689 100.577 92.6523 100.577V98.5772ZM90.0044 100.515V105.935H92.0044V100.515H90.0044ZM91.0044 104.935H89.2246V106.935H91.0044V104.935ZM90.2246 105.935V98.0098H88.2246V105.935H90.2246ZM89.2246 99.0098H90.9238V97.0098H89.2246V99.0098ZM89.9251 98.0594L89.969 98.9456L91.9665 98.8465L91.9226 97.9603L89.9251 98.0594ZM91.8161 99.4255C92.0775 99.0066 92.3645 98.8633 92.7549 98.8633V96.8633C91.6218 96.8633 90.7174 97.4085 90.1194 98.3666L91.8161 99.4255ZM92.7549 98.8633C92.9282 98.8633 92.9978 98.888 93.004 98.8906L93.7655 97.0412C93.4397 96.9071 93.0893 96.8633 92.7549 96.8633V98.8633ZM92.3848 97.9615L92.3774 99.6314L94.3774 99.6402L94.3848 97.9703L92.3848 97.9615ZM94.3662 99.8043L95.262 100.249L95.2634 100.246L94.3662 99.8043ZM95.6626 98.3687L96.1749 99.2276L96.1804 99.2242L95.6626 98.3687ZM100.182 98.8961L99.4619 99.5903L99.4644 99.5929L100.182 98.8961ZM101.266 101.635L102.265 101.618L102.265 101.603L102.265 101.588L101.266 101.635ZM101.273 102.053H102.273V102.044L102.273 102.035L101.273 102.053ZM100.819 104.148L99.9216 103.706L99.9188 103.712L100.819 104.148ZM99.5298 105.576L99.0153 104.718L99.012 104.72L99.5298 105.576ZM94.9082 104.968L94.1632 105.635L94.1678 105.64L94.9082 104.968ZM96.1899 103.972L95.3808 104.559L95.3838 104.563L96.1899 103.972ZM98.9951 103.957L98.1831 103.373L98.1791 103.379L98.9951 103.957ZM98.9805 99.9947L98.1724 100.584L98.1765 100.589L98.9805 99.9947ZM96.1973 99.9874L96.9993 100.585L97.0023 100.581L96.1973 99.9874ZM94.9048 101.899C94.9048 101.258 95.0309 100.715 95.262 100.249L93.4704 99.3599C93.0863 100.134 92.9048 100.987 92.9048 101.899H94.9048ZM95.2634 100.246C95.4924 99.7807 95.7967 99.4531 96.1749 99.2275L95.1503 97.5099C94.4153 97.9484 93.8553 98.5779 93.469 99.3627L95.2634 100.246ZM96.1804 99.2242C96.564 98.992 97.0207 98.8633 97.5815 98.8633V96.8633C96.6971 96.8633 95.8745 97.0716 95.1448 97.5132L96.1804 99.2242ZM97.5815 98.8633C98.4146 98.8633 99.0094 99.1212 99.4619 99.5903L100.901 98.2018C100.026 97.294 98.8871 96.8633 97.5815 96.8633V98.8633ZM99.4644 99.5929C99.9327 100.075 100.222 100.741 100.267 101.682L102.265 101.588C102.202 100.255 101.768 99.0942 100.899 98.1992L99.4644 99.5929ZM100.266 101.653L100.273 102.07L102.273 102.035L102.265 101.618L100.266 101.653ZM100.273 102.053C100.273 102.702 100.148 103.246 99.9216 103.706L101.716 104.589C102.095 103.818 102.273 102.966 102.273 102.053H100.273ZM99.9188 103.712C99.7018 104.16 99.4025 104.486 99.0153 104.718L100.044 106.433C100.78 105.992 101.34 105.366 101.719 104.583L99.9188 103.712ZM99.012 104.72C98.6305 104.951 98.1696 105.081 97.5962 105.081V107.081C98.4877 107.081 99.3158 106.874 100.048 106.431L99.012 104.72ZM97.5962 105.081C96.7238 105.081 96.1098 104.804 95.6486 104.296L94.1678 105.64C95.0542 106.616 96.2322 107.081 97.5962 107.081V105.081ZM95.6532 104.301C95.1849 103.778 94.9048 103.042 94.9048 101.987H92.9048C92.9048 103.413 93.2936 104.664 94.1632 105.635L95.6532 104.301ZM94.9048 101.987V101.899H92.9048V101.987H94.9048ZM94.6846 102.053C94.6846 102.993 94.8773 103.866 95.3808 104.559L96.999 103.384C96.8287 103.15 96.6846 102.743 96.6846 102.053H94.6846ZM95.3838 104.563C95.9209 105.295 96.6977 105.66 97.5962 105.66V103.66C97.2935 103.66 97.1328 103.566 96.9961 103.38L95.3838 104.563ZM97.5962 105.66C98.5037 105.66 99.2818 105.282 99.8111 104.535L98.1791 103.379C98.0444 103.569 97.8899 103.66 97.5962 103.66V105.66ZM99.8071 104.541C100.318 103.83 100.5 102.902 100.5 101.899H98.5005C98.5005 102.703 98.3463 103.146 98.1831 103.373L99.8071 104.541ZM100.5 101.899C100.5 100.963 100.298 100.095 99.7845 99.4001L98.1765 100.589C98.356 100.832 98.5005 101.234 98.5005 101.899H100.5ZM99.7885 99.4055C99.2544 98.673 98.4849 98.2916 97.5815 98.2916V100.292C97.8598 100.292 98.023 100.379 98.1725 100.584L99.7885 99.4055ZM97.5815 98.2916C96.6859 98.2916 95.9244 98.672 95.3922 99.3942L97.0023 100.581C97.1538 100.375 97.315 100.292 97.5815 100.292V98.2916ZM95.3952 99.3901C94.868 100.098 94.6846 101.04 94.6846 102.053H96.6846C96.6846 101.23 96.8429 100.795 96.9993 100.585L95.3952 99.3901ZM109.74 103.481L108.782 103.769L109.869 107.377L110.714 103.705L109.74 103.481ZM111 98.0098V97.0098H110.204L110.025 97.7854L111 98.0098ZM112.735 98.0098L113.7 98.2729L114.044 97.0098H112.735V98.0098ZM110.575 105.935V106.935H111.339L111.539 106.198L110.575 105.935ZM109.11 105.935L108.155 106.233L108.374 106.935H109.11V105.935ZM107.411 100.493L108.365 100.195L107.402 97.1111L106.455 100.199L107.411 100.493ZM105.741 105.935V106.935H106.48L106.697 106.228L105.741 105.935ZM104.276 105.935L103.311 106.199L103.513 106.935H104.276V105.935ZM102.108 98.0098V97.0098H100.798L101.143 98.2737L102.108 98.0098ZM103.844 98.0098L104.817 97.7794L104.635 97.0098H103.844V98.0098ZM105.125 103.422L104.152 103.653L105.011 107.279L106.083 103.71L105.125 103.422ZM106.751 98.0098V97.0098H106.008L105.794 97.7221L106.751 98.0098ZM108.092 98.0098L109.049 97.7214L108.835 97.0098H108.092V98.0098ZM110.714 103.705L111.974 98.2342L110.025 97.7854L108.765 103.257L110.714 103.705ZM111 99.0098H112.735V97.0098H111V99.0098ZM111.771 97.7468L109.61 105.672L111.539 106.198L113.7 98.2729L111.771 97.7468ZM110.575 104.935H109.11V106.935H110.575V104.935ZM110.064 105.637L108.365 100.195L106.456 100.791L108.155 106.233L110.064 105.637ZM106.455 100.199L104.785 105.641L106.697 106.228L108.367 100.786L106.455 100.199ZM105.741 104.935H104.276V106.935H105.741V104.935ZM105.24 105.671L103.072 97.746L101.143 98.2737L103.311 106.199L105.24 105.671ZM102.108 99.0098H103.844V97.0098H102.108V99.0098ZM102.871 98.2403L104.152 103.653L106.099 103.192L104.817 97.7794L102.871 98.2403ZM106.083 103.71L107.709 98.2975L105.794 97.7221L104.168 103.135L106.083 103.71ZM106.751 99.0098H108.092V97.0098H106.751V99.0098ZM107.134 98.2982L108.782 103.769L110.697 103.193L109.049 97.7214L107.134 98.2982Z" fill="#FFF9F9" fill-opacity="0.3"/>
<defs>
<clipPath id="clip0_2202_249">
<rect width="55.8104" height="49.9885" fill="white" transform="translate(44.4648 22.8018)"/>
</clipPath>
</defs>
</svg>
