<svg width="96" height="112" viewBox="0 0 96 112" fill="none" xmlns="http://www.w3.org/2000/svg">
<ellipse cx="47.2141" cy="44.97" rx="34.8" ry="34.97" fill="#8FBAAD"/>
<path d="M47.2141 84.94C69.218 84.94 87.0141 67.0218 87.0141 44.97C87.0141 22.9182 69.218 5 47.2141 5C25.2102 5 7.41406 22.9182 7.41406 44.97C7.41406 67.0218 25.2102 84.94 47.2141 84.94Z" stroke="white" stroke-opacity="0.8" stroke-width="10"/>
<ellipse cx="77.0538" cy="25.9464" rx="13.92" ry="13.988" fill="#A9CAC0"/>
<path d="M77.0538 42.4344C86.1338 42.4344 93.4738 35.0409 93.4738 25.9464C93.4738 16.8518 86.1338 9.45837 77.0538 9.45837C67.9738 9.45837 60.6338 16.8518 60.6338 25.9464C60.6338 35.0409 67.9738 42.4344 77.0538 42.4344Z" stroke="white" stroke-opacity="0.3" stroke-width="5"/>
<path d="M7.66504 102.038V106H5.81201V95.3359H9.8916C11.083 95.3359 12.0278 95.646 12.7261 96.2661C13.4292 96.8862 13.7808 97.7065 13.7808 98.7271C13.7808 99.772 13.4365 100.585 12.748 101.166C12.0645 101.747 11.105 102.038 9.86963 102.038H7.66504ZM7.66504 100.551H9.8916C10.5508 100.551 11.0537 100.397 11.4004 100.089C11.7471 99.7769 11.9204 99.3276 11.9204 98.7417C11.9204 98.1655 11.7446 97.7065 11.3931 97.3647C11.0415 97.0181 10.5581 96.8398 9.94287 96.8301H7.66504V100.551ZM18.6221 106.146C17.4941 106.146 16.5786 105.792 15.8755 105.084C15.1772 104.372 14.8281 103.424 14.8281 102.243V102.023C14.8281 101.232 14.9795 100.526 15.2822 99.9062C15.5898 99.2812 16.0195 98.7954 16.5713 98.4487C17.123 98.1021 17.7383 97.9287 18.417 97.9287C19.4961 97.9287 20.3286 98.2729 20.9146 98.9614C21.5054 99.6499 21.8008 100.624 21.8008 101.884V102.602H16.6226C16.6763 103.256 16.8936 103.773 17.2744 104.154C17.6602 104.535 18.1436 104.726 18.7246 104.726C19.54 104.726 20.2041 104.396 20.7168 103.737L21.6763 104.652C21.3589 105.126 20.9341 105.495 20.4019 105.758C19.8745 106.017 19.2812 106.146 18.6221 106.146ZM18.4097 99.3569C17.9214 99.3569 17.5259 99.5278 17.2231 99.8696C16.9253 100.211 16.7349 100.688 16.6519 101.298H20.043V101.166C20.0039 100.57 19.8452 100.121 19.5669 99.8184C19.2886 99.5107 18.9028 99.3569 18.4097 99.3569ZM26.6787 106.146C25.5508 106.146 24.6353 105.792 23.9321 105.084C23.2339 104.372 22.8848 103.424 22.8848 102.243V102.023C22.8848 101.232 23.0361 100.526 23.3389 99.9062C23.6465 99.2812 24.0762 98.7954 24.6279 98.4487C25.1797 98.1021 25.7949 97.9287 26.4736 97.9287C27.5527 97.9287 28.3853 98.2729 28.9712 98.9614C29.562 99.6499 29.8574 100.624 29.8574 101.884V102.602H24.6792C24.7329 103.256 24.9502 103.773 25.3311 104.154C25.7168 104.535 26.2002 104.726 26.7812 104.726C27.5967 104.726 28.2607 104.396 28.7734 103.737L29.7329 104.652C29.4155 105.126 28.9907 105.495 28.4585 105.758C27.9312 106.017 27.3379 106.146 26.6787 106.146ZM26.4663 99.3569C25.978 99.3569 25.5825 99.5278 25.2798 99.8696C24.9819 100.211 24.7915 100.688 24.7085 101.298H28.0996V101.166C28.0605 100.57 27.9019 100.121 27.6235 99.8184C27.3452 99.5107 26.9595 99.3569 26.4663 99.3569ZM35.3945 99.7012C35.1602 99.6621 34.9185 99.6426 34.6694 99.6426C33.854 99.6426 33.3047 99.9551 33.0215 100.58V106H31.2417V98.0752H32.9409L32.9849 98.9614C33.4146 98.2729 34.0103 97.9287 34.772 97.9287C35.0259 97.9287 35.2358 97.9629 35.4019 98.0312L35.3945 99.7012ZM42.4844 96.1489V98.0752H43.8833V99.3936H42.4844V103.817C42.4844 104.12 42.543 104.34 42.6602 104.477C42.7822 104.608 42.9971 104.674 43.3047 104.674C43.5098 104.674 43.7173 104.65 43.9272 104.601V105.978C43.522 106.09 43.1313 106.146 42.7554 106.146C41.3882 106.146 40.7046 105.392 40.7046 103.883V99.3936H39.4009V98.0752H40.7046V96.1489H42.4844ZM44.6963 101.964C44.6963 101.188 44.8501 100.49 45.1577 99.8696C45.4653 99.2446 45.8975 98.7661 46.4541 98.4341C47.0107 98.0972 47.6504 97.9287 48.373 97.9287C49.4424 97.9287 50.3091 98.2729 50.9731 98.9614C51.6421 99.6499 52.0034 100.563 52.0571 101.701L52.0645 102.118C52.0645 102.899 51.9131 103.598 51.6104 104.213C51.3125 104.828 50.8828 105.304 50.3213 105.641C49.7646 105.978 49.1201 106.146 48.3877 106.146C47.2695 106.146 46.3735 105.775 45.6997 105.033C45.0308 104.286 44.6963 103.292 44.6963 102.052V101.964ZM46.4761 102.118C46.4761 102.934 46.6445 103.573 46.9814 104.037C47.3184 104.496 47.7871 104.726 48.3877 104.726C48.9883 104.726 49.4546 104.491 49.7866 104.022C50.1235 103.554 50.292 102.868 50.292 101.964C50.292 101.164 50.1187 100.529 49.772 100.06C49.4302 99.5913 48.9639 99.3569 48.373 99.3569C47.792 99.3569 47.3306 99.5889 46.9888 100.053C46.647 100.512 46.4761 101.2 46.4761 102.118ZM59.3301 102.038V106H57.4771V95.3359H61.5566C62.748 95.3359 63.6929 95.646 64.3911 96.2661C65.0942 96.8862 65.4458 97.7065 65.4458 98.7271C65.4458 99.772 65.1016 100.585 64.4131 101.166C63.7295 101.747 62.77 102.038 61.5347 102.038H59.3301ZM59.3301 100.551H61.5566C62.2158 100.551 62.7188 100.397 63.0654 100.089C63.4121 99.7769 63.5854 99.3276 63.5854 98.7417C63.5854 98.1655 63.4097 97.7065 63.0581 97.3647C62.7065 97.0181 62.2231 96.8398 61.6079 96.8301H59.3301V100.551ZM70.2871 106.146C69.1592 106.146 68.2437 105.792 67.5405 105.084C66.8423 104.372 66.4932 103.424 66.4932 102.243V102.023C66.4932 101.232 66.6445 100.526 66.9473 99.9062C67.2549 99.2812 67.6846 98.7954 68.2363 98.4487C68.7881 98.1021 69.4033 97.9287 70.082 97.9287C71.1611 97.9287 71.9937 98.2729 72.5796 98.9614C73.1704 99.6499 73.4658 100.624 73.4658 101.884V102.602H68.2876C68.3413 103.256 68.5586 103.773 68.9395 104.154C69.3252 104.535 69.8086 104.726 70.3896 104.726C71.2051 104.726 71.8691 104.396 72.3818 103.737L73.3413 104.652C73.0239 105.126 72.5991 105.495 72.0669 105.758C71.5396 106.017 70.9463 106.146 70.2871 106.146ZM70.0747 99.3569C69.5864 99.3569 69.1909 99.5278 68.8882 99.8696C68.5903 100.211 68.3999 100.688 68.3169 101.298H71.708V101.166C71.6689 100.57 71.5103 100.121 71.2319 99.8184C70.9536 99.5107 70.5679 99.3569 70.0747 99.3569ZM78.3438 106.146C77.2158 106.146 76.3003 105.792 75.5972 105.084C74.8989 104.372 74.5498 103.424 74.5498 102.243V102.023C74.5498 101.232 74.7012 100.526 75.0039 99.9062C75.3115 99.2812 75.7412 98.7954 76.293 98.4487C76.8447 98.1021 77.46 97.9287 78.1387 97.9287C79.2178 97.9287 80.0503 98.2729 80.6362 98.9614C81.2271 99.6499 81.5225 100.624 81.5225 101.884V102.602H76.3442C76.3979 103.256 76.6152 103.773 76.9961 104.154C77.3818 104.535 77.8652 104.726 78.4463 104.726C79.2617 104.726 79.9258 104.396 80.4385 103.737L81.3979 104.652C81.0806 105.126 80.6558 105.495 80.1235 105.758C79.5962 106.017 79.0029 106.146 78.3438 106.146ZM78.1313 99.3569C77.6431 99.3569 77.2476 99.5278 76.9448 99.8696C76.647 100.211 76.4565 100.688 76.3735 101.298H79.7646V101.166C79.7256 100.57 79.5669 100.121 79.2886 99.8184C79.0103 99.5107 78.6245 99.3569 78.1313 99.3569ZM87.0596 99.7012C86.8252 99.6621 86.5835 99.6426 86.3345 99.6426C85.519 99.6426 84.9697 99.9551 84.6865 100.58V106H82.9067V98.0752H84.606L84.6499 98.9614C85.0796 98.2729 85.6753 97.9287 86.437 97.9287C86.6909 97.9287 86.9009 97.9629 87.0669 98.0312L87.0596 99.7012Z" fill="#8FBAAD"/>
<path d="M7.66504 102.038V101.038H6.66504V102.038H7.66504ZM7.66504 106V107H8.66504V106H7.66504ZM5.81201 106H4.81201V107H5.81201V106ZM5.81201 95.3359V94.3359H4.81201V95.3359H5.81201ZM12.7261 96.2661L12.062 97.0138L12.0646 97.0161L12.7261 96.2661ZM12.748 101.166L12.1031 100.402L12.1004 100.404L12.748 101.166ZM7.66504 100.551H6.66504V101.551H7.66504V100.551ZM11.4004 100.089L12.0641 100.837L12.0699 100.832L11.4004 100.089ZM11.3931 97.3647L10.6909 98.0768L10.696 98.0817L11.3931 97.3647ZM9.94287 96.8301L9.95874 95.8302L9.95081 95.8301H9.94287V96.8301ZM7.66504 96.8301V95.8301H6.66504V96.8301H7.66504ZM6.66504 102.038V106H8.66504V102.038H6.66504ZM7.66504 105H5.81201V107H7.66504V105ZM6.81201 106V95.3359H4.81201V106H6.81201ZM5.81201 96.3359H9.8916V94.3359H5.81201V96.3359ZM9.8916 96.3359C10.9078 96.3359 11.5929 96.5972 12.062 97.0138L13.3901 95.5184C12.4628 94.6948 11.2582 94.3359 9.8916 94.3359V96.3359ZM12.0646 97.0161C12.532 97.4283 12.7808 97.965 12.7808 98.7271H14.7808C14.7808 97.4481 14.3264 96.3442 13.3875 95.5161L12.0646 97.0161ZM12.7808 98.7271C12.7808 99.5298 12.5292 100.042 12.1031 100.402L13.393 101.93C14.3438 101.128 14.7808 100.014 14.7808 98.7271H12.7808ZM12.1004 100.404C11.6556 100.782 10.9569 101.038 9.86963 101.038V103.038C11.2531 103.038 12.4733 102.712 13.3957 101.928L12.1004 100.404ZM9.86963 101.038H7.66504V103.038H9.86963V101.038ZM7.66504 101.551H9.8916V99.5508H7.66504V101.551ZM9.8916 101.551C10.693 101.551 11.4701 101.364 12.0641 100.837L10.7367 99.3414C10.6373 99.4296 10.4086 99.5508 9.8916 99.5508V101.551ZM12.0699 100.832C12.6784 100.284 12.9204 99.5333 12.9204 98.7417H10.9204C10.9204 99.122 10.8157 99.2701 10.7308 99.3466L12.0699 100.832ZM12.9204 98.7417C12.9204 97.9466 12.6692 97.2107 12.0901 96.6478L10.696 98.0817C10.82 98.2023 10.9204 98.3845 10.9204 98.7417H12.9204ZM12.0952 96.6527C11.518 96.0835 10.7647 95.843 9.95874 95.8302L9.927 97.83C10.3515 97.8367 10.565 97.9526 10.6909 98.0768L12.0952 96.6527ZM9.94287 95.8301H7.66504V97.8301H9.94287V95.8301ZM6.66504 96.8301V100.551H8.66504V96.8301H6.66504ZM15.8755 105.084L15.1611 105.784L15.1659 105.789L15.8755 105.084ZM15.2822 99.9062L14.385 99.4647L14.3836 99.4675L15.2822 99.9062ZM16.5713 98.4487L16.0393 97.602L16.5713 98.4487ZM20.9146 98.9614L20.153 99.6095L20.1557 99.6127L20.9146 98.9614ZM21.8008 102.602V103.602H22.8008V102.602H21.8008ZM16.6226 102.602V101.602H15.5371L15.6259 102.683L16.6226 102.602ZM17.2744 104.154L16.5673 104.861L16.5718 104.866L17.2744 104.154ZM20.7168 103.737L21.4071 103.013L20.6067 102.25L19.9274 103.123L20.7168 103.737ZM21.6763 104.652L22.507 105.209L22.9755 104.51L22.3666 103.929L21.6763 104.652ZM20.4019 105.758L20.8424 106.656L20.8458 106.654L20.4019 105.758ZM17.2231 99.8696L16.4745 99.2066L16.4692 99.2127L17.2231 99.8696ZM16.6519 101.298L15.661 101.163L15.5066 102.298H16.6519V101.298ZM20.043 101.298V102.298H21.043V101.298H20.043ZM20.043 101.166H21.043V101.133L21.0408 101.101L20.043 101.166ZM19.5669 99.8184L18.8253 100.489L18.8307 100.495L19.5669 99.8184ZM18.6221 105.146C17.7227 105.146 17.0753 104.873 16.585 104.38L15.1659 105.789C16.0819 106.711 17.2656 107.146 18.6221 107.146V105.146ZM16.5899 104.385C16.1079 103.893 15.8281 103.214 15.8281 102.243H13.8281C13.8281 103.634 14.2466 104.851 15.1611 105.784L16.5899 104.385ZM15.8281 102.243V102.023H13.8281V102.243H15.8281ZM15.8281 102.023C15.8281 101.362 15.954 100.81 16.1809 100.345L14.3836 99.4675C14.005 100.243 13.8281 101.102 13.8281 102.023H15.8281ZM16.1794 100.348C16.4111 99.8772 16.7194 99.5367 17.1033 99.2955L16.0393 97.602C15.3197 98.0541 14.7686 98.6853 14.385 99.4647L16.1794 100.348ZM17.1033 99.2955C17.4889 99.0532 17.9183 98.9287 18.417 98.9287V96.9287C17.5583 96.9287 16.7572 97.1509 16.0393 97.602L17.1033 99.2955ZM18.417 98.9287C19.2654 98.9287 19.7942 99.1879 20.153 99.6095L21.6761 98.3133C20.8631 97.358 19.7268 96.9287 18.417 96.9287V98.9287ZM20.1557 99.6127C20.5398 100.06 20.8008 100.771 20.8008 101.884H22.8008C22.8008 100.478 22.471 99.2396 21.6734 98.3102L20.1557 99.6127ZM20.8008 101.884V102.602H22.8008V101.884H20.8008ZM21.8008 101.602H16.6226V103.602H21.8008V101.602ZM15.6259 102.683C15.6946 103.52 15.9844 104.278 16.5673 104.861L17.9815 103.447C17.8027 103.268 17.6579 102.992 17.6192 102.52L15.6259 102.683ZM16.5718 104.866C17.1591 105.446 17.9014 105.726 18.7246 105.726V103.726C18.3857 103.726 18.1612 103.625 17.977 103.443L16.5718 104.866ZM18.7246 105.726C19.8572 105.726 20.8093 105.247 21.5061 104.351L19.9274 103.123C19.5989 103.545 19.2229 103.726 18.7246 103.726V105.726ZM20.0265 104.46L20.9859 105.376L22.3666 103.929L21.4071 103.013L20.0265 104.46ZM20.8455 104.096C20.6294 104.418 20.3406 104.673 19.9579 104.862L20.8458 106.654C21.5275 106.317 22.0884 105.834 22.507 105.209L20.8455 104.096ZM19.9613 104.861C19.587 105.044 19.1473 105.146 18.6221 105.146V107.146C19.4152 107.146 20.162 106.99 20.8424 106.656L19.9613 104.861ZM18.4097 98.3569C17.6576 98.3569 16.9815 98.6343 16.4746 99.2066L17.9717 100.533C18.0703 100.421 18.1852 100.357 18.4097 100.357V98.3569ZM16.4692 99.2127C16.0047 99.7457 15.7611 100.427 15.661 101.163L17.6427 101.433C17.7086 100.948 17.8459 100.677 17.9771 100.527L16.4692 99.2127ZM16.6519 102.298H20.043V100.298H16.6519V102.298ZM21.043 101.298V101.166H19.043V101.298H21.043ZM21.0408 101.101C20.9934 100.377 20.7921 99.6735 20.3031 99.1416L18.8307 100.495C18.8983 100.569 19.0144 100.764 19.0451 101.231L21.0408 101.101ZM20.3084 99.1474C19.8047 98.5907 19.1272 98.3569 18.4097 98.3569V100.357C18.6785 100.357 18.7724 100.431 18.8254 100.489L20.3084 99.1474ZM23.9321 105.084L23.2177 105.784L23.2226 105.789L23.9321 105.084ZM23.3389 99.9062L22.4416 99.4647L22.4402 99.4675L23.3389 99.9062ZM24.6279 98.4487L24.0959 97.602L24.6279 98.4487ZM28.9712 98.9614L28.2096 99.6095L28.2123 99.6127L28.9712 98.9614ZM29.8574 102.602V103.602H30.8574V102.602H29.8574ZM24.6792 102.602V101.602H23.5937L23.6826 102.683L24.6792 102.602ZM25.3311 104.154L24.6239 104.861L24.6285 104.866L25.3311 104.154ZM28.7734 103.737L29.4638 103.013L28.6633 102.25L27.9841 103.123L28.7734 103.737ZM29.7329 104.652L30.5636 105.209L31.0321 104.51L30.4233 103.929L29.7329 104.652ZM28.4585 105.758L28.899 106.656L28.9024 106.654L28.4585 105.758ZM25.2798 99.8696L24.5312 99.2066L24.5259 99.2127L25.2798 99.8696ZM24.7085 101.298L23.7176 101.163L23.5633 102.298H24.7085V101.298ZM28.0996 101.298V102.298H29.0996V101.298H28.0996ZM28.0996 101.166H29.0996V101.133L29.0975 101.101L28.0996 101.166ZM27.6235 99.8184L26.882 100.489L26.8874 100.495L27.6235 99.8184ZM26.6787 105.146C25.7793 105.146 25.1319 104.873 24.6417 104.38L23.2226 105.789C24.1386 106.711 25.3223 107.146 26.6787 107.146V105.146ZM24.6465 104.385C24.1646 103.893 23.8848 103.214 23.8848 102.243H21.8848C21.8848 103.634 22.3032 104.851 23.2177 105.784L24.6465 104.385ZM23.8848 102.243V102.023H21.8848V102.243H23.8848ZM23.8848 102.023C23.8848 101.362 24.0106 100.81 24.2375 100.345L22.4402 99.4675C22.0617 100.243 21.8848 101.102 21.8848 102.023H23.8848ZM24.2361 100.348C24.4677 99.8772 24.776 99.5367 25.1599 99.2955L24.0959 97.602C23.3763 98.0541 22.8252 98.6853 22.4417 99.4647L24.2361 100.348ZM25.1599 99.2955C25.5455 99.0532 25.9749 98.9287 26.4736 98.9287V96.9287C25.6149 96.9287 24.8139 97.1509 24.0959 97.602L25.1599 99.2955ZM26.4736 98.9287C27.3221 98.9287 27.8508 99.1879 28.2097 99.6095L29.7327 98.3133C28.9197 97.358 27.7834 96.9287 26.4736 96.9287V98.9287ZM28.2123 99.6127C28.5964 100.06 28.8574 100.771 28.8574 101.884H30.8574C30.8574 100.478 30.5276 99.2396 29.7301 98.3102L28.2123 99.6127ZM28.8574 101.884V102.602H30.8574V101.884H28.8574ZM29.8574 101.602H24.6792V103.602H29.8574V101.602ZM23.6826 102.683C23.7512 103.52 24.041 104.278 24.6239 104.861L26.0382 103.447C25.8594 103.268 25.7146 102.992 25.6758 102.52L23.6826 102.683ZM24.6285 104.866C25.2157 105.446 25.9581 105.726 26.7812 105.726V103.726C26.4423 103.726 26.2179 103.625 26.0336 103.443L24.6285 104.866ZM26.7812 105.726C27.9139 105.726 28.866 105.247 29.5628 104.351L27.9841 103.123C27.6555 103.545 27.2795 103.726 26.7812 103.726V105.726ZM28.0831 104.46L29.0426 105.376L30.4233 103.929L29.4638 103.013L28.0831 104.46ZM28.9022 104.096C28.6861 104.418 28.3973 104.673 28.0146 104.862L28.9024 106.654C29.5842 106.317 30.145 105.834 30.5636 105.209L28.9022 104.096ZM28.0179 104.861C27.6437 105.044 27.204 105.146 26.6787 105.146V107.146C27.4718 107.146 28.2186 106.99 28.899 106.656L28.0179 104.861ZM26.4663 98.3569C25.7142 98.3569 25.0381 98.6343 24.5312 99.2066L26.0284 100.533C26.1269 100.421 26.2418 100.357 26.4663 100.357V98.3569ZM24.5259 99.2127C24.0613 99.7457 23.8178 100.427 23.7176 101.163L25.6994 101.433C25.7652 100.948 25.9025 100.677 26.0337 100.527L24.5259 99.2127ZM24.7085 102.298H28.0996V100.298H24.7085V102.298ZM29.0996 101.298V101.166H27.0996V101.298H29.0996ZM29.0975 101.101C29.05 100.377 28.8488 99.6735 28.3597 99.1416L26.8874 100.495C26.955 100.569 27.0711 100.764 27.1018 101.231L29.0975 101.101ZM28.3651 99.1474C27.8613 98.5907 27.1838 98.3569 26.4663 98.3569V100.357C26.7351 100.357 26.8291 100.431 26.882 100.489L28.3651 99.1474ZM35.3945 99.7012L35.2301 100.688L36.3894 100.881L36.3945 99.7056L35.3945 99.7012ZM33.0215 100.58L32.1106 100.167L32.0215 100.364V100.58H33.0215ZM33.0215 106V107H34.0215V106H33.0215ZM31.2417 106H30.2417V107H31.2417V106ZM31.2417 98.0752V97.0752H30.2417V98.0752H31.2417ZM32.9409 98.0752L33.9397 98.0257L33.8926 97.0752H32.9409V98.0752ZM32.9849 98.9614L31.9861 99.011L32.1441 102.197L33.8332 99.4909L32.9849 98.9614ZM35.4019 98.0312L36.4018 98.0356L36.4048 97.3628L35.7826 97.1066L35.4019 98.0312ZM35.5589 98.7148C35.2677 98.6662 34.9709 98.6426 34.6694 98.6426V100.643C34.866 100.643 35.0526 100.658 35.2301 100.688L35.5589 98.7148ZM34.6694 98.6426C34.1375 98.6426 33.6144 98.7444 33.1514 99.0078C32.6773 99.2775 32.3315 99.68 32.1106 100.167L33.9323 100.993C33.9947 100.855 34.0651 100.789 34.1403 100.746C34.2267 100.697 34.386 100.643 34.6694 100.643V98.6426ZM32.0215 100.58V106H34.0215V100.58H32.0215ZM33.0215 105H31.2417V107H33.0215V105ZM32.2417 106V98.0752H30.2417V106H32.2417ZM31.2417 99.0752H32.9409V97.0752H31.2417V99.0752ZM31.9421 98.1247L31.9861 99.011L33.9836 98.9119L33.9397 98.0257L31.9421 98.1247ZM33.8332 99.4909C34.0946 99.072 34.3816 98.9287 34.772 98.9287V96.9287C33.6389 96.9287 32.7345 97.4739 32.1365 98.432L33.8332 99.4909ZM34.772 98.9287C34.9453 98.9287 35.0148 98.9534 35.0211 98.9559L35.7826 97.1066C35.4568 96.9724 35.1064 96.9287 34.772 96.9287V98.9287ZM34.4019 98.0269L34.3945 99.6968L36.3945 99.7056L36.4018 98.0356L34.4019 98.0269ZM42.4844 96.1489H43.4844V95.1489H42.4844V96.1489ZM42.4844 98.0752H41.4844V99.0752H42.4844V98.0752ZM43.8833 98.0752H44.8833V97.0752H43.8833V98.0752ZM43.8833 99.3936V100.394H44.8833V99.3936H43.8833ZM42.4844 99.3936V98.3936H41.4844V99.3936H42.4844ZM42.6602 104.477L41.9009 105.127L41.9134 105.142L41.9264 105.156L42.6602 104.477ZM43.9272 104.601H44.9272V103.342L43.7007 103.627L43.9272 104.601ZM43.9272 105.978L44.1943 106.942L44.9272 106.739V105.978H43.9272ZM40.7046 99.3936H41.7046V98.3936H40.7046V99.3936ZM39.4009 99.3936H38.4009V100.394H39.4009V99.3936ZM39.4009 98.0752V97.0752H38.4009V98.0752H39.4009ZM40.7046 98.0752V99.0752H41.7046V98.0752H40.7046ZM40.7046 96.1489V95.1489H39.7046V96.1489H40.7046ZM41.4844 96.1489V98.0752H43.4844V96.1489H41.4844ZM42.4844 99.0752H43.8833V97.0752H42.4844V99.0752ZM42.8833 98.0752V99.3936H44.8833V98.0752H42.8833ZM43.8833 98.3936H42.4844V100.394H43.8833V98.3936ZM41.4844 99.3936V103.817H43.4844V99.3936H41.4844ZM41.4844 103.817C41.4844 104.209 41.5528 104.721 41.9009 105.127L43.4194 103.826C43.4498 103.861 43.4689 103.893 43.4801 103.916C43.4857 103.927 43.4893 103.936 43.4915 103.942C43.4937 103.948 43.4945 103.951 43.4946 103.952C43.4946 103.952 43.4939 103.949 43.4928 103.943C43.4917 103.937 43.4904 103.929 43.4891 103.917C43.4865 103.894 43.4844 103.861 43.4844 103.817H41.4844ZM41.9264 105.156C42.3357 105.598 42.906 105.674 43.3047 105.674V103.674C43.2164 103.674 43.1908 103.664 43.2062 103.669C43.2256 103.675 43.3085 103.705 43.3939 103.797L41.9264 105.156ZM43.3047 105.674C43.5898 105.674 43.8733 105.64 44.1538 105.575L43.7007 103.627C43.5613 103.66 43.4297 103.674 43.3047 103.674V105.674ZM42.9272 104.601V105.978H44.9272V104.601H42.9272ZM43.6602 105.014C43.3318 105.105 43.0312 105.146 42.7554 105.146V107.146C43.2315 107.146 43.7122 107.075 44.1943 106.942L43.6602 105.014ZM42.7554 105.146C42.2527 105.146 42.0518 105.012 41.9583 104.909C41.8479 104.787 41.7046 104.507 41.7046 103.883H39.7046C39.7046 104.769 39.9031 105.62 40.4763 106.252C41.0664 106.903 41.8908 107.146 42.7554 107.146V105.146ZM41.7046 103.883V99.3936H39.7046V103.883H41.7046ZM40.7046 98.3936H39.4009V100.394H40.7046V98.3936ZM40.4009 99.3936V98.0752H38.4009V99.3936H40.4009ZM39.4009 99.0752H40.7046V97.0752H39.4009V99.0752ZM41.7046 98.0752V96.1489H39.7046V98.0752H41.7046ZM40.7046 97.1489H42.4844V95.1489H40.7046V97.1489ZM45.1577 99.8696L46.0536 100.314L46.0549 100.311L45.1577 99.8696ZM46.4541 98.4341L46.9664 99.2929L46.9719 99.2896L46.4541 98.4341ZM50.9731 98.9614L50.2534 99.6557L50.2559 99.6583L50.9731 98.9614ZM52.0571 101.701L53.057 101.683L53.0567 101.668L53.056 101.654L52.0571 101.701ZM52.0645 102.118H53.0645V102.109L53.0643 102.101L52.0645 102.118ZM51.6104 104.213L50.7131 103.771L50.7103 103.777L51.6104 104.213ZM50.3213 105.641L49.8068 104.784L49.8035 104.786L50.3213 105.641ZM45.6997 105.033L44.9547 105.7L44.9593 105.705L45.6997 105.033ZM46.9814 104.037L46.1723 104.625L46.1753 104.629L46.9814 104.037ZM49.7866 104.022L48.9746 103.439L48.9706 103.444L49.7866 104.022ZM49.772 100.06L48.9639 100.649L48.968 100.655L49.772 100.06ZM46.9888 100.053L47.7908 100.65L47.7938 100.646L46.9888 100.053ZM45.6963 101.964C45.6963 101.323 45.8224 100.78 46.0535 100.314L44.2619 99.4252C43.8778 100.199 43.6963 101.053 43.6963 101.964H45.6963ZM46.0549 100.311C46.2839 99.846 46.5882 99.5185 46.9664 99.2929L45.9418 97.5753C45.2068 98.0137 44.6468 98.6432 44.2605 99.428L46.0549 100.311ZM46.9719 99.2896C47.3555 99.0574 47.8122 98.9287 48.373 98.9287V96.9287C47.4886 96.9287 46.666 97.1369 45.9363 97.5786L46.9719 99.2896ZM48.373 98.9287C49.2061 98.9287 49.8009 99.1865 50.2534 99.6557L51.6929 98.2672C50.8172 97.3594 49.6786 96.9287 48.373 96.9287V98.9287ZM50.2559 99.6583C50.7242 100.14 51.0138 100.806 51.0582 101.748L53.056 101.654C52.9931 100.32 52.56 99.1596 51.6903 98.2646L50.2559 99.6583ZM51.0573 101.718L51.0646 102.136L53.0643 102.101L53.057 101.683L51.0573 101.718ZM51.0645 102.118C51.0645 102.768 50.9394 103.312 50.7131 103.771L52.5076 104.654C52.8868 103.884 53.0645 103.031 53.0645 102.118H51.0645ZM50.7103 103.777C50.4933 104.225 50.194 104.551 49.8068 104.784L50.8358 106.499C51.5717 106.057 52.1317 105.431 52.5104 104.649L50.7103 103.777ZM49.8035 104.786C49.422 105.017 48.9611 105.146 48.3877 105.146V107.146C49.2792 107.146 50.1073 106.94 50.8391 106.497L49.8035 104.786ZM48.3877 105.146C47.5153 105.146 46.9013 104.869 46.4401 104.361L44.9593 105.705C45.8457 106.682 47.0237 107.146 48.3877 107.146V105.146ZM46.4447 104.366C45.9764 103.843 45.6963 103.107 45.6963 102.052H43.6963C43.6963 103.478 44.0851 104.729 44.9547 105.7L46.4447 104.366ZM45.6963 102.052V101.964H43.6963V102.052H45.6963ZM45.4761 102.118C45.4761 103.059 45.6688 103.932 46.1723 104.625L47.7906 103.449C47.6202 103.215 47.4761 102.809 47.4761 102.118H45.4761ZM46.1753 104.629C46.7124 105.361 47.4892 105.726 48.3877 105.726V103.726C48.085 103.726 47.9243 103.632 47.7876 103.445L46.1753 104.629ZM48.3877 105.726C49.2952 105.726 50.0733 105.348 50.6026 104.6L48.9706 103.444C48.8359 103.635 48.6814 103.726 48.3877 103.726V105.726ZM50.5986 104.606C51.1093 103.896 51.292 102.967 51.292 101.964H49.292C49.292 102.768 49.1378 103.212 48.9746 103.439L50.5986 104.606ZM51.292 101.964C51.292 101.028 51.0898 100.16 50.576 99.4654L48.968 100.655C49.1475 100.897 49.292 101.299 49.292 101.964H51.292ZM50.58 99.4709C50.0459 98.7384 49.2764 98.3569 48.373 98.3569V100.357C48.6513 100.357 48.8145 100.444 48.964 100.649L50.58 99.4709ZM48.373 98.3569C47.4774 98.3569 46.7159 98.7373 46.1837 99.4595L47.7938 100.646C47.9453 100.44 48.1066 100.357 48.373 100.357V98.3569ZM46.1867 99.4555C45.6595 100.163 45.4761 101.105 45.4761 102.118H47.4761C47.4761 101.295 47.6344 100.86 47.7908 100.65L46.1867 99.4555ZM59.3301 102.038V101.038H58.3301V102.038H59.3301ZM59.3301 106V107H60.3301V106H59.3301ZM57.4771 106H56.4771V107H57.4771V106ZM57.4771 95.3359V94.3359H56.4771V95.3359H57.4771ZM64.3911 96.2661L63.7271 97.0138L63.7297 97.0161L64.3911 96.2661ZM64.4131 101.166L63.7681 100.402L63.7654 100.404L64.4131 101.166ZM59.3301 100.551H58.3301V101.551H59.3301V100.551ZM63.0654 100.089L63.7292 100.837L63.735 100.832L63.0654 100.089ZM63.0581 97.3647L62.3559 98.0768L62.361 98.0817L63.0581 97.3647ZM61.6079 96.8301L61.6238 95.8302L61.6158 95.8301H61.6079V96.8301ZM59.3301 96.8301V95.8301H58.3301V96.8301H59.3301ZM58.3301 102.038V106H60.3301V102.038H58.3301ZM59.3301 105H57.4771V107H59.3301V105ZM58.4771 106V95.3359H56.4771V106H58.4771ZM57.4771 96.3359H61.5566V94.3359H57.4771V96.3359ZM61.5566 96.3359C62.5729 96.3359 63.2579 96.5972 63.7271 97.0138L65.0552 95.5184C64.1278 94.6948 62.9232 94.3359 61.5566 94.3359V96.3359ZM63.7297 97.0161C64.197 97.4283 64.4458 97.965 64.4458 98.7271H66.4458C66.4458 97.4481 65.9915 96.3442 65.0526 95.5161L63.7297 97.0161ZM64.4458 98.7271C64.4458 99.5298 64.1943 100.042 63.7681 100.402L65.0581 101.93C66.0089 101.128 66.4458 100.014 66.4458 98.7271H64.4458ZM63.7654 100.404C63.3206 100.782 62.6219 101.038 61.5347 101.038V103.038C62.9181 103.038 64.1383 102.712 65.0607 101.928L63.7654 100.404ZM61.5347 101.038H59.3301V103.038H61.5347V101.038ZM59.3301 101.551H61.5566V99.5508H59.3301V101.551ZM61.5566 101.551C62.358 101.551 63.1352 101.364 63.7291 100.837L62.4017 99.3414C62.3023 99.4296 62.0736 99.5508 61.5566 99.5508V101.551ZM63.735 100.832C64.3435 100.284 64.5854 99.5333 64.5854 98.7417H62.5854C62.5854 99.122 62.4807 99.2701 62.3959 99.3466L63.735 100.832ZM64.5854 98.7417C64.5854 97.9466 64.3343 97.2107 63.7552 96.6478L62.361 98.0817C62.4851 98.2023 62.5854 98.3845 62.5854 98.7417H64.5854ZM63.7603 96.6527C63.183 96.0835 62.4298 95.843 61.6238 95.8302L61.592 97.83C62.0165 97.8367 62.23 97.9526 62.356 98.0768L63.7603 96.6527ZM61.6079 95.8301H59.3301V97.8301H61.6079V95.8301ZM58.3301 96.8301V100.551H60.3301V96.8301H58.3301ZM67.5405 105.084L66.8261 105.784L66.831 105.789L67.5405 105.084ZM66.9473 99.9062L66.05 99.4647L66.0486 99.4675L66.9473 99.9062ZM68.2363 98.4487L67.7043 97.602L68.2363 98.4487ZM72.5796 98.9614L71.818 99.6095L71.8207 99.6127L72.5796 98.9614ZM73.4658 102.602V103.602H74.4658V102.602H73.4658ZM68.2876 102.602V101.602H67.2021L67.2909 102.683L68.2876 102.602ZM68.9395 104.154L68.2323 104.861L68.2369 104.866L68.9395 104.154ZM72.3818 103.737L73.0722 103.013L72.2717 102.25L71.5925 103.123L72.3818 103.737ZM73.3413 104.652L74.172 105.209L74.6405 104.51L74.0317 103.929L73.3413 104.652ZM72.0669 105.758L72.5074 106.656L72.5108 106.654L72.0669 105.758ZM68.8882 99.8696L68.1396 99.2066L68.1343 99.2127L68.8882 99.8696ZM68.3169 101.298L67.326 101.163L67.1717 102.298H68.3169V101.298ZM71.708 101.298V102.298H72.708V101.298H71.708ZM71.708 101.166H72.708V101.133L72.7059 101.101L71.708 101.166ZM71.2319 99.8184L70.4904 100.489L70.4958 100.495L71.2319 99.8184ZM70.2871 105.146C69.3877 105.146 68.7403 104.873 68.2501 104.38L66.831 105.789C67.747 106.711 68.9307 107.146 70.2871 107.146V105.146ZM68.2549 104.385C67.773 103.893 67.4932 103.214 67.4932 102.243H65.4932C65.4932 103.634 65.9116 104.851 66.8261 105.784L68.2549 104.385ZM67.4932 102.243V102.023H65.4932V102.243H67.4932ZM67.4932 102.023C67.4932 101.362 67.619 100.81 67.8459 100.345L66.0486 99.4675C65.6701 100.243 65.4932 101.102 65.4932 102.023H67.4932ZM67.8445 100.348C68.0761 99.8772 68.3844 99.5367 68.7683 99.2955L67.7043 97.602C66.9847 98.0541 66.4336 98.6853 66.05 99.4647L67.8445 100.348ZM68.7683 99.2955C69.1539 99.0532 69.5833 98.9287 70.082 98.9287V96.9287C69.2233 96.9287 68.4223 97.1509 67.7043 97.602L68.7683 99.2955ZM70.082 98.9287C70.9305 98.9287 71.4592 99.1879 71.8181 99.6095L73.3411 98.3133C72.5281 97.358 71.3918 96.9287 70.082 96.9287V98.9287ZM71.8207 99.6127C72.2048 100.06 72.4658 100.771 72.4658 101.884H74.4658C74.4658 100.478 74.136 99.2396 73.3385 98.3102L71.8207 99.6127ZM72.4658 101.884V102.602H74.4658V101.884H72.4658ZM73.4658 101.602H68.2876V103.602H73.4658V101.602ZM67.2909 102.683C67.3596 103.52 67.6494 104.278 68.2323 104.861L69.6466 103.447C69.4678 103.268 69.323 102.992 69.2842 102.52L67.2909 102.683ZM68.2369 104.866C68.8241 105.446 69.5665 105.726 70.3896 105.726V103.726C70.0507 103.726 69.8263 103.625 69.642 103.443L68.2369 104.866ZM70.3896 105.726C71.5223 105.726 72.4744 105.247 73.1712 104.351L71.5925 103.123C71.2639 103.545 70.8879 103.726 70.3896 103.726V105.726ZM71.6915 104.46L72.651 105.376L74.0317 103.929L73.0722 103.013L71.6915 104.46ZM72.5106 104.096C72.2945 104.418 72.0057 104.673 71.623 104.862L72.5108 106.654C73.1926 106.317 73.7534 105.834 74.172 105.209L72.5106 104.096ZM71.6263 104.861C71.2521 105.044 70.8124 105.146 70.2871 105.146V107.146C71.0802 107.146 71.827 106.99 72.5074 106.656L71.6263 104.861ZM70.0747 98.3569C69.3226 98.3569 68.6465 98.6343 68.1396 99.2066L69.6368 100.533C69.7353 100.421 69.8502 100.357 70.0747 100.357V98.3569ZM68.1343 99.2127C67.6697 99.7457 67.4262 100.427 67.326 101.163L69.3078 101.433C69.3736 100.948 69.5109 100.677 69.6421 100.527L68.1343 99.2127ZM68.3169 102.298H71.708V100.298H68.3169V102.298ZM72.708 101.298V101.166H70.708V101.298H72.708ZM72.7059 101.101C72.6584 100.377 72.4572 99.6735 71.9681 99.1416L70.4958 100.495C70.5633 100.569 70.6795 100.764 70.7102 101.231L72.7059 101.101ZM71.9735 99.1474C71.4697 98.5907 70.7922 98.3569 70.0747 98.3569V100.357C70.3435 100.357 70.4375 100.431 70.4904 100.489L71.9735 99.1474ZM75.5972 105.084L74.8827 105.784L74.8876 105.789L75.5972 105.084ZM75.0039 99.9062L74.1067 99.4647L74.1053 99.4675L75.0039 99.9062ZM76.293 98.4487L75.7609 97.602L76.293 98.4487ZM80.6362 98.9614L79.8747 99.6095L79.8774 99.6127L80.6362 98.9614ZM81.5225 102.602V103.602H82.5225V102.602H81.5225ZM76.3442 102.602V101.602H75.2588L75.3476 102.683L76.3442 102.602ZM76.9961 104.154L76.289 104.861L76.2935 104.866L76.9961 104.154ZM80.4385 103.737L81.1288 103.013L80.3284 102.25L79.6491 103.123L80.4385 103.737ZM81.3979 104.652L82.2287 105.209L82.6972 104.51L82.0883 103.929L81.3979 104.652ZM80.1235 105.758L80.5641 106.656L80.5675 106.654L80.1235 105.758ZM76.9448 99.8696L76.1962 99.2066L76.1909 99.2127L76.9448 99.8696ZM76.3735 101.298L75.3827 101.163L75.2283 102.298H76.3735V101.298ZM79.7646 101.298V102.298H80.7646V101.298H79.7646ZM79.7646 101.166H80.7646V101.133L80.7625 101.101L79.7646 101.166ZM79.2886 99.8184L78.547 100.489L78.5524 100.495L79.2886 99.8184ZM78.3438 105.146C77.4443 105.146 76.797 104.873 76.3067 104.38L74.8876 105.789C75.8036 106.711 76.9873 107.146 78.3438 107.146V105.146ZM76.3116 104.385C75.8296 103.893 75.5498 103.214 75.5498 102.243H73.5498C73.5498 103.634 73.9683 104.851 74.8828 105.784L76.3116 104.385ZM75.5498 102.243V102.023H73.5498V102.243H75.5498ZM75.5498 102.023C75.5498 101.362 75.6756 100.81 75.9025 100.345L74.1053 99.4675C73.7267 100.243 73.5498 101.102 73.5498 102.023H75.5498ZM75.9011 100.348C76.1328 99.8772 76.4411 99.5367 76.825 99.2955L75.7609 97.602C75.0414 98.0541 74.4903 98.6853 74.1067 99.4647L75.9011 100.348ZM76.825 99.2955C77.2105 99.0532 77.64 98.9287 78.1387 98.9287V96.9287C77.28 96.9287 76.4789 97.1509 75.7609 97.602L76.825 99.2955ZM78.1387 98.9287C78.9871 98.9287 79.5158 99.1879 79.8747 99.6095L81.3978 98.3133C80.5848 97.358 79.4484 96.9287 78.1387 96.9287V98.9287ZM79.8774 99.6127C80.2614 100.06 80.5225 100.771 80.5225 101.884H82.5225C82.5225 100.478 82.1927 99.2396 81.3951 98.3102L79.8774 99.6127ZM80.5225 101.884V102.602H82.5225V101.884H80.5225ZM81.5225 101.602H76.3442V103.602H81.5225V101.602ZM75.3476 102.683C75.4163 103.52 75.706 104.278 76.289 104.861L77.7032 103.447C77.5244 103.268 77.3796 102.992 77.3409 102.52L75.3476 102.683ZM76.2935 104.866C76.8808 105.446 77.6231 105.726 78.4463 105.726V103.726C78.1074 103.726 77.8829 103.625 77.6987 103.443L76.2935 104.866ZM78.4463 105.726C79.5789 105.726 80.531 105.247 81.2278 104.351L79.6491 103.123C79.3205 103.545 78.9445 103.726 78.4463 103.726V105.726ZM79.7481 104.46L80.7076 105.376L82.0883 103.929L81.1288 103.013L79.7481 104.46ZM80.5672 104.096C80.3511 104.418 80.0623 104.673 79.6796 104.862L80.5675 106.654C81.2492 106.317 81.81 105.834 82.2287 105.209L80.5672 104.096ZM79.683 104.861C79.3087 105.044 78.869 105.146 78.3438 105.146V107.146C79.1368 107.146 79.8837 106.99 80.5641 106.656L79.683 104.861ZM78.1313 98.3569C77.3793 98.3569 76.7032 98.6343 76.1962 99.2066L77.6934 100.533C77.792 100.421 77.9069 100.357 78.1313 100.357V98.3569ZM76.1909 99.2127C75.7264 99.7457 75.4828 100.427 75.3827 101.163L77.3644 101.433C77.4303 100.948 77.5676 100.677 77.6987 100.527L76.1909 99.2127ZM76.3735 102.298H79.7646V100.298H76.3735V102.298ZM80.7646 101.298V101.166H78.7646V101.298H80.7646ZM80.7625 101.101C80.7151 100.377 80.5138 99.6735 80.0247 99.1416L78.5524 100.495C78.62 100.569 78.7361 100.764 78.7668 101.231L80.7625 101.101ZM80.0301 99.1474C79.5264 98.5907 78.8489 98.3569 78.1313 98.3569V100.357C78.4001 100.357 78.4941 100.431 78.547 100.489L80.0301 99.1474ZM87.0596 99.7012L86.8952 100.688L88.0544 100.881L88.0596 99.7056L87.0596 99.7012ZM84.6865 100.58L83.7757 100.167L83.6865 100.364V100.58H84.6865ZM84.6865 106V107H85.6865V106H84.6865ZM82.9067 106H81.9067V107H82.9067V106ZM82.9067 98.0752V97.0752H81.9067V98.0752H82.9067ZM84.606 98.0752L85.6047 98.0257L85.5576 97.0752H84.606V98.0752ZM84.6499 98.9614L83.6511 99.011L83.8091 102.197L85.4982 99.4909L84.6499 98.9614ZM87.0669 98.0312L88.0669 98.0356L88.0698 97.3628L87.4476 97.1066L87.0669 98.0312ZM87.224 98.7148C86.9327 98.6662 86.6359 98.6426 86.3345 98.6426V100.643C86.531 100.643 86.7177 100.658 86.8952 100.688L87.224 98.7148ZM86.3345 98.6426C85.8025 98.6426 85.2794 98.7444 84.8164 99.0078C84.3424 99.2775 83.9965 99.68 83.7757 100.167L85.5974 100.993C85.6597 100.855 85.7302 100.789 85.8054 100.746C85.8917 100.697 86.051 100.643 86.3345 100.643V98.6426ZM83.6865 100.58V106H85.6865V100.58H83.6865ZM84.6865 105H82.9067V107H84.6865V105ZM83.9067 106V98.0752H81.9067V106H83.9067ZM82.9067 99.0752H84.606V97.0752H82.9067V99.0752ZM83.6072 98.1247L83.6511 99.011L85.6487 98.9119L85.6047 98.0257L83.6072 98.1247ZM85.4982 99.4909C85.7597 99.072 86.0467 98.9287 86.437 98.9287V96.9287C85.3039 96.9287 84.3995 97.4739 83.8016 98.432L85.4982 99.4909ZM86.437 98.9287C86.6104 98.9287 86.6799 98.9534 86.6861 98.9559L87.4476 97.1066C87.1219 96.9724 86.7715 96.9287 86.437 96.9287V98.9287ZM86.0669 98.0269L86.0596 99.6968L88.0596 99.7056L88.0669 98.0356L86.0669 98.0269Z" fill="#FFF9F9" fill-opacity="0.3"/>
<g clip-path="url(#clip0_2202_234)">
<path d="M48.9094 58.5009C56.5077 58.5009 62.6674 52.3419 62.6674 44.7445C62.6674 37.147 56.5077 30.9881 48.9094 30.9881C41.311 30.9881 35.1514 37.147 35.1514 44.7445C35.1514 52.3419 41.311 58.5009 48.9094 58.5009Z" fill="#FFAD61"/>
<path d="M49.7482 37.6395C49.7482 37.6395 49.5576 38.0078 50.3197 38.4014C50.6299 38.5617 51.1991 38.7177 51.765 38.8465L51.8194 38.012C51.8945 36.8614 50.9814 35.887 49.8283 35.887H47.9915C46.8384 35.887 45.9253 36.8614 46.0004 38.012L46.082 39.2636C48.9761 39.1027 49.7482 37.6395 49.7482 37.6395Z" fill="#D35B38"/>
<path d="M50.3196 38.4016C49.5577 38.0079 49.7481 37.6397 49.7481 37.6397C49.7481 37.6397 48.9761 39.1029 46.082 39.2639L46.2726 42.1866C46.3314 43.087 46.8456 43.8953 47.6363 44.3301C48.4294 44.7662 49.3906 44.7662 50.1835 44.3301C50.9742 43.8952 51.4885 43.087 51.5472 42.1866L51.7651 38.8467C51.1991 38.7179 50.6299 38.5619 50.3196 38.4016Z" fill="#FFE6B8"/>
<path d="M56.1877 50.2879C55.8614 48.487 54.4555 47.1134 52.7104 46.7849C52.4478 46.7354 52.1776 46.7094 51.9022 46.7094H50.9861L48.9097 48.7857L46.8332 46.7094H45.917C45.6416 46.7094 45.3714 46.7354 45.1088 46.7849C43.3638 47.1135 41.958 48.487 41.6316 50.2879C41.4732 51.1624 42.1451 51.9669 43.0339 51.9669H54.7853C55.6741 51.9669 56.3461 51.1623 56.1877 50.2879Z" fill="#BCC987"/>
<path d="M60.5909 33.7937C60.7775 33.7937 60.964 33.7225 61.1062 33.5802L61.3414 33.345C61.6259 33.0604 61.6259 32.5991 61.3413 32.3146C61.0567 32.0302 60.5954 32.0302 60.3108 32.3147L60.0756 32.55C59.7912 32.8346 59.7912 33.2959 60.0758 33.5804C60.2181 33.7226 60.4045 33.7937 60.5909 33.7937Z" fill="#266150"/>
<path d="M66.3138 26.4579H61.6886C61.2862 26.4579 60.96 26.7841 60.96 27.1864C60.96 27.5887 61.2862 27.9149 61.6886 27.9149H64.7115L62.1924 30.4336C61.9079 30.7181 61.9078 31.1794 62.1924 31.464C62.3348 31.6063 62.5212 31.6774 62.7077 31.6774C62.8941 31.6774 63.0807 31.6063 63.2229 31.464L65.5851 29.1021V31.811C65.5851 32.2133 65.9113 32.5396 66.3138 32.5396C66.7162 32.5396 67.0424 32.2133 67.0424 31.811V27.1864C67.0424 26.7841 66.7162 26.4579 66.3138 26.4579Z" fill="#266150"/>
<mask id="path-13-inside-1_2202_234" fill="white">
<path d="M66.3134 56.9491C65.911 56.9491 65.5848 57.2754 65.5848 57.6777V60.3866L59.651 54.4537C61.9777 51.8829 63.3968 48.4763 63.3968 44.7443C63.3968 36.7573 56.8981 30.2594 48.9102 30.2594C45.1779 30.2594 41.7708 31.6783 39.1997 34.0046L33.1092 27.9149H36.1321C36.5345 27.9149 36.8607 27.5887 36.8607 27.1864C36.8607 26.7841 36.5346 26.4579 36.1322 26.4579H31.5069C31.1045 26.4579 30.7783 26.7841 30.7783 27.1864V31.8111C30.7783 32.2134 31.1045 32.5396 31.5069 32.5396C31.9094 32.5396 32.2356 32.2134 32.2356 31.8111V29.1021L38.1693 35.035C35.8426 37.6058 34.4236 41.0124 34.4236 44.7444C34.4236 48.4763 35.8426 51.883 38.1693 54.4537L32.2356 60.3867V57.6777C32.2356 57.2754 31.9094 56.9492 31.5069 56.9492C31.1045 56.9492 30.7783 57.2754 30.7783 57.6777V62.3023C30.7783 62.7046 31.1045 63.0308 31.5069 63.0308H36.1322C36.5346 63.0308 36.8608 62.7046 36.8608 62.3023C36.8608 61.9 36.5346 61.5738 36.1322 61.5738H33.1092L39.1997 55.484C41.7708 57.8103 45.1778 59.2292 48.9102 59.2292C52.6427 59.2292 56.0496 57.8103 58.6207 55.484L64.7112 61.5738H61.6882C61.2858 61.5738 60.9596 61.9 60.9596 62.3023C60.9596 62.7046 61.2857 63.0309 61.6882 63.0309H66.3133C66.7158 63.0309 67.042 62.7047 67.042 62.3024V57.6777C67.042 57.2754 66.7158 56.9491 66.3134 56.9491ZM35.8809 44.7444C35.8809 37.5608 41.7258 31.7166 48.9102 31.7166C56.0945 31.7166 61.9395 37.5608 61.9395 44.7444C61.9395 51.928 56.0945 57.7722 48.9102 57.7722C41.7258 57.7722 35.8809 51.928 35.8809 44.7444Z"/>
</mask>
<path d="M66.3134 56.9491C65.911 56.9491 65.5848 57.2754 65.5848 57.6777V60.3866L59.651 54.4537C61.9777 51.8829 63.3968 48.4763 63.3968 44.7443C63.3968 36.7573 56.8981 30.2594 48.9102 30.2594C45.1779 30.2594 41.7708 31.6783 39.1997 34.0046L33.1092 27.9149H36.1321C36.5345 27.9149 36.8607 27.5887 36.8607 27.1864C36.8607 26.7841 36.5346 26.4579 36.1322 26.4579H31.5069C31.1045 26.4579 30.7783 26.7841 30.7783 27.1864V31.8111C30.7783 32.2134 31.1045 32.5396 31.5069 32.5396C31.9094 32.5396 32.2356 32.2134 32.2356 31.8111V29.1021L38.1693 35.035C35.8426 37.6058 34.4236 41.0124 34.4236 44.7444C34.4236 48.4763 35.8426 51.883 38.1693 54.4537L32.2356 60.3867V57.6777C32.2356 57.2754 31.9094 56.9492 31.5069 56.9492C31.1045 56.9492 30.7783 57.2754 30.7783 57.6777V62.3023C30.7783 62.7046 31.1045 63.0308 31.5069 63.0308H36.1322C36.5346 63.0308 36.8608 62.7046 36.8608 62.3023C36.8608 61.9 36.5346 61.5738 36.1322 61.5738H33.1092L39.1997 55.484C41.7708 57.8103 45.1778 59.2292 48.9102 59.2292C52.6427 59.2292 56.0496 57.8103 58.6207 55.484L64.7112 61.5738H61.6882C61.2858 61.5738 60.9596 61.9 60.9596 62.3023C60.9596 62.7046 61.2857 63.0309 61.6882 63.0309H66.3133C66.7158 63.0309 67.042 62.7047 67.042 62.3024V57.6777C67.042 57.2754 66.7158 56.9491 66.3134 56.9491ZM35.8809 44.7444C35.8809 37.5608 41.7258 31.7166 48.9102 31.7166C56.0945 31.7166 61.9395 37.5608 61.9395 44.7444C61.9395 51.928 56.0945 57.7722 48.9102 57.7722C41.7258 57.7722 35.8809 51.928 35.8809 44.7444Z" fill="#266150"/>
<path d="M65.5848 60.3866L64.1707 61.8009L67.5848 65.2146V60.3866H65.5848ZM59.651 54.4537L58.1682 53.1116L56.8913 54.5225L58.2369 55.868L59.651 54.4537ZM39.1997 34.0046L37.7856 35.4189L39.1308 36.7641L40.5415 35.4877L39.1997 34.0046ZM33.1092 27.9149V25.9149H28.2803L31.6951 29.3293L33.1092 27.9149ZM32.2356 29.1021L33.6497 27.6878L30.2356 24.2741V29.1021H32.2356ZM38.1693 35.035L39.6522 36.3771L40.9291 34.9662L39.5834 33.6207L38.1693 35.035ZM38.1693 54.4537L39.5834 55.868L40.9291 54.5226L39.6522 53.1117L38.1693 54.4537ZM32.2356 60.3867H30.2356V65.2147L33.6497 61.801L32.2356 60.3867ZM33.1092 61.5738L31.6951 60.1595L28.2803 63.5738H33.1092V61.5738ZM39.1997 55.484L40.5416 54.001L39.1309 52.7246L37.7856 54.0697L39.1997 55.484ZM58.6207 55.484L60.0349 54.0697L58.6896 52.7246L57.2789 54.0009L58.6207 55.484ZM64.7112 61.5738V63.5738H69.5399L66.1253 60.1595L64.7112 61.5738ZM67.042 57.6777L65.042 57.6774V57.6777H67.042ZM66.3134 54.9491C64.8065 54.9491 63.5848 56.1707 63.5848 57.6777H67.5848C67.5848 58.38 67.0155 58.9491 66.3134 58.9491V54.9491ZM63.5848 57.6777V60.3866H67.5848V57.6777H63.5848ZM66.9989 58.9723L61.0652 53.0394L58.2369 55.868L64.1707 61.8009L66.9989 58.9723ZM61.1339 55.7957C63.7792 52.8729 65.3968 48.9931 65.3968 44.7443H61.3968C61.3968 47.9596 60.1762 50.8929 58.1682 53.1116L61.1339 55.7957ZM65.3968 44.7443C65.3968 35.6525 58.0024 28.2594 48.9102 28.2594V32.2594C55.7938 32.2594 61.3968 37.8621 61.3968 44.7443H65.3968ZM48.9102 28.2594C44.6612 28.2594 40.781 29.8767 37.8578 32.5216L40.5415 35.4877C42.7606 33.4799 45.6945 32.2594 48.9102 32.2594V28.2594ZM40.6138 32.5903L34.5233 26.5006L31.6951 29.3293L37.7856 35.4189L40.6138 32.5903ZM33.1092 29.9149H36.1321V25.9149H33.1092V29.9149ZM36.1321 29.9149C37.639 29.9149 38.8607 28.6934 38.8607 27.1864H34.8607C34.8607 26.4841 35.4301 25.9149 36.1321 25.9149V29.9149ZM38.8607 27.1864C38.8607 25.6797 37.6393 24.4579 36.1322 24.4579V28.4579C35.4299 28.4579 34.8607 27.8885 34.8607 27.1864H38.8607ZM36.1322 24.4579H31.5069V28.4579H36.1322V24.4579ZM31.5069 24.4579C30 24.4579 28.7783 25.6794 28.7783 27.1864H32.7783C32.7783 27.8888 32.209 28.4579 31.5069 28.4579V24.4579ZM28.7783 27.1864V31.8111H32.7783V27.1864H28.7783ZM28.7783 31.8111C28.7783 33.3181 30 34.5396 31.5069 34.5396V30.5396C32.209 30.5396 32.7783 31.1088 32.7783 31.8111H28.7783ZM31.5069 34.5396C33.0138 34.5396 34.2356 33.3181 34.2356 31.8111H30.2356C30.2356 31.1088 30.8049 30.5396 31.5069 30.5396V34.5396ZM34.2356 31.8111V29.1021H30.2356V31.8111H34.2356ZM30.8214 30.5164L36.7552 36.4493L39.5834 33.6207L33.6497 27.6878L30.8214 30.5164ZM36.6864 33.693C34.0411 36.6158 32.4236 40.4957 32.4236 44.7444H36.4236C36.4236 41.5292 37.6441 38.5958 39.6522 36.3771L36.6864 33.693ZM32.4236 44.7444C32.4236 48.9931 34.0411 52.873 36.6864 55.7958L39.6522 53.1117C37.6441 50.893 36.4236 47.9596 36.4236 44.7444H32.4236ZM36.7552 53.0394L30.8214 58.9724L33.6497 61.801L39.5834 55.868L36.7552 53.0394ZM34.2356 60.3867V57.6777H30.2356V60.3867H34.2356ZM34.2356 57.6777C34.2356 56.1708 33.0138 54.9492 31.5069 54.9492V58.9492C30.8049 58.9492 30.2356 58.3801 30.2356 57.6777H34.2356ZM31.5069 54.9492C30 54.9492 28.7783 56.1708 28.7783 57.6777H32.7783C32.7783 58.3801 32.209 58.9492 31.5069 58.9492V54.9492ZM28.7783 57.6777V62.3023H32.7783V57.6777H28.7783ZM28.7783 62.3023C28.7783 63.8093 30 65.0308 31.5069 65.0308V61.0308C32.209 61.0308 32.7783 61.5999 32.7783 62.3023H28.7783ZM31.5069 65.0308H36.1322V61.0308H31.5069V65.0308ZM36.1322 65.0308C37.6391 65.0308 38.8608 63.8093 38.8608 62.3023H34.8608C34.8608 61.5999 35.4301 61.0308 36.1322 61.0308V65.0308ZM38.8608 62.3023C38.8608 60.7953 37.6391 59.5738 36.1322 59.5738V63.5738C35.4301 63.5738 34.8608 63.0047 34.8608 62.3023H38.8608ZM36.1322 59.5738H33.1092V63.5738H36.1322V59.5738ZM34.5233 62.9881L40.6139 56.8983L37.7856 54.0697L31.6951 60.1595L34.5233 62.9881ZM37.8579 56.967C40.781 59.6119 44.6612 61.2292 48.9102 61.2292V57.2292C45.6944 57.2292 42.7606 56.0087 40.5416 54.001L37.8579 56.967ZM48.9102 61.2292C53.1593 61.2292 57.0394 59.6119 59.9626 56.9671L57.2789 54.0009C55.0598 56.0087 52.1261 57.2292 48.9102 57.2292V61.2292ZM57.2066 56.8983L63.297 62.988L66.1253 60.1595L60.0349 54.0697L57.2066 56.8983ZM64.7112 59.5738H61.6882V63.5738H64.7112V59.5738ZM61.6882 59.5738C60.1813 59.5738 58.9596 60.7953 58.9596 62.3023H62.9596C62.9596 63.0047 62.3903 63.5738 61.6882 63.5738V59.5738ZM58.9596 62.3023C58.9596 63.8088 60.1808 65.0309 61.6882 65.0309V61.0309C62.3907 61.0309 62.9596 61.6004 62.9596 62.3023H58.9596ZM61.6882 65.0309H66.3133V61.0309H61.6882V65.0309ZM66.3133 65.0309C67.8202 65.0309 69.042 63.8093 69.042 62.3024H65.042C65.042 61.6 65.6113 61.0309 66.3133 61.0309V65.0309ZM69.042 62.3024V57.6777H65.042V62.3024H69.042ZM69.042 57.6781C69.0422 56.1708 67.8204 54.9491 66.3134 54.9491V58.9491C65.6113 58.9491 65.0418 58.3799 65.042 57.6774L69.042 57.6781ZM37.8809 44.7444C37.8809 38.6656 42.8301 33.7166 48.9102 33.7166V29.7166C40.6215 29.7166 33.8809 36.456 33.8809 44.7444H37.8809ZM48.9102 33.7166C54.9902 33.7166 59.9395 38.6656 59.9395 44.7444H63.9395C63.9395 36.456 57.1989 29.7166 48.9102 29.7166V33.7166ZM59.9395 44.7444C59.9395 50.8232 54.9902 55.7722 48.9102 55.7722V59.7722C57.1989 59.7722 63.9395 53.0328 63.9395 44.7444H59.9395ZM48.9102 55.7722C42.8301 55.7722 37.8809 50.8232 37.8809 44.7444H33.8809C33.8809 53.0328 40.6215 59.7722 48.9102 59.7722V55.7722Z" fill="#266150" mask="url(#path-13-inside-1_2202_234)"/>
<path d="M45.3548 39.3111L45.5454 42.2339C45.6208 43.3886 46.271 44.4107 47.285 44.9683C47.7937 45.2482 48.3517 45.388 48.9098 45.388C49.4678 45.388 50.0259 45.2482 50.5346 44.9684C51.5485 44.4108 52.1988 43.3885 52.2742 42.2339L52.4921 38.894L52.5465 38.0594C52.5953 37.3108 52.3291 36.5674 51.8161 36.02C51.3031 35.4725 50.5786 35.1585 49.8283 35.1585H47.9915C47.2412 35.1585 46.5167 35.4725 46.0037 36.02C45.4907 36.5674 45.2245 37.3108 45.2733 38.0594L45.3548 39.3111ZM49.8322 43.6917C49.2546 44.0094 48.565 44.0093 47.9873 43.6916C47.4116 43.375 47.0424 42.7946 46.9996 42.1392L46.8548 39.9199C48.2153 39.7312 49.0922 39.2647 49.6325 38.8337C49.7374 38.9098 49.8549 38.9815 49.985 39.0487C50.2165 39.1684 50.551 39.2869 50.998 39.4076L50.8198 42.1391C50.7772 42.7946 50.408 43.3751 49.8322 43.6917ZM50.654 37.7543C50.5941 37.7233 50.5487 37.6958 50.5139 37.6725L50.7577 37.0223C50.9858 37.2687 51.1046 37.5853 51.0944 37.9193C50.8357 37.8394 50.7089 37.7826 50.654 37.7543ZM47.0669 37.0163C47.309 36.7579 47.6373 36.6156 47.9914 36.6156H49.3539L49.0893 37.3212C48.9944 37.4568 48.4011 38.2031 46.7597 38.4614L46.7274 37.9647C46.7043 37.6115 46.8249 37.2747 47.0669 37.0163Z" fill="#266150"/>
<path d="M52.8462 46.069C52.5359 46.0105 52.2186 45.981 51.9032 45.981H50.9871C50.7938 45.981 50.6084 46.0578 50.4719 46.1943L48.9105 47.7553L47.3493 46.1943C47.2128 46.0577 47.0274 45.9809 46.8341 45.9809H45.918C45.6025 45.9809 45.2852 46.0105 44.975 46.069C42.9199 46.4558 41.2886 48.099 40.9156 50.158C40.8015 50.7879 40.9714 51.431 41.3817 51.9223C41.7921 52.4135 42.3946 52.6953 43.0349 52.6953H54.7863C55.4265 52.6953 56.029 52.4135 56.4394 51.9223C56.8497 51.431 57.0197 50.7879 56.9055 50.158C56.5325 48.0991 54.9011 46.4558 52.8462 46.069ZM55.3209 50.9883C55.243 51.0817 55.0697 51.2383 54.7863 51.2383H43.0349C42.7513 51.2383 42.5782 51.0817 42.5003 50.9883C42.4223 50.8949 42.299 50.6966 42.3495 50.4177C42.6157 48.949 43.7791 47.7768 45.2447 47.5009C45.4663 47.4592 45.6929 47.438 45.918 47.438H46.5324L48.3953 49.3008C48.5319 49.4374 48.7173 49.5142 48.9105 49.5142C49.1038 49.5142 49.2892 49.4374 49.4258 49.3008L51.2888 47.438H51.9031C52.1283 47.438 52.3549 47.4592 52.5765 47.5009C54.042 47.7768 55.2055 48.949 55.4715 50.4177C55.5222 50.6967 55.3989 50.895 55.3209 50.9883Z" fill="#266150"/>
</g>
<defs>
<clipPath id="clip0_2202_234">
<rect width="36.5773" height="36.573" fill="white" transform="translate(30.6211 26.4579)"/>
</clipPath>
</defs>
</svg>
