<svg width="211" height="166" viewBox="0 0 211 166" fill="none" xmlns="http://www.w3.org/2000/svg">
<ellipse cx="104.499" cy="67.3702" rx="57.0846" ry="57.3702" fill="#8FBAAD"/>
<path d="M104.499 129.74C138.811 129.74 166.583 101.793 166.583 67.3702C166.583 32.9476 138.811 5 104.499 5C70.1868 5 42.4141 32.9476 42.4141 67.3702C42.4141 101.793 70.1868 129.74 104.499 129.74Z" stroke="white" stroke-opacity="0.8" stroke-width="10"/>
<ellipse cx="150.166" cy="36.161" rx="22.8338" ry="22.9481" fill="#A9CAC0"/>
<path d="M150.166 61.609C164.169 61.609 175.5 50.2038 175.5 36.161C175.5 22.1182 164.169 10.7129 150.166 10.7129C136.163 10.7129 124.832 22.1182 124.832 36.161C124.832 50.2038 136.163 61.609 150.166 61.609Z" stroke="white" stroke-opacity="0.3" stroke-width="5"/>
<g filter="url(#filter0_d_2166_548)">
<path d="M44.1641 148.66V155H41.1992V137.938H47.7266C49.6328 137.938 51.1445 138.434 52.2617 139.426C53.3867 140.418 53.9492 141.73 53.9492 143.363C53.9492 145.035 53.3984 146.336 52.2969 147.266C51.2031 148.195 49.668 148.66 47.6914 148.66H44.1641ZM44.1641 146.281H47.7266C48.7812 146.281 49.5859 146.035 50.1406 145.543C50.6953 145.043 50.9727 144.324 50.9727 143.387C50.9727 142.465 50.6914 141.73 50.1289 141.184C49.5664 140.629 48.793 140.344 47.8086 140.328H44.1641V146.281ZM61.6953 155.234C59.8906 155.234 58.4258 154.668 57.3008 153.535C56.1836 152.395 55.625 150.879 55.625 148.988V148.637C55.625 147.371 55.8672 146.242 56.3516 145.25C56.8438 144.25 57.5312 143.473 58.4141 142.918C59.2969 142.363 60.2812 142.086 61.3672 142.086C63.0938 142.086 64.4258 142.637 65.3633 143.738C66.3086 144.84 66.7812 146.398 66.7812 148.414V149.562H58.4961C58.582 150.609 58.9297 151.438 59.5391 152.047C60.1562 152.656 60.9297 152.961 61.8594 152.961C63.1641 152.961 64.2266 152.434 65.0469 151.379L66.582 152.844C66.0742 153.602 65.3945 154.191 64.543 154.613C63.6992 155.027 62.75 155.234 61.6953 155.234ZM61.3555 144.371C60.5742 144.371 59.9414 144.645 59.457 145.191C58.9805 145.738 58.6758 146.5 58.543 147.477H63.9688V147.266C63.9062 146.312 63.6523 145.594 63.207 145.109C62.7617 144.617 62.1445 144.371 61.3555 144.371ZM74.5859 155.234C72.7812 155.234 71.3164 154.668 70.1914 153.535C69.0742 152.395 68.5156 150.879 68.5156 148.988V148.637C68.5156 147.371 68.7578 146.242 69.2422 145.25C69.7344 144.25 70.4219 143.473 71.3047 142.918C72.1875 142.363 73.1719 142.086 74.2578 142.086C75.9844 142.086 77.3164 142.637 78.2539 143.738C79.1992 144.84 79.6719 146.398 79.6719 148.414V149.562H71.3867C71.4727 150.609 71.8203 151.438 72.4297 152.047C73.0469 152.656 73.8203 152.961 74.75 152.961C76.0547 152.961 77.1172 152.434 77.9375 151.379L79.4727 152.844C78.9648 153.602 78.2852 154.191 77.4336 154.613C76.5898 155.027 75.6406 155.234 74.5859 155.234ZM74.2461 144.371C73.4648 144.371 72.832 144.645 72.3477 145.191C71.8711 145.738 71.5664 146.5 71.4336 147.477H76.8594V147.266C76.7969 146.312 76.543 145.594 76.0977 145.109C75.6523 144.617 75.0352 144.371 74.2461 144.371ZM88.5312 144.922C88.1562 144.859 87.7695 144.828 87.3711 144.828C86.0664 144.828 85.1875 145.328 84.7344 146.328V155H81.8867V142.32H84.6055L84.6758 143.738C85.3633 142.637 86.3164 142.086 87.5352 142.086C87.9414 142.086 88.2773 142.141 88.543 142.25L88.5312 144.922ZM99.875 139.238V142.32H102.113V144.43H99.875V151.508C99.875 151.992 99.9688 152.344 100.156 152.562C100.352 152.773 100.695 152.879 101.188 152.879C101.516 152.879 101.848 152.84 102.184 152.762V154.965C101.535 155.145 100.91 155.234 100.309 155.234C98.1211 155.234 97.0273 154.027 97.0273 151.613V144.43H94.9414V142.32H97.0273V139.238H99.875ZM103.414 148.543C103.414 147.301 103.66 146.184 104.152 145.191C104.645 144.191 105.336 143.426 106.227 142.895C107.117 142.355 108.141 142.086 109.297 142.086C111.008 142.086 112.395 142.637 113.457 143.738C114.527 144.84 115.105 146.301 115.191 148.121L115.203 148.789C115.203 150.039 114.961 151.156 114.477 152.141C114 153.125 113.312 153.887 112.414 154.426C111.523 154.965 110.492 155.234 109.32 155.234C107.531 155.234 106.098 154.641 105.02 153.453C103.949 152.258 103.414 150.668 103.414 148.684V148.543ZM106.262 148.789C106.262 150.094 106.531 151.117 107.07 151.859C107.609 152.594 108.359 152.961 109.32 152.961C110.281 152.961 111.027 152.586 111.559 151.836C112.098 151.086 112.367 149.988 112.367 148.543C112.367 147.262 112.09 146.246 111.535 145.496C110.988 144.746 110.242 144.371 109.297 144.371C108.367 144.371 107.629 144.742 107.082 145.484C106.535 146.219 106.262 147.32 106.262 148.789ZM126.828 148.66V155H123.863V137.938H130.391C132.297 137.938 133.809 138.434 134.926 139.426C136.051 140.418 136.613 141.73 136.613 143.363C136.613 145.035 136.062 146.336 134.961 147.266C133.867 148.195 132.332 148.66 130.355 148.66H126.828ZM126.828 146.281H130.391C131.445 146.281 132.25 146.035 132.805 145.543C133.359 145.043 133.637 144.324 133.637 143.387C133.637 142.465 133.355 141.73 132.793 141.184C132.23 140.629 131.457 140.344 130.473 140.328H126.828V146.281ZM144.359 155.234C142.555 155.234 141.09 154.668 139.965 153.535C138.848 152.395 138.289 150.879 138.289 148.988V148.637C138.289 147.371 138.531 146.242 139.016 145.25C139.508 144.25 140.195 143.473 141.078 142.918C141.961 142.363 142.945 142.086 144.031 142.086C145.758 142.086 147.09 142.637 148.027 143.738C148.973 144.84 149.445 146.398 149.445 148.414V149.562H141.16C141.246 150.609 141.594 151.438 142.203 152.047C142.82 152.656 143.594 152.961 144.523 152.961C145.828 152.961 146.891 152.434 147.711 151.379L149.246 152.844C148.738 153.602 148.059 154.191 147.207 154.613C146.363 155.027 145.414 155.234 144.359 155.234ZM144.02 144.371C143.238 144.371 142.605 144.645 142.121 145.191C141.645 145.738 141.34 146.5 141.207 147.477H146.633V147.266C146.57 146.312 146.316 145.594 145.871 145.109C145.426 144.617 144.809 144.371 144.02 144.371ZM157.25 155.234C155.445 155.234 153.98 154.668 152.855 153.535C151.738 152.395 151.18 150.879 151.18 148.988V148.637C151.18 147.371 151.422 146.242 151.906 145.25C152.398 144.25 153.086 143.473 153.969 142.918C154.852 142.363 155.836 142.086 156.922 142.086C158.648 142.086 159.98 142.637 160.918 143.738C161.863 144.84 162.336 146.398 162.336 148.414V149.562H154.051C154.137 150.609 154.484 151.438 155.094 152.047C155.711 152.656 156.484 152.961 157.414 152.961C158.719 152.961 159.781 152.434 160.602 151.379L162.137 152.844C161.629 153.602 160.949 154.191 160.098 154.613C159.254 155.027 158.305 155.234 157.25 155.234ZM156.91 144.371C156.129 144.371 155.496 144.645 155.012 145.191C154.535 145.738 154.23 146.5 154.098 147.477H159.523V147.266C159.461 146.312 159.207 145.594 158.762 145.109C158.316 144.617 157.699 144.371 156.91 144.371ZM171.195 144.922C170.82 144.859 170.434 144.828 170.035 144.828C168.73 144.828 167.852 145.328 167.398 146.328V155H164.551V142.32H167.27L167.34 143.738C168.027 142.637 168.98 142.086 170.199 142.086C170.605 142.086 170.941 142.141 171.207 142.25L171.195 144.922Z" fill="#8FBAAD"/>
</g>
<path d="M104 89.568C116.464 89.568 126.568 79.464 126.568 67C126.568 54.5359 116.464 44.4319 104 44.4319C91.5357 44.4319 81.4316 54.5359 81.4316 67C81.4316 79.464 91.5357 89.568 104 89.568Z" fill="#FFAD61"/>
<path d="M105.375 55.344C105.375 55.344 105.063 55.9482 106.313 56.5939C106.822 56.8569 107.756 57.1128 108.684 57.3241L108.773 55.955C108.896 54.0675 107.398 52.4689 105.507 52.4689H102.494C100.602 52.4689 99.1046 54.0675 99.2278 55.955L99.3616 58.0084C104.109 57.7445 105.375 55.344 105.375 55.344Z" fill="#D35B38"/>
<path d="M106.313 56.5941C105.063 55.9481 105.375 55.3441 105.375 55.3441C105.375 55.3441 104.109 57.7446 99.3613 58.0086L99.674 62.8036C99.7703 64.2807 100.614 65.6067 101.911 66.32C103.212 67.0356 104.789 67.0356 106.089 66.32C107.386 65.6066 108.23 64.2807 108.326 62.8036L108.684 57.3243C107.755 57.113 106.821 56.857 106.313 56.5941Z" fill="#FFE6B8"/>
<path d="M115.939 76.0944C115.404 73.14 113.097 70.8866 110.235 70.3475C109.804 70.2663 109.361 70.2236 108.909 70.2236H107.406L104 73.6299L100.594 70.2238H99.0911C98.6394 70.2238 98.1961 70.2664 97.7654 70.3476C94.9029 70.8867 92.5968 73.14 92.0615 76.0945C91.8017 77.5291 92.9039 78.849 94.3618 78.849H113.638C115.096 78.8489 116.199 77.529 115.939 76.0944Z" fill="#BCC987"/>
<path d="M123.16 49.0349C123.466 49.0349 123.772 48.9182 124.005 48.6847L124.391 48.2988C124.858 47.832 124.858 47.0752 124.391 46.6084C123.924 46.1418 123.167 46.1419 122.701 46.6086L122.315 46.9945C121.848 47.4614 121.848 48.2182 122.315 48.685C122.548 48.9183 122.854 49.0349 123.16 49.0349Z" fill="#266150"/>
<path d="M132.547 37H124.96C124.3 37 123.765 37.5352 123.765 38.1952C123.765 38.8552 124.3 39.3904 124.96 39.3904H129.919L125.786 43.5224C125.32 43.9892 125.319 44.746 125.786 45.2129C126.02 45.4462 126.326 45.5629 126.632 45.5629C126.937 45.5629 127.243 45.4462 127.477 45.2129L131.352 41.3379V45.7821C131.352 46.4421 131.887 46.9773 132.547 46.9773C133.207 46.9773 133.742 46.4421 133.742 45.7821V38.1952C133.742 37.5352 133.207 37 132.547 37Z" fill="#266150"/>
<path d="M130.645 93.3691L132.352 95.0761V92.662V88.2177C132.352 88.11 132.439 88.0225 132.547 88.0225C132.655 88.0225 132.742 88.1099 132.742 88.2177V88.2178V95.8048C132.742 95.9126 132.655 96 132.547 96H124.96C124.853 96 124.765 95.9127 124.765 95.8047C124.765 95.6969 124.852 95.6095 124.96 95.6095H129.919H132.333L130.626 93.9024L120.636 83.9118L119.963 83.2391L119.257 83.8774C115.216 87.5346 109.864 89.7632 104 89.7632C98.1355 89.7632 92.7834 87.5346 88.742 83.8774L88.0366 83.2391L87.3639 83.9118L77.3732 93.9024L75.6661 95.6095H78.0803H83.0391C83.1469 95.6095 83.2343 95.6969 83.2343 95.8047C83.2343 95.9125 83.1469 95.9999 83.0391 95.9999H75.452C75.3443 95.9999 75.2568 95.9125 75.2568 95.8047V88.2178C75.2568 88.1101 75.3443 88.0227 75.452 88.0227C75.5598 88.0227 75.6472 88.1101 75.6472 88.2178V92.6621V95.0763L77.3543 93.3692L87.0878 83.6358L87.7605 82.9631L87.1222 82.2577C83.4649 78.2163 81.2363 72.8641 81.2363 67C81.2363 61.1359 83.4649 55.7837 87.1222 51.7423L87.7605 51.0369L87.0878 50.3642L77.3543 40.6308L75.6472 38.9237V41.3379V45.7823C75.6472 45.89 75.5598 45.9775 75.452 45.9775C75.3443 45.9775 75.2568 45.89 75.2568 45.7823V38.1952C75.2568 38.0874 75.3443 38 75.452 38H83.0391C83.1467 38 83.2342 38.0873 83.2342 38.1952C83.2342 38.303 83.1468 38.3904 83.039 38.3904H78.0803H75.6661L77.3732 40.0975L87.3638 50.088L88.0365 50.7606L88.7419 50.1223C92.7834 46.4652 98.1356 44.2366 104 44.2366C116.55 44.2366 126.763 54.4491 126.763 66.9999C126.763 72.8641 124.534 78.2162 120.877 82.2576L120.239 82.963L120.911 83.6357L130.645 93.3691ZM104 44.6272C91.6624 44.6272 81.6268 54.6626 81.6268 67C81.6268 79.3374 91.6624 89.3728 104 89.3728C116.337 89.3728 126.372 79.3374 126.372 67C126.372 54.6626 116.337 44.6272 104 44.6272Z" fill="#266150" stroke="#266150" stroke-width="2"/>
<path d="M98.1685 58.0863L98.4811 62.8812C98.6047 64.7756 99.6714 66.4524 101.335 67.3672C102.169 67.8263 103.084 68.0558 104 68.0558C104.915 68.0558 105.831 67.8263 106.665 67.3673C108.328 66.4525 109.395 64.7754 109.519 62.8812L109.876 57.4019L109.965 56.0328C110.046 54.8047 109.609 53.5851 108.767 52.687C107.926 51.7888 106.737 51.2737 105.507 51.2737H102.494C101.263 51.2737 100.074 51.7888 99.2329 52.687C98.3913 53.5851 97.9547 54.8047 98.0347 56.0328L98.1685 58.0863ZM105.513 65.2728C104.566 65.794 103.434 65.7939 102.487 65.2727C101.542 64.7533 100.937 63.8011 100.867 62.7258L100.629 59.0849C102.861 58.7754 104.299 58.0101 105.185 57.303C105.357 57.4279 105.55 57.5456 105.764 57.6558C106.143 57.8521 106.692 58.0465 107.425 58.2446L107.133 62.7257C107.063 63.8011 106.458 64.7534 105.513 65.2728ZM106.861 55.5322C106.763 55.4814 106.688 55.4363 106.631 55.398L107.031 54.3313C107.405 54.7355 107.6 55.2549 107.584 55.8029C107.159 55.6718 106.951 55.5786 106.861 55.5322ZM100.977 54.3215C101.374 53.8976 101.913 53.6642 102.493 53.6642H104.728L104.294 54.8217C104.139 55.0442 103.165 56.2686 100.473 56.6923L100.42 55.8774C100.382 55.2979 100.58 54.7454 100.977 54.3215Z" fill="#266150"/>
<path d="M110.456 69.1731C109.947 69.0771 109.426 69.0286 108.909 69.0286H107.406C107.089 69.0286 106.785 69.1546 106.561 69.3786L104 71.9395L101.439 69.3785C101.215 69.1545 100.911 69.0285 100.594 69.0285H99.0908C98.5733 69.0285 98.0529 69.077 97.5439 69.173C94.1729 69.8077 91.4969 72.5033 90.8851 75.8813C90.698 76.9146 90.9766 77.9697 91.6498 78.7757C92.3229 79.5816 93.3112 80.0439 94.3615 80.0439H113.638C114.688 80.0439 115.677 79.5816 116.35 78.7757C117.023 77.9697 117.302 76.9146 117.114 75.8813C116.502 72.5034 113.826 69.8077 110.456 69.1731ZM114.515 77.2434C114.387 77.3966 114.103 77.6536 113.638 77.6536H94.3615C93.8964 77.6536 93.6124 77.3966 93.4846 77.2434C93.3567 77.0902 93.1544 76.7649 93.2373 76.3074C93.6738 73.8977 95.5823 71.9748 97.9863 71.5221C98.35 71.4537 98.7216 71.419 99.0908 71.419H100.099L103.155 74.475C103.379 74.6991 103.683 74.825 104 74.825C104.317 74.825 104.621 74.6991 104.845 74.475L107.901 71.419H108.909C109.278 71.419 109.65 71.4537 110.013 71.5221C112.417 71.9747 114.326 73.8977 114.762 76.3074C114.845 76.765 114.643 77.0903 114.515 77.2434Z" fill="#266150"/>
<defs>
<filter id="filter0_d_2166_548" x="37.1992" y="137.938" width="138.008" height="25.2969" filterUnits="userSpaceOnUse" color-interpolation-filters="sRGB">
<feFlood flood-opacity="0" result="BackgroundImageFix"/>
<feColorMatrix in="SourceAlpha" type="matrix" values="0 0 0 0 0 0 0 0 0 0 0 0 0 0 0 0 0 0 127 0" result="hardAlpha"/>
<feOffset dy="4"/>
<feGaussianBlur stdDeviation="2"/>
<feComposite in2="hardAlpha" operator="out"/>
<feColorMatrix type="matrix" values="0 0 0 0 0 0 0 0 0 0 0 0 0 0 0 0 0 0 0.25 0"/>
<feBlend mode="normal" in2="BackgroundImageFix" result="effect1_dropShadow_2166_548"/>
<feBlend mode="normal" in="SourceGraphic" in2="effect1_dropShadow_2166_548" result="shape"/>
</filter>
</defs>
</svg>
