<svg width="129" height="114" viewBox="0 0 129 114" fill="none" xmlns="http://www.w3.org/2000/svg">
<ellipse cx="67.5334" cy="44.97" rx="34.8" ry="34.97" fill="#8FBAAD"/>
<path d="M67.5334 84.94C89.5373 84.94 107.333 67.0218 107.333 44.97C107.333 22.9182 89.5373 5 67.5334 5C45.5295 5 27.7334 22.9182 27.7334 44.97C27.7334 67.0218 45.5295 84.94 67.5334 84.94Z" stroke="white" stroke-opacity="0.8" stroke-width="10"/>
<ellipse cx="96.3731" cy="25.9464" rx="13.92" ry="13.988" fill="#A9CAC0"/>
<path d="M96.3731 42.4344C105.453 42.4344 112.793 35.0409 112.793 25.9464C112.793 16.8518 105.453 9.45837 96.3731 9.45837C87.2931 9.45837 79.9531 16.8518 79.9531 25.9464C79.9531 35.0409 87.2931 42.4344 96.3731 42.4344Z" stroke="white" stroke-opacity="0.3" stroke-width="5"/>
<path d="M28.6169 101.873C28.6169 102.884 28.4557 103.76 28.1335 104.502C27.8161 105.24 27.3693 105.826 26.7931 106.26L28.6242 107.688L27.423 108.772L25.1525 106.978C24.8547 107.042 24.5348 107.073 24.193 107.073C23.3337 107.073 22.5646 106.863 21.8859 106.443C21.2121 106.019 20.6896 105.416 20.3185 104.634C19.9523 103.853 19.7668 102.952 19.7619 101.932V101.331C19.7619 100.291 19.945 99.373 20.3112 98.5771C20.6823 97.7812 21.2023 97.1733 21.8713 96.7534C22.5451 96.3286 23.3141 96.1162 24.1784 96.1162C25.0573 96.1162 25.8312 96.3262 26.5002 96.7461C27.174 97.1611 27.694 97.7617 28.0602 98.5479C28.4264 99.3291 28.612 100.24 28.6169 101.28V101.873ZM26.7565 101.316C26.7565 100.115 26.5319 99.2046 26.0827 98.5845C25.6335 97.9644 24.9987 97.6543 24.1784 97.6543C23.3825 97.6543 22.7575 97.9692 22.3034 98.5991C21.8542 99.2241 21.6247 100.108 21.6149 101.25V101.873C21.6149 103.025 21.8395 103.926 22.2887 104.576C22.7429 105.225 23.3776 105.55 24.193 105.55C25.0182 105.55 25.6506 105.237 26.09 104.612C26.5344 103.987 26.7565 103.074 26.7565 101.873V101.316ZM35.1281 106.15C34.6056 106.766 33.8635 107.073 32.9015 107.073C32.0422 107.073 31.3903 106.822 30.946 106.319C30.5065 105.816 30.2868 105.088 30.2868 104.136V99.002H32.0666V104.114C32.0666 105.12 32.4841 105.623 33.319 105.623C34.1833 105.623 34.7668 105.313 35.0695 104.693V99.002H36.8493V106.927H35.1721L35.1281 106.15ZM43.3971 106.927C43.319 106.775 43.2507 106.529 43.1921 106.187C42.6257 106.778 41.9323 107.073 41.112 107.073C40.3161 107.073 39.6667 106.846 39.1637 106.392C38.6608 105.938 38.4094 105.376 38.4094 104.708C38.4094 103.863 38.7219 103.216 39.3469 102.767C39.9767 102.312 40.8752 102.085 42.0422 102.085H43.1335V101.565C43.1335 101.155 43.0187 100.828 42.7892 100.584C42.5597 100.335 42.2106 100.21 41.7419 100.21C41.3366 100.21 41.0046 100.313 40.7458 100.518C40.487 100.718 40.3576 100.975 40.3576 101.287H38.5778C38.5778 100.853 38.7219 100.447 39.0099 100.071C39.298 99.6904 39.6887 99.3926 40.1818 99.1777C40.6799 98.9629 41.2341 98.8555 41.8444 98.8555C42.7721 98.8555 43.5119 99.0898 44.0637 99.5586C44.6154 100.022 44.8986 100.677 44.9133 101.521V105.096C44.9133 105.809 45.0134 106.377 45.2136 106.802V106.927H43.3971ZM41.4416 105.645C41.7931 105.645 42.1227 105.56 42.4304 105.389C42.7429 105.218 42.9772 104.988 43.1335 104.7V103.206H42.174C41.5148 103.206 41.0192 103.321 40.6872 103.55C40.3552 103.78 40.1891 104.104 40.1891 104.524C40.1891 104.866 40.3014 105.14 40.5261 105.345C40.7555 105.545 41.0607 105.645 41.4416 105.645ZM49.0075 97.0757V99.002H50.4064V100.32H49.0075V104.744C49.0075 105.047 49.0661 105.267 49.1833 105.403C49.3054 105.535 49.5202 105.601 49.8278 105.601C50.0329 105.601 50.2404 105.577 50.4504 105.528V106.905C50.0451 107.017 49.6545 107.073 49.2785 107.073C47.9113 107.073 47.2277 106.319 47.2277 104.81V100.32H45.924V99.002H47.2277V97.0757H49.0075ZM55.9216 100.628C55.6872 100.589 55.4455 100.569 55.1965 100.569C54.381 100.569 53.8317 100.882 53.5485 101.507V106.927H51.7687V99.002H53.4679L53.5119 99.8882C53.9416 99.1997 54.5373 98.8555 55.299 98.8555C55.5529 98.8555 55.7629 98.8896 55.9289 98.958L55.9216 100.628ZM60.3893 107.073C59.2614 107.073 58.3459 106.719 57.6428 106.011C56.9445 105.298 56.5954 104.351 56.5954 103.169V102.95C56.5954 102.159 56.7468 101.453 57.0495 100.833C57.3571 100.208 57.7868 99.7222 58.3386 99.3755C58.8903 99.0288 59.5055 98.8555 60.1843 98.8555C61.2634 98.8555 62.0959 99.1997 62.6818 99.8882C63.2726 100.577 63.568 101.551 63.568 102.811V103.528H58.3898C58.4435 104.183 58.6608 104.7 59.0417 105.081C59.4274 105.462 59.9108 105.652 60.4919 105.652C61.3073 105.652 61.9714 105.323 62.4841 104.664L63.4435 105.579C63.1262 106.053 62.7013 106.421 62.1691 106.685C61.6418 106.944 61.0485 107.073 60.3893 107.073ZM60.1769 100.284C59.6887 100.284 59.2931 100.455 58.9904 100.796C58.6926 101.138 58.5021 101.614 58.4191 102.225H61.8102V102.093C61.7712 101.497 61.6125 101.048 61.3342 100.745C61.0558 100.438 60.6701 100.284 60.1769 100.284ZM77.2277 104.29L78.8683 96.2627H80.7067L78.2458 106.927H76.4733L74.4445 99.1411L72.3718 106.927H70.592L68.131 96.2627H69.9694L71.6247 104.275L73.6608 96.2627H75.2136L77.2277 104.29ZM86.3757 106.927C86.2975 106.775 86.2292 106.529 86.1706 106.187C85.6042 106.778 84.9108 107.073 84.0905 107.073C83.2946 107.073 82.6452 106.846 82.1423 106.392C81.6393 105.938 81.3879 105.376 81.3879 104.708C81.3879 103.863 81.7004 103.216 82.3254 102.767C82.9553 102.312 83.8537 102.085 85.0207 102.085H86.112V101.565C86.112 101.155 85.9972 100.828 85.7678 100.584C85.5383 100.335 85.1891 100.21 84.7204 100.21C84.3151 100.21 83.9831 100.313 83.7243 100.518C83.4655 100.718 83.3361 100.975 83.3361 101.287H81.5563C81.5563 100.853 81.7004 100.447 81.9885 100.071C82.2765 99.6904 82.6672 99.3926 83.1603 99.1777C83.6584 98.9629 84.2126 98.8555 84.8229 98.8555C85.7507 98.8555 86.4904 99.0898 87.0422 99.5586C87.5939 100.022 87.8771 100.677 87.8918 101.521V105.096C87.8918 105.809 87.9919 106.377 88.1921 106.802V106.927H86.3757ZM84.4201 105.645C84.7717 105.645 85.1012 105.56 85.4089 105.389C85.7214 105.218 85.9557 104.988 86.112 104.7V103.206H85.1525C84.4933 103.206 83.9977 103.321 83.6657 103.55C83.3337 103.78 83.1677 104.104 83.1677 104.524C83.1677 104.866 83.28 105.14 83.5046 105.345C83.7341 105.545 84.0392 105.645 84.4201 105.645ZM91.6491 106.927H89.8693V95.6768H91.6491V106.927ZM95.487 106.927H93.7072V95.6768H95.487V106.927ZM100.922 107.073C99.7936 107.073 98.8781 106.719 98.175 106.011C97.4767 105.298 97.1276 104.351 97.1276 103.169V102.95C97.1276 102.159 97.279 101.453 97.5817 100.833C97.8893 100.208 98.319 99.7222 98.8708 99.3755C99.4225 99.0288 100.038 98.8555 100.716 98.8555C101.796 98.8555 102.628 99.1997 103.214 99.8882C103.805 100.577 104.1 101.551 104.1 102.811V103.528H98.9221C98.9758 104.183 99.193 104.7 99.5739 105.081C99.9596 105.462 100.443 105.652 101.024 105.652C101.84 105.652 102.504 105.323 103.016 104.664L103.976 105.579C103.658 106.053 103.234 106.421 102.701 106.685C102.174 106.944 101.581 107.073 100.922 107.073ZM100.709 100.284C100.221 100.284 99.8254 100.455 99.5226 100.796C99.2248 101.138 99.0344 101.614 98.9513 102.225H102.342V102.093C102.303 101.497 102.145 101.048 101.866 100.745C101.588 100.438 101.202 100.284 100.709 100.284ZM107.718 97.0757V99.002H109.117V100.32H107.718V104.744C107.718 105.047 107.777 105.267 107.894 105.403C108.016 105.535 108.231 105.601 108.539 105.601C108.744 105.601 108.951 105.577 109.161 105.528V106.905C108.756 107.017 108.365 107.073 107.989 107.073C106.622 107.073 105.939 106.319 105.939 104.81V100.32H104.635V99.002H105.939V97.0757H107.718Z" fill="#8FBAAD"/>
<path d="M28.1335 104.502L27.2162 104.104L27.215 104.107L28.1335 104.502ZM26.7931 106.26L26.191 105.462L25.1501 106.247L26.1781 107.049L26.7931 106.26ZM28.6242 107.688L29.2942 108.431L30.1786 107.633L29.2392 106.9L28.6242 107.688ZM27.423 108.772L26.803 109.557L27.4658 110.081L28.093 109.515L27.423 108.772ZM25.1525 106.978L25.7726 106.193L25.4038 105.902L24.9441 106L25.1525 106.978ZM21.8859 106.443L21.3526 107.289L21.3598 107.294L21.8859 106.443ZM20.3185 104.634L19.4131 105.059L19.4153 105.063L20.3185 104.634ZM19.7619 101.932H18.7619L18.7619 101.936L19.7619 101.932ZM20.3112 98.5771L19.4049 98.1546L19.4028 98.1592L20.3112 98.5771ZM21.8713 96.7534L22.4029 97.6004L22.4046 97.5993L21.8713 96.7534ZM26.5002 96.7461L25.9685 97.5931L25.9757 97.5975L26.5002 96.7461ZM28.0602 98.5479L27.1538 98.9701L27.1548 98.9723L28.0602 98.5479ZM28.6169 101.28H29.6169L29.6169 101.275L28.6169 101.28ZM26.0827 98.5845L26.8925 97.9978L26.0827 98.5845ZM22.3034 98.5991L21.4922 98.0143L21.4914 98.0155L22.3034 98.5991ZM21.6149 101.25L20.6149 101.242V101.25H21.6149ZM22.2887 104.576L21.4663 105.145L21.4692 105.149L22.2887 104.576ZM26.09 104.612L25.275 104.033L25.272 104.037L26.09 104.612ZM27.6169 101.873C27.6169 102.78 27.4721 103.515 27.2162 104.104L29.0507 104.901C29.4394 104.006 29.6169 102.988 29.6169 101.873H27.6169ZM27.215 104.107C26.9584 104.703 26.6134 105.143 26.191 105.462L27.3953 107.059C28.1252 106.508 28.6738 105.776 29.052 104.898L27.215 104.107ZM26.1781 107.049L28.0092 108.477L29.2392 106.9L27.4082 105.472L26.1781 107.049ZM27.9542 106.946L26.7531 108.03L28.093 109.515L29.2942 108.431L27.9542 106.946ZM28.0431 107.988L25.7726 106.193L24.5325 107.763L26.803 109.557L28.0431 107.988ZM24.9441 106C24.7225 106.047 24.4732 106.073 24.193 106.073V108.073C24.5965 108.073 24.9869 108.036 25.361 107.956L24.9441 106ZM24.193 106.073C23.5047 106.073 22.9205 105.908 22.4121 105.593L21.3598 107.294C22.2087 107.819 23.1626 108.073 24.193 108.073V106.073ZM22.4192 105.597C21.9195 105.282 21.5188 104.831 21.2218 104.205L19.4153 105.063C19.8604 106.001 20.5047 106.755 21.3526 107.289L22.4192 105.597ZM21.224 104.21C20.9296 103.582 20.7662 102.829 20.7619 101.927L18.7619 101.936C18.7674 103.076 18.975 104.124 19.4131 105.059L21.224 104.21ZM20.7619 101.932V101.331H18.7619V101.932H20.7619ZM20.7619 101.331C20.7619 100.409 20.924 99.6377 21.2197 98.9951L19.4028 98.1592C18.966 99.1084 18.7619 100.173 18.7619 101.331H20.7619ZM21.2175 98.9997C21.5166 98.3582 21.9151 97.9066 22.4029 97.6004L21.3396 95.9065C20.4896 96.44 19.848 97.2043 19.4049 98.1546L21.2175 98.9997ZM22.4046 97.5993C22.9052 97.2837 23.4862 97.1162 24.1784 97.1162V95.1162C23.1421 95.1162 22.185 95.3735 21.338 95.9075L22.4046 97.5993ZM24.1784 97.1162C24.8911 97.1162 25.4764 97.2842 25.9685 97.593L27.0318 95.8991C26.186 95.3682 25.2235 95.1162 24.1784 95.1162V97.1162ZM25.9757 97.5975C26.4671 97.9002 26.8619 98.3436 27.1538 98.9701L28.9667 98.1256C28.5261 97.1798 27.8809 96.4221 27.0246 95.8946L25.9757 97.5975ZM27.1548 98.9723C27.4481 99.598 27.6125 100.36 27.6169 101.284L29.6169 101.275C29.6114 100.119 29.4048 99.0602 28.9657 98.1234L27.1548 98.9723ZM27.6169 101.28V101.873H29.6169V101.28H27.6169ZM27.7565 101.316C27.7565 100.016 27.5177 98.8608 26.8925 97.9978L25.2729 99.1711C25.5461 99.5483 25.7565 100.215 25.7565 101.316H27.7565ZM26.8925 97.9978C26.2401 97.0971 25.2926 96.6543 24.1784 96.6543V98.6543C24.7049 98.6543 25.0269 98.8316 25.2729 99.1711L26.8925 97.9978ZM24.1784 96.6543C23.0706 96.6543 22.1398 97.1161 21.4922 98.0143L23.1146 99.1839C23.3752 98.8224 23.6944 98.6543 24.1784 98.6543V96.6543ZM21.4914 98.0155C20.8761 98.8715 20.6257 99.9877 20.615 101.242L22.6149 101.259C22.6237 100.228 22.8322 99.5767 23.1154 99.1828L21.4914 98.0155ZM20.6149 101.25V101.873H22.6149V101.25H20.6149ZM20.6149 101.873C20.6149 103.14 20.8595 104.267 21.4663 105.145L23.1112 104.007C22.8195 103.585 22.6149 102.911 22.6149 101.873H20.6149ZM21.4692 105.149C22.1168 106.075 23.0624 106.55 24.193 106.55V104.55C23.6928 104.55 23.3689 104.375 23.1083 104.003L21.4692 105.149ZM24.193 106.55C25.3132 106.55 26.2644 106.103 26.908 105.187L25.272 104.037C25.0367 104.372 24.7233 104.55 24.193 104.55V106.55ZM26.905 105.192C27.5204 104.326 27.7565 103.173 27.7565 101.873H25.7565C25.7565 102.976 25.5483 103.648 25.275 104.033L26.905 105.192ZM27.7565 101.873V101.316H25.7565V101.873H27.7565ZM35.1281 106.15L36.1265 106.094L35.9851 103.596L34.3659 105.503L35.1281 106.15ZM30.946 106.319L30.1929 106.977L30.1966 106.981L30.946 106.319ZM30.2868 99.002V98.002H29.2868V99.002H30.2868ZM32.0666 99.002H33.0666V98.002H32.0666V99.002ZM35.0695 104.693L35.9681 105.132L36.0695 104.924V104.693H35.0695ZM35.0695 99.002V98.002H34.0695V99.002H35.0695ZM36.8493 99.002H37.8493V98.002H36.8493V99.002ZM36.8493 106.927V107.927H37.8493V106.927H36.8493ZM35.1721 106.927L34.1736 106.983L34.2271 107.927H35.1721V106.927ZM34.3659 105.503C34.0702 105.851 33.632 106.073 32.9015 106.073V108.073C34.095 108.073 35.1411 107.68 35.8903 106.798L34.3659 105.503ZM32.9015 106.073C32.2429 106.073 31.8996 105.888 31.6954 105.657L30.1966 106.981C30.8811 107.756 31.8415 108.073 32.9015 108.073V106.073ZM31.699 105.661C31.475 105.404 31.2868 104.948 31.2868 104.136H29.2868C29.2868 105.229 29.5381 106.227 30.1929 106.977L31.699 105.661ZM31.2868 104.136V99.002H29.2868V104.136H31.2868ZM30.2868 100.002H32.0666V98.002H30.2868V100.002ZM31.0666 99.002V104.114H33.0666V99.002H31.0666ZM31.0666 104.114C31.0666 104.731 31.1907 105.379 31.6102 105.885C32.0594 106.426 32.6933 106.623 33.319 106.623V104.623C33.2086 104.623 33.1573 104.606 33.1437 104.601C33.1362 104.598 33.1438 104.601 33.1491 104.607C33.1512 104.61 33.0666 104.504 33.0666 104.114H31.0666ZM33.319 106.623C34.4496 106.623 35.4523 106.188 35.9681 105.132L34.1709 104.254C34.0813 104.438 33.917 104.623 33.319 104.623V106.623ZM36.0695 104.693V99.002H34.0695V104.693H36.0695ZM35.0695 100.002H36.8493V98.002H35.0695V100.002ZM35.8493 99.002V106.927H37.8493V99.002H35.8493ZM36.8493 105.927H35.1721V107.927H36.8493V105.927ZM36.1705 106.87L36.1265 106.094L34.1297 106.207L34.1736 106.983L36.1705 106.87ZM43.3971 106.927L42.5085 107.385L42.7879 107.927H43.3971V106.927ZM43.1921 106.187L44.1777 106.018L43.8426 104.063L42.4702 105.495L43.1921 106.187ZM39.1637 106.392L38.4936 107.134L39.1637 106.392ZM39.3469 102.767L39.9305 103.579L39.9317 103.578L39.3469 102.767ZM43.1335 102.085V103.085H44.1335V102.085H43.1335ZM42.7892 100.584L42.0538 101.262L42.0606 101.269L42.7892 100.584ZM40.7458 100.518L41.3577 101.309L41.3669 101.302L40.7458 100.518ZM40.3576 101.287V102.287H41.3576V101.287H40.3576ZM38.5778 101.287H37.5778V102.287H38.5778V101.287ZM39.0099 100.071L39.8037 100.68L39.8075 100.675L39.0099 100.071ZM40.1818 99.1777L39.7857 98.2595L39.7824 98.261L40.1818 99.1777ZM44.0637 99.5586L43.4162 100.321L43.4201 100.324L44.0637 99.5586ZM44.9133 101.521H45.9133V101.513L45.9131 101.504L44.9133 101.521ZM45.2136 106.802H46.2136V106.578L46.1181 106.376L45.2136 106.802ZM45.2136 106.927V107.927H46.2136V106.927H45.2136ZM42.4304 105.389L41.9505 104.511L41.9447 104.515L42.4304 105.389ZM43.1335 104.7L44.0125 105.177L44.1335 104.954V104.7H43.1335ZM43.1335 103.206H44.1335V102.206H43.1335V103.206ZM40.5261 105.345L39.8518 106.083L39.8601 106.091L39.8687 106.098L40.5261 105.345ZM44.2858 106.468C44.2897 106.476 44.2749 106.448 44.2509 106.361C44.2282 106.279 44.2032 106.167 44.1777 106.018L42.2064 106.356C42.2683 106.717 42.3564 107.091 42.5085 107.385L44.2858 106.468ZM42.4702 105.495C42.0929 105.889 41.6605 106.073 41.112 106.073V108.073C42.2041 108.073 43.1584 107.667 43.9139 106.879L42.4702 105.495ZM41.112 106.073C40.5178 106.073 40.1217 105.91 39.8339 105.65L38.4936 107.134C39.2117 107.783 40.1144 108.073 41.112 108.073V106.073ZM39.8339 105.65C39.5379 105.383 39.4094 105.089 39.4094 104.708H37.4094C37.4094 105.664 37.7838 106.493 38.4936 107.134L39.8339 105.65ZM39.4094 104.708C39.4094 104.148 39.5952 103.82 39.9305 103.579L38.7632 101.955C37.8485 102.612 37.4094 103.577 37.4094 104.708H39.4094ZM39.9317 103.578C40.3251 103.294 40.9853 103.085 42.0422 103.085V101.085C40.7651 101.085 39.6284 101.331 38.7621 101.955L39.9317 103.578ZM42.0422 103.085H43.1335V101.085H42.0422V103.085ZM44.1335 102.085V101.565H42.1335V102.085H44.1335ZM44.1335 101.565C44.1335 100.961 43.9589 100.368 43.5179 99.8991L42.0606 101.269C42.0786 101.288 42.1335 101.35 42.1335 101.565H44.1335ZM43.5246 99.9063C43.0419 99.3825 42.3792 99.2104 41.7419 99.2104V101.21C41.8907 101.21 41.9769 101.231 42.0194 101.246C42.0561 101.259 42.059 101.267 42.0539 101.262L43.5246 99.9063ZM41.7419 99.2104C41.1638 99.2104 40.5975 99.3596 40.1247 99.7343L41.3669 101.302C41.4116 101.266 41.5094 101.21 41.7419 101.21V99.2104ZM40.1339 99.7271C39.6437 100.106 39.3576 100.649 39.3576 101.287H41.3576C41.3576 101.278 41.3585 101.278 41.3569 101.285C41.3562 101.288 41.3551 101.292 41.3534 101.297C41.3517 101.302 41.3497 101.307 41.3474 101.311C41.3425 101.321 41.3383 101.326 41.3378 101.327C41.3375 101.327 41.3428 101.321 41.3577 101.309L40.1339 99.7271ZM40.3576 100.287H38.5778V102.287H40.3576V100.287ZM39.5778 101.287C39.5778 101.093 39.6366 100.898 39.8037 100.68L38.2162 99.4631C37.8071 99.9969 37.5778 100.613 37.5778 101.287H39.5778ZM39.8075 100.675C39.9794 100.447 40.2252 100.25 40.5812 100.095L39.7824 98.261C39.1521 98.5356 38.6166 98.9336 38.2124 99.468L39.8075 100.675ZM40.5779 100.096C40.9361 99.9414 41.3532 99.8555 41.8444 99.8555V97.8555C41.1149 97.8555 40.4236 97.9844 39.7857 98.2595L40.5779 100.096ZM41.8444 99.8555C42.6032 99.8555 43.0912 100.045 43.4162 100.321L44.7111 98.7965C43.9326 98.1351 42.9411 97.8555 41.8444 97.8555V99.8555ZM43.4201 100.324C43.7117 100.569 43.9028 100.928 43.9134 101.539L45.9131 101.504C45.8944 100.425 45.5191 99.4758 44.7072 98.7932L43.4201 100.324ZM43.9133 101.521V105.096H45.9133V101.521H43.9133ZM43.9133 105.096C43.9133 105.887 44.0219 106.619 44.309 107.229L46.1181 106.376C46.0048 106.135 45.9133 105.731 45.9133 105.096H43.9133ZM44.2136 106.802V106.927H46.2136V106.802H44.2136ZM45.2136 105.927H43.3971V107.927H45.2136V105.927ZM41.4416 106.645C41.9633 106.645 42.46 106.516 42.916 106.263L41.9447 104.515C41.7855 104.603 41.623 104.645 41.4416 104.645V106.645ZM42.9102 106.266C43.3762 106.011 43.7565 105.649 44.0125 105.177L42.2544 104.223C42.1979 104.328 42.1095 104.424 41.9505 104.511L42.9102 106.266ZM44.1335 104.7V103.206H42.1335V104.7H44.1335ZM43.1335 102.206H42.174V104.206H43.1335V102.206ZM42.174 102.206C41.4287 102.206 40.6934 102.33 40.1186 102.728L41.2558 104.373C41.3451 104.311 41.6009 104.206 42.174 104.206V102.206ZM40.1186 102.728C39.5037 103.153 39.1891 103.792 39.1891 104.524H41.1891C41.1891 104.449 41.2033 104.423 41.204 104.421C41.2053 104.419 41.2075 104.415 41.2131 104.409C41.219 104.402 41.2317 104.39 41.2558 104.373L40.1186 102.728ZM39.1891 104.524C39.1891 105.109 39.3928 105.664 39.8518 106.083L41.2003 104.606C41.1956 104.602 41.1951 104.601 41.1963 104.602C41.1976 104.604 41.1984 104.606 41.1984 104.606C41.1983 104.606 41.1962 104.601 41.1939 104.588C41.1917 104.576 41.1891 104.555 41.1891 104.524H39.1891ZM39.8687 106.098C40.3226 106.494 40.8817 106.645 41.4416 106.645V104.645C41.2397 104.645 41.1885 104.596 41.1834 104.591L39.8687 106.098ZM49.0075 97.0757H50.0075V96.0757H49.0075V97.0757ZM49.0075 99.002H48.0075V100.002H49.0075V99.002ZM50.4064 99.002H51.4064V98.002H50.4064V99.002ZM50.4064 100.32V101.32H51.4064V100.32H50.4064ZM49.0075 100.32V99.3203H48.0075V100.32H49.0075ZM49.1833 105.403L48.424 106.054L48.4365 106.069L48.4495 106.083L49.1833 105.403ZM50.4504 105.528H51.4504V104.269L50.2239 104.554L50.4504 105.528ZM50.4504 106.905L50.7174 107.868L51.4504 107.665V106.905H50.4504ZM47.2277 100.32H48.2277V99.3203H47.2277V100.32ZM45.924 100.32H44.924V101.32H45.924V100.32ZM45.924 99.002V98.002H44.924V99.002H45.924ZM47.2277 99.002V100.002H48.2277V99.002H47.2277ZM47.2277 97.0757V96.0757H46.2277V97.0757H47.2277ZM48.0075 97.0757V99.002H50.0075V97.0757H48.0075ZM49.0075 100.002H50.4064V98.002H49.0075V100.002ZM49.4064 99.002V100.32H51.4064V99.002H49.4064ZM50.4064 99.3203H49.0075V101.32H50.4064V99.3203ZM48.0075 100.32V104.744H50.0075V100.32H48.0075ZM48.0075 104.744C48.0075 105.136 48.0759 105.648 48.424 106.054L49.9425 104.753C49.9729 104.788 49.992 104.82 50.0032 104.843C50.0088 104.854 50.0124 104.863 50.0146 104.869C50.0168 104.875 50.0177 104.878 50.0177 104.878C50.0177 104.878 50.017 104.876 50.0159 104.87C50.0149 104.864 50.0135 104.856 50.0123 104.844C50.0096 104.821 50.0075 104.788 50.0075 104.744H48.0075ZM48.4495 106.083C48.8588 106.525 49.4292 106.601 49.8278 106.601V104.601C49.7395 104.601 49.7139 104.591 49.7293 104.596C49.7487 104.602 49.8317 104.632 49.917 104.724L48.4495 106.083ZM49.8278 106.601C50.1129 106.601 50.3964 106.567 50.6769 106.502L50.2239 104.554C50.0844 104.586 49.9529 104.601 49.8278 104.601V106.601ZM49.4504 105.528V106.905H51.4504V105.528H49.4504ZM50.1833 105.941C49.8549 106.032 49.5543 106.073 49.2785 106.073V108.073C49.7547 108.073 50.2353 108.002 50.7174 107.868L50.1833 105.941ZM49.2785 106.073C48.7759 106.073 48.5749 105.939 48.4814 105.836C48.371 105.714 48.2277 105.433 48.2277 104.81H46.2277C46.2277 105.696 46.4262 106.546 46.9994 107.179C47.5895 107.83 48.4139 108.073 49.2785 108.073V106.073ZM48.2277 104.81V100.32H46.2277V104.81H48.2277ZM47.2277 99.3203H45.924V101.32H47.2277V99.3203ZM46.924 100.32V99.002H44.924V100.32H46.924ZM45.924 100.002H47.2277V98.002H45.924V100.002ZM48.2277 99.002V97.0757H46.2277V99.002H48.2277ZM47.2277 98.0757H49.0075V96.0757H47.2277V98.0757ZM55.9216 100.628L55.7572 101.614L56.9164 101.808L56.9216 100.632L55.9216 100.628ZM53.5485 101.507L52.6377 101.094L52.5485 101.291V101.507H53.5485ZM53.5485 106.927V107.927H54.5485V106.927H53.5485ZM51.7687 106.927H50.7687V107.927H51.7687V106.927ZM51.7687 99.002V98.002H50.7687V99.002H51.7687ZM53.4679 99.002L54.4667 98.9524L54.4196 98.002H53.4679V99.002ZM53.5119 99.8882L52.5131 99.9377L52.6711 103.124L54.3602 100.418L53.5119 99.8882ZM55.9289 98.958L56.9289 98.9624L56.9318 98.2895L56.3096 98.0333L55.9289 98.958ZM56.086 99.6415C55.7947 99.593 55.4979 99.5693 55.1965 99.5693V101.569C55.393 101.569 55.5797 101.585 55.7572 101.614L56.086 99.6415ZM55.1965 99.5693C54.6645 99.5693 54.1414 99.6711 53.6784 99.9345C53.2043 100.204 52.8585 100.607 52.6377 101.094L54.4594 101.92C54.5217 101.782 54.5922 101.716 54.6674 101.673C54.7537 101.624 54.913 101.569 55.1965 101.569V99.5693ZM52.5485 101.507V106.927H54.5485V101.507H52.5485ZM53.5485 105.927H51.7687V107.927H53.5485V105.927ZM52.7687 106.927V99.002H50.7687V106.927H52.7687ZM51.7687 100.002H53.4679V98.002H51.7687V100.002ZM52.4692 99.0515L52.5131 99.9377L54.5107 99.8387L54.4667 98.9524L52.4692 99.0515ZM54.3602 100.418C54.6217 99.9988 54.9087 99.8555 55.299 99.8555V97.8555C54.1659 97.8555 53.2615 98.4006 52.6636 99.3587L54.3602 100.418ZM55.299 99.8555C55.4724 99.8555 55.5419 99.8801 55.5481 99.8827L56.3096 98.0333C55.9839 97.8992 55.6335 97.8555 55.299 97.8555V99.8555ZM54.9289 98.9536L54.9216 100.624L56.9216 100.632L56.9289 98.9624L54.9289 98.9536ZM57.6428 106.011L56.9283 106.711L56.9332 106.716L57.6428 106.011ZM57.0495 100.833L56.1523 100.391L56.1509 100.394L57.0495 100.833ZM58.3386 99.3755L57.8065 98.5288L58.3386 99.3755ZM62.6818 99.8882L61.9203 100.536L61.9229 100.539L62.6818 99.8882ZM63.568 103.528V104.528H64.568V103.528H63.568ZM58.3898 103.528V102.528H57.3044L57.3932 103.61L58.3898 103.528ZM59.0417 105.081L58.3346 105.788L58.3391 105.793L59.0417 105.081ZM62.4841 104.664L63.1744 103.94L62.374 103.176L61.6947 104.05L62.4841 104.664ZM63.4435 105.579L64.2743 106.136L64.7428 105.437L64.1339 104.856L63.4435 105.579ZM62.1691 106.685L62.6097 107.583L62.613 107.581L62.1691 106.685ZM58.9904 100.796L58.2418 100.133L58.2365 100.139L58.9904 100.796ZM58.4191 102.225L57.4282 102.09L57.2739 103.225H58.4191V102.225ZM61.8102 102.225V103.225H62.8102V102.225H61.8102ZM61.8102 102.093H62.8102V102.06L62.8081 102.027L61.8102 102.093ZM61.3342 100.745L60.5926 101.416L60.598 101.422L61.3342 100.745ZM60.3893 106.073C59.4899 106.073 58.8426 105.8 58.3523 105.307L56.9332 106.716C57.8492 107.638 59.0329 108.073 60.3893 108.073V106.073ZM58.3572 105.312C57.8752 104.819 57.5954 104.141 57.5954 103.169H55.5954C55.5954 104.561 56.0138 105.777 56.9283 106.711L58.3572 105.312ZM57.5954 103.169V102.95H55.5954V103.169H57.5954ZM57.5954 102.95C57.5954 102.288 57.7212 101.736 57.9481 101.272L56.1509 100.394C55.7723 101.17 55.5954 102.029 55.5954 102.95H57.5954ZM57.9467 101.275C58.1784 100.804 58.4866 100.463 58.8706 100.222L57.8065 98.5288C57.0869 98.9809 56.5359 99.6121 56.1523 100.391L57.9467 101.275ZM58.8706 100.222C59.2561 99.98 59.6856 99.8555 60.1843 99.8555V97.8555C59.3255 97.8555 58.5245 98.0776 57.8065 98.5288L58.8706 100.222ZM60.1843 99.8555C61.0327 99.8555 61.5614 100.115 61.9203 100.536L63.4434 99.2401C62.6303 98.2848 61.494 97.8555 60.1843 97.8555V99.8555ZM61.9229 100.539C62.307 100.987 62.568 101.697 62.568 102.811H64.568C64.568 101.404 64.2383 100.166 63.4407 99.2369L61.9229 100.539ZM62.568 102.811V103.528H64.568V102.811H62.568ZM63.568 102.528H58.3898V104.528H63.568V102.528ZM57.3932 103.61C57.4619 104.447 57.7516 105.205 58.3346 105.788L59.7488 104.374C59.57 104.195 59.4252 103.918 59.3865 103.447L57.3932 103.61ZM58.3391 105.793C58.9263 106.372 59.6687 106.652 60.4919 106.652V104.652C60.1529 104.652 59.9285 104.551 59.7443 104.369L58.3391 105.793ZM60.4919 106.652C61.6245 106.652 62.5766 106.173 63.2734 105.278L61.6947 104.05C61.3661 104.472 60.9901 104.652 60.4919 104.652V106.652ZM61.7937 105.387L62.7532 106.303L64.1339 104.856L63.1744 103.94L61.7937 105.387ZM62.6128 105.022C62.3967 105.345 62.1079 105.599 61.7252 105.789L62.613 107.581C63.2948 107.243 63.8556 106.761 64.2743 106.136L62.6128 105.022ZM61.7286 105.787C61.3543 105.971 60.9146 106.073 60.3893 106.073V108.073C61.1824 108.073 61.9293 107.917 62.6097 107.583L61.7286 105.787ZM60.1769 99.2837C59.4248 99.2837 58.7487 99.561 58.2418 100.133L59.739 101.459C59.8375 101.348 59.9525 101.284 60.1769 101.284V99.2837ZM58.2365 100.139C57.772 100.672 57.5284 101.353 57.4282 102.09L59.41 102.359C59.4759 101.875 59.6132 101.604 59.7443 101.453L58.2365 100.139ZM58.4191 103.225H61.8102V101.225H58.4191V103.225ZM62.8102 102.225V102.093H60.8102V102.225H62.8102ZM62.8081 102.027C62.7606 101.304 62.5594 100.6 62.0703 100.068L60.598 101.422C60.6656 101.495 60.7817 101.69 60.8124 102.158L62.8081 102.027ZM62.0757 100.074C61.572 99.5175 60.8945 99.2837 60.1769 99.2837V101.284C60.4457 101.284 60.5397 101.358 60.5926 101.416L62.0757 100.074ZM77.2277 104.29L76.2578 104.533L78.2075 104.49L77.2277 104.29ZM78.8683 96.2627V95.2627H78.052L77.8886 96.0625L78.8683 96.2627ZM80.7067 96.2627L81.6811 96.4876L81.9638 95.2627H80.7067V96.2627ZM78.2458 106.927V107.927H79.0413L79.2202 107.152L78.2458 106.927ZM76.4733 106.927L75.5056 107.179L75.7005 107.927H76.4733V106.927ZM74.4445 99.1411L75.4122 98.889L74.4549 95.2152L73.4782 98.8838L74.4445 99.1411ZM72.3718 106.927V107.927H73.1404L73.3381 107.184L72.3718 106.927ZM70.592 106.927L69.6176 107.152L69.7965 107.927H70.592V106.927ZM68.131 96.2627V95.2627H66.874L67.1566 96.4876L68.131 96.2627ZM69.9694 96.2627L70.9487 96.0604L70.784 95.2627H69.9694V96.2627ZM71.6247 104.275L70.6454 104.478L72.5939 104.522L71.6247 104.275ZM73.6608 96.2627V95.2627H72.8831L72.6916 96.0164L73.6608 96.2627ZM75.2136 96.2627L76.1835 96.0193L75.9936 95.2627H75.2136V96.2627ZM78.2075 104.49L79.8481 96.4629L77.8886 96.0625L76.248 104.09L78.2075 104.49ZM78.8683 97.2627H80.7067V95.2627H78.8683V97.2627ZM79.7323 96.0378L77.2714 106.702L79.2202 107.152L81.6811 96.4876L79.7323 96.0378ZM78.2458 105.927H76.4733V107.927H78.2458V105.927ZM77.441 106.675L75.4122 98.889L73.4768 99.3933L75.5056 107.179L77.441 106.675ZM73.4782 98.8838L71.4054 106.669L73.3381 107.184L75.4109 99.3984L73.4782 98.8838ZM72.3718 105.927H70.592V107.927H72.3718V105.927ZM71.5664 106.702L69.1054 96.0378L67.1566 96.4876L69.6176 107.152L71.5664 106.702ZM68.131 97.2627H69.9694V95.2627H68.131V97.2627ZM68.9901 96.465L70.6454 104.478L72.604 104.073L70.9487 96.0604L68.9901 96.465ZM72.5939 104.522L74.63 96.509L72.6916 96.0164L70.6555 104.029L72.5939 104.522ZM73.6608 97.2627H75.2136V95.2627H73.6608V97.2627ZM74.2436 96.5061L76.2578 104.533L78.1976 104.047L76.1835 96.0193L74.2436 96.5061ZM86.3757 106.927L85.487 107.385L85.7665 107.927H86.3757V106.927ZM86.1706 106.187L87.1562 106.018L86.8211 104.063L85.4487 105.495L86.1706 106.187ZM82.1423 106.392L81.4721 107.134L82.1423 106.392ZM82.3254 102.767L82.909 103.579L82.9102 103.578L82.3254 102.767ZM86.112 102.085V103.085H87.112V102.085H86.112ZM85.7678 100.584L85.0324 101.262L85.0391 101.269L85.7678 100.584ZM83.7243 100.518L84.3362 101.309L84.3454 101.302L83.7243 100.518ZM83.3361 101.287V102.287H84.3361V101.287H83.3361ZM81.5563 101.287H80.5563V102.287H81.5563V101.287ZM81.9885 100.071L82.7822 100.68L82.786 100.675L81.9885 100.071ZM83.1603 99.1777L82.7642 98.2595L82.7609 98.261L83.1603 99.1777ZM87.0422 99.5586L86.3947 100.321L86.3987 100.324L87.0422 99.5586ZM87.8918 101.521H88.8918V101.513L88.8916 101.504L87.8918 101.521ZM88.1921 106.802H89.1921V106.578L89.0966 106.376L88.1921 106.802ZM88.1921 106.927V107.927H89.1921V106.927H88.1921ZM85.4089 105.389L84.929 104.511L84.9232 104.515L85.4089 105.389ZM86.112 104.7L86.991 105.177L87.112 104.954V104.7H86.112ZM86.112 103.206H87.112V102.206H86.112V103.206ZM83.5046 105.345L82.8303 106.083L82.8387 106.091L82.8472 106.098L83.5046 105.345ZM87.2643 106.468C87.2682 106.476 87.2534 106.448 87.2295 106.361C87.2067 106.279 87.1817 106.167 87.1562 106.018L85.185 106.356C85.2468 106.717 85.3349 107.091 85.487 107.385L87.2643 106.468ZM85.4487 105.495C85.0714 105.889 84.639 106.073 84.0905 106.073V108.073C85.1827 108.073 86.137 107.667 86.8924 106.879L85.4487 105.495ZM84.0905 106.073C83.4963 106.073 83.1002 105.91 82.8124 105.65L81.4721 107.134C82.1902 107.783 83.0929 108.073 84.0905 108.073V106.073ZM82.8124 105.65C82.5164 105.383 82.3879 105.089 82.3879 104.708H80.3879C80.3879 105.664 80.7623 106.493 81.4721 107.134L82.8124 105.65ZM82.3879 104.708C82.3879 104.148 82.5737 103.82 82.909 103.579L81.7417 101.955C80.827 102.612 80.3879 103.577 80.3879 104.708H82.3879ZM82.9102 103.578C83.3036 103.294 83.9638 103.085 85.0207 103.085V101.085C83.7436 101.085 82.6069 101.331 81.7406 101.955L82.9102 103.578ZM85.0207 103.085H86.112V101.085H85.0207V103.085ZM87.112 102.085V101.565H85.112V102.085H87.112ZM87.112 101.565C87.112 100.961 86.9374 100.368 86.4964 99.8991L85.0391 101.269C85.0571 101.288 85.112 101.35 85.112 101.565H87.112ZM86.5031 99.9063C86.0204 99.3825 85.3577 99.2104 84.7204 99.2104V101.21C84.8692 101.21 84.9554 101.231 84.9979 101.246C85.0346 101.259 85.0376 101.267 85.0324 101.262L86.5031 99.9063ZM84.7204 99.2104C84.1423 99.2104 83.576 99.3596 83.1032 99.7343L84.3454 101.302C84.3901 101.266 84.4879 101.21 84.7204 101.21V99.2104ZM83.1124 99.7271C82.6222 100.106 82.3361 100.649 82.3361 101.287H84.3361C84.3361 101.278 84.337 101.278 84.3355 101.285C84.3347 101.288 84.3336 101.292 84.3319 101.297C84.3302 101.302 84.3282 101.307 84.3259 101.311C84.321 101.321 84.3168 101.326 84.3163 101.327C84.316 101.327 84.3213 101.321 84.3362 101.309L83.1124 99.7271ZM83.3361 100.287H81.5563V102.287H83.3361V100.287ZM82.5563 101.287C82.5563 101.093 82.6151 100.898 82.7822 100.68L81.1947 99.4631C80.7856 99.9969 80.5563 100.613 80.5563 101.287H82.5563ZM82.786 100.675C82.9579 100.447 83.2037 100.25 83.5597 100.095L82.7609 98.261C82.1306 98.5356 81.5952 98.9336 81.1909 99.468L82.786 100.675ZM83.5564 100.096C83.9146 99.9414 84.3317 99.8555 84.8229 99.8555V97.8555C84.0934 97.8555 83.4021 97.9844 82.7642 98.2595L83.5564 100.096ZM84.8229 99.8555C85.5817 99.8555 86.0697 100.045 86.3947 100.321L87.6896 98.7965C86.9111 98.1351 85.9196 97.8555 84.8229 97.8555V99.8555ZM86.3987 100.324C86.6902 100.569 86.8813 100.928 86.8919 101.539L88.8916 101.504C88.8729 100.425 88.4976 99.4758 87.6857 98.7932L86.3987 100.324ZM86.8918 101.521V105.096H88.8918V101.521H86.8918ZM86.8918 105.096C86.8918 105.887 87.0004 106.619 87.2875 107.229L89.0966 106.376C88.9833 106.135 88.8918 105.731 88.8918 105.096H86.8918ZM87.1921 106.802V106.927H89.1921V106.802H87.1921ZM88.1921 105.927H86.3757V107.927H88.1921V105.927ZM84.4201 106.645C84.9418 106.645 85.4385 106.516 85.8945 106.263L84.9232 104.515C84.764 104.603 84.6015 104.645 84.4201 104.645V106.645ZM85.8887 106.266C86.3548 106.011 86.7351 105.649 86.991 105.177L85.233 104.223C85.1764 104.328 85.088 104.424 84.9291 104.511L85.8887 106.266ZM87.112 104.7V103.206H85.112V104.7H87.112ZM86.112 102.206H85.1525V104.206H86.112V102.206ZM85.1525 102.206C84.4072 102.206 83.6719 102.33 83.0971 102.728L84.2343 104.373C84.3236 104.311 84.5795 104.206 85.1525 104.206V102.206ZM83.0971 102.728C82.4822 103.153 82.1677 103.792 82.1677 104.524H84.1677C84.1677 104.449 84.1818 104.423 84.1825 104.421C84.1838 104.419 84.186 104.415 84.1916 104.409C84.1975 104.402 84.2102 104.39 84.2343 104.373L83.0971 102.728ZM82.1677 104.524C82.1677 105.109 82.3713 105.664 82.8303 106.083L84.1788 104.606C84.1741 104.602 84.1736 104.601 84.1748 104.602C84.1761 104.604 84.1769 104.606 84.1769 104.606C84.1768 104.606 84.1747 104.601 84.1725 104.588C84.1702 104.576 84.1677 104.555 84.1677 104.524H82.1677ZM82.8472 106.098C83.3011 106.494 83.8602 106.645 84.4201 106.645V104.645C84.2182 104.645 84.167 104.596 84.1619 104.591L82.8472 106.098ZM91.6491 106.927V107.927H92.6491V106.927H91.6491ZM89.8693 106.927H88.8693V107.927H89.8693V106.927ZM89.8693 95.6768V94.6768H88.8693V95.6768H89.8693ZM91.6491 95.6768H92.6491V94.6768H91.6491V95.6768ZM91.6491 105.927H89.8693V107.927H91.6491V105.927ZM90.8693 106.927V95.6768H88.8693V106.927H90.8693ZM89.8693 96.6768H91.6491V94.6768H89.8693V96.6768ZM90.6491 95.6768V106.927H92.6491V95.6768H90.6491ZM95.487 106.927V107.927H96.487V106.927H95.487ZM93.7072 106.927H92.7072V107.927H93.7072V106.927ZM93.7072 95.6768V94.6768H92.7072V95.6768H93.7072ZM95.487 95.6768H96.487V94.6768H95.487V95.6768ZM95.487 105.927H93.7072V107.927H95.487V105.927ZM94.7072 106.927V95.6768H92.7072V106.927H94.7072ZM93.7072 96.6768H95.487V94.6768H93.7072V96.6768ZM94.487 95.6768V106.927H96.487V95.6768H94.487ZM98.175 106.011L97.4606 106.711L97.4654 106.716L98.175 106.011ZM97.5817 100.833L96.6845 100.391L96.6831 100.394L97.5817 100.833ZM98.8708 99.3755L98.3388 98.5288L98.8708 99.3755ZM103.214 99.8882L102.452 100.536L102.455 100.539L103.214 99.8882ZM104.1 103.528V104.528H105.1V103.528H104.1ZM98.9221 103.528V102.528H97.8366L97.9254 103.61L98.9221 103.528ZM99.5739 105.081L98.8668 105.788L98.8713 105.793L99.5739 105.081ZM103.016 104.664L103.707 103.94L102.906 103.176L102.227 104.05L103.016 104.664ZM103.976 105.579L104.806 106.136L105.275 105.437L104.666 104.856L103.976 105.579ZM102.701 106.685L103.142 107.583L103.145 107.581L102.701 106.685ZM99.5226 100.796L98.774 100.133L98.7687 100.139L99.5226 100.796ZM98.9513 102.225L97.9605 102.09L97.8061 103.225H98.9513V102.225ZM102.342 102.225V103.225H103.342V102.225H102.342ZM102.342 102.093H103.342V102.06L103.34 102.027L102.342 102.093ZM101.866 100.745L101.125 101.416L101.13 101.422L101.866 100.745ZM100.922 106.073C100.022 106.073 99.3748 105.8 98.8845 105.307L97.4654 106.716C98.3814 107.638 99.5651 108.073 100.922 108.073V106.073ZM98.8894 105.312C98.4074 104.819 98.1276 104.141 98.1276 103.169H96.1276C96.1276 104.561 96.5461 105.777 97.4606 106.711L98.8894 105.312ZM98.1276 103.169V102.95H96.1276V103.169H98.1276ZM98.1276 102.95C98.1276 102.288 98.2534 101.736 98.4804 101.272L96.6831 100.394C96.3045 101.17 96.1276 102.029 96.1276 102.95H98.1276ZM98.4789 101.275C98.7106 100.804 99.0189 100.463 99.4028 100.222L98.3388 98.5288C97.6192 98.9809 97.0681 99.6121 96.6845 100.391L98.4789 101.275ZM99.4028 100.222C99.7884 99.98 100.218 99.8555 100.716 99.8555V97.8555C99.8578 97.8555 99.0567 98.0776 98.3388 98.5288L99.4028 100.222ZM100.716 99.8555C101.565 99.8555 102.094 100.115 102.453 100.536L103.976 99.2401C103.163 98.2848 102.026 97.8555 100.716 97.8555V99.8555ZM102.455 100.539C102.839 100.987 103.1 101.697 103.1 102.811H105.1C105.1 101.404 104.77 100.166 103.973 99.2369L102.455 100.539ZM103.1 102.811V103.528H105.1V102.811H103.1ZM104.1 102.528H98.9221V104.528H104.1V102.528ZM97.9254 103.61C97.9941 104.447 98.2839 105.205 98.8668 105.788L100.281 104.374C100.102 104.195 99.9574 103.918 99.9187 103.447L97.9254 103.61ZM98.8713 105.793C99.4586 106.372 100.201 106.652 101.024 106.652V104.652C100.685 104.652 100.461 104.551 100.276 104.369L98.8713 105.793ZM101.024 106.652C102.157 106.652 103.109 106.173 103.806 105.278L102.227 104.05C101.898 104.472 101.522 104.652 101.024 104.652V106.652ZM102.326 105.387L103.285 106.303L104.666 104.856L103.707 103.94L102.326 105.387ZM103.145 105.022C102.929 105.345 102.64 105.599 102.257 105.789L103.145 107.581C103.827 107.243 104.388 106.761 104.806 106.136L103.145 105.022ZM102.261 105.787C101.887 105.971 101.447 106.073 100.922 106.073V108.073C101.715 108.073 102.461 107.917 103.142 107.583L102.261 105.787ZM100.709 99.2837C99.9571 99.2837 99.281 99.561 98.774 100.133L100.271 101.459C100.37 101.348 100.485 101.284 100.709 101.284V99.2837ZM98.7687 100.139C98.3042 100.672 98.0606 101.353 97.9605 102.09L99.9422 102.359C100.008 101.875 100.145 101.604 100.277 101.453L98.7687 100.139ZM98.9513 103.225H102.342V101.225H98.9513V103.225ZM103.342 102.225V102.093H101.342V102.225H103.342ZM103.34 102.027C103.293 101.304 103.092 100.6 102.603 100.068L101.13 101.422C101.198 101.495 101.314 101.69 101.345 102.158L103.34 102.027ZM102.608 100.074C102.104 99.5175 101.427 99.2837 100.709 99.2837V101.284C100.978 101.284 101.072 101.358 101.125 101.416L102.608 100.074ZM107.718 97.0757H108.718V96.0757H107.718V97.0757ZM107.718 99.002H106.718V100.002H107.718V99.002ZM109.117 99.002H110.117V98.002H109.117V99.002ZM109.117 100.32V101.32H110.117V100.32H109.117ZM107.718 100.32V99.3203H106.718V100.32H107.718ZM107.894 105.403L107.135 106.054L107.147 106.069L107.16 106.083L107.894 105.403ZM109.161 105.528H110.161V104.269L108.935 104.554L109.161 105.528ZM109.161 106.905L109.428 107.868L110.161 107.665V106.905H109.161ZM105.939 100.32H106.939V99.3203H105.939V100.32ZM104.635 100.32H103.635V101.32H104.635V100.32ZM104.635 99.002V98.002H103.635V99.002H104.635ZM105.939 99.002V100.002H106.939V99.002H105.939ZM105.939 97.0757V96.0757H104.939V97.0757H105.939ZM106.718 97.0757V99.002H108.718V97.0757H106.718ZM107.718 100.002H109.117V98.002H107.718V100.002ZM108.117 99.002V100.32H110.117V99.002H108.117ZM109.117 99.3203H107.718V101.32H109.117V99.3203ZM106.718 100.32V104.744H108.718V100.32H106.718ZM106.718 104.744C106.718 105.136 106.787 105.648 107.135 106.054L108.653 104.753C108.684 104.788 108.703 104.82 108.714 104.843C108.72 104.854 108.723 104.863 108.726 104.869C108.728 104.875 108.729 104.878 108.729 104.878C108.729 104.878 108.728 104.876 108.727 104.87C108.726 104.864 108.724 104.856 108.723 104.844C108.721 104.821 108.718 104.788 108.718 104.744H106.718ZM107.16 106.083C107.57 106.525 108.14 106.601 108.539 106.601V104.601C108.45 104.601 108.425 104.591 108.44 104.596C108.46 104.602 108.543 104.632 108.628 104.724L107.16 106.083ZM108.539 106.601C108.824 106.601 109.107 106.567 109.388 106.502L108.935 104.554C108.795 104.586 108.664 104.601 108.539 104.601V106.601ZM108.161 105.528V106.905H110.161V105.528H108.161ZM108.894 105.941C108.566 106.032 108.265 106.073 107.989 106.073V108.073C108.466 108.073 108.946 108.002 109.428 107.868L108.894 105.941ZM107.989 106.073C107.487 106.073 107.286 105.939 107.192 105.836C107.082 105.714 106.939 105.433 106.939 104.81H104.939C104.939 105.696 105.137 106.546 105.71 107.179C106.3 107.83 107.125 108.073 107.989 108.073V106.073ZM106.939 104.81V100.32H104.939V104.81H106.939ZM105.939 99.3203H104.635V101.32H105.939V99.3203ZM105.635 100.32V99.002H103.635V100.32H105.635ZM104.635 100.002H105.939V98.002H104.635V100.002ZM106.939 99.002V97.0757H104.939V99.002H106.939ZM105.939 98.0757H107.718V96.0757H105.939V98.0757Z" fill="#FFF9F9" fill-opacity="0.3"/>
<path d="M84.3342 40.8731V33.422C84.3342 32.051 83.268 30.9383 81.9542 30.9383H51.0147C49.7009 30.9382 48.6348 32.051 48.6348 33.422V54.5339C48.6348 55.9049 49.7009 57.0176 51.0147 57.0176H81.9542C83.268 57.0176 84.3342 55.9049 84.3342 54.5339V47.0826C85.6479 47.0826 86.7141 45.9699 86.7141 44.5989V43.357C86.7143 41.9859 85.6491 40.8731 84.3342 40.8731Z" fill="#42957D"/>
<path d="M84.8342 40.4176V33.422C84.8342 31.7951 83.564 30.4383 81.9542 30.4383L51.0147 30.4383C51.0147 30.4383 51.0147 30.4383 51.0147 30.4383C49.4048 30.4382 48.1348 31.7952 48.1348 33.422V54.5339C48.1348 56.1607 49.4049 57.5176 51.0147 57.5176H81.9542C83.564 57.5176 84.8342 56.1607 84.8342 54.5339V47.538C86.1993 47.2915 87.2141 46.0531 87.2141 44.5989V43.3571C87.2141 43.357 87.2141 43.357 87.2141 43.357C87.2143 41.9027 86.2002 40.664 84.8342 40.4176Z" stroke="#FFF9F9" stroke-opacity="0.3"/>
<path d="M54.585 24.728H78.3846C79.6984 24.728 80.7646 25.8407 80.7646 27.213V44.598C80.7646 45.9702 79.6984 47.0817 78.3846 47.0817H54.585C53.2712 47.0817 52.2051 45.969 52.2051 44.598V27.213C52.2051 25.8407 53.2712 24.728 54.585 24.728Z" fill="#E4E7E7"/>
<path d="M78.3846 24.228H54.585C52.975 24.228 51.7051 25.585 51.7051 27.213V44.598C51.7051 46.2248 52.9752 47.5817 54.585 47.5817H78.3846C79.9943 47.5817 81.2646 46.2262 81.2646 44.598V27.213C81.2646 25.585 79.9946 24.228 78.3846 24.228Z" stroke="#FFF9F9" stroke-opacity="0.3"/>
<path d="M59.6588 30.9643C59.6588 30.9643 61.1023 30.9383 62.466 30.9383C63.831 30.9383 64.0725 33.3326 64.0725 33.3326C64.0725 33.3326 64.0975 35.8374 64.0975 36.4547C64.0975 37.0732 62.923 38.2989 62.923 38.2989V39.5569L66.4941 41.0471V43.357H55.7676L55.7795 40.9988L59.3541 39.5694V38.3375C59.3541 38.3375 58.1665 37.2285 58.1665 36.4549V33.3325C58.1665 33.3325 58.2689 30.9643 59.6588 30.9643Z" fill="#868686"/>
<path d="M64.0725 33.3326C64.57 33.2824 64.57 33.2823 64.57 33.2821L64.5699 33.2818L64.5699 33.2809L64.5696 33.2785L64.5688 33.2711L64.5659 33.2462C64.5634 33.2254 64.5597 33.1961 64.5545 33.1596C64.5442 33.0868 64.528 32.9845 64.5041 32.8624C64.4567 32.6203 64.377 32.2907 64.2476 31.9554C64.0109 31.3422 63.496 30.4383 62.466 30.4383C61.7813 30.4383 61.0773 30.4448 60.5449 30.4513C60.2786 30.4546 60.055 30.4579 59.8979 30.4603L59.7151 30.4633L59.6666 30.4641L59.6541 30.4643L59.654 30.4643C58.6062 30.4671 58.1251 31.3725 57.9176 31.9889C57.8049 32.3236 57.7431 32.6521 57.7091 32.8926C57.692 33.0141 57.6816 33.1158 57.6755 33.1883C57.6724 33.2246 57.6703 33.2538 57.669 33.2746L57.6676 33.2994L57.6672 33.3069L57.6671 33.3093L57.667 33.3102L57.667 33.3106C57.667 33.3108 57.667 33.3109 58.1665 33.3325L57.667 33.3109L57.6665 33.3217V33.3325V36.4549C57.6665 36.7655 57.782 37.0643 57.9091 37.3072C58.0403 37.5579 58.2092 37.7963 58.3687 37.9972C58.5295 38.1997 58.689 38.3745 58.8077 38.4982C58.8239 38.5151 58.8394 38.5311 58.8541 38.5461V39.2309L55.5938 40.5345L55.2812 40.6595L55.2795 40.9963L55.2676 43.3545L55.2651 43.857H55.7676H66.4941H66.9941V43.357V41.0471V40.714L66.6866 40.5857L63.423 39.2238V38.4941C63.441 38.474 63.4605 38.4522 63.4811 38.4289C63.5964 38.2985 63.7512 38.1166 63.9073 37.9126C64.0619 37.7105 64.2256 37.4766 64.3529 37.2432C64.471 37.0268 64.5975 36.7411 64.5975 36.4547C64.5975 36.1433 64.5912 35.3601 64.585 34.6578C64.5819 34.3059 64.5787 33.9734 64.5764 33.7289L64.5736 33.4366L64.5728 33.356L64.5726 33.3349L64.5725 33.3295L64.5725 33.3281L64.5725 33.3278L64.5725 33.3277L64.0725 33.3326ZM64.0725 33.3326L64.57 33.2824L64.5723 33.305L64.5725 33.3277L64.0725 33.3326Z" stroke="#FFF9F9" stroke-opacity="0.3"/>
<path d="M76.0047 35.9052H67.6748V38.3888H76.0047V35.9052Z" fill="#B7BBBD"/>
<path d="M76.5047 35.9052V35.4052H76.0047H67.6748H67.1748V35.9052V38.3888V38.8888H67.6748H76.0047H76.5047V38.3888V35.9052Z" stroke="#FFF9F9" stroke-opacity="0.3"/>
<path d="M76.0047 30.9377H67.6748V33.4227H76.0047V30.9377Z" fill="#B7BBBD"/>
<path d="M76.5047 30.9377V30.4377H76.0047H67.6748H67.1748V30.9377V33.4227V33.9227H67.6748H76.0047H76.5047V33.4227V30.9377Z" stroke="#FFF9F9" stroke-opacity="0.3"/>
<path d="M78.3847 24.728H54.585C53.2712 24.728 52.2051 25.8407 52.2051 27.2129V28.4536H80.7647V27.2129C80.7646 25.8407 79.6996 24.728 78.3847 24.728Z" fill="#B7BBBD"/>
<path d="M51.7051 28.4536V28.9536H52.2051H80.7647H81.2647V28.4536V27.2129V27.2129C81.2646 25.5852 79.9959 24.228 78.3847 24.228H54.585C52.9751 24.228 51.7051 25.585 51.7051 27.2129V28.4536Z" stroke="#FFF9F9" stroke-opacity="0.3"/>
<path d="M51.0147 34.6649L77.1943 38.3894C78.508 38.3894 79.5742 39.502 79.5742 40.8731V61.985C79.5742 63.3561 78.508 64.4687 77.1943 64.4687L51.0147 60.7432C49.7009 60.7432 48.6348 59.6304 48.6348 58.2594V32.18C48.6348 33.561 49.7009 34.6649 51.0147 34.6649Z" fill="#F4B459"/>
<path d="M51.0851 34.1699L51.0501 34.1649H51.0147C49.996 34.1649 49.1348 33.3042 49.1348 32.18H48.6348H48.1348V58.2594C48.1348 59.8737 49.3854 61.2223 50.9776 61.243L77.1238 64.9637L77.1589 64.9687H77.1943C78.8041 64.9687 80.0742 63.6119 80.0742 61.985V40.8731C80.0742 39.2587 78.8235 37.9102 77.2313 37.8896L51.0851 34.1699Z" stroke="#FFF9F9" stroke-opacity="0.3"/>
<path d="M74.2195 47.0824C75.2048 47.0824 76.0044 47.9169 76.0044 48.9451C76.0044 49.9734 75.2048 50.8079 74.2195 50.8079C73.2342 50.8079 72.4346 49.9746 72.4346 48.9451C72.4346 47.9157 73.2342 47.0824 74.2195 47.0824Z" fill="#E4E7E7"/>
<path d="M76.5044 48.9451C76.5044 47.6611 75.5008 46.5824 74.2195 46.5824C72.9384 46.5824 71.9346 47.6597 71.9346 48.9451C71.9346 50.2306 72.9384 51.3079 74.2195 51.3079C75.5008 51.3079 76.5044 50.2292 76.5044 48.9451Z" stroke="#FFF9F9" stroke-opacity="0.3"/>
<path d="M51.0147 60.7426L77.1943 64.4682C78.508 64.4682 79.5742 63.3556 79.5742 61.9845V57.017L51.0147 53.2913C49.7009 53.2913 48.6348 52.1872 48.6348 50.8076V58.2589C48.6348 59.631 49.7009 60.7426 51.0147 60.7426Z" fill="#266150"/>
<path d="M49.1348 50.8076H48.6348H48.1348V58.2589C48.1348 59.8745 49.3856 61.2217 50.9776 61.2424L77.1238 64.9632L77.1589 64.9682H77.1943C78.8041 64.9682 80.0742 63.6114 80.0742 61.9845V57.017V56.578L79.6389 56.5212L51.0794 52.7955L51.0472 52.7913H51.0147C49.9959 52.7913 49.1348 51.9303 49.1348 50.8076Z" stroke="#FFF9F9" stroke-opacity="0.3"/>
<path d="M80.7647 45.8404C80.7647 45.8404 86.7145 44.5451 86.7145 43.3567V47.0823C86.7145 47.0823 85.6484 49.566 84.3346 49.566L80.7647 50.8079C79.4498 50.8079 78.3848 49.6953 78.3848 48.3242C78.3848 46.953 79.4511 45.8404 80.7647 45.8404Z" fill="#266150"/>
<path d="M86.7145 43.3567H86.2145C86.2145 43.3343 86.2188 43.323 86.2187 43.3229C86.2185 43.3229 86.2036 43.3603 86.121 43.4361C86.0052 43.5422 85.817 43.6666 85.5551 43.802C85.0355 44.0709 84.3238 44.334 83.5883 44.5676C82.8577 44.7996 82.1247 44.9959 81.5726 45.1345C81.297 45.2036 81.0676 45.2582 80.9074 45.2953C80.8273 45.3139 80.7645 45.3281 80.722 45.3377L80.7073 45.341C79.1249 45.3728 77.8848 46.7166 77.8848 48.3242C77.8848 49.9509 79.1536 51.3079 80.7647 51.3079H80.8492L80.929 51.2802L84.427 50.0633C84.8767 50.0366 85.2667 49.819 85.5773 49.565C85.9119 49.2913 86.1988 48.9396 86.4281 48.6092C86.6594 48.2757 86.8446 47.9454 86.9715 47.7002C87.0352 47.577 87.085 47.4738 87.1192 47.4006C87.1363 47.364 87.1495 47.3348 87.1587 47.3142L87.1695 47.29L87.1725 47.283L87.1735 47.2808L87.1738 47.2801L87.1739 47.2798C87.1739 47.2796 87.174 47.2795 86.7145 47.0823L87.174 47.2795L87.2145 47.1851V47.0823V43.3567H86.7145Z" stroke="#FFF9F9" stroke-opacity="0.3"/>
</svg>
