<svg width="211" height="166" viewBox="0 0 211 166" fill="none" xmlns="http://www.w3.org/2000/svg">
<ellipse cx="107.499" cy="67.3702" rx="57.0846" ry="57.3702" fill="#8FBAAD"/>
<path d="M107.499 129.74C141.811 129.74 169.583 101.793 169.583 67.3702C169.583 32.9476 141.811 5 107.499 5C73.1868 5 45.4141 32.9476 45.4141 67.3702C45.4141 101.793 73.1868 129.74 107.499 129.74Z" stroke="white" stroke-opacity="0.8" stroke-width="10"/>
<ellipse cx="153.166" cy="36.161" rx="22.8338" ry="22.9481" fill="#A9CAC0"/>
<path d="M153.166 61.609C167.169 61.609 178.5 50.2038 178.5 36.161C178.5 22.1182 167.169 10.7129 153.166 10.7129C139.163 10.7129 127.832 22.1182 127.832 36.161C127.832 50.2038 139.163 61.609 153.166 61.609Z" stroke="white" stroke-opacity="0.3" stroke-width="5"/>
<g filter="url(#filter0_d_2166_563)">
<path d="M48.3828 146.914C48.3828 148.531 48.125 149.934 47.6094 151.121C47.1016 152.301 46.3867 153.238 45.4648 153.934L48.3945 156.219L46.4727 157.953L42.8398 155.082C42.3633 155.184 41.8516 155.234 41.3047 155.234C39.9297 155.234 38.6992 154.898 37.6133 154.227C36.5352 153.547 35.6992 152.582 35.1055 151.332C34.5195 150.082 34.2227 148.641 34.2148 147.008V146.047C34.2148 144.383 34.5078 142.914 35.0938 141.641C35.6875 140.367 36.5195 139.395 37.5898 138.723C38.668 138.043 39.8984 137.703 41.2812 137.703C42.6875 137.703 43.9258 138.039 44.9961 138.711C46.0742 139.375 46.9062 140.336 47.4922 141.594C48.0781 142.844 48.375 144.301 48.3828 145.965V146.914ZM45.4062 146.023C45.4062 144.102 45.0469 142.645 44.3281 141.652C43.6094 140.66 42.5938 140.164 41.2812 140.164C40.0078 140.164 39.0078 140.668 38.2812 141.676C37.5625 142.676 37.1953 144.09 37.1797 145.918V146.914C37.1797 148.758 37.5391 150.199 38.2578 151.238C38.9844 152.277 40 152.797 41.3047 152.797C42.625 152.797 43.6367 152.297 44.3398 151.297C45.0508 150.297 45.4062 148.836 45.4062 146.914V146.023ZM58.8008 153.758C57.9648 154.742 56.7773 155.234 55.2383 155.234C53.8633 155.234 52.8203 154.832 52.1094 154.027C51.4062 153.223 51.0547 152.059 51.0547 150.535V142.32H53.9023V150.5C53.9023 152.109 54.5703 152.914 55.9062 152.914C57.2891 152.914 58.2227 152.418 58.707 151.426V142.32H61.5547V155H58.8711L58.8008 153.758ZM72.0312 155C71.9062 154.758 71.7969 154.363 71.7031 153.816C70.7969 154.762 69.6875 155.234 68.375 155.234C67.1016 155.234 66.0625 154.871 65.2578 154.145C64.4531 153.418 64.0508 152.52 64.0508 151.449C64.0508 150.098 64.5508 149.062 65.5508 148.344C66.5586 147.617 67.9961 147.254 69.8633 147.254H71.6094V146.422C71.6094 145.766 71.4258 145.242 71.0586 144.852C70.6914 144.453 70.1328 144.254 69.3828 144.254C68.7344 144.254 68.2031 144.418 67.7891 144.746C67.375 145.066 67.168 145.477 67.168 145.977H64.3203C64.3203 145.281 64.5508 144.633 65.0117 144.031C65.4727 143.422 66.0977 142.945 66.8867 142.602C67.6836 142.258 68.5703 142.086 69.5469 142.086C71.0312 142.086 72.2148 142.461 73.0977 143.211C73.9805 143.953 74.4336 145 74.457 146.352V152.07C74.457 153.211 74.6172 154.121 74.9375 154.801V155H72.0312ZM68.9023 152.949C69.4648 152.949 69.9922 152.812 70.4844 152.539C70.9844 152.266 71.3594 151.898 71.6094 151.438V149.047H70.0742C69.0195 149.047 68.2266 149.23 67.6953 149.598C67.1641 149.965 66.8984 150.484 66.8984 151.156C66.8984 151.703 67.0781 152.141 67.4375 152.469C67.8047 152.789 68.293 152.949 68.9023 152.949ZM81.0078 139.238V142.32H83.2461V144.43H81.0078V151.508C81.0078 151.992 81.1016 152.344 81.2891 152.562C81.4844 152.773 81.8281 152.879 82.3203 152.879C82.6484 152.879 82.9805 152.84 83.3164 152.762V154.965C82.668 155.145 82.043 155.234 81.4414 155.234C79.2539 155.234 78.1602 154.027 78.1602 151.613V144.43H76.0742V142.32H78.1602V139.238H81.0078ZM92.0703 144.922C91.6953 144.859 91.3086 144.828 90.9102 144.828C89.6055 144.828 88.7266 145.328 88.2734 146.328V155H85.4258V142.32H88.1445L88.2148 143.738C88.9023 142.637 89.8555 142.086 91.0742 142.086C91.4805 142.086 91.8164 142.141 92.082 142.25L92.0703 144.922ZM99.2188 155.234C97.4141 155.234 95.9492 154.668 94.8242 153.535C93.707 152.395 93.1484 150.879 93.1484 148.988V148.637C93.1484 147.371 93.3906 146.242 93.875 145.25C94.3672 144.25 95.0547 143.473 95.9375 142.918C96.8203 142.363 97.8047 142.086 98.8906 142.086C100.617 142.086 101.949 142.637 102.887 143.738C103.832 144.84 104.305 146.398 104.305 148.414V149.562H96.0195C96.1055 150.609 96.4531 151.438 97.0625 152.047C97.6797 152.656 98.4531 152.961 99.3828 152.961C100.688 152.961 101.75 152.434 102.57 151.379L104.105 152.844C103.598 153.602 102.918 154.191 102.066 154.613C101.223 155.027 100.273 155.234 99.2188 155.234ZM98.8789 144.371C98.0977 144.371 97.4648 144.645 96.9805 145.191C96.5039 145.738 96.1992 146.5 96.0664 147.477H101.492V147.266C101.43 146.312 101.176 145.594 100.73 145.109C100.285 144.617 99.668 144.371 98.8789 144.371ZM126.16 150.781L128.785 137.938H131.727L127.789 155H124.953L121.707 142.543L118.391 155H115.543L111.605 137.938H114.547L117.195 150.758L120.453 137.938H122.938L126.16 150.781ZM140.797 155C140.672 154.758 140.562 154.363 140.469 153.816C139.562 154.762 138.453 155.234 137.141 155.234C135.867 155.234 134.828 154.871 134.023 154.145C133.219 153.418 132.816 152.52 132.816 151.449C132.816 150.098 133.316 149.062 134.316 148.344C135.324 147.617 136.762 147.254 138.629 147.254H140.375V146.422C140.375 145.766 140.191 145.242 139.824 144.852C139.457 144.453 138.898 144.254 138.148 144.254C137.5 144.254 136.969 144.418 136.555 144.746C136.141 145.066 135.934 145.477 135.934 145.977H133.086C133.086 145.281 133.316 144.633 133.777 144.031C134.238 143.422 134.863 142.945 135.652 142.602C136.449 142.258 137.336 142.086 138.312 142.086C139.797 142.086 140.98 142.461 141.863 143.211C142.746 143.953 143.199 145 143.223 146.352V152.07C143.223 153.211 143.383 154.121 143.703 154.801V155H140.797ZM137.668 152.949C138.23 152.949 138.758 152.812 139.25 152.539C139.75 152.266 140.125 151.898 140.375 151.438V149.047H138.84C137.785 149.047 136.992 149.23 136.461 149.598C135.93 149.965 135.664 150.484 135.664 151.156C135.664 151.703 135.844 152.141 136.203 152.469C136.57 152.789 137.059 152.949 137.668 152.949ZM149.234 155H146.387V137H149.234V155ZM155.375 155H152.527V137H155.375V155ZM164.07 155.234C162.266 155.234 160.801 154.668 159.676 153.535C158.559 152.395 158 150.879 158 148.988V148.637C158 147.371 158.242 146.242 158.727 145.25C159.219 144.25 159.906 143.473 160.789 142.918C161.672 142.363 162.656 142.086 163.742 142.086C165.469 142.086 166.801 142.637 167.738 143.738C168.684 144.84 169.156 146.398 169.156 148.414V149.562H160.871C160.957 150.609 161.305 151.438 161.914 152.047C162.531 152.656 163.305 152.961 164.234 152.961C165.539 152.961 166.602 152.434 167.422 151.379L168.957 152.844C168.449 153.602 167.77 154.191 166.918 154.613C166.074 155.027 165.125 155.234 164.07 155.234ZM163.73 144.371C162.949 144.371 162.316 144.645 161.832 145.191C161.355 145.738 161.051 146.5 160.918 147.477H166.344V147.266C166.281 146.312 166.027 145.594 165.582 145.109C165.137 144.617 164.52 144.371 163.73 144.371ZM174.945 139.238V142.32H177.184V144.43H174.945V151.508C174.945 151.992 175.039 152.344 175.227 152.562C175.422 152.773 175.766 152.879 176.258 152.879C176.586 152.879 176.918 152.84 177.254 152.762V154.965C176.605 155.145 175.98 155.234 175.379 155.234C173.191 155.234 172.098 154.027 172.098 151.613V144.43H170.012V142.32H172.098V139.238H174.945Z" fill="#8FBAAD"/>
</g>
<path d="M132.25 60.6479V48.4239C132.25 46.1746 130.57 44.3492 128.5 44.3492H79.7499C77.6799 44.349 76 46.1746 76 48.4239V83.0591C76 85.3083 77.6799 87.1337 79.7499 87.1337H128.5C130.57 87.1337 132.25 85.3083 132.25 83.0591V70.8349C134.32 70.8349 136 69.0095 136 66.7602V64.7228C136 62.4735 134.322 60.6479 132.25 60.6479Z" fill="#42957D"/>
<path d="M132.75 60.1789V48.4239C132.75 45.9384 130.885 43.8492 128.5 43.8492H79.75C79.75 43.8492 79.75 43.8492 79.7499 43.8492C77.3654 43.849 75.5 45.9385 75.5 48.4239V83.0591C75.5 85.5446 77.3655 87.6337 79.7499 87.6337H128.5C130.885 87.6337 132.75 85.5446 132.75 83.0591V71.3038C134.89 71.0359 136.5 69.0691 136.5 66.7602V64.7229C136.5 64.7228 136.5 64.7228 136.5 64.7228C136.5 62.4138 134.892 60.4466 132.75 60.1789Z" stroke="#FFF9F9" stroke-opacity="0.3"/>
<path d="M85.3749 34.1621H122.875C124.945 34.1621 126.625 35.9875 126.625 38.2388V66.7598C126.625 69.0111 124.945 70.8345 122.875 70.8345H85.3749C83.3049 70.8345 81.625 69.0091 81.625 66.7598V38.2388C81.625 35.9875 83.3049 34.1621 85.3749 34.1621Z" fill="#E4E7E7"/>
<path d="M122.875 33.6621H85.3749C82.9903 33.6621 81.125 35.7514 81.125 38.2388V66.7598C81.125 69.2453 82.9905 71.3345 85.3749 71.3345H122.875C125.259 71.3345 127.125 69.2475 127.125 66.7598V38.2388C127.125 35.7514 125.26 33.6621 122.875 33.6621Z" stroke="#FFF9F9" stroke-opacity="0.3"/>
<path d="M93.3696 44.3919C93.3696 44.3919 95.644 44.3492 97.7928 44.3492C99.9435 44.3492 100.324 48.2773 100.324 48.2773C100.324 48.2773 100.363 52.3866 100.363 53.3992C100.363 54.4139 98.5128 56.4248 98.5128 56.4248V58.4886L104.14 60.9333V64.7228H87.2383L87.257 60.854L92.8894 58.5091V56.488C92.8894 56.488 91.0182 54.6687 91.0182 53.3995V48.2771C91.0182 48.2771 91.1795 44.3919 93.3696 44.3919Z" fill="#868686"/>
<path d="M100.324 48.2773C100.822 48.2291 100.822 48.2289 100.822 48.2288L100.822 48.2284L100.822 48.2273L100.821 48.2241L100.82 48.2134L100.816 48.176C100.812 48.144 100.807 48.0984 100.799 48.0411C100.783 47.9266 100.759 47.7647 100.722 47.5711C100.65 47.1859 100.529 46.6655 100.334 46.1395C100.141 45.6185 99.8637 45.0602 99.4639 44.6248C99.0555 44.18 98.5029 43.8492 97.7928 43.8492C96.7155 43.8492 95.6073 43.8599 94.769 43.8706C94.3498 43.876 93.9977 43.8813 93.7504 43.8853L93.4627 43.8902L93.3866 43.8915L93.3669 43.8919L93.3647 43.8919C92.6498 43.8934 92.102 44.2188 91.7042 44.6672C91.3166 45.1041 91.0643 45.6628 90.8969 46.1807C90.7277 46.7039 90.6339 47.2209 90.5822 47.6029C90.5562 47.795 90.5404 47.9557 90.5311 48.0694C90.5265 48.1263 90.5234 48.1716 90.5215 48.2033L90.5194 48.2407L90.5189 48.2513L90.5188 48.2545L90.5187 48.2556L90.5187 48.256C90.5187 48.2562 90.5187 48.2563 91.0182 48.2771L90.5187 48.2563L90.5182 48.2667V48.2771V53.3995C90.5182 53.8293 90.6733 54.2628 90.8639 54.642C91.0581 55.0285 91.3116 55.402 91.5562 55.7229C91.8021 56.0453 92.0467 56.3245 92.2293 56.5227C92.2899 56.5885 92.344 56.6457 92.3894 56.6929V58.1757L87.0648 60.3924L86.7586 60.5199L86.757 60.8516L86.7383 64.7204L86.7359 65.2228H87.2383H104.14H104.64V64.7228V60.9333V60.6054L104.339 60.4747L99.0128 58.1606V56.6156C99.0597 56.5622 99.1175 56.4956 99.1831 56.4183C99.3616 56.208 99.6007 55.9155 99.841 55.5886C100.08 55.2635 100.327 54.8944 100.517 54.5321C100.699 54.1857 100.863 53.7796 100.863 53.3992C100.863 52.8902 100.854 51.6072 100.844 50.4543C100.839 49.8772 100.834 49.3317 100.83 48.9306L100.826 48.4511L100.825 48.3189L100.824 48.2843L100.824 48.2755L100.824 48.2733L100.824 48.2727L100.824 48.2726L100.324 48.2773ZM100.324 48.2773L100.822 48.2291L100.824 48.2507L100.824 48.2725L100.324 48.2773Z" stroke="#FFF9F9" stroke-opacity="0.3"/>
<path d="M119.125 52.4984H106V56.5729H119.125V52.4984Z" fill="#B7BBBD"/>
<path d="M119.625 52.4984V51.9984H119.125H106H105.5V52.4984V56.5729V57.0729H106H119.125H119.625V56.5729V52.4984Z" stroke="#FFF9F9" stroke-opacity="0.3"/>
<path d="M119.125 44.3484H106V48.4252H119.125V44.3484Z" fill="#B7BBBD"/>
<path d="M119.625 44.3484V43.8484H119.125H106H105.5V44.3484V48.4252V48.9252H106H119.125H119.625V48.4252V44.3484Z" stroke="#FFF9F9" stroke-opacity="0.3"/>
<path d="M122.875 34.1621H85.375C83.3049 34.1621 81.625 35.9875 81.625 38.2387V40.2741H126.625V38.2387C126.625 35.9875 124.947 34.1621 122.875 34.1621Z" fill="#B7BBBD"/>
<path d="M81.125 40.2741V40.7741H81.625H126.625H127.125V40.2741V38.2387C127.125 35.7515 125.262 33.6621 122.875 33.6621H85.375C82.9904 33.6621 81.125 35.7514 81.125 38.2387V40.2741Z" stroke="#FFF9F9" stroke-opacity="0.3"/>
<path d="M79.75 50.463L121 56.5731C123.07 56.5731 124.75 58.3985 124.75 60.6477V95.283C124.75 97.5323 123.07 99.3577 121 99.3577L79.75 93.2458C77.6799 93.2458 76 91.4202 76 89.1709V46.3863C76 48.6519 77.6799 50.463 79.75 50.463Z" fill="#F4B459"/>
<path d="M79.8232 49.9684L79.7868 49.963H79.75C77.9934 49.963 76.5 48.4146 76.5 46.3863H76H75.5V89.1709C75.5 91.6431 77.3456 93.7235 79.7119 93.7456L120.927 99.8523L120.963 99.8577H121C123.385 99.8577 125.25 97.7685 125.25 95.283V60.6477C125.25 58.1755 123.404 56.0953 121.038 56.0733L79.8232 49.9684Z" stroke="#FFF9F9" stroke-opacity="0.3"/>
<path d="M116.312 70.8347C117.865 70.8347 119.125 72.2038 119.125 73.8906C119.125 75.5774 117.865 76.9465 116.312 76.9465C114.76 76.9465 113.5 75.5795 113.5 73.8906C113.5 72.2017 114.76 70.8347 116.312 70.8347Z" fill="#E4E7E7"/>
<path d="M119.625 73.8906C119.625 71.9675 118.179 70.3347 116.312 70.3347C114.446 70.3347 113 71.9653 113 73.8906C113 75.8159 114.446 77.4465 116.312 77.4465C118.179 77.4465 119.625 75.8137 119.625 73.8906Z" stroke="#FFF9F9" stroke-opacity="0.3"/>
<path d="M79.75 93.2456L121 99.3577C123.07 99.3577 124.75 97.5323 124.75 95.283V87.1335L79.75 81.0214C77.6799 81.0214 76 79.2101 76 76.9467V89.1709C76 91.422 77.6799 93.2456 79.75 93.2456Z" fill="#266150"/>
<path d="M76.5 76.9467H76H75.5V89.1709C75.5 91.6451 77.3458 93.7233 79.7119 93.7454L120.927 99.8523L120.963 99.8577H121C123.385 99.8577 125.25 97.7685 125.25 95.283V87.1335V86.6968L124.817 86.638L79.8172 80.5259L79.7838 80.5214H79.75C77.9933 80.5214 76.5 78.9727 76.5 76.9467Z" stroke="#FFF9F9" stroke-opacity="0.3"/>
<path d="M126.625 68.7971C126.625 68.7971 136 66.6721 136 64.7225V70.8346C136 70.8346 134.32 74.9092 132.25 74.9092L126.625 76.9467C124.553 76.9467 122.875 75.1213 122.875 72.872C122.875 70.6225 124.555 68.7971 126.625 68.7971Z" fill="#266150"/>
<path d="M136 64.7225H135.5C135.5 64.7623 135.472 64.8857 135.252 65.0956C135.042 65.296 134.72 65.5142 134.298 65.7414C133.458 66.1939 132.319 66.6315 131.155 67.0162C129.997 67.3992 128.836 67.7227 127.963 67.9509C127.527 68.0648 127.164 68.1547 126.91 68.216C126.783 68.2466 126.684 68.2701 126.616 68.2859L126.566 68.2975C124.21 68.3315 122.375 70.4067 122.375 72.872C122.375 75.3573 124.238 77.4467 126.625 77.4467H126.713L126.795 77.4168L132.343 75.4071C132.99 75.3783 133.562 75.0546 134.033 74.6532C134.531 74.2293 134.965 73.6781 135.317 73.1491C135.672 72.6169 135.957 72.0879 136.153 71.6937C136.251 71.4961 136.328 71.3309 136.38 71.2143C136.406 71.156 136.426 71.1097 136.44 71.0775L136.456 71.0401L136.46 71.0297L136.461 71.0267L136.462 71.0257L136.462 71.0254C136.462 71.0253 136.462 71.0251 136 70.8346L136.462 71.0251L136.5 70.9336V70.8346V64.7225H136Z" stroke="#FFF9F9" stroke-opacity="0.3"/>
<defs>
<filter id="filter0_d_2166_563" x="30.2148" y="137" width="151.039" height="28.9531" filterUnits="userSpaceOnUse" color-interpolation-filters="sRGB">
<feFlood flood-opacity="0" result="BackgroundImageFix"/>
<feColorMatrix in="SourceAlpha" type="matrix" values="0 0 0 0 0 0 0 0 0 0 0 0 0 0 0 0 0 0 127 0" result="hardAlpha"/>
<feOffset dy="4"/>
<feGaussianBlur stdDeviation="2"/>
<feComposite in2="hardAlpha" operator="out"/>
<feColorMatrix type="matrix" values="0 0 0 0 0 0 0 0 0 0 0 0 0 0 0 0 0 0 0.25 0"/>
<feBlend mode="normal" in2="BackgroundImageFix" result="effect1_dropShadow_2166_563"/>
<feBlend mode="normal" in="SourceGraphic" in2="effect1_dropShadow_2166_563" result="shape"/>
</filter>
</defs>
</svg>
